<svg width="87" height="66" viewBox="0 0 87 66" fill="none" xmlns="http://www.w3.org/2000/svg">
<path d="M30.238 12.9146C30.6001 11.9662 30.8144 11.405 31.0287 10.8437C31.2097 10.3695 31.4491 9.91756 31.5644 9.44043C31.7953 8.39761 31.422 7.9446 30.3954 8.15143C29.4749 8.3433 28.5405 8.62969 27.7129 9.04551C22.7492 11.5635 17.8474 14.1827 13.4549 17.6284C12.4197 18.4418 11.3942 19.2589 10.1684 20.2212C12.8832 20.9362 15.3474 21.5776 17.8408 22.2301C19.4467 20.6811 21.0321 19.0687 22.7159 17.5494C23.5474 16.8024 24.498 16.1231 25.5038 15.62C27.142 14.804 28.674 15.522 28.9089 17.3303C29.1432 18.9943 29.0423 20.7187 28.9756 22.4119C28.9214 23.7218 28.7028 25.0243 28.5574 26.3104C31.4443 28.1223 34.6583 29.1941 36.6906 31.7552C38.4188 31.8716 40.0644 31.9122 41.6898 32.1225C43.2494 32.3299 44.7949 32.7204 46.4126 33.0386C47.5475 31.9639 48.6745 30.7642 49.9554 29.7453C51.0798 28.844 52.2942 27.9992 53.6001 27.4112C55.2685 26.6621 56.3103 27.204 56.7244 28.981C57.2116 31.063 57.5256 33.1898 57.8433 35.307C57.9641 36.1293 58.2629 36.6314 59.0433 37.0403C61.7978 38.4689 64.4775 40.0352 66.8313 42.3088C67.2315 41.8739 67.5913 41.4569 67.973 41.0704C70.5286 38.4647 73.0309 35.7942 75.6751 33.2777C76.7073 32.2969 77.9958 31.4915 79.3041 30.9266C82.222 29.6788 84.325 31.3244 83.8018 34.4178C83.6256 35.4926 83.0524 36.5267 82.5403 37.5176C82.361 37.8705 81.8109 38.0264 81.4286 38.2685C80.745 37.4309 81.31 36.9148 81.4585 36.3506C81.7034 35.4462 82.0373 34.5425 82.085 33.6293C82.1518 32.4906 81.4718 31.9648 80.374 32.2997C79.43 32.5824 78.4621 33.0444 77.7115 33.6671C76.0577 35.0205 74.4753 36.4787 72.9694 37.9994C71.3742 39.608 69.7619 41.2322 68.3961 43.0282C66.1595 45.9664 63.0639 46.8913 59.6189 47.1838C58.9376 47.2453 58.2433 47.2241 57.6366 47.2364C57.2055 49.8549 56.8298 52.3283 56.3786 54.795C56.1829 55.8623 55.7866 56.842 54.7693 57.4626C53.5492 58.2054 52.7119 58.296 51.6549 57.327C50.7374 56.4888 49.8485 55.5174 49.2402 54.4536C48.2109 52.6524 47.4174 50.7306 46.5261 48.8602C44.2362 49.6602 41.939 50.4797 39.6357 51.2857C38.5695 51.6548 37.5245 51.5885 36.4848 51.1582C35.085 50.5906 34.4883 49.6421 34.822 48.1839C34.9958 47.4075 35.3256 46.602 35.7778 45.9431C36.9778 44.1725 38.2737 42.4718 39.6324 40.6066C38.3761 38.6412 37.0302 36.5307 35.6904 34.4336C33.0253 35.2235 30.3872 36.0014 27.899 36.7369C27.4538 39.2169 27.0798 41.569 26.5914 43.8995C26.3131 45.2125 25.8532 46.5338 24.2116 46.7165C22.6528 46.8864 21.7411 45.8287 21.0271 44.6913C19.8797 42.8783 18.8606 40.9923 17.7841 39.1399C15.5652 39.579 13.2254 40.0717 10.88 40.4625C9.96451 40.6119 8.96785 40.6527 8.05482 40.5037C5.94154 40.1404 5.30043 38.7536 6.39705 36.9325C7.00915 35.9132 7.79502 34.9936 8.55172 34.0628C9.22517 33.2333 9.95564 32.4588 10.7573 31.5563C9.51537 29.6407 8.29293 27.7325 7.03992 25.846C6.38859 24.8655 6.10305 23.8029 6.05548 22.6427C6.0105 21.7385 6.34698 21.0908 7.01698 20.5039C12.8217 15.4906 19.0236 11.0725 26.0294 7.8484C27.2853 7.27452 28.614 6.7728 29.9685 6.52483C32.4153 6.07297 33.7425 7.6774 32.9457 10.0565C32.5621 11.2073 32.1526 12.4259 30.2709 12.9161L30.238 12.9146ZM7.288 22.7141C7.70679 23.6612 8.0125 24.5541 8.46725 25.3486C9.41431 26.9853 10.4114 28.6079 11.4561 30.1931C12.1074 31.1736 12.1018 31.9476 11.2988 32.8829C10.1433 34.2158 9.14076 35.6737 8.10671 37.0973C7.71222 37.6342 7.20563 38.1726 7.62442 39.1197C8.45763 39.1274 9.33681 39.2191 10.1912 39.1129C11.8866 38.9063 13.5809 38.644 15.2428 38.2917C18.4568 37.6116 18.4313 37.5907 20.0243 40.3389C20.75 41.5917 21.5391 42.8244 22.3796 44.0101C22.8338 44.6603 23.3107 45.3968 24.4453 45.2867C24.6559 44.735 24.9554 44.1841 25.0821 43.5894C25.5175 41.4271 25.9528 39.2648 26.2737 37.081C26.4691 35.7807 27.0445 35.0912 28.3795 34.8358C29.99 34.5303 31.5781 34.05 33.143 33.5719C33.8371 33.3601 34.46 32.9549 35.3608 32.5226C34.8026 31.999 34.4789 31.6204 34.0877 31.3602C32.2509 30.1267 30.477 28.7287 28.4964 27.7841C26.9293 27.0416 26.7652 26.0697 26.9234 24.6333C27.1483 22.7011 27.2721 20.7415 27.3557 18.7997C27.3791 18.1544 27.1357 17.5071 27.0118 16.8389C25.5497 16.9016 24.6997 17.697 23.8562 18.4172C22.3672 19.6893 20.9194 20.9994 19.525 22.3741C18.7176 23.1747 17.8444 23.4179 16.778 23.2325C14.9033 22.916 13.0336 22.557 11.1599 22.2962C9.99724 22.1295 8.78492 21.8885 7.27826 22.7103L7.288 22.7141ZM46.9882 47.0075C47.849 48.578 48.5485 49.9871 49.3628 51.3292C50.2824 52.8334 51.1604 54.3883 52.3048 55.7123C53.4275 57.0058 54.146 56.759 54.7033 55.1533C54.8612 54.6814 54.9741 54.1811 55.0639 53.6832C55.3528 51.8753 55.6186 50.0696 55.894 48.2676C56.0154 47.4824 56.1503 46.6911 56.2754 45.8962C57.9698 45.6339 59.4859 45.4587 60.9612 45.1571C62.473 44.8473 64.0335 44.556 65.4004 43.3703C64.8033 42.8319 64.391 42.364 63.8881 42.0168C62.2228 40.8598 60.6374 39.5227 58.8306 38.6777C56.523 37.5971 55.9005 35.8404 55.7308 33.5691C55.6156 31.9728 55.1665 30.4042 54.8134 28.5841C53.8196 29.1139 53.0303 29.4002 52.4107 29.8843C51.015 30.9703 49.6253 32.0697 48.391 33.3171C47.4 34.3359 46.3388 34.6626 44.9876 34.435C43.3649 34.1592 41.7371 33.9258 40.0983 33.7214C39.246 33.6178 38.3762 33.6184 37.1863 33.5522C37.6628 34.3772 37.9603 34.9121 38.2809 35.4448C39.0432 36.6894 39.7689 37.9422 40.5923 39.1436C41.2631 40.1315 41.1793 40.9644 40.4981 41.9018C39.5278 43.2168 38.634 44.5942 37.7403 45.9716C37.332 46.603 36.9261 47.2574 36.66 47.9542C36.0098 49.6574 36.5065 50.3128 38.2479 49.8688C40.1454 49.3957 41.9829 48.7002 43.8432 48.0909C44.7983 47.7792 45.7413 47.4407 46.9942 47.0209L46.9882 47.0075Z" fill="black"/>
<path d="M7.288 22.714C8.79466 21.8922 10.007 22.1333 11.1697 22.2999C13.0531 22.5644 14.913 22.9197 16.7877 23.2362C17.8541 23.4216 18.7274 23.1784 19.5347 22.3779C20.9194 20.9994 22.3769 19.693 23.8659 18.4209C24.7095 17.7007 25.5691 16.909 27.0215 16.8425C27.1454 17.5108 27.3949 18.1715 27.3654 18.8034C27.2782 20.7548 27.158 22.7048 26.9332 24.637C26.7615 26.0794 26.939 27.0453 28.5062 27.7878C30.4867 28.7324 32.2607 30.1304 34.0975 31.3639C34.4887 31.6241 34.8026 31.999 35.3706 32.5263C34.4795 32.9623 33.8468 33.3638 33.1528 33.5756C31.5781 34.05 29.9997 34.534 28.3892 34.8395C27.0542 35.0949 26.4788 35.7844 26.2834 37.0847C25.9625 39.2685 25.5272 41.4308 25.0919 43.5931C24.9749 44.1915 24.6656 44.7387 24.455 45.2903C23.3241 45.3908 22.8472 44.6543 22.3894 44.0138C21.5526 42.8184 20.7694 41.5991 20.034 40.3426C18.4313 37.5907 18.4665 37.6153 15.2525 38.2954C13.5907 38.6477 11.8866 38.9063 10.2009 39.1166C9.34654 39.2228 8.46736 39.1311 7.63415 39.1235C7.21167 38.186 7.73166 37.6416 8.11641 37.101C9.15047 35.6774 10.1664 34.2136 11.3085 32.8866C12.1115 31.9513 12.1172 31.1773 11.4658 30.1968C10.4211 28.6116 9.42035 26.9987 8.47698 25.3523C8.01251 24.5541 7.71653 23.6649 7.29774 22.7178L7.288 22.714Z" fill="white"/>
<path d="M46.9882 47.0075C45.7414 47.4407 44.7923 47.7658 43.8371 48.0775C41.9768 48.6867 40.1393 49.3823 38.2419 49.8554C36.5041 50.2897 35.9977 49.6306 36.654 47.9408C36.92 47.244 37.3259 46.5896 37.7342 45.9582C38.628 44.5808 39.5218 43.2034 40.492 41.8884C41.183 40.9547 41.2668 40.1218 40.5863 39.1302C39.7629 37.9288 39.0274 36.6723 38.2749 35.4314C37.9506 34.9084 37.6568 34.3638 37.1802 33.5387C38.3701 33.605 39.2436 33.5947 40.0922 33.708C41.7213 33.9087 43.3588 34.1457 44.9815 34.4215C46.3328 34.6491 47.3843 34.3188 48.385 33.3037C49.6096 32.0526 51.0126 30.9472 52.4046 29.8709C53.0243 29.3868 53.8136 29.1004 54.8074 28.5706C55.1567 30.4005 55.6059 31.969 55.7248 33.5557C55.9042 35.8307 56.5266 37.5874 58.8246 38.6643C60.641 39.513 62.2265 40.8501 63.8821 42.0034C64.385 42.3506 64.8069 42.8222 65.3943 43.3569C64.014 44.5486 62.467 44.8338 60.9551 45.1437C59.4762 45.455 57.9638 45.6205 56.2694 45.8828C56.1443 46.6777 56.0131 47.4593 55.888 48.2542C55.6125 50.0562 55.3431 51.8715 55.0579 53.6698C54.9815 54.1618 54.8686 54.662 54.6973 55.1399C54.14 56.7456 53.4215 56.9924 52.2988 55.6989C51.1543 54.3749 50.2629 52.826 49.3567 51.3158C48.5424 49.9737 47.843 48.5646 46.9821 46.9941L46.9882 47.0075Z" fill="white"/>
</svg>
