<svg width="373" height="648" viewBox="0 0 373 648" fill="none" xmlns="http://www.w3.org/2000/svg">
<g id="booth-machine">
<path id="Photobooth" d="M128.894 54.386V37.634H134.99C136.542 37.634 137.726 38.058 138.542 38.906C139.358 39.754 139.766 40.938 139.766 42.458C139.766 43.978 139.358 45.162 138.542 46.01C137.726 46.858 136.542 47.282 134.99 47.282H130.91V54.386H128.894ZM130.91 45.53H134.942C135.79 45.53 136.446 45.322 136.91 44.906C137.39 44.474 137.63 43.866 137.63 43.082V41.834C137.63 41.05 137.39 40.45 136.91 40.034C136.446 39.602 135.79 39.386 134.942 39.386H130.91V45.53ZM143.477 36.626H145.397V44.018H145.493C145.621 43.714 145.781 43.426 145.973 43.154C146.165 42.866 146.397 42.618 146.669 42.41C146.957 42.202 147.293 42.034 147.677 41.906C148.061 41.778 148.509 41.714 149.021 41.714C150.317 41.714 151.357 42.13 152.141 42.962C152.925 43.778 153.317 44.938 153.317 46.442V54.386H151.397V46.778C151.397 45.642 151.149 44.802 150.653 44.258C150.157 43.698 149.429 43.418 148.469 43.418C148.085 43.418 147.709 43.466 147.341 43.562C146.973 43.658 146.645 43.802 146.357 43.994C146.069 44.186 145.837 44.434 145.661 44.738C145.485 45.042 145.397 45.394 145.397 45.794V54.386H143.477V36.626ZM162.715 54.674C161.851 54.674 161.067 54.522 160.363 54.218C159.675 53.914 159.083 53.482 158.587 52.922C158.107 52.346 157.739 51.666 157.483 50.882C157.227 50.082 157.099 49.186 157.099 48.194C157.099 47.218 157.227 46.33 157.483 45.53C157.739 44.73 158.107 44.05 158.587 43.49C159.083 42.914 159.675 42.474 160.363 42.17C161.067 41.866 161.851 41.714 162.715 41.714C163.579 41.714 164.355 41.866 165.043 42.17C165.747 42.474 166.339 42.914 166.819 43.49C167.315 44.05 167.691 44.73 167.947 45.53C168.203 46.33 168.331 47.218 168.331 48.194C168.331 49.186 168.203 50.082 167.947 50.882C167.691 51.666 167.315 52.346 166.819 52.922C166.339 53.482 165.747 53.914 165.043 54.218C164.355 54.522 163.579 54.674 162.715 54.674ZM162.715 53.018C163.787 53.018 164.651 52.698 165.307 52.058C165.963 51.418 166.291 50.426 166.291 49.082V47.306C166.291 45.962 165.963 44.97 165.307 44.33C164.651 43.69 163.787 43.37 162.715 43.37C161.643 43.37 160.779 43.69 160.123 44.33C159.467 44.97 159.139 45.962 159.139 47.306V49.082C159.139 50.426 159.467 51.418 160.123 52.058C160.779 52.698 161.643 53.018 162.715 53.018ZM177.706 54.386C176.762 54.386 176.066 54.122 175.618 53.594C175.186 53.066 174.97 52.386 174.97 51.554V43.634H170.842V42.002H173.914C174.33 42.002 174.618 41.922 174.778 41.762C174.954 41.586 175.042 41.29 175.042 40.874V37.634H176.89V42.002H182.53V43.634H176.89V52.754H182.53V54.386H177.706ZM191.497 54.674C190.633 54.674 189.849 54.522 189.145 54.218C188.457 53.914 187.865 53.482 187.369 52.922C186.889 52.346 186.521 51.666 186.265 50.882C186.009 50.082 185.881 49.186 185.881 48.194C185.881 47.218 186.009 46.33 186.265 45.53C186.521 44.73 186.889 44.05 187.369 43.49C187.865 42.914 188.457 42.474 189.145 42.17C189.849 41.866 190.633 41.714 191.497 41.714C192.361 41.714 193.137 41.866 193.825 42.17C194.529 42.474 195.121 42.914 195.601 43.49C196.097 44.05 196.473 44.73 196.729 45.53C196.985 46.33 197.113 47.218 197.113 48.194C197.113 49.186 196.985 50.082 196.729 50.882C196.473 51.666 196.097 52.346 195.601 52.922C195.121 53.482 194.529 53.914 193.825 54.218C193.137 54.522 192.361 54.674 191.497 54.674ZM191.497 53.018C192.569 53.018 193.433 52.698 194.089 52.058C194.745 51.418 195.073 50.426 195.073 49.082V47.306C195.073 45.962 194.745 44.97 194.089 44.33C193.433 43.69 192.569 43.37 191.497 43.37C190.425 43.37 189.561 43.69 188.905 44.33C188.249 44.97 187.921 45.962 187.921 47.306V49.082C187.921 50.426 188.249 51.418 188.905 52.058C189.561 52.698 190.425 53.018 191.497 53.018ZM200.967 36.626H202.887V44.018H202.983C203.783 42.482 205.055 41.714 206.799 41.714C208.319 41.714 209.503 42.282 210.351 43.418C211.215 44.554 211.647 46.146 211.647 48.194C211.647 50.242 211.215 51.834 210.351 52.97C209.503 54.106 208.319 54.674 206.799 54.674C205.055 54.674 203.783 53.906 202.983 52.37H202.887V54.386H200.967V36.626ZM206.055 52.97C207.175 52.97 208.039 52.634 208.647 51.962C209.271 51.274 209.583 50.37 209.583 49.25V47.138C209.583 46.018 209.271 45.122 208.647 44.45C208.039 43.762 207.175 43.418 206.055 43.418C205.623 43.418 205.215 43.474 204.831 43.586C204.447 43.698 204.111 43.866 203.823 44.09C203.535 44.298 203.303 44.562 203.127 44.882C202.967 45.186 202.887 45.546 202.887 45.962V50.426C202.887 50.842 202.967 51.21 203.127 51.53C203.303 51.834 203.535 52.098 203.823 52.322C204.111 52.53 204.447 52.69 204.831 52.802C205.215 52.914 205.623 52.97 206.055 52.97ZM220.278 54.674C219.414 54.674 218.63 54.522 217.926 54.218C217.238 53.914 216.646 53.482 216.15 52.922C215.67 52.346 215.302 51.666 215.046 50.882C214.79 50.082 214.662 49.186 214.662 48.194C214.662 47.218 214.79 46.33 215.046 45.53C215.302 44.73 215.67 44.05 216.15 43.49C216.646 42.914 217.238 42.474 217.926 42.17C218.63 41.866 219.414 41.714 220.278 41.714C221.142 41.714 221.918 41.866 222.606 42.17C223.31 42.474 223.902 42.914 224.382 43.49C224.878 44.05 225.254 44.73 225.51 45.53C225.766 46.33 225.894 47.218 225.894 48.194C225.894 49.186 225.766 50.082 225.51 50.882C225.254 51.666 224.878 52.346 224.382 52.922C223.902 53.482 223.31 53.914 222.606 54.218C221.918 54.522 221.142 54.674 220.278 54.674ZM220.278 53.018C221.35 53.018 222.214 52.698 222.87 52.058C223.526 51.418 223.854 50.426 223.854 49.082V47.306C223.854 45.962 223.526 44.97 222.87 44.33C222.214 43.69 221.35 43.37 220.278 43.37C219.206 43.37 218.342 43.69 217.686 44.33C217.03 44.97 216.702 45.962 216.702 47.306V49.082C216.702 50.426 217.03 51.418 217.686 52.058C218.342 52.698 219.206 53.018 220.278 53.018ZM234.668 54.674C233.804 54.674 233.02 54.522 232.316 54.218C231.628 53.914 231.036 53.482 230.54 52.922C230.06 52.346 229.692 51.666 229.436 50.882C229.18 50.082 229.052 49.186 229.052 48.194C229.052 47.218 229.18 46.33 229.436 45.53C229.692 44.73 230.06 44.05 230.54 43.49C231.036 42.914 231.628 42.474 232.316 42.17C233.02 41.866 233.804 41.714 234.668 41.714C235.532 41.714 236.308 41.866 236.996 42.17C237.7 42.474 238.292 42.914 238.772 43.49C239.268 44.05 239.644 44.73 239.9 45.53C240.156 46.33 240.284 47.218 240.284 48.194C240.284 49.186 240.156 50.082 239.9 50.882C239.644 51.666 239.268 52.346 238.772 52.922C238.292 53.482 237.7 53.914 236.996 54.218C236.308 54.522 235.532 54.674 234.668 54.674ZM234.668 53.018C235.74 53.018 236.604 52.698 237.26 52.058C237.916 51.418 238.244 50.426 238.244 49.082V47.306C238.244 45.962 237.916 44.97 237.26 44.33C236.604 43.69 235.74 43.37 234.668 43.37C233.596 43.37 232.732 43.69 232.076 44.33C231.42 44.97 231.092 45.962 231.092 47.306V49.082C231.092 50.426 231.42 51.418 232.076 52.058C232.732 52.698 233.596 53.018 234.668 53.018ZM249.659 54.386C248.715 54.386 248.019 54.122 247.571 53.594C247.139 53.066 246.923 52.386 246.923 51.554V43.634H242.795V42.002H245.867C246.283 42.002 246.571 41.922 246.731 41.762C246.907 41.586 246.995 41.29 246.995 40.874V37.634H248.843V42.002H254.483V43.634H248.843V52.754H254.483V54.386H249.659ZM258.602 36.626H260.522V44.018H260.618C260.746 43.714 260.906 43.426 261.098 43.154C261.29 42.866 261.522 42.618 261.794 42.41C262.082 42.202 262.418 42.034 262.802 41.906C263.186 41.778 263.634 41.714 264.146 41.714C265.442 41.714 266.482 42.13 267.266 42.962C268.05 43.778 268.442 44.938 268.442 46.442V54.386H266.522V46.778C266.522 45.642 266.274 44.802 265.778 44.258C265.282 43.698 264.554 43.418 263.594 43.418C263.21 43.418 262.834 43.466 262.466 43.562C262.098 43.658 261.77 43.802 261.482 43.994C261.194 44.186 260.962 44.434 260.786 44.738C260.61 45.042 260.522 45.394 260.522 45.794V54.386H258.602V36.626Z" fill="black"/>
<path id="Vector" d="M1.37009 98.0525C7.07356 97.4891 12.517 97.2719 27.2746 97.0765C37.6791 96.9388 55.4626 96.7592 75.3685 97.0765C94.9933 97.3894 125.26 97.1654 136.777 97.0801L137.26 97.0765C150.273 96.9803 162.843 97.757 188.917 97.0765C202.417 96.7242 223.624 98.0005 239.6 97.0765C255.576 96.1526 270.525 97.7216 281.998 97.0766C293.471 96.4317 301.616 96.9091 313.188 97.0765C342.834 97.5054 339.865 97.4098 343.006 97.0765C347.167 96.8376 355.345 96.4554 358.642 97.0765C360.219 97.3183 362.431 96.9809 363.854 97.0765M370.93 644.464C370.93 644.513 370.847 650.9 369.776 573.088L369.763 572.167C368.688 494.053 366.558 339.247 365.148 249.548C363.732 159.496 363.106 139.784 363.015 128.316C362.924 116.848 363.386 114.222 363.629 110.508C363.871 106.794 363.879 102.073 363.887 97.209M2.07617 646.204C7.60838 646.204 0.687029 646.175 23.1829 646.204C45.6787 646.233 44.6463 645.741 105.544 644.361C166.443 642.981 278.048 644.361 317.849 644.361H358.196C361.871 644.361 370.282 644.172 371.186 644.361M101.711 644.268C101.711 644.222 102.214 649.666 100.843 586.275C99.474 522.977 102.765 402.243 100.843 330.548C98.9208 258.852 100.337 238.549 100.843 223.093C101.348 207.636 99.7617 188.095 100.843 174.502C102.648 151.809 102.356 136.809 102.356 136.809V98.6023M289.999 641.651C289.999 641.385 289.999 641.12 289.66 611.264C289.321 581.409 288.643 521.971 287.747 451.852C286.85 381.733 285.757 302.733 285.266 261.323C284.776 219.913 284.922 218.486 285.135 207.459C285.348 196.432 285.625 175.848 285.766 154.793C285.907 133.738 285.904 112.836 285.903 102.951C285.901 93.0667 285.901 94.833 285.901 96.6528M1.23583 425.826H17.4192C34.5129 425.826 68.0425 427.619 101.633 426.226M286.945 422.42H369.037M100.489 82.222C100.489 81.5364 99.4086 62.6989 99.2555 35.7166C98.6969 21.5084 98.4617 17.2542 98.1053 13.783C97.9841 11.353 97.9841 7.56547 97.9841 3.66321C98.24 3.66321 115.613 3.66324 142.817 3.53943C159.104 3.46532 173.429 2.64055 187.237 1.38433C201.046 0.12811 211.659 2.42104 233.776 1.64396C257.994 0.79304 268.415 3.02491 272.173 2.42104C278.623 1.38433 278.623 2.42104 281.857 1.64396C283.031 1.36184 293.06 1.42854 296.267 1.64396M296.268 1V16.0598C296.268 30.1946 294.979 57.9301 294.979 72.3057C294.979 76.1592 294.553 83.4183 294.553 83.4183M100.928 82.252C100.939 82.252 100.95 82.252 120.373 82.5931C139.796 82.9342 178.63 83.6165 199.184 84.0595C220.84 84.5262 228.952 85.0266 240.185 85.1279C248.898 84.121 263.463 85.5801 274.112 84.0595C280.101 83.7994 283.688 83.6086 294.387 83.6086M139.934 83.2928V96.315M136.591 83.6046L136.296 96.3151M246.485 85.4688V95.9524M250.062 84.1799V96.7394M116.3 97.3508V108.687C116.3 119.778 116.3 141.834 116.412 153.961C116.525 166.088 116.749 167.618 116.936 187.232C117.124 206.846 117.269 244.499 117.776 286.399C118.284 328.299 119.471 370.243 117.292 416.096M131.009 413.828C131.021 413.828 131.229 414.43 131.59 384.64L131.619 382.282C131.988 351.801 132.683 294.443 133.51 263.081C134.359 230.892 135.325 227.897 135.952 220.909C138.713 190.139 137.828 189.303 137.828 175.523V97.3625M159.46 98.964L159.462 136.168C159.464 172.684 159.468 245.361 160.799 288.33C162.129 331.298 160.799 340.046 160.799 349.366V379.038C160.799 384.038 162.012 387.792 162.012 393.214C162.012 398.304 162.486 401.302 162.486 403.55C162.486 405.528 161.317 412.813 161.317 415.774M183.277 97.3102V123.909C183.277 148.267 181.724 194.626 184.078 232.852C186.432 271.079 181.724 294.814 184.078 318.727C186.431 342.639 185.502 361.822 185.509 373.206C185.518 389.125 185.063 383.483 184.078 396.738C183.8 400.481 183.521 401.845 183.521 405.006C183.521 406.692 183.521 410.29 182.612 413.589M212.695 97.7969C212.695 98.3444 209.694 105.722 210.165 135.094C210.637 164.465 216.396 216.574 216.982 247.233C217.568 277.892 216.982 278.117 216.982 292.62C216.982 310.315 217.52 332.195 218.282 335.718C219.645 342.023 220.344 360.696 220.838 367.751C221.264 373.835 222.354 387.106 222.893 414.071M239.667 97.209C239.667 97.7514 236.395 109.096 236.866 138.193C237.337 167.291 243.097 218.912 243.683 249.286C244.269 279.659 243.683 279.881 243.683 294.249C243.683 311.778 244.221 333.454 244.983 336.945C246.346 343.19 247.045 361.689 247.539 368.678C247.965 374.705 249.055 387.852 249.594 414.565M269.426 98.8667C269.426 99.0021 268.007 121.06 268.007 138.809C268.007 156.557 266.438 170.913 271.095 218.469C275.752 266.025 270.015 313.646 270.015 348.336C270.015 370.384 270.898 377.334 270.898 387.184C270.898 397.681 270.498 403.88 270.498 403.88L270.024 413.349M100.807 591.354C100.955 591.354 134.424 589.769 165.135 590.032C177.206 590.135 185.606 590.861 198.98 591.354C218.952 591.254 227.103 590.239 238.737 590.035C249.128 589.903 268.628 589.714 288.719 589.52M288.381 491.708C284.59 491.708 270.165 493.589 264.25 498.133C262.904 499.167 262.364 500.797 261.993 502.076C261.621 503.355 261.688 504.503 262.227 505.339C264.77 509.282 272.274 508.669 276.96 509.555C278.108 509.808 279.335 510.037 280.74 510.156C282.145 510.274 285.952 510.727 287.545 510.727M261.929 503.41C261.929 508.135 262.948 519.609 264.283 521.311C268.476 522.613 275.014 524.626 280.752 524.626C283.783 524.626 287.853 525.239 288.694 525.353M288.586 595.614C288.527 595.614 285.688 596.752 284.444 597.726C282.949 598.896 283.321 600.82 283.059 601.958C281.94 606.83 283.51 609.491 284.931 613.262C285.533 613.991 286.427 614.453 287.238 614.738C288.05 615.022 288.752 615.115 289.475 615.211M2.54191 646.14C2.54191 644.771 2.57732 639.976 2.32212 557.464C2.06693 474.953 1.02372 312.502 1.00049 225.006C0.977262 137.51 1.78872 125.523 1.78872 125.523L1.64029 98.5562M117.252 416.65C117.238 416.664 118.673 416.419 120.904 416.023C121.79 415.866 122.718 415.634 124.197 415.302C124.843 415.157 125.272 415.034 126.269 414.832C127.266 414.631 128.816 414.348 129.676 414.202C130.535 414.056 130.657 414.056 131.002 414.088C131.347 414.12 131.911 414.185 134.825 414.274C137.74 414.364 142.987 414.476 145.753 414.549C148.518 414.622 148.643 414.651 149.443 414.724C150.244 414.797 151.715 414.912 152.644 415C154.477 415.174 155.369 415.272 156.952 415.358C158.087 415.42 159.787 415.49 160.957 415.63C161.238 415.675 161.444 415.735 161.657 415.796M160.408 415.99C160.429 415.969 160.449 415.948 162.252 415.844C164.054 415.74 167.639 415.554 169.838 415.401C172.037 415.249 172.742 415.136 173.987 415.009C175.232 414.882 176.994 414.745 178.088 414.637C180.29 414.42 181.113 414.364 182.596 414.341C183.959 414.32 186.562 414.33 188.742 414.294C190.922 414.257 192.599 414.187 193.613 414.16C194.627 414.133 194.927 414.152 195.236 414.171M193.852 414.128C193.953 414.118 194.054 414.109 196.807 414.011C199.56 413.914 204.962 413.729 209.42 413.66C213.878 413.591 217.228 413.644 219.035 413.68C220.843 413.715 221.005 413.733 224.356 413.833C227.706 413.934 234.24 414.118 237.688 414.229C241.606 414.355 242.637 414.833 242.637 414.833L243.564 414.893C243.564 414.893 245.806 414.627 246.192 414.833M244.677 414.835C244.677 414.815 245.217 414.831 247.609 414.692C249.465 414.584 252.609 414.171 254.315 413.959C256.022 413.747 256.192 413.689 257.098 413.606C258.004 413.523 259.642 413.417 261.525 413.344C263.409 413.27 265.489 413.232 266.871 413.307C268.889 413.417 270.563 413.879 272.714 414.055C273.815 414.146 274.943 414.142 276.916 414.463C278.888 414.784 281.673 415.404 283.169 415.749C284.789 416.145 285.154 416.282 285.576 416.426C285.747 416.48 285.867 416.508 286.079 416.559L286.131 416.572M19.7126 171.135C19.7356 171.135 19.7585 171.135 23.1143 171.001C26.47 170.866 33.1551 170.429 36.7616 170.429H46.2416C49.4715 170.429 57.3208 169.898 61.3235 170.188C65.3263 170.478 70.8044 170.429 70.8044 170.429L73.7924 170.308L75.2498 170.429L76.9337 170.513L79.3224 170.513M19.5521 172.004C19.5521 172.097 19.5521 172.189 19.493 181.336L19.4868 182.292C19.4259 191.702 19.314 209.008 19.2699 218.284C19.2167 229.461 19.7079 231.487 19.959 233.146C20.0149 233.557 20.0389 233.915 20.0752 234.268C20.1116 234.621 20.1596 234.958 20.2817 235.67M20.2817 235.815C21.641 235.992 24.706 236.351 28.3229 236.434C30.801 236.491 35.4047 236.38 38.4404 236.215C42.8207 235.977 46.4813 235.289 53.1097 235.02C57.3079 234.849 63.3489 234.997 67.14 235.09L67.4589 235.098C72.2963 235.313 74.0042 235.465 75.073 235.549C75.4938 235.603 78.0796 235.243 79.4106 235.457M79.4106 235.457C79.5562 235.48 79.6867 235.51 79.7978 235.549M79.4106 235.457C79.4117 235.497 79.4123 235.533 79.4123 235.566M79.4106 235.457C79.3962 234.944 79.3014 233.68 79.4123 227.077C79.464 224.001 78.9153 222.212 79.4124 218.379C80.2317 212.06 79.563 207.158 79.8784 203.494C79.9846 202.261 80.1359 197.732 80.1231 190.705C80.1111 184.106 79.5405 181.541 79.4124 179.306C79.3262 177.536 79.1898 176.165 79.1328 174.226C79.1206 173.352 79.0962 171.973 79.071 170.551M31.5989 332.308C31.6116 332.308 31.6244 332.308 33.4885 332.241C35.3526 332.174 39.0662 331.956 41.0696 331.956H46.3358C48.13 331.956 52.4903 331.692 54.7139 331.836C56.9374 331.981 59.9805 331.956 59.9805 331.956L61.6404 331.896L62.45 331.956L63.3854 331.998L64.7123 331.998M31.8851 332.897C31.8851 333.009 31.8851 333.122 31.826 344.271L31.8198 345.436C31.7589 356.905 31.647 377.998 31.6029 389.304C31.5497 402.928 32.0409 405.397 32.292 407.419C32.3479 407.92 32.3719 408.356 32.4082 408.786C32.4446 409.216 32.4926 409.627 32.6147 410.495M33.4227 410.31C34.166 410.362 35.842 410.467 37.8197 410.491C39.1749 410.507 41.6922 410.475 43.3522 410.427C45.7474 410.358 47.7491 410.157 51.3736 410.078C53.6693 410.029 56.9726 410.072 59.0457 410.099L59.22 410.101C61.8651 410.164 62.799 410.208 63.3835 410.233C63.6387 410.25 65.351 410.119 65.9671 410.233M65.0537 410.055C65.0537 409.514 64.934 408.431 65.0537 399.981C65.1053 396.33 64.5567 394.207 65.0537 389.658C65.873 382.159 65.2043 376.342 65.5198 371.993C65.6259 370.53 64.7252 367.638 64.7124 359.298C64.7004 351.467 64.7124 349.492 65.0537 343.287C65.1692 341.187 64.8311 339.559 64.7741 337.257C64.7619 336.221 64.7375 334.584 64.7124 332.897M41.5558 366.609H54.2644M40.4595 366.43L40.4605 370.84C40.4616 375.132 40.4636 383.655 40.4902 388.296C40.5197 393.44 40.6265 394.657 40.6481 395.837C40.6636 396.316 40.6884 396.55 40.7011 397.269C40.7139 397.989 40.7139 399.186 40.7139 400.419L41.7389 400.421C42.7457 400.422 44.7497 400.426 47.1672 400.434C49.5847 400.441 52.3549 400.453 55.504 400.578M55.3309 400.534C55.3309 400.454 55.3309 400.374 55.2963 397.676C55.2616 394.978 55.1924 389.666 55.1143 386.641C55.0363 383.616 54.9516 383.04 54.8991 380.145C54.8467 377.251 54.8291 372.055 54.6345 366.702M41.3827 335.849L43.0614 335.848C44.679 335.848 47.8828 335.846 49.7588 335.793C51.6347 335.74 52.0857 335.637 52.4533 335.581C52.8208 335.526 53.0912 335.522 53.3698 335.518M53.1935 335.518V336.513C53.1935 337.413 53.1935 339.163 53.0681 340.966M41.3756 341.975H53.6064M41.6963 342.021V340.919C41.6963 339.794 41.6963 337.535 41.6808 336.43C41.6652 335.325 41.6342 335.444 41.6182 335.56C41.6022 335.677 41.6022 335.787 41.6022 335.74V335.273" stroke="black" stroke-width="2" stroke-linecap="round"/>
<path id="enter" d="M38.9985 316.532C38.9985 316.786 38.9266 317.049 38.7827 317.32C38.6473 317.59 38.4696 317.84 38.2495 318.069C38.0295 318.289 37.7756 318.471 37.4878 318.615C37.2085 318.758 36.9292 318.83 36.6499 318.83C36.2521 318.83 35.9093 318.754 35.6216 318.602C35.3338 318.441 35.0841 318.229 34.8726 317.967C34.661 317.696 34.4875 317.392 34.3521 317.053C34.2251 316.714 34.1235 316.367 34.0474 316.012C33.9712 315.648 33.9162 315.288 33.8823 314.933C33.8569 314.569 33.8442 314.239 33.8442 313.943C33.8442 313.689 33.8569 313.388 33.8823 313.041C33.9162 312.694 33.967 312.335 34.0347 311.962C34.1108 311.59 34.2124 311.222 34.3394 310.858C34.4663 310.494 34.6229 310.168 34.8091 309.88C35.0037 309.592 35.2323 309.36 35.4946 309.182C35.7655 309.004 36.0744 308.915 36.4214 308.915C36.6922 308.915 36.9334 308.97 37.145 309.08C37.3651 309.19 37.547 309.338 37.6909 309.525C37.8433 309.702 37.9575 309.91 38.0337 310.147C38.1183 310.384 38.1606 310.629 38.1606 310.883C38.1606 311.213 38.0845 311.573 37.9321 311.962C37.7798 312.351 37.5809 312.728 37.3354 313.092C37.0985 313.456 36.8276 313.786 36.5229 314.082C36.2267 314.37 35.9305 314.59 35.6343 314.742C35.6512 314.895 35.6851 315.119 35.7358 315.415C35.7866 315.703 35.8543 315.991 35.939 316.279C36.0321 316.566 36.1379 316.816 36.2563 317.028C36.3833 317.239 36.5314 317.345 36.7007 317.345C36.7853 317.345 36.8573 317.32 36.9165 317.269C36.9842 317.218 37.0435 317.15 37.0942 317.066C37.145 316.981 37.1873 316.888 37.2212 316.786C37.2635 316.685 37.3016 316.587 37.3354 316.494L37.4116 316.317C37.4285 316.291 37.437 316.274 37.437 316.266C37.4455 316.257 37.4539 316.245 37.4624 316.228C37.5216 316.118 37.5767 316.016 37.6274 315.923C37.6867 315.83 37.7671 315.75 37.8687 315.682H37.856C37.8898 315.648 37.9237 315.631 37.9575 315.631C37.9998 315.623 38.0379 315.618 38.0718 315.618C38.1649 315.618 38.2664 315.648 38.3765 315.707C38.4865 315.767 38.5881 315.843 38.6812 315.936C38.7743 316.02 38.8504 316.118 38.9097 316.228C38.9689 316.329 38.9985 316.431 38.9985 316.532ZM36.4849 310.934C36.4849 310.849 36.4806 310.76 36.4722 310.667C36.4637 310.574 36.4425 310.494 36.4087 310.426C36.2902 310.57 36.1844 310.743 36.0913 310.947C36.0067 311.141 35.9347 311.349 35.8755 311.569C35.8162 311.78 35.7655 311.996 35.7231 312.216C35.6893 312.436 35.6639 312.639 35.647 312.825C35.867 312.563 36.0617 312.267 36.231 311.937C36.4002 311.598 36.4849 311.264 36.4849 310.934ZM41.6899 318.792C41.6899 318.987 41.6307 319.114 41.5122 319.173C41.4022 319.232 41.2668 319.262 41.106 319.262C40.9621 319.262 40.8182 319.249 40.6743 319.224C40.5389 319.207 40.4077 319.169 40.2808 319.11C40.1623 319.05 40.0565 318.97 39.9634 318.868C39.8787 318.767 39.8195 318.636 39.7856 318.475C39.6672 317.967 39.5994 317.472 39.5825 316.99C39.5656 316.499 39.5571 315.995 39.5571 315.479V313.917C39.5571 313.206 39.5868 312.47 39.646 311.708C39.7052 310.938 39.7687 310.198 39.8364 309.487C39.8364 309.461 39.8407 309.432 39.8491 309.398C39.8576 309.364 39.8618 309.338 39.8618 309.322C39.8703 309.228 39.883 309.127 39.8999 309.017C39.9168 308.907 39.9422 308.809 39.9761 308.725C40.0184 308.632 40.0734 308.556 40.1411 308.496C40.2173 308.437 40.3146 308.407 40.4331 308.407C40.5685 308.407 40.6955 308.437 40.814 308.496C40.9409 308.547 41.0509 308.619 41.144 308.712C41.2371 308.797 41.3091 308.903 41.3599 309.03C41.4191 309.156 41.4487 309.288 41.4487 309.423C41.4487 309.567 41.4445 309.728 41.436 309.906C41.4276 310.075 41.4149 310.236 41.3979 310.388C41.3979 310.43 41.3937 310.477 41.3853 310.528C41.3853 310.578 41.381 310.625 41.3726 310.667C41.491 310.43 41.6265 310.185 41.7788 309.931C41.9312 309.669 42.1047 309.432 42.2993 309.22C42.5024 309 42.7225 308.822 42.9595 308.687C43.2049 308.551 43.4757 308.484 43.772 308.484C44.0174 308.484 44.2205 308.522 44.3813 308.598C44.5422 308.674 44.6691 308.784 44.7622 308.928C44.8638 309.063 44.9315 309.224 44.9653 309.41C45.0076 309.597 45.0288 309.795 45.0288 310.007C45.0288 310.295 45.0203 310.587 45.0034 310.883C44.9865 311.171 44.9696 311.459 44.9526 311.746C44.9272 312.043 44.9061 312.335 44.8892 312.622C44.8722 312.91 44.8638 313.202 44.8638 313.498C44.8638 313.854 44.8722 314.222 44.8892 314.603C44.9061 314.975 44.9315 315.335 44.9653 315.682C44.9992 316.02 45.0373 316.329 45.0796 316.609C45.1219 316.879 45.1642 317.091 45.2065 317.243C45.2404 317.37 45.2743 317.518 45.3081 317.688C45.3504 317.849 45.3885 318.018 45.4224 318.196C45.4647 318.365 45.4985 318.53 45.5239 318.691C45.5493 318.851 45.562 318.995 45.562 319.122C45.562 319.309 45.4858 319.427 45.3335 319.478C45.1896 319.529 45.0457 319.554 44.9019 319.554C44.758 319.554 44.5929 319.541 44.4067 319.516C44.229 319.499 44.0682 319.452 43.9243 319.376C43.7466 319.249 43.6281 319.072 43.5688 318.843C43.5181 318.615 43.4842 318.39 43.4673 318.17L43.4292 317.827C43.4038 317.624 43.37 317.358 43.3276 317.028C43.2853 316.698 43.243 316.334 43.2007 315.936C43.1668 315.538 43.1372 315.128 43.1118 314.704C43.0864 314.273 43.0737 313.854 43.0737 313.448C43.0737 313.084 43.0864 312.732 43.1118 312.394C43.1457 312.055 43.1795 311.712 43.2134 311.365C43.2303 311.188 43.243 311.044 43.2515 310.934C43.2599 310.824 43.2726 310.68 43.2896 310.502C43.1203 310.773 42.951 311.09 42.7817 311.454C42.6125 311.818 42.4517 312.199 42.2993 312.597C42.147 312.986 42.0073 313.367 41.8804 313.74C41.7619 314.112 41.6688 314.438 41.6011 314.717L41.5249 314.996C41.4826 315.132 41.4445 315.267 41.4106 315.403C41.3853 315.538 41.3726 315.665 41.3726 315.783C41.3726 315.936 41.381 316.114 41.3979 316.317C41.4149 316.511 41.436 316.698 41.4614 316.875C41.4868 317.087 41.5164 317.303 41.5503 317.523C41.5503 317.54 41.5588 317.595 41.5757 317.688C41.5926 317.781 41.6095 317.891 41.6265 318.018C41.6434 318.145 41.6561 318.28 41.6646 318.424C41.6815 318.559 41.6899 318.682 41.6899 318.792ZM49.3325 318.538C49.3325 318.631 49.3114 318.712 49.269 318.78C49.2267 318.839 49.1717 318.885 49.104 318.919C49.0448 318.953 48.9771 318.974 48.9009 318.983C48.8332 319 48.7655 319.008 48.6978 319.008C48.6047 319.008 48.4946 318.995 48.3677 318.97C48.2492 318.953 48.1307 318.923 48.0122 318.881C47.8937 318.839 47.7837 318.788 47.6821 318.729C47.589 318.661 47.5171 318.581 47.4663 318.488C47.4155 318.403 47.369 318.246 47.3267 318.018C47.2928 317.781 47.2632 317.51 47.2378 317.205C47.2124 316.892 47.1912 316.562 47.1743 316.215C47.1574 315.86 47.1405 315.521 47.1235 315.199C47.1151 314.878 47.1066 314.59 47.0981 314.336C47.0981 314.074 47.0981 313.879 47.0981 313.752C47.0981 313.16 47.1066 312.588 47.1235 312.038C47.1489 311.48 47.1743 310.908 47.1997 310.324C47.1574 310.324 47.1151 310.329 47.0728 310.337C47.0304 310.346 46.9881 310.35 46.9458 310.35C46.8358 310.367 46.7215 310.379 46.603 310.388C46.493 310.396 46.3787 310.401 46.2603 310.401C46.1164 310.401 45.9894 310.375 45.8794 310.324C45.7694 310.274 45.7144 310.159 45.7144 309.982C45.7144 309.77 45.7609 309.601 45.854 309.474C45.9471 309.347 46.0656 309.25 46.2095 309.182C46.3534 309.106 46.5099 309.055 46.6792 309.03C46.8485 308.996 47.0135 308.97 47.1743 308.953C47.1997 308.953 47.2166 308.953 47.2251 308.953C47.2336 308.945 47.2505 308.941 47.2759 308.941C47.2843 308.839 47.2928 308.716 47.3013 308.573C47.3097 308.42 47.3182 308.255 47.3267 308.077C47.3351 307.798 47.3478 307.502 47.3647 307.189C47.3817 306.867 47.3986 306.562 47.4155 306.275C47.4325 305.978 47.4536 305.72 47.479 305.5C47.5044 305.272 47.5298 305.111 47.5552 305.018C47.5975 304.908 47.644 304.819 47.6948 304.751C47.7541 304.684 47.8599 304.65 48.0122 304.65C48.3507 304.65 48.6131 304.76 48.7993 304.98C48.9855 305.2 49.0786 305.471 49.0786 305.792C49.0786 306.165 49.0659 306.537 49.0405 306.909C49.0236 307.282 49.0067 307.658 48.9897 308.039L48.9517 308.687C49.1632 308.661 49.3748 308.623 49.5864 308.573C49.7896 308.53 49.9927 308.492 50.1958 308.458C50.4074 308.424 50.6105 308.407 50.8052 308.407C50.9744 308.407 51.1056 308.454 51.1987 308.547C51.2918 308.632 51.3384 308.759 51.3384 308.928C51.3384 309.114 51.3045 309.296 51.2368 309.474C51.1691 309.652 51.0506 309.787 50.8813 309.88H50.894C50.8602 309.897 50.7586 309.922 50.5894 309.956C50.4201 309.982 50.2254 310.007 50.0054 310.032C49.7938 310.058 49.5822 310.083 49.3706 310.109C49.1675 310.134 49.0151 310.151 48.9136 310.159H48.9009C48.884 310.633 48.8713 311.103 48.8628 311.569C48.8543 312.026 48.8501 312.491 48.8501 312.965C48.8501 313.617 48.867 314.311 48.9009 315.047C48.9432 315.775 49.0109 316.469 49.104 317.129L49.2056 317.7C49.2394 317.844 49.269 317.988 49.2944 318.132C49.3198 318.267 49.3325 318.403 49.3325 318.538ZM56.2134 316.532C56.2134 316.786 56.1414 317.049 55.9976 317.32C55.8621 317.59 55.6844 317.84 55.4644 318.069C55.2443 318.289 54.9904 318.471 54.7026 318.615C54.4233 318.758 54.144 318.83 53.8647 318.83C53.467 318.83 53.1242 318.754 52.8364 318.602C52.5487 318.441 52.299 318.229 52.0874 317.967C51.8758 317.696 51.7023 317.392 51.5669 317.053C51.4399 316.714 51.3384 316.367 51.2622 316.012C51.186 315.648 51.131 315.288 51.0972 314.933C51.0718 314.569 51.0591 314.239 51.0591 313.943C51.0591 313.689 51.0718 313.388 51.0972 313.041C51.131 312.694 51.1818 312.335 51.2495 311.962C51.3257 311.59 51.4272 311.222 51.5542 310.858C51.6812 310.494 51.8377 310.168 52.0239 309.88C52.2186 309.592 52.4471 309.36 52.7095 309.182C52.9803 309.004 53.2892 308.915 53.6362 308.915C53.9071 308.915 54.1483 308.97 54.3599 309.08C54.5799 309.19 54.7619 309.338 54.9058 309.525C55.0581 309.702 55.1724 309.91 55.2485 310.147C55.3332 310.384 55.3755 310.629 55.3755 310.883C55.3755 311.213 55.2993 311.573 55.147 311.962C54.9946 312.351 54.7957 312.728 54.5503 313.092C54.3133 313.456 54.0425 313.786 53.7378 314.082C53.4416 314.37 53.1453 314.59 52.8491 314.742C52.866 314.895 52.8999 315.119 52.9507 315.415C53.0015 315.703 53.0692 315.991 53.1538 316.279C53.2469 316.566 53.3527 316.816 53.4712 317.028C53.5981 317.239 53.7463 317.345 53.9155 317.345C54.0002 317.345 54.0721 317.32 54.1313 317.269C54.1991 317.218 54.2583 317.15 54.3091 317.066C54.3599 316.981 54.4022 316.888 54.436 316.786C54.4784 316.685 54.5164 316.587 54.5503 316.494L54.6265 316.317C54.6434 316.291 54.6519 316.274 54.6519 316.266C54.6603 316.257 54.6688 316.245 54.6772 316.228C54.7365 316.118 54.7915 316.016 54.8423 315.923C54.9015 315.83 54.9819 315.75 55.0835 315.682H55.0708C55.1047 315.648 55.1385 315.631 55.1724 315.631C55.2147 315.623 55.2528 315.618 55.2866 315.618C55.3797 315.618 55.4813 315.648 55.5913 315.707C55.7013 315.767 55.8029 315.843 55.896 315.936C55.9891 316.02 56.0653 316.118 56.1245 316.228C56.1838 316.329 56.2134 316.431 56.2134 316.532ZM53.6997 310.934C53.6997 310.849 53.6955 310.76 53.687 310.667C53.6785 310.574 53.6574 310.494 53.6235 310.426C53.505 310.57 53.3993 310.743 53.3062 310.947C53.2215 311.141 53.1496 311.349 53.0903 311.569C53.0311 311.78 52.9803 311.996 52.938 312.216C52.9041 312.436 52.8787 312.639 52.8618 312.825C53.0819 312.563 53.2765 312.267 53.4458 311.937C53.6151 311.598 53.6997 311.264 53.6997 310.934ZM57.9907 319.059C57.8638 319.059 57.7241 319.042 57.5718 319.008C57.4279 318.974 57.2882 318.919 57.1528 318.843C57.0259 318.767 56.9159 318.674 56.8228 318.564C56.7381 318.445 56.6958 318.306 56.6958 318.145C56.6958 317.908 56.7043 317.675 56.7212 317.447C56.7466 317.21 56.772 316.977 56.7974 316.748V316.761L56.8735 315.91C56.8989 315.606 56.9201 315.271 56.937 314.907C56.9539 314.544 56.9666 314.175 56.9751 313.803C56.992 313.422 57.0047 313.05 57.0132 312.686C57.0216 312.322 57.0259 311.988 57.0259 311.683C57.0259 311.505 57.0216 311.327 57.0132 311.15C57.0132 310.963 57.0132 310.777 57.0132 310.591C57.0047 310.43 57.0005 310.253 57.0005 310.058C57.0005 309.855 57.0005 309.669 57.0005 309.499C57.0005 309.322 57.0216 309.178 57.064 309.068C57.1147 308.949 57.2502 308.89 57.4702 308.89C57.6649 308.89 57.868 308.941 58.0796 309.042C58.2996 309.144 58.452 309.288 58.5366 309.474H58.5239C58.5662 309.567 58.5959 309.719 58.6128 309.931C58.6382 310.134 58.6551 310.316 58.6636 310.477C58.8075 310.257 58.9683 310.024 59.146 309.779C59.3322 309.533 59.5311 309.309 59.7427 309.106C59.9543 308.894 60.1785 308.721 60.4155 308.585C60.6525 308.45 60.9064 308.382 61.1772 308.382C61.5327 308.382 61.8035 308.471 61.9897 308.649C62.1759 308.826 62.3114 309.051 62.396 309.322C62.4806 309.584 62.5272 309.867 62.5356 310.172C62.5441 310.468 62.5483 310.739 62.5483 310.985V311.086C62.5483 311.188 62.5441 311.289 62.5356 311.391C62.5356 311.484 62.5187 311.573 62.4849 311.657C62.4595 311.734 62.4087 311.797 62.3325 311.848C62.2648 311.899 62.1675 311.924 62.0405 311.924C61.9051 311.924 61.7612 311.907 61.6089 311.873C61.4565 311.831 61.3127 311.772 61.1772 311.696C61.0503 311.619 60.9403 311.526 60.8472 311.416C60.7541 311.298 60.7033 311.162 60.6948 311.01C60.6948 310.942 60.6948 310.875 60.6948 310.807C60.6948 310.739 60.6991 310.671 60.7075 310.604C60.7075 310.561 60.7075 310.511 60.7075 310.451C60.716 310.384 60.7202 310.32 60.7202 310.261C60.4494 310.532 60.2082 310.866 59.9966 311.264C59.7935 311.662 59.6073 312.085 59.438 312.533C59.2772 312.982 59.1375 313.435 59.019 313.892C58.9006 314.34 58.799 314.747 58.7144 315.111V315.149C58.689 315.411 58.672 315.669 58.6636 315.923C58.6551 316.177 58.6466 316.439 58.6382 316.71C58.6297 317.015 58.617 317.324 58.6001 317.637C58.5916 317.95 58.5705 318.255 58.5366 318.551C58.5197 318.712 58.4689 318.835 58.3843 318.919C58.3081 319.012 58.1769 319.059 57.9907 319.059Z" fill="black"/>
</g>
</svg>
