<svg width="70" height="58" viewBox="0 0 70 58" fill="none" xmlns="http://www.w3.org/2000/svg">
<path d="M66.5288 22.206C66.5854 22.0142 66.5996 21.7712 66.727 21.5793C68.4257 19.0215 67.9161 18.3949 65.1557 17.052C63.4854 16.2335 61.8574 15.3639 60.1729 14.5837C58.3326 13.7269 57.9363 13.8803 56.9878 15.5941C56.6764 16.144 56.365 16.6939 56.0394 17.2311C56.0111 17.2822 55.8978 17.295 55.6572 17.3845C47.3619 13.9187 38.9675 10.4145 30.4599 6.85913C30.8279 6.16852 31.0827 5.68253 31.3375 5.20934C32.2152 3.61071 32.1444 3.18867 30.474 2.42132C28.7895 1.64119 27.0484 0.950585 25.2789 0.362288C23.2688 -0.315532 22.8441 -0.110908 21.7258 1.56446C21.4143 2.02486 21.1312 2.48527 20.8198 2.98404C20.1403 2.95847 19.5458 2.93289 18.9512 2.90731C17.3516 2.81779 16.0635 3.38051 15.1716 4.54431C14.4355 5.50349 13.7844 6.51383 13.2323 7.56253C9.25452 14.9802 5.30503 22.4106 1.35556 29.8411C1.28479 29.9817 1.1998 30.1224 1.12902 30.2631C-0.71123 33.7929 -0.470547 35.3915 3.11087 37.6552C7.06034 40.149 11.1372 42.515 15.3839 44.5357C21.8531 47.6179 28.4497 50.4954 35.1313 53.1811C39.2789 54.8565 43.6389 56.1354 47.9848 57.3759C52.1607 58.5653 55.4732 57.4782 57.4408 53.795C60.9798 47.1447 64.547 40.4944 68.0293 33.8185C68.6805 32.5651 69.1052 31.1967 69.544 29.8539C70.4358 27.117 69.6856 24.7894 67.2366 22.9478C67.0384 22.7943 66.8545 22.6408 66.6704 22.4746C66.6138 22.4234 66.5854 22.3339 66.5288 22.2444V22.206ZM11.4487 15.3127C13.0766 12.2177 14.5346 9.22511 16.2192 6.34757C17.4082 4.30132 18.4416 4.01996 20.9047 4.69778C21.8107 4.94078 22.6883 5.27329 23.5518 5.63138C36.2213 10.8877 48.8907 16.1312 61.5319 21.4259C63.089 22.0781 64.5328 22.935 65.9909 23.7535C67.7321 24.7254 68.3408 26.2729 67.9586 27.9867C67.1942 31.3502 65.4247 34.3556 63.726 37.6935C57.8938 35.3276 52.3306 33.0767 46.6541 30.7619C47.0646 27.5135 45.7481 24.815 43.2567 22.7304C41.6571 21.3875 39.6328 20.39 37.6935 19.4436C33.9705 17.6147 30.3608 18.024 27.1191 20.4283C26.1707 21.1317 25.4062 21.2596 24.3446 20.7992C20.1544 18.9959 15.9502 17.2183 11.4628 15.3127H11.4487ZM57.1153 49.8432C56.7331 50.5977 56.4357 51.2372 56.0818 51.851C55.643 52.6056 55.2042 53.3729 54.6663 54.0763C53.01 56.3016 51.9059 56.6981 49.0181 55.9563C46.2011 55.2273 43.37 54.5239 40.6521 53.5392C28.3224 49.0502 16.4315 43.7684 5.33334 37.1308C4.27166 36.4914 3.30905 35.6857 2.40308 34.8672C1.76607 34.2917 1.52544 33.5627 1.97842 32.7314C3.09673 30.7235 4.17257 28.7156 5.16348 26.874C9.89151 28.7796 14.3506 30.6084 18.8521 32.3477C20.1686 32.8593 20.8764 33.5371 21.1453 34.8544C21.8673 38.4609 24.4012 40.7629 28.0392 42.1569C32.1727 43.7556 36.2355 43.7172 40.0434 41.6965C45.7906 44.4334 51.3963 47.1063 57.1153 49.8304V49.8432ZM22.1504 31.8362C22.561 28.7028 23.9482 25.3393 26.9068 22.628C27.742 21.8735 28.747 21.1957 29.7945 20.7097C34.1828 18.7018 37.8067 20.5946 41.1617 22.8838C43.2567 24.3162 44.7855 26.3752 44.8705 28.8179C45.0403 33.6522 43.4973 37.911 38.5711 40.5455C34.7632 42.579 30.9695 42.0418 27.2748 40.2386C23.8774 38.576 22.2212 35.9159 22.1363 31.8362H22.1504ZM7.92387 26.1578C11.6752 24.329 14.9169 22.7176 18.201 21.1701C18.7672 20.9015 19.5741 20.6841 20.112 20.8504C21.4993 21.2852 22.7874 21.963 24.4578 22.692C20.3527 24.4313 16.7146 26.0171 13.0341 27.5135C12.482 27.7309 11.6893 27.7181 11.1089 27.539C10.1605 27.2577 9.28284 26.7589 7.93804 26.1578H7.92387ZM58.4459 37.7959C54.8645 39.1771 51.4104 40.3537 48.1263 41.8244C45.9321 42.8092 44.2901 42.3232 42.2941 41.0699C45.7623 39.7014 48.9898 38.4993 52.1466 37.1436C54.2982 36.21 56.2518 36.21 58.4459 37.7959ZM62.8625 39.4584C62.3954 39.9444 62.0697 40.5455 61.5601 40.7885C58.5874 42.1697 55.5722 43.487 52.5429 44.7659C52.0474 44.9705 51.3255 45.0345 50.8301 44.881C49.7259 44.5101 48.7067 43.9602 47.3761 43.3591C51.7077 41.7605 55.6713 40.3281 59.6208 38.8446C60.6825 38.4481 61.6026 38.4609 62.8483 39.4712L62.8625 39.4584ZM17.7763 19.9168C14.1524 21.7712 10.571 23.6 6.98954 25.4033C6.89045 25.4544 6.67818 25.3521 6.16857 25.2498C7.28688 23.5105 7.65492 21.477 10.1463 20.7353C11.1939 20.4283 12.1989 19.9295 13.1332 19.3668C14.8319 18.3437 16.3041 18.4716 17.7763 19.904V19.9168ZM43.8371 39.3945C43.738 39.2922 43.6247 39.2027 43.5257 39.1003C44.1627 37.9365 44.7572 36.7599 45.4792 35.6345C45.7481 35.2125 46.2577 34.88 46.7249 34.6114C49.0323 33.2685 50.9999 33.9719 53.095 35.545C49.8675 36.8878 46.8523 38.1412 43.823 39.3945H43.8371ZM13.9401 28.332C16.9977 27.1426 19.9421 26.0043 23.1414 24.7638C21.2162 29.9562 18.1302 31.12 13.9401 28.332ZM57.3417 18.2158C58.007 17.2694 58.4883 16.5916 59.0263 15.8371C61.4186 16.9625 63.5986 17.9984 65.9768 19.111C65.5238 19.9295 65.1699 20.569 64.7735 21.298C62.2679 20.2493 59.9464 19.2901 57.3417 18.203V18.2158ZM23.8066 1.21916C25.9158 2.05045 27.926 2.81779 30.0918 3.66186C29.4973 4.59546 29.0443 5.29886 28.5205 6.13015C26.4113 5.23492 24.4295 4.39084 22.292 3.49561C22.8157 2.70269 23.2404 2.06324 23.8066 1.21916ZM60.9939 42.3104C58.9838 47.3621 56.1951 48.4364 53.4489 45.5844C55.8129 44.5613 58.1628 43.5381 60.9939 42.3104ZM9.8207 19.6866C9.6933 19.5459 9.56596 19.4052 9.43856 19.2645C9.87738 18.446 10.3162 17.6275 10.8541 16.6172C11.7176 17.0264 12.3971 17.3462 13.4588 17.8449C11.9724 18.5995 10.8965 19.1366 9.8207 19.6866ZM19.2627 30.5061C19.9705 30.3271 20.4376 30.212 21.0038 30.0713C20.8906 31.3246 20.3951 31.4013 19.2627 30.5061Z" fill="black"/>
<path d="M11.4487 15.3127C15.9361 17.2183 20.1403 18.996 24.3304 20.7992C25.3921 21.2596 26.1565 21.1317 27.105 20.4283C30.3467 18.024 33.9564 17.6147 37.6793 19.4436C39.6328 20.4028 41.6429 21.3875 43.2425 22.7304C45.734 24.815 47.0505 27.5135 46.64 30.7619C52.3306 33.0639 57.8797 35.3276 63.7119 37.6936C65.4105 34.3428 67.18 31.3374 67.9444 27.9867C68.3266 26.2729 67.718 24.7382 65.9768 23.7535C64.5188 22.935 63.0607 22.0653 61.5177 21.4259C48.8766 16.1312 36.2071 10.8877 23.5377 5.63138C22.6742 5.27329 21.7965 4.95357 20.8906 4.69779C18.4133 4.03276 17.3941 4.30133 16.205 6.34758C14.5346 9.23791 13.0766 12.2177 11.4345 15.3127H11.4487Z" fill="white"/>
<path d="M57.1153 49.8432C51.3964 47.1191 45.7765 44.4462 40.0434 41.7094C36.2355 43.7428 32.1727 43.7684 28.0392 42.1698C24.4012 40.763 21.8673 38.4609 21.1454 34.8672C20.8764 33.5499 20.1686 32.8721 18.8521 32.3606C14.3506 30.6212 9.89155 28.7796 5.16351 26.8868C4.15845 28.7285 3.08261 30.7363 1.97846 32.7442C1.52547 33.5755 1.7661 34.3045 2.40312 34.88C3.30909 35.6985 4.27169 36.5042 5.33338 37.1437C16.4315 43.7812 28.3366 49.0631 40.6521 53.552C43.3559 54.5368 46.2011 55.2402 49.0181 55.9692C51.9059 56.7109 53.0101 56.3145 54.6663 54.0892C55.19 53.3858 55.6289 52.6184 56.0819 51.8639C56.4358 51.25 56.7331 50.6105 57.1153 49.856V49.8432Z" fill="white"/>
<path d="M22.1505 31.8362C22.2354 35.9159 23.8916 38.5632 27.289 40.2386C30.9695 42.0418 34.7774 42.579 38.5853 40.5455C43.5257 37.911 45.0545 33.6522 44.8847 28.818C44.7997 26.388 43.2709 24.3162 41.1759 22.8838C37.8209 20.5946 34.197 18.7018 29.8087 20.7097C28.7612 21.1957 27.742 21.8607 26.921 22.628C23.9624 25.3393 22.5752 28.7028 22.1646 31.8362H22.1505ZM43.0019 30.8003C43.0302 35.5578 38.7411 39.7782 33.8432 39.8038C28.6338 39.8293 24.4295 36.2612 24.4012 31.7594C24.3729 26.7717 28.5347 22.4746 33.4751 22.4106C38.4013 22.3467 42.9878 26.388 43.0019 30.8003Z" fill="white"/>
<path d="M7.92392 26.1578C9.26872 26.7589 10.1464 27.2577 11.0948 27.539C11.6752 27.7053 12.4821 27.7309 13.02 27.5135C16.7005 26.0171 20.3385 24.4441 24.4437 22.692C22.7733 21.963 21.4851 21.2852 20.0979 20.8504C19.56 20.6841 18.7531 20.9015 18.1869 21.1701C14.9169 22.7176 11.6752 24.3162 7.90975 26.1578H7.92392Z" fill="white"/>
<path d="M58.446 37.7958C56.2376 36.21 54.2983 36.21 52.1466 37.1436C49.004 38.4992 45.7623 39.7014 42.2941 41.0698C44.2901 42.3359 45.9463 42.8091 48.1263 41.8244C51.4105 40.3537 54.8645 39.1771 58.446 37.7958Z" fill="white"/>
<path d="M62.8626 39.4584C61.6027 38.4481 60.6825 38.4353 59.635 38.8318C55.6855 40.3153 51.722 41.7604 47.3903 43.3463C48.7209 43.9474 49.7401 44.4973 50.8443 44.8682C51.3397 45.0344 52.0616 44.9705 52.5571 44.7531C55.5864 43.4742 58.6016 42.1569 61.5743 40.7757C62.0981 40.5327 62.4096 39.9444 62.8767 39.4456L62.8626 39.4584Z" fill="white"/>
<path d="M17.7763 19.9168C16.3041 18.4844 14.8319 18.3565 13.1332 19.3796C12.2131 19.9296 11.1939 20.4283 10.1464 20.7481C7.65496 21.4898 7.28691 23.5233 6.16861 25.2626C6.69237 25.3649 6.89049 25.4672 6.98958 25.4161C10.571 23.6 14.1383 21.784 17.7763 19.9296V19.9168Z" fill="white"/>
<path d="M43.8372 39.3945C46.8523 38.1411 49.8817 36.8878 53.1092 35.545C51 33.9719 49.0323 33.2685 46.7391 34.6114C46.2719 34.8799 45.7623 35.2124 45.4934 35.6345C44.7714 36.7599 44.1769 37.9365 43.5399 39.1003C43.639 39.2026 43.7522 39.2922 43.8513 39.3945H43.8372Z" fill="white"/>
<path d="M13.9401 28.3319C18.1303 31.12 21.2162 29.9562 23.1414 24.7638C19.9563 26.0043 16.9978 27.1426 13.9401 28.3319Z" fill="white"/>
<path d="M57.3418 18.2158C59.9464 19.3028 62.268 20.262 64.7736 21.3107C65.1699 20.5817 65.5239 19.9295 65.9769 19.1238C63.5987 17.9984 61.4186 16.9752 59.0263 15.8498C58.5025 16.5916 58.0071 17.2822 57.3418 18.2286V18.2158Z" fill="white"/>
<path d="M23.8067 1.21912C23.2404 2.06319 22.8158 2.70265 22.292 3.49557C24.4295 4.40359 26.4114 5.24766 28.5206 6.13011C29.0443 5.31161 29.4973 4.60821 30.0919 3.66182C27.926 2.81774 25.9301 2.03762 23.8067 1.21912Z" fill="white"/>
<path d="M60.994 42.3104C58.1628 43.5382 55.8129 44.5613 53.4489 45.5844C56.2093 48.4364 58.9838 47.3621 60.994 42.3104Z" fill="white"/>
<path d="M9.82075 19.6865C10.8966 19.1494 11.9724 18.5994 13.4588 17.8449C12.4113 17.3461 11.7318 17.0264 10.8542 16.6171C10.3163 17.6275 9.87743 18.446 9.4386 19.2645C9.56601 19.4051 9.69335 19.5458 9.82075 19.6865Z" fill="white"/>
<path d="M19.2627 30.5061C20.3952 31.3886 20.8906 31.3246 21.0038 30.0713C20.4376 30.212 19.9705 30.3271 19.2627 30.5061Z" fill="white"/>
<path d="M43.0019 30.8003C42.9736 26.3753 38.4013 22.3467 33.4751 22.4107C28.5489 22.4746 24.3729 26.7845 24.4012 31.7595C24.4295 36.2612 28.6338 39.8421 33.8431 39.8038C38.741 39.7782 43.0161 35.5578 43.0019 30.8003ZM25.8309 31.4525C25.8875 27.2705 29.4123 23.7279 33.6166 23.9709C37.6652 24.2139 41.3174 26.4264 41.2466 30.7236C41.1758 34.7137 37.5661 38.2819 33.6733 38.2947C29.3558 38.3075 25.7884 35.1997 25.8309 31.4397V31.4525Z" fill="black"/>
<path d="M25.831 31.4524C25.7885 35.2124 29.3417 38.3202 33.6733 38.3074C37.5803 38.2946 41.19 34.7136 41.2467 30.7363C41.3174 26.4391 37.6652 24.2266 33.6167 23.9836C29.4124 23.7278 25.8876 27.2704 25.831 31.4652V31.4524ZM31.6915 25.2881C30.6581 27.5134 29.8088 29.3422 28.8603 31.3629C27.2749 28.9841 28.3649 26.6565 31.6915 25.2881ZM27.7279 33.7033C28.0252 33.2941 28.1384 33.0127 28.3507 32.8848C28.464 32.8209 28.9311 32.9871 28.9453 33.0639C28.9736 33.3196 28.9311 33.6522 28.7471 33.8312C28.648 33.9335 28.2516 33.78 27.7137 33.7033H27.7279Z" fill="white"/>
<path d="M31.6915 25.2881C28.3648 26.6566 27.2748 28.9842 28.8603 31.3629C29.7946 29.3423 30.6581 27.5134 31.6915 25.2881Z" fill="black"/>
<path d="M27.7278 33.7034C28.2516 33.7801 28.6621 33.9208 28.7612 33.8312C28.931 33.6522 28.9735 33.3197 28.9594 33.0639C28.9594 32.9744 28.4781 32.8081 28.3649 32.8849C28.1525 33.0127 28.0393 33.2941 27.742 33.7034H27.7278Z" fill="black"/>
</svg>
