<svg width="71" height="83" viewBox="0 0 71 83" fill="none" xmlns="http://www.w3.org/2000/svg">
<g id="count down">
<path id="Vector 95" d="M25.355 26.7201C25.1598 26.1269 24.7164 22.7344 25.2628 20.0954C25.9308 16.8692 29.2295 16.0525 31.6182 14.9903C33.2654 14.2579 36.6207 14.0486 40.2917 13.8995C44.209 13.7404 48.2271 18.8669 50.6279 22.1247C53.0888 25.4642 52.0671 29.3532 51.6479 31.1686C51.1826 33.1836 47.1658 36.5936 42.5014 39.1863C40.6622 40.2086 37.1564 40.7794 35.8425 41.1261C34.9508 41.3614 40.9645 41.8786 47.9513 45.6066C50.2245 46.8195 50.7799 48.2984 51.0615 49.1082C51.3588 49.9628 51.2676 50.8791 51.1385 51.7052C50.7965 53.894 46.5858 57.7779 40.7145 61.4951C38.2878 63.0316 34.307 62.9278 30.1629 62.9518C25.5947 62.9784 22.6447 58.7603 20.0296 54.7697C19.6087 53.9354 19.3879 53.3108 19.2235 52.7851C19.0591 52.2595 18.9577 51.8517 18.7821 51.1516" stroke="black" stroke-width="2" stroke-linecap="round"/>
</g>
</svg>
