<svg width="71" height="83" viewBox="0 0 71 83" fill="none" xmlns="http://www.w3.org/2000/svg">
<g id="count down">
<path id="Vector 96" d="M19.591 34.5284C19.3189 33.0684 18.6687 28.1741 20.3211 24.4377C21.8211 21.0458 25.0625 19.6724 26.6844 18.9041C30.4628 17.1144 34.5369 17.4723 37.876 18.3932C42.1679 19.5769 43.5691 22.7505 44.7136 24.7156C46.4177 27.6414 45.7734 31.8147 45.2092 34.8063C44.9312 36.2807 43.6186 38.4776 41.8749 41.4345C40.1055 44.4351 37.8928 46.647 35.1636 49.3522C33.3497 51.1501 30.5441 53.6854 28.1591 56.1508C23.7067 60.7536 21.3897 63.8652 21.0187 64.8432C20.6448 65.8287 25.0834 65.1976 28.8076 64.8068C30.6271 64.6739 31.3589 64.6354 35.8747 64.4228C40.0875 64.2487 48.2007 63.9402 56.5597 63.6223" stroke="black" stroke-width="2" stroke-linecap="round"/>
</g>
</svg>
