<svg width="124" height="57" viewBox="0 0 124 57" fill="none" xmlns="http://www.w3.org/2000/svg">
<g id="countdown-toast">
<rect x="1.32275" y="1.32271" width="121" height="54" stroke="black" stroke-width="2.64543" stroke-linecap="round"/>
<path id="photo delivery here in 5 seconds" d="M25.5553 19.9718C25.5553 20.2611 25.5523 20.5264 25.5463 20.7675C25.5463 21.0086 25.5523 21.2738 25.5644 21.5632L25.7271 21.4456L25.8266 21.3823C26.122 21.1473 26.3782 20.8609 26.5952 20.5234C26.8182 20.1798 27.0021 19.8151 27.1467 19.4293C27.2914 19.0435 27.3969 18.6486 27.4632 18.2448C27.5355 17.8349 27.5717 17.4461 27.5717 17.0784C27.5717 17.006 27.5687 16.9066 27.5627 16.78C27.5627 16.6474 27.5506 16.5178 27.5265 16.3912C27.5024 16.2646 27.4662 16.1561 27.418 16.0657C27.3698 15.9692 27.3004 15.921 27.21 15.921C27.0653 15.921 26.9177 16.0084 26.767 16.1832C26.6163 16.358 26.4746 16.566 26.342 16.8071C26.2154 17.0482 26.1009 17.2924 25.9984 17.5395C25.8959 17.7806 25.8206 17.9705 25.7723 18.1091C25.7723 18.1152 25.7693 18.1182 25.7633 18.1182C25.7633 18.1182 25.7633 18.1212 25.7633 18.1272V18.1363C25.7271 18.2207 25.688 18.3111 25.6458 18.4075C25.6096 18.504 25.5855 18.5944 25.5734 18.6788C25.5614 18.7632 25.5523 18.8596 25.5463 18.9681C25.5403 19.0706 25.5373 19.1791 25.5373 19.2936C25.5373 19.3539 25.5373 19.4142 25.5373 19.4745C25.5433 19.5287 25.5463 19.58 25.5463 19.6282C25.5463 19.6945 25.5463 19.7578 25.5463 19.8181C25.5523 19.8723 25.5553 19.9236 25.5553 19.9718ZM26.0526 28.2362C26.0526 28.3688 26.0165 28.4592 25.9441 28.5074C25.8718 28.5556 25.7754 28.5798 25.6548 28.5798C25.5101 28.5798 25.3504 28.5556 25.1756 28.5074C25.0008 28.4652 24.8621 28.3839 24.7596 28.2633C24.7295 28.2211 24.6994 28.0975 24.6692 27.8926C24.6451 27.6876 24.621 27.4465 24.5969 27.1692C24.5728 26.898 24.5517 26.6146 24.5336 26.3193C24.5155 26.0299 24.4974 25.7737 24.4793 25.5507L24.4432 25.0715C24.3708 23.7815 24.3347 22.4915 24.3347 21.2015C24.3347 20.448 24.3467 19.7096 24.3708 18.9862C24.401 18.2568 24.4311 17.5184 24.4613 16.7709L24.4974 15.8215C24.4974 15.7251 24.4974 15.6316 24.4974 15.5412C24.5035 15.4448 24.5155 15.3513 24.5336 15.2609C24.5637 15.1826 24.5999 15.1223 24.6421 15.0801C24.6903 15.0319 24.7657 15.0077 24.8681 15.0077C25.1274 15.0077 25.3172 15.0861 25.4378 15.2428C25.5584 15.3935 25.6277 15.5804 25.6458 15.8034C25.8387 15.5382 26.0677 15.3272 26.3329 15.1705C26.6042 15.0138 26.9146 14.9354 27.2643 14.9354C27.5596 14.9354 27.8068 15.0017 28.0057 15.1343C28.2107 15.2669 28.3734 15.4387 28.494 15.6497C28.6145 15.8547 28.6989 16.0868 28.7472 16.346C28.8014 16.5991 28.8285 16.8493 28.8285 17.0964C28.8285 17.5727 28.7863 18.0489 28.7019 18.5251C28.6176 18.9953 28.4849 19.4534 28.3041 19.8995C28.1293 20.3395 27.9063 20.7584 27.635 21.1563C27.3637 21.5481 27.0443 21.8977 26.6765 22.2052C26.6283 22.2474 26.5711 22.2926 26.5047 22.3408C26.4384 22.389 26.3691 22.4342 26.2968 22.4764C26.2244 22.5186 26.1491 22.5548 26.0707 22.5849C25.9984 22.6151 25.9321 22.6301 25.8718 22.6301C25.8055 22.6301 25.7482 22.6151 25.7 22.5849C25.6518 22.5548 25.6096 22.5186 25.5734 22.4764C25.5855 22.8924 25.6005 23.3234 25.6186 23.7694C25.6427 24.2155 25.6699 24.6616 25.7 25.1076C25.7301 25.5597 25.7663 26.0058 25.8085 26.4459C25.8567 26.8859 25.914 27.3109 25.9803 27.7208C25.9984 27.7991 26.0135 27.8805 26.0255 27.9649C26.0436 28.0553 26.0526 28.1457 26.0526 28.2362ZM33.675 21.8344C33.675 21.955 33.6359 22.0424 33.5575 22.0967C33.4791 22.1509 33.3827 22.178 33.2682 22.178C33.1958 22.178 33.1205 22.172 33.0421 22.16C32.9637 22.1419 32.8884 22.1238 32.8161 22.1057C32.6895 22.0695 32.59 22.0243 32.5177 21.9701C32.4514 21.9158 32.4001 21.8555 32.364 21.7892C32.3278 21.7169 32.3037 21.6385 32.2916 21.5541C32.2856 21.4697 32.2796 21.3763 32.2735 21.2738C32.2735 21.2437 32.2705 21.2166 32.2645 21.1925C32.2645 21.1683 32.2645 21.1442 32.2645 21.1201C32.2464 20.7765 32.2283 20.4239 32.2102 20.0622C32.1982 19.7005 32.1922 19.3479 32.1922 19.0043C32.1922 18.8295 32.1922 18.6547 32.1922 18.4799C32.1982 18.3051 32.2042 18.1302 32.2102 17.9554C32.2163 17.7806 32.2193 17.6088 32.2193 17.44C32.2253 17.2652 32.2283 17.0904 32.2283 16.9156C32.2283 16.8794 32.2253 16.8463 32.2193 16.8161C32.2193 16.78 32.2163 16.7438 32.2102 16.7076C32.0535 16.9367 31.9149 17.1929 31.7943 17.4762C31.6798 17.7535 31.5773 18.0428 31.4869 18.3442C31.3965 18.6396 31.3181 18.938 31.2518 19.2394C31.1915 19.5348 31.1403 19.8181 31.0981 20.0893L31.0709 20.2792C31.0408 20.4902 31.0107 20.7072 30.9805 20.9302C30.9504 21.1473 30.9353 21.3643 30.9353 21.5813C30.9353 21.6717 30.9504 21.7711 30.9805 21.8797C30.9926 21.9279 31.0016 21.9761 31.0077 22.0243C31.0197 22.0665 31.0257 22.1208 31.0257 22.1871C31.0257 22.3318 30.9896 22.4282 30.9172 22.4764C30.8449 22.5307 30.7485 22.5578 30.6279 22.5578C30.5556 22.5578 30.4742 22.5518 30.3838 22.5397C30.2994 22.5277 30.215 22.5066 30.1306 22.4764C30.0522 22.4523 29.9769 22.4192 29.9045 22.377C29.8322 22.3348 29.7749 22.2805 29.7327 22.2142C29.6966 22.1358 29.6604 21.9279 29.6242 21.5903C29.5941 21.2527 29.564 20.8338 29.5338 20.3335C29.5097 19.8331 29.4856 19.2725 29.4615 18.6517C29.4374 18.0248 29.4133 17.3828 29.3891 16.7257C29.3711 16.0687 29.353 15.4176 29.3349 14.7727C29.3228 14.1277 29.3108 13.5339 29.2987 12.9914C29.2927 12.4489 29.2867 11.9787 29.2806 11.5808C29.2746 11.177 29.2716 10.8936 29.2716 10.7309C29.2716 10.6103 29.2867 10.5018 29.3168 10.4054C29.353 10.3029 29.4494 10.2517 29.6061 10.2517C29.7689 10.2517 29.9226 10.2908 30.0673 10.3692C30.212 10.4415 30.3174 10.5561 30.3838 10.7128C30.3958 10.7369 30.4079 10.8364 30.4199 11.0112C30.432 11.18 30.444 11.4 30.4561 11.6713C30.4681 11.9365 30.4802 12.2439 30.4923 12.5935C30.5043 12.9371 30.5164 13.2958 30.5284 13.6695C30.5405 14.0372 30.5525 14.408 30.5646 14.7817C30.5767 15.1554 30.5887 15.5051 30.6008 15.8306L30.646 17.1688C30.7183 16.9819 30.8087 16.786 30.9172 16.581C31.0257 16.3761 31.1493 16.1892 31.288 16.0204C31.4326 15.8517 31.5924 15.713 31.7672 15.6045C31.948 15.496 32.1469 15.4418 32.364 15.4418C32.6292 15.4418 32.8371 15.5111 32.9878 15.6497C33.1385 15.7884 33.2501 15.9602 33.3224 16.1651C33.4008 16.3701 33.449 16.5901 33.4671 16.8252C33.4852 17.0603 33.4942 17.2743 33.4942 17.4672C33.4942 17.5877 33.4912 17.7053 33.4852 17.8198C33.4852 17.9343 33.4821 18.0489 33.4761 18.1634C33.4701 18.284 33.4641 18.4045 33.458 18.5251C33.458 18.6396 33.458 18.7572 33.458 18.8777C33.458 19.2936 33.4671 19.7216 33.4852 20.1617C33.5032 20.5957 33.5485 21.0237 33.6208 21.4456L33.6389 21.5722C33.6509 21.6084 33.66 21.6506 33.666 21.6988C33.672 21.747 33.675 21.7922 33.675 21.8344ZM38.3859 18.6155C38.3859 19.1399 38.3407 19.6644 38.2503 20.1888C38.1659 20.7072 37.9881 21.1985 37.7168 21.6626C37.6324 21.8013 37.536 21.9369 37.4275 22.0695C37.319 22.1961 37.1984 22.3107 37.0658 22.4131C36.9392 22.5216 36.7975 22.606 36.6408 22.6663C36.4901 22.7326 36.3304 22.7658 36.1616 22.7658C35.8964 22.7658 35.6643 22.7025 35.4654 22.5759C35.2725 22.4553 35.1037 22.2956 34.959 22.0967C34.8204 21.8917 34.7028 21.6626 34.6064 21.4095C34.5159 21.1503 34.4436 20.888 34.3894 20.6228C34.3411 20.3516 34.305 20.0893 34.2809 19.8362C34.2628 19.583 34.2537 19.36 34.2537 19.1671C34.2537 18.95 34.2628 18.7119 34.2809 18.4527C34.2989 18.1935 34.3291 17.9283 34.3713 17.657C34.4195 17.3858 34.4798 17.1175 34.5521 16.8523C34.6305 16.5871 34.7299 16.3399 34.8505 16.1109C34.9711 15.8758 35.1157 15.6678 35.2845 15.487C35.4533 15.3001 35.6492 15.1524 35.8722 15.0439V15.053C36.0651 14.9505 36.258 14.8992 36.4509 14.8992C36.5715 14.8992 36.6649 14.9264 36.7312 14.9806C36.7975 15.0288 36.8277 15.1132 36.8217 15.2338C37.1532 15.2941 37.4214 15.4538 37.6264 15.713C37.8313 15.9722 37.9881 16.2736 38.0966 16.6172C38.2111 16.9608 38.2865 17.3134 38.3226 17.6751C38.3648 18.0368 38.3859 18.3503 38.3859 18.6155ZM36.3424 16.355C36.24 16.355 36.1435 16.3158 36.0531 16.2375C35.9386 16.4123 35.8421 16.6142 35.7637 16.8433C35.6854 17.0663 35.6221 17.2984 35.5739 17.5395C35.5317 17.7746 35.5015 18.0127 35.4834 18.2538C35.4654 18.4949 35.4563 18.721 35.4563 18.932C35.4563 19.1068 35.4654 19.3328 35.4834 19.6101C35.5015 19.8814 35.5347 20.1556 35.5829 20.4329C35.6372 20.7102 35.7095 20.9694 35.7999 21.2105C35.8964 21.4517 36.0199 21.6295 36.1706 21.744C36.3575 21.6355 36.5112 21.4637 36.6318 21.2286C36.7584 20.9875 36.8578 20.7253 36.9302 20.442C37.0025 20.1587 37.0507 19.8723 37.0748 19.583C37.105 19.2936 37.12 19.0465 37.12 18.8415C37.12 18.6908 37.111 18.4949 37.0929 18.2538C37.0748 18.0127 37.0447 17.7686 37.0025 17.5214C36.9603 17.2682 36.9 17.0331 36.8217 16.8161C36.7493 16.5991 36.6559 16.4364 36.5413 16.3279C36.4871 16.346 36.4208 16.355 36.3424 16.355ZM41.0443 22.0967C41.0443 22.163 41.0292 22.2202 40.999 22.2685C40.9689 22.3107 40.9297 22.3438 40.8815 22.3679C40.8393 22.392 40.7911 22.4071 40.7368 22.4131C40.6886 22.4252 40.6404 22.4312 40.5922 22.4312C40.5258 22.4312 40.4475 22.4222 40.3571 22.4041C40.2727 22.392 40.1883 22.3709 40.1039 22.3408C40.0195 22.3107 39.9411 22.2745 39.8688 22.2323C39.8025 22.1841 39.7513 22.1268 39.7151 22.0605C39.6789 22.0002 39.6458 21.8887 39.6156 21.7259C39.5915 21.5572 39.5704 21.3643 39.5523 21.1473C39.5342 20.9242 39.5192 20.6891 39.5071 20.442C39.4951 20.1888 39.483 19.9477 39.471 19.7186C39.4649 19.4896 39.4589 19.2846 39.4529 19.1038C39.4529 18.9169 39.4529 18.7783 39.4529 18.6878C39.4529 18.2659 39.4589 17.859 39.471 17.4672C39.489 17.0693 39.5071 16.6624 39.5252 16.2465C39.4951 16.2465 39.4649 16.2495 39.4348 16.2555C39.4046 16.2616 39.3745 16.2646 39.3444 16.2646C39.266 16.2766 39.1846 16.2857 39.1002 16.2917C39.0219 16.2977 38.9405 16.3007 38.8561 16.3007C38.7536 16.3007 38.6632 16.2827 38.5848 16.2465C38.5065 16.2103 38.4673 16.1289 38.4673 16.0024C38.4673 15.8517 38.5004 15.7311 38.5668 15.6407C38.6331 15.5503 38.7175 15.4809 38.8199 15.4327C38.9224 15.3785 39.0339 15.3423 39.1545 15.3242C39.275 15.3001 39.3926 15.282 39.5071 15.27C39.5252 15.27 39.5373 15.27 39.5433 15.27C39.5493 15.2639 39.5614 15.2609 39.5795 15.2609C39.5855 15.1886 39.5915 15.1012 39.5975 14.9987C39.6036 14.8902 39.6096 14.7727 39.6156 14.6461C39.6217 14.4471 39.6307 14.2362 39.6427 14.0131C39.6548 13.7841 39.6669 13.5671 39.6789 13.3621C39.691 13.1511 39.706 12.9673 39.7241 12.8105C39.7422 12.6478 39.7603 12.5333 39.7784 12.4669C39.8085 12.3886 39.8417 12.3253 39.8778 12.2771C39.92 12.2288 39.9954 12.2047 40.1039 12.2047C40.345 12.2047 40.5319 12.2831 40.6645 12.4398C40.7971 12.5965 40.8634 12.7894 40.8634 13.0185C40.8634 13.2837 40.8544 13.549 40.8363 13.8142C40.8242 14.0794 40.8122 14.3477 40.8001 14.6189L40.773 15.0801C40.9237 15.062 41.0744 15.0349 41.2251 14.9987C41.3698 14.9686 41.5144 14.9414 41.6591 14.9173C41.8098 14.8932 41.9545 14.8812 42.0931 14.8812C42.2137 14.8812 42.3071 14.9143 42.3734 14.9806C42.4397 15.0409 42.4729 15.1313 42.4729 15.2519C42.4729 15.3845 42.4488 15.5141 42.4006 15.6407C42.3523 15.7673 42.2679 15.8637 42.1474 15.93H42.1564C42.1323 15.9421 42.06 15.9602 41.9394 15.9843C41.8189 16.0024 41.6802 16.0204 41.5235 16.0385C41.3728 16.0566 41.2221 16.0747 41.0714 16.0928C40.9267 16.1109 40.8182 16.1229 40.7459 16.1289H40.7368C40.7248 16.4665 40.7157 16.8011 40.7097 17.1326C40.7037 17.4581 40.7007 17.7897 40.7007 18.1272C40.7007 18.5914 40.7127 19.0857 40.7368 19.6101C40.767 20.1285 40.8152 20.6228 40.8815 21.093L40.9538 21.4999C40.9779 21.6024 40.999 21.7048 41.0171 21.8073C41.0352 21.9038 41.0443 22.0002 41.0443 22.0967ZM46.3971 18.6155C46.3971 19.1399 46.3519 19.6644 46.2615 20.1888C46.1771 20.7072 45.9993 21.1985 45.728 21.6626C45.6436 21.8013 45.5472 21.9369 45.4387 22.0695C45.3302 22.1961 45.2096 22.3107 45.077 22.4131C44.9504 22.5216 44.8087 22.606 44.652 22.6663C44.5013 22.7326 44.3416 22.7658 44.1728 22.7658C43.9076 22.7658 43.6755 22.7025 43.4766 22.5759C43.2837 22.4553 43.1149 22.2956 42.9702 22.0967C42.8316 21.8917 42.714 21.6626 42.6176 21.4095C42.5271 21.1503 42.4548 20.888 42.4006 20.6228C42.3523 20.3516 42.3162 20.0893 42.2921 19.8362C42.274 19.583 42.2649 19.36 42.2649 19.1671C42.2649 18.95 42.274 18.7119 42.2921 18.4527C42.3101 18.1935 42.3403 17.9283 42.3825 17.657C42.4307 17.3858 42.491 17.1175 42.5633 16.8523C42.6417 16.5871 42.7411 16.3399 42.8617 16.1109C42.9823 15.8758 43.1269 15.6678 43.2957 15.487C43.4645 15.3001 43.6604 15.1524 43.8834 15.0439V15.053C44.0763 14.9505 44.2692 14.8992 44.4621 14.8992C44.5827 14.8992 44.6761 14.9264 44.7424 14.9806C44.8087 15.0288 44.8389 15.1132 44.8328 15.2338C45.1644 15.2941 45.4326 15.4538 45.6376 15.713C45.8425 15.9722 45.9993 16.2736 46.1078 16.6172C46.2223 16.9608 46.2977 17.3134 46.3338 17.6751C46.376 18.0368 46.3971 18.3503 46.3971 18.6155ZM44.3536 16.355C44.2511 16.355 44.1547 16.3158 44.0643 16.2375C43.9497 16.4123 43.8533 16.6142 43.7749 16.8433C43.6966 17.0663 43.6333 17.2984 43.5851 17.5395C43.5429 17.7746 43.5127 18.0127 43.4946 18.2538C43.4766 18.4949 43.4675 18.721 43.4675 18.932C43.4675 19.1068 43.4766 19.3328 43.4946 19.6101C43.5127 19.8814 43.5459 20.1556 43.5941 20.4329C43.6483 20.7102 43.7207 20.9694 43.8111 21.2105C43.9076 21.4517 44.0311 21.6295 44.1818 21.744C44.3687 21.6355 44.5224 21.4637 44.643 21.2286C44.7696 20.9875 44.869 20.7253 44.9414 20.442C45.0137 20.1587 45.0619 19.8723 45.086 19.583C45.1162 19.2936 45.1312 19.0465 45.1312 18.8415C45.1312 18.6908 45.1222 18.4949 45.1041 18.2538C45.086 18.0127 45.0559 17.7686 45.0137 17.5214C44.9715 17.2682 44.9112 17.0331 44.8328 16.8161C44.7605 16.5991 44.6671 16.4364 44.5525 16.3279C44.4983 16.346 44.432 16.355 44.3536 16.355ZM53.8115 22.0424C53.8115 22.1087 53.7965 22.166 53.7663 22.2142C53.7362 22.2564 53.697 22.2926 53.6488 22.3227C53.6066 22.3468 53.5584 22.3649 53.5041 22.377C53.4559 22.389 53.4077 22.395 53.3594 22.395C53.2871 22.395 53.2087 22.386 53.1243 22.3679C53.04 22.3498 52.9556 22.3257 52.8712 22.2956C52.7868 22.2594 52.7084 22.2172 52.6361 22.169C52.5698 22.1147 52.5185 22.0545 52.4824 21.9882C52.4462 21.9218 52.4191 21.8405 52.401 21.744C52.3889 21.6415 52.3769 21.5391 52.3648 21.4366C52.3045 21.5813 52.2322 21.7229 52.1478 21.8616C52.0695 22.0002 51.973 22.1238 51.8585 22.2323C51.7439 22.3348 51.6143 22.4161 51.4697 22.4764C51.331 22.5427 51.1743 22.5759 50.9995 22.5759C50.6921 22.5759 50.4419 22.5035 50.249 22.3589C50.0621 22.2142 49.9144 22.0334 49.8059 21.8164C49.7035 21.5933 49.6341 21.3522 49.598 21.093C49.5678 20.8278 49.5528 20.5746 49.5528 20.3335C49.5528 20.1345 49.5618 19.9085 49.5799 19.6553C49.598 19.4021 49.6221 19.1429 49.6522 18.8777C49.6824 18.6125 49.7185 18.3563 49.7607 18.1091C49.8029 17.856 49.8481 17.6329 49.8964 17.44C49.9566 17.217 50.029 16.9729 50.1134 16.7076C50.2038 16.4364 50.3153 16.1862 50.4479 15.9572C50.5866 15.7221 50.7553 15.5231 50.9543 15.3604C51.1532 15.1976 51.3913 15.1072 51.6686 15.0891C51.6505 14.6009 51.6234 14.1518 51.5872 13.7419C51.5571 13.3259 51.5239 12.901 51.4877 12.4669L51.3973 11.4633L51.3612 11.1016C51.3491 11.0052 51.3401 10.9087 51.334 10.8123C51.328 10.7098 51.325 10.6103 51.325 10.5139C51.325 10.3752 51.3612 10.2788 51.4335 10.2245C51.5119 10.1703 51.6113 10.1432 51.7319 10.1432C51.9971 10.1432 52.1991 10.1823 52.3377 10.2607C52.4763 10.3391 52.5728 10.4446 52.627 10.5772C52.6873 10.7098 52.7205 10.8665 52.7265 11.0474C52.7325 11.2222 52.7355 11.412 52.7355 11.617C52.7355 11.7496 52.7506 11.9003 52.7808 12.0691L52.826 12.4037L52.8983 13.3259C52.9104 13.4706 52.9224 13.6153 52.9345 13.7599C52.9465 13.9046 52.9586 14.0493 52.9706 14.194L53.1605 16.138L53.5222 19.7729L53.5493 20.1074C53.5734 20.3546 53.5945 20.6108 53.6126 20.876C53.6367 21.1412 53.6789 21.4034 53.7392 21.6626C53.7573 21.729 53.7724 21.7922 53.7844 21.8525C53.8025 21.9128 53.8115 21.9761 53.8115 22.0424ZM51.7048 16.7528C51.7048 16.6865 51.7017 16.6142 51.6957 16.5358C51.6957 16.4514 51.6957 16.3731 51.6957 16.3007V16.0566C51.6535 16.1169 51.5993 16.2013 51.533 16.3098C51.4667 16.4123 51.4154 16.5057 51.3792 16.5901C51.2828 16.8011 51.1954 17.0723 51.117 17.4039C51.0387 17.7294 50.9693 18.073 50.9091 18.4347C50.8548 18.7903 50.8126 19.1399 50.7825 19.4835C50.7523 19.8211 50.7373 20.1044 50.7373 20.3335C50.7373 20.4179 50.7373 20.5143 50.7373 20.6228C50.7433 20.7313 50.7553 20.8428 50.7734 20.9574C50.7915 21.0659 50.8186 21.1714 50.8548 21.2738C50.891 21.3763 50.9392 21.4607 50.9995 21.527C51.0899 21.4125 51.1713 21.2377 51.2436 21.0026C51.316 20.7615 51.3762 20.4902 51.4245 20.1888C51.4787 19.8814 51.5239 19.5589 51.5601 19.2213C51.5963 18.8837 51.6234 18.5582 51.6415 18.2448C51.6656 17.9253 51.6806 17.6359 51.6867 17.3767C51.6987 17.1115 51.7048 16.9035 51.7048 16.7528ZM57.9528 20.668C57.9528 20.8489 57.9015 21.0357 57.7991 21.2286C57.7026 21.4215 57.576 21.5993 57.4193 21.7621C57.2626 21.9188 57.0817 22.0484 56.8768 22.1509C56.6778 22.2534 56.4789 22.3046 56.28 22.3046C55.9967 22.3046 55.7526 22.2504 55.5476 22.1419C55.3426 22.0273 55.1648 21.8766 55.0141 21.6898C54.8634 21.4969 54.7399 21.2799 54.6434 21.0387C54.553 20.7976 54.4806 20.5505 54.4264 20.2973C54.3721 20.0381 54.333 19.7819 54.3088 19.5287C54.2908 19.2695 54.2817 19.0344 54.2817 18.8235C54.2817 18.6426 54.2908 18.4286 54.3088 18.1815C54.333 17.9343 54.3691 17.6781 54.4174 17.4129C54.4716 17.1477 54.5439 16.8855 54.6344 16.6263C54.7248 16.3671 54.8363 16.135 54.9689 15.93C55.1076 15.7251 55.2703 15.5593 55.4572 15.4327C55.6501 15.3061 55.8701 15.2428 56.1172 15.2428C56.3101 15.2428 56.4819 15.282 56.6326 15.3604C56.7894 15.4387 56.919 15.5442 57.0214 15.6768C57.1299 15.8034 57.2113 15.9511 57.2656 16.1199C57.3259 16.2887 57.356 16.4635 57.356 16.6443C57.356 16.8794 57.3017 17.1356 57.1932 17.4129C57.0847 17.6902 56.9431 17.9584 56.7683 18.2176C56.5995 18.4769 56.4066 18.7119 56.1896 18.9229C55.9786 19.1279 55.7676 19.2846 55.5566 19.3931C55.5687 19.5016 55.5928 19.6614 55.629 19.8723C55.6651 20.0773 55.7134 20.2822 55.7737 20.4872C55.84 20.6921 55.9153 20.87 55.9997 21.0207C56.0901 21.1714 56.1956 21.2467 56.3162 21.2467C56.3764 21.2467 56.4277 21.2286 56.4699 21.1925C56.5181 21.1563 56.5603 21.1081 56.5965 21.0478C56.6326 20.9875 56.6628 20.9212 56.6869 20.8489C56.717 20.7765 56.7442 20.7072 56.7683 20.6409L56.8225 20.5143C56.8346 20.4962 56.8406 20.4842 56.8406 20.4781C56.8466 20.4721 56.8527 20.4631 56.8587 20.451C56.9009 20.3727 56.9401 20.3003 56.9762 20.234C57.0184 20.1677 57.0757 20.1104 57.148 20.0622H57.139C57.1631 20.0381 57.1872 20.026 57.2113 20.026C57.2415 20.02 57.2686 20.017 57.2927 20.017C57.359 20.017 57.4313 20.0381 57.5097 20.0803C57.5881 20.1225 57.6604 20.1767 57.7267 20.2431C57.793 20.3033 57.8473 20.3727 57.8895 20.451C57.9317 20.5234 57.9528 20.5957 57.9528 20.668ZM56.1625 16.6805C56.1625 16.6202 56.1594 16.5569 56.1534 16.4906C56.1474 16.4243 56.1323 16.3671 56.1082 16.3188C56.0238 16.4213 55.9485 16.5449 55.8822 16.6896C55.8219 16.8282 55.7706 16.9759 55.7284 17.1326C55.6862 17.2833 55.6501 17.437 55.6199 17.5938C55.5958 17.7505 55.5777 17.8951 55.5657 18.0278C55.7224 17.8409 55.8611 17.6299 55.9816 17.3948C56.1022 17.1537 56.1625 16.9156 56.1625 16.6805ZM60.6744 22.5849C60.6744 22.6693 60.6533 22.7386 60.6111 22.7929C60.5689 22.8471 60.5147 22.8893 60.4484 22.9195C60.3881 22.9556 60.3188 22.9798 60.2404 22.9918C60.1681 23.0099 60.1017 23.0189 60.0415 23.0189C59.8305 23.0189 59.6466 22.9587 59.4899 22.8381C59.3332 22.7175 59.1975 22.5608 59.083 22.3679C58.9685 22.1811 58.8751 21.9671 58.8027 21.7259C58.7304 21.4788 58.6701 21.2347 58.6219 20.9935C58.5737 20.7464 58.5375 20.5113 58.5134 20.2883C58.4893 20.0592 58.4712 19.8633 58.4591 19.7005C58.4049 19.1399 58.3657 18.5703 58.3416 17.9916C58.3235 17.4129 58.3144 16.8403 58.3144 16.2736C58.3144 14.7244 58.3687 13.1903 58.4772 11.6713C58.4772 11.6471 58.4772 11.62 58.4772 11.5899C58.4832 11.5597 58.4862 11.5296 58.4862 11.4995C58.4923 11.3729 58.4983 11.2282 58.5043 11.0654C58.5104 10.8967 58.5194 10.7309 58.5315 10.5681C58.5435 10.4054 58.5556 10.2577 58.5676 10.1251C58.5857 9.98643 58.6068 9.88998 58.6309 9.83573V9.84477C58.655 9.76038 58.6882 9.69708 58.7304 9.65489C58.7726 9.61269 58.8449 9.59159 58.9474 9.59159C59.1644 9.59159 59.3482 9.66393 59.4989 9.8086C59.6496 9.95327 59.725 10.1341 59.725 10.3511C59.725 10.3993 59.722 10.4476 59.716 10.4958C59.716 10.538 59.7129 10.5802 59.7069 10.6224C59.7009 10.6646 59.6949 10.7068 59.6888 10.749C59.6888 10.7851 59.6888 10.8183 59.6888 10.8484C59.6707 11.0835 59.6557 11.3186 59.6436 11.5537C59.6376 11.7828 59.6285 12.0148 59.6165 12.2499C59.5864 12.7683 59.5622 13.2868 59.5442 13.8052C59.5321 14.3175 59.5261 14.8359 59.5261 15.3604C59.5261 15.5834 59.5291 15.8758 59.5351 16.2375C59.5411 16.5991 59.5532 16.994 59.5713 17.422C59.5894 17.8439 59.6135 18.2809 59.6436 18.733C59.6798 19.1851 59.725 19.6161 59.7792 20.026C59.8335 20.4359 59.8968 20.8067 59.9691 21.1382C60.0475 21.4697 60.1379 21.7259 60.2404 21.9068C60.2946 21.9309 60.3459 21.9701 60.3941 22.0243C60.4484 22.0725 60.4936 22.1298 60.5297 22.1961C60.5719 22.2564 60.6051 22.3197 60.6292 22.386C60.6593 22.4583 60.6744 22.5246 60.6744 22.5849ZM62.0759 14.7184C62.0759 14.8209 62.0518 14.8962 62.0036 14.9444C61.9614 14.9866 61.88 15.0077 61.7594 15.0077C61.7052 15.0077 61.6208 15.0017 61.5063 14.9897C61.3917 14.9716 61.2742 14.9475 61.1536 14.9173C61.0391 14.8872 60.9366 14.845 60.8462 14.7907C60.7618 14.7365 60.7196 14.6702 60.7196 14.5918C60.7196 14.5677 60.7287 14.5014 60.7467 14.3929C60.7648 14.2784 60.7859 14.1578 60.81 14.0312C60.8402 13.9046 60.8643 13.7901 60.8824 13.6876C60.9065 13.5851 60.9246 13.5279 60.9366 13.5158V13.5249C60.9668 13.4766 61.0029 13.4465 61.0451 13.4344C61.0873 13.4224 61.1295 13.4164 61.1717 13.4164C61.226 13.4164 61.2953 13.4254 61.3797 13.4435C61.4701 13.4555 61.5575 13.4766 61.6419 13.5068C61.7323 13.5309 61.8137 13.564 61.886 13.6062C61.9584 13.6484 62.0036 13.6936 62.0217 13.7419C62.0397 13.7901 62.0488 13.8564 62.0488 13.9408C62.0548 14.0192 62.0548 14.0915 62.0488 14.1578C62.0488 14.1819 62.0458 14.212 62.0397 14.2482C62.0397 14.2784 62.0397 14.3025 62.0397 14.3206C62.0397 14.3507 62.0397 14.3808 62.0397 14.411C62.0458 14.4411 62.0518 14.4713 62.0578 14.5014C62.0639 14.5315 62.0669 14.5647 62.0669 14.6009C62.0729 14.637 62.0759 14.6762 62.0759 14.7184ZM62.4105 21.9249C62.4105 22.0635 62.3773 22.163 62.311 22.2232C62.2507 22.2775 62.1513 22.3046 62.0126 22.3046C61.9403 22.3046 61.8589 22.2956 61.7685 22.2775C61.6841 22.2594 61.5997 22.2353 61.5153 22.2052C61.4309 22.169 61.3526 22.1268 61.2802 22.0786C61.2079 22.0304 61.1536 21.9761 61.1175 21.9158C61.0934 21.8797 61.0723 21.7681 61.0542 21.5813C61.0361 21.3944 61.021 21.1623 61.009 20.885C61.0029 20.6077 60.9939 20.2973 60.9818 19.9537C60.9758 19.6101 60.9698 19.2635 60.9637 18.9139C60.9637 18.5643 60.9637 18.2237 60.9637 17.8921C60.9637 17.5606 60.9637 17.2713 60.9637 17.0241V16.3279C60.9637 16.2676 60.9637 16.2073 60.9637 16.147C60.9698 16.0868 60.9818 16.0355 60.9999 15.9933C61.024 15.9451 61.0572 15.9059 61.0994 15.8758C61.1476 15.8456 61.2139 15.8306 61.2983 15.8306C61.5635 15.8306 61.7564 15.9059 61.877 16.0566C62.0036 16.2013 62.0819 16.3972 62.1121 16.6443C62.1422 17.012 62.1633 17.3798 62.1754 17.7475C62.1935 18.1091 62.2085 18.4769 62.2206 18.8506C62.2326 19.1882 62.2417 19.5227 62.2477 19.8542C62.2598 20.1798 62.2809 20.5053 62.311 20.8308C62.317 20.8971 62.3231 20.9604 62.3291 21.0207C62.3351 21.0809 62.3442 21.1412 62.3562 21.2015C62.3683 21.3221 62.3803 21.4426 62.3924 21.5632C62.4044 21.6777 62.4105 21.7983 62.4105 21.9249ZM66.5607 15.7673C66.5607 16.5991 66.4944 17.4189 66.3618 18.2267C66.2352 19.0344 66.0815 19.8392 65.9007 20.6409C65.8766 20.7193 65.8615 20.7856 65.8555 20.8398C65.8193 21.0146 65.7801 21.1955 65.7379 21.3823C65.7017 21.5632 65.6415 21.744 65.5571 21.9249C65.4787 22.0756 65.3702 22.2082 65.2316 22.3227C65.099 22.4312 64.9513 22.4855 64.7885 22.4855C64.7222 22.4855 64.6529 22.4704 64.5805 22.4403C64.5082 22.4101 64.4298 22.3709 64.3455 22.3227C64.2249 22.2383 64.1345 22.1238 64.0742 21.9791C64.0139 21.8284 63.9627 21.6747 63.9205 21.518L63.9024 21.4547V21.4637C63.7999 21.0719 63.7125 20.6801 63.6402 20.2883C63.5739 19.8964 63.5076 19.5016 63.4413 19.1038C63.4051 18.8566 63.3689 18.6125 63.3328 18.3714C63.2966 18.1242 63.2544 17.8801 63.2062 17.639L63.0796 17.1055C63.0494 16.9849 63.0163 16.8553 62.9801 16.7167C62.95 16.572 62.9198 16.4364 62.8897 16.3098C62.8596 16.1832 62.8354 16.0717 62.8174 15.9752C62.7993 15.8728 62.7902 15.8034 62.7902 15.7673C62.7902 15.6527 62.8264 15.5774 62.8987 15.5412C62.9771 15.499 63.0645 15.4779 63.161 15.4779C63.3538 15.4779 63.5226 15.5201 63.6673 15.6045C63.818 15.6889 63.9265 15.8275 63.9928 16.0204C64.029 16.1229 64.0591 16.2314 64.0832 16.346C64.1134 16.4605 64.1375 16.575 64.1556 16.6896C64.258 17.0874 64.3545 17.5094 64.4449 17.9554C64.5414 18.3955 64.6227 18.8204 64.689 19.2303L64.7704 19.6915C64.7765 19.7216 64.7795 19.7457 64.7795 19.7638C64.7795 19.7819 64.7795 19.797 64.7795 19.809C64.7855 19.8211 64.7885 19.8362 64.7885 19.8542C64.7945 19.8723 64.8006 19.8995 64.8066 19.9356C64.9392 19.2967 65.0507 18.6577 65.1411 18.0187C65.2316 17.3737 65.2768 16.7257 65.2768 16.0747C65.2768 15.9421 65.2677 15.8125 65.2497 15.6859C65.2376 15.5593 65.2225 15.4267 65.2044 15.288C65.1864 15.1615 65.1683 15.0319 65.1502 14.8992C65.1381 14.7606 65.1321 14.622 65.1321 14.4833C65.1321 14.3567 65.1713 14.2693 65.2497 14.2211C65.328 14.1729 65.4245 14.1488 65.539 14.1488C65.6776 14.1488 65.8042 14.1578 65.9188 14.1759C66.0333 14.194 66.1328 14.2301 66.2171 14.2844C66.3015 14.3326 66.3709 14.4049 66.4251 14.5014C66.4794 14.5918 66.5155 14.7124 66.5336 14.8631C66.5457 15.0017 66.5517 15.1524 66.5517 15.3152C66.5577 15.4719 66.5607 15.6226 66.5607 15.7673ZM70.7562 20.668C70.7562 20.8489 70.705 21.0357 70.6025 21.2286C70.5061 21.4215 70.3795 21.5993 70.2227 21.7621C70.066 21.9188 69.8852 22.0484 69.6802 22.1509C69.4813 22.2534 69.2824 22.3046 69.0834 22.3046C68.8001 22.3046 68.556 22.2504 68.351 22.1419C68.1461 22.0273 67.9683 21.8766 67.8176 21.6898C67.6669 21.4969 67.5433 21.2799 67.4469 21.0387C67.3564 20.7976 67.2841 20.5505 67.2298 20.2973C67.1756 20.0381 67.1364 19.7819 67.1123 19.5287C67.0942 19.2695 67.0852 19.0344 67.0852 18.8235C67.0852 18.6426 67.0942 18.4286 67.1123 18.1815C67.1364 17.9343 67.1726 17.6781 67.2208 17.4129C67.2751 17.1477 67.3474 16.8855 67.4378 16.6263C67.5282 16.3671 67.6397 16.135 67.7724 15.93C67.911 15.7251 68.0738 15.5593 68.2606 15.4327C68.4535 15.3061 68.6735 15.2428 68.9207 15.2428C69.1136 15.2428 69.2854 15.282 69.4361 15.3604C69.5928 15.4387 69.7224 15.5442 69.8249 15.6768C69.9334 15.8034 70.0148 15.9511 70.069 16.1199C70.1293 16.2887 70.1594 16.4635 70.1594 16.6443C70.1594 16.8794 70.1052 17.1356 69.9967 17.4129C69.8882 17.6902 69.7465 17.9584 69.5717 18.2176C69.4029 18.4769 69.21 18.7119 68.993 18.9229C68.7821 19.1279 68.5711 19.2846 68.3601 19.3931C68.3721 19.5016 68.3963 19.6614 68.4324 19.8723C68.4686 20.0773 68.5168 20.2822 68.5771 20.4872C68.6434 20.6921 68.7188 20.87 68.8031 21.0207C68.8936 21.1714 68.9991 21.2467 69.1196 21.2467C69.1799 21.2467 69.2311 21.2286 69.2733 21.1925C69.3216 21.1563 69.3638 21.1081 69.3999 21.0478C69.4361 20.9875 69.4662 20.9212 69.4903 20.8489C69.5205 20.7765 69.5476 20.7072 69.5717 20.6409L69.626 20.5143C69.638 20.4962 69.6441 20.4842 69.6441 20.4781C69.6501 20.4721 69.6561 20.4631 69.6621 20.451C69.7043 20.3727 69.7435 20.3003 69.7797 20.234C69.8219 20.1677 69.8791 20.1104 69.9515 20.0622H69.9424C69.9666 20.0381 69.9907 20.026 70.0148 20.026C70.0449 20.02 70.072 20.017 70.0962 20.017C70.1625 20.017 70.2348 20.0381 70.3132 20.0803C70.3915 20.1225 70.4639 20.1767 70.5302 20.2431C70.5965 20.3033 70.6507 20.3727 70.6929 20.451C70.7351 20.5234 70.7562 20.5957 70.7562 20.668ZM68.9659 16.6805C68.9659 16.6202 68.9629 16.5569 68.9569 16.4906C68.9508 16.4243 68.9358 16.3671 68.9117 16.3188C68.8273 16.4213 68.7519 16.5449 68.6856 16.6896C68.6253 16.8282 68.5741 16.9759 68.5319 17.1326C68.4897 17.2833 68.4535 17.437 68.4234 17.5938C68.3993 17.7505 68.3812 17.8951 68.3691 18.0278C68.5259 17.8409 68.6645 17.6299 68.7851 17.3948C68.9056 17.1537 68.9659 16.9156 68.9659 16.6805ZM72.0221 22.4674C71.9317 22.4674 71.8322 22.4553 71.7237 22.4312C71.6212 22.4071 71.5218 22.3679 71.4253 22.3137C71.3349 22.2594 71.2565 22.1931 71.1902 22.1147C71.13 22.0304 71.0998 21.9309 71.0998 21.8164C71.0998 21.6476 71.1058 21.4818 71.1179 21.319C71.136 21.1503 71.1541 20.9845 71.1722 20.8217V20.8308L71.2264 20.225C71.2445 20.008 71.2596 19.7699 71.2716 19.5107C71.2837 19.2514 71.2927 18.9892 71.2987 18.724C71.3108 18.4527 71.3198 18.1875 71.3259 17.9283C71.3319 17.6691 71.3349 17.431 71.3349 17.214C71.3349 17.0874 71.3319 16.9608 71.3259 16.8342C71.3259 16.7016 71.3259 16.569 71.3259 16.4364C71.3198 16.3218 71.3168 16.1953 71.3168 16.0566C71.3168 15.9119 71.3168 15.7793 71.3168 15.6588C71.3168 15.5322 71.3319 15.4297 71.362 15.3513C71.3982 15.2669 71.4946 15.2248 71.6514 15.2248C71.79 15.2248 71.9347 15.2609 72.0854 15.3333C72.2421 15.4056 72.3506 15.5081 72.4109 15.6407H72.4019C72.432 15.707 72.4531 15.8155 72.4652 15.9662C72.4832 16.1109 72.4953 16.2405 72.5013 16.355C72.6038 16.1983 72.7183 16.0325 72.8449 15.8577C72.9775 15.6829 73.1192 15.5231 73.2699 15.3785C73.4206 15.2278 73.5803 15.1042 73.7491 15.0077C73.9179 14.9113 74.0987 14.8631 74.2916 14.8631C74.5448 14.8631 74.7377 14.9264 74.8703 15.053C75.0029 15.1795 75.0994 15.3393 75.1597 15.5322C75.2199 15.719 75.2531 15.921 75.2591 16.138C75.2652 16.349 75.2682 16.5419 75.2682 16.7167V16.789C75.2682 16.8613 75.2652 16.9337 75.2591 17.006C75.2591 17.0723 75.2471 17.1356 75.223 17.1959C75.2049 17.2502 75.1687 17.2954 75.1145 17.3315C75.0662 17.3677 74.9969 17.3858 74.9065 17.3858C74.81 17.3858 74.7076 17.3737 74.5991 17.3496C74.4906 17.3195 74.3881 17.2773 74.2916 17.223C74.2012 17.1688 74.1229 17.1025 74.0565 17.0241C73.9902 16.9397 73.9541 16.8433 73.948 16.7348C73.948 16.6865 73.948 16.6383 73.948 16.5901C73.948 16.5419 73.9511 16.4936 73.9571 16.4454C73.9571 16.4153 73.9571 16.3791 73.9571 16.3369C73.9631 16.2887 73.9661 16.2435 73.9661 16.2013C73.7732 16.3942 73.6014 16.6323 73.4507 16.9156C73.3061 17.1989 73.1734 17.5003 73.0529 17.8198C72.9384 18.1393 72.8389 18.4618 72.7545 18.7873C72.6701 19.1068 72.5978 19.3961 72.5375 19.6553V19.6824C72.5194 19.8693 72.5074 20.0532 72.5013 20.234C72.4953 20.4148 72.4893 20.6017 72.4832 20.7946C72.4772 21.0116 72.4682 21.2316 72.4561 21.4547C72.4501 21.6777 72.435 21.8947 72.4109 22.1057C72.3988 22.2202 72.3627 22.3076 72.3024 22.3679C72.2481 22.4342 72.1547 22.4674 72.0221 22.4674ZM79.1653 22.9376C79.1653 23.1847 79.1562 23.4439 79.1381 23.7152C79.1201 23.9864 79.0899 24.2577 79.0477 24.529C79.0055 24.8062 78.9483 25.0775 78.8759 25.3427C78.8036 25.608 78.7132 25.8551 78.6047 26.0842C78.4238 26.4217 78.1948 26.7171 77.9175 26.9703C77.6462 27.2295 77.3478 27.4465 77.0223 27.6213C76.6968 27.7961 76.3502 27.9287 75.9825 28.0192C75.6148 28.1096 75.2441 28.1548 74.8703 28.1548C74.8161 28.1548 74.7528 28.1518 74.6804 28.1457C74.6021 28.1397 74.5267 28.1246 74.4544 28.1005C74.3821 28.0825 74.3218 28.0493 74.2736 28.0011C74.2253 27.9529 74.2012 27.8865 74.2012 27.8022C74.2012 27.766 74.2103 27.7298 74.2283 27.6936C74.2283 27.6816 74.2314 27.6695 74.2374 27.6575C74.2374 27.6515 74.2374 27.6454 74.2374 27.6394C74.2796 27.5188 74.3278 27.4224 74.3821 27.3501C74.4363 27.2777 74.4996 27.2204 74.5719 27.1783C74.6382 27.1421 74.7196 27.115 74.8161 27.0969C74.9065 27.0848 75.012 27.0728 75.1325 27.0607C75.5183 27.0426 75.883 26.9522 76.2266 26.7894V26.7985C76.6184 26.6056 76.9259 26.3645 77.1489 26.0751C77.378 25.7918 77.5498 25.4753 77.6643 25.1257C77.7849 24.7821 77.8602 24.4174 77.8903 24.0316C77.9205 23.6459 77.9356 23.257 77.9356 22.8652C77.9356 22.7748 77.9356 22.7085 77.9356 22.6663C77.9356 22.6241 77.9356 22.5849 77.9356 22.5488C77.9356 22.5186 77.9356 22.4824 77.9356 22.4403C77.9356 22.3981 77.9325 22.3318 77.9265 22.2413C77.7155 22.4041 77.4955 22.4855 77.2664 22.4855C77.0012 22.4855 76.7752 22.4131 76.5883 22.2685C76.4075 22.1178 76.2537 21.9249 76.1272 21.6898C76.0066 21.4486 75.9102 21.1774 75.8378 20.876C75.7715 20.5686 75.7203 20.2581 75.6841 19.9447C75.654 19.6252 75.6329 19.3147 75.6208 19.0133C75.6148 18.7119 75.6118 18.4437 75.6118 18.2086V17.8288C75.6118 17.5094 75.6118 17.1959 75.6118 16.8885C75.6178 16.581 75.6298 16.2736 75.6479 15.9662V15.8306C75.6479 15.7582 75.6479 15.6859 75.6479 15.6136C75.6479 15.5412 75.654 15.4719 75.666 15.4056C75.6901 15.3091 75.7233 15.2398 75.7655 15.1976C75.8137 15.1554 75.8891 15.1343 75.9915 15.1343C76.0398 15.1343 76.085 15.1373 76.1272 15.1434C76.1754 15.1494 76.2236 15.1584 76.2718 15.1705C76.3864 15.2187 76.4768 15.27 76.5431 15.3242C76.6094 15.3724 76.6576 15.4327 76.6878 15.5051C76.7239 15.5714 76.745 15.6497 76.7511 15.7401C76.7631 15.8306 76.7691 15.9361 76.7691 16.0566V17.2682C76.7691 17.4129 76.7691 17.5938 76.7691 17.8108C76.7752 18.0217 76.7842 18.2538 76.7963 18.507C76.8083 18.7602 76.8234 19.0224 76.8415 19.2936C76.8596 19.5649 76.8867 19.8271 76.9229 20.0803C76.959 20.3335 77.0012 20.5655 77.0494 20.7765C77.0977 20.9875 77.1579 21.1623 77.2303 21.301C77.3388 21.0659 77.4322 20.7916 77.5106 20.4781C77.5889 20.1587 77.6522 19.8181 77.7005 19.4564C77.7547 19.0887 77.7939 18.7119 77.818 18.3262C77.8481 17.9404 77.8692 17.5636 77.8813 17.1959C77.8994 16.8282 77.9084 16.4816 77.9084 16.1561C77.9145 15.8245 77.9175 15.5352 77.9175 15.288C77.9175 15.2278 77.9175 15.1645 77.9175 15.0982C77.9235 15.0258 77.9386 14.9625 77.9627 14.9083C77.9868 14.848 78.0199 14.7998 78.0621 14.7636C78.1104 14.7274 78.1797 14.7094 78.2701 14.7094C78.3123 14.7094 78.3575 14.7154 78.4057 14.7274C78.46 14.7395 78.5052 14.7516 78.5414 14.7636C78.5534 14.7636 78.5655 14.7666 78.5775 14.7727C78.5956 14.7727 78.6107 14.7727 78.6227 14.7727C78.7071 14.8028 78.7885 14.8329 78.8669 14.8631C78.9452 14.8932 79.0116 14.9324 79.0658 14.9806C79.1261 15.0228 79.1713 15.0801 79.2014 15.1524C79.2376 15.2248 79.2557 15.3182 79.2557 15.4327C79.2557 15.5714 79.2527 15.7311 79.2466 15.9119C79.2466 16.0868 79.2406 16.2706 79.2286 16.4635C79.2225 16.6564 79.2135 16.8463 79.2014 17.0331C79.1894 17.214 79.1773 17.3767 79.1653 17.5214L79.1291 17.8379C79.117 17.9223 79.108 18.0067 79.102 18.0911C79.0959 18.1755 79.0929 18.2538 79.0929 18.3262C79.0929 18.7119 79.0959 19.0977 79.102 19.4835C79.108 19.8633 79.117 20.2461 79.1291 20.6319C79.1412 21.0176 79.1502 21.4034 79.1562 21.7892C79.1623 22.169 79.1653 22.5518 79.1653 22.9376ZM87.1313 21.8344C87.1313 21.955 87.0921 22.0424 87.0137 22.0967C86.9353 22.1509 86.8389 22.178 86.7244 22.178C86.652 22.178 86.5767 22.172 86.4983 22.16C86.42 22.1419 86.3446 22.1238 86.2723 22.1057C86.1457 22.0695 86.0462 22.0243 85.9739 21.9701C85.9076 21.9158 85.8563 21.8555 85.8202 21.7892C85.784 21.7169 85.7599 21.6385 85.7478 21.5541C85.7418 21.4697 85.7358 21.3763 85.7297 21.2738C85.7297 21.2437 85.7267 21.2166 85.7207 21.1925C85.7207 21.1683 85.7207 21.1442 85.7207 21.1201C85.7026 20.7765 85.6845 20.4239 85.6665 20.0622C85.6544 19.7005 85.6484 19.3479 85.6484 19.0043C85.6484 18.8295 85.6484 18.6547 85.6484 18.4799C85.6544 18.3051 85.6604 18.1302 85.6665 17.9554C85.6725 17.7806 85.6755 17.6088 85.6755 17.44C85.6815 17.2652 85.6845 17.0904 85.6845 16.9156C85.6845 16.8794 85.6815 16.8463 85.6755 16.8161C85.6755 16.78 85.6725 16.7438 85.6665 16.7076C85.5097 16.9367 85.3711 17.1929 85.2505 17.4762C85.136 17.7535 85.0335 18.0428 84.9431 18.3442C84.8527 18.6396 84.7743 18.938 84.708 19.2394C84.6477 19.5348 84.5965 19.8181 84.5543 20.0893L84.5272 20.2792C84.497 20.4902 84.4669 20.7072 84.4367 20.9302C84.4066 21.1473 84.3915 21.3643 84.3915 21.5813C84.3915 21.6717 84.4066 21.7711 84.4367 21.8797C84.4488 21.9279 84.4578 21.9761 84.4639 22.0243C84.4759 22.0665 84.482 22.1208 84.482 22.1871C84.482 22.3318 84.4458 22.4282 84.3734 22.4764C84.3011 22.5307 84.2047 22.5578 84.0841 22.5578C84.0118 22.5578 83.9304 22.5518 83.84 22.5397C83.7556 22.5277 83.6712 22.5066 83.5868 22.4764C83.5084 22.4523 83.4331 22.4192 83.3607 22.377C83.2884 22.3348 83.2311 22.2805 83.1889 22.2142C83.1528 22.1358 83.1166 21.9279 83.0804 21.5903C83.0503 21.2527 83.0202 20.8338 82.99 20.3335C82.9659 19.8331 82.9418 19.2725 82.9177 18.6517C82.8936 18.0248 82.8695 17.3828 82.8454 16.7257C82.8273 16.0687 82.8092 15.4176 82.7911 14.7727C82.779 14.1277 82.767 13.5339 82.7549 12.9914C82.7489 12.4489 82.7429 11.9787 82.7368 11.5808C82.7308 11.177 82.7278 10.8936 82.7278 10.7309C82.7278 10.6103 82.7429 10.5018 82.773 10.4054C82.8092 10.3029 82.9056 10.2517 83.0624 10.2517C83.2251 10.2517 83.3788 10.2908 83.5235 10.3692C83.6682 10.4415 83.7737 10.5561 83.84 10.7128C83.852 10.7369 83.8641 10.8364 83.8761 11.0112C83.8882 11.18 83.9003 11.4 83.9123 11.6713C83.9244 11.9365 83.9364 12.2439 83.9485 12.5935C83.9605 12.9371 83.9726 13.2958 83.9846 13.6695C83.9967 14.0372 84.0088 14.408 84.0208 14.7817C84.0329 15.1554 84.0449 15.5051 84.057 15.8306L84.1022 17.1688C84.1745 16.9819 84.2649 16.786 84.3734 16.581C84.482 16.3761 84.6055 16.1892 84.7442 16.0204C84.8888 15.8517 85.0486 15.713 85.2234 15.6045C85.4042 15.496 85.6032 15.4418 85.8202 15.4418C86.0854 15.4418 86.2934 15.5111 86.4441 15.6497C86.5948 15.7884 86.7063 15.9602 86.7786 16.1651C86.857 16.3701 86.9052 16.5901 86.9233 16.8252C86.9414 17.0603 86.9504 17.2743 86.9504 17.4672C86.9504 17.5877 86.9474 17.7053 86.9414 17.8198C86.9414 17.9343 86.9384 18.0489 86.9323 18.1634C86.9263 18.284 86.9203 18.4045 86.9142 18.5251C86.9142 18.6396 86.9142 18.7572 86.9142 18.8777C86.9142 19.2936 86.9233 19.7216 86.9414 20.1617C86.9595 20.5957 87.0047 21.0237 87.077 21.4456L87.0951 21.5722C87.1071 21.6084 87.1162 21.6506 87.1222 21.6988C87.1282 21.747 87.1313 21.7922 87.1313 21.8344ZM91.4081 20.668C91.4081 20.8489 91.3569 21.0357 91.2544 21.2286C91.1579 21.4215 91.0314 21.5993 90.8746 21.7621C90.7179 21.9188 90.5371 22.0484 90.3321 22.1509C90.1332 22.2534 89.9343 22.3046 89.7353 22.3046C89.452 22.3046 89.2079 22.2504 89.0029 22.1419C88.798 22.0273 88.6202 21.8766 88.4695 21.6898C88.3188 21.4969 88.1952 21.2799 88.0987 21.0387C88.0083 20.7976 87.936 20.5505 87.8817 20.2973C87.8275 20.0381 87.7883 19.7819 87.7642 19.5287C87.7461 19.2695 87.7371 19.0344 87.7371 18.8235C87.7371 18.6426 87.7461 18.4286 87.7642 18.1815C87.7883 17.9343 87.8245 17.6781 87.8727 17.4129C87.9269 17.1477 87.9993 16.8855 88.0897 16.6263C88.1801 16.3671 88.2916 16.135 88.4243 15.93C88.5629 15.7251 88.7257 15.5593 88.9125 15.4327C89.1054 15.3061 89.3254 15.2428 89.5726 15.2428C89.7655 15.2428 89.9373 15.282 90.088 15.3604C90.2447 15.4387 90.3743 15.5442 90.4768 15.6768C90.5853 15.8034 90.6667 15.9511 90.7209 16.1199C90.7812 16.2887 90.8113 16.4635 90.8113 16.6443C90.8113 16.8794 90.7571 17.1356 90.6486 17.4129C90.5401 17.6902 90.3984 17.9584 90.2236 18.2176C90.0548 18.4769 89.8619 18.7119 89.6449 18.9229C89.4339 19.1279 89.223 19.2846 89.012 19.3931C89.024 19.5016 89.0482 19.6614 89.0843 19.8723C89.1205 20.0773 89.1687 20.2822 89.229 20.4872C89.2953 20.6921 89.3706 20.87 89.455 21.0207C89.5455 21.1714 89.651 21.2467 89.7715 21.2467C89.8318 21.2467 89.883 21.2286 89.9252 21.1925C89.9734 21.1563 90.0156 21.1081 90.0518 21.0478C90.088 20.9875 90.1181 20.9212 90.1422 20.8489C90.1724 20.7765 90.1995 20.7072 90.2236 20.6409L90.2779 20.5143C90.2899 20.4962 90.2959 20.4842 90.2959 20.4781C90.302 20.4721 90.308 20.4631 90.314 20.451C90.3562 20.3727 90.3954 20.3003 90.4316 20.234C90.4738 20.1677 90.531 20.1104 90.6034 20.0622H90.5943C90.6184 20.0381 90.6426 20.026 90.6667 20.026C90.6968 20.02 90.7239 20.017 90.748 20.017C90.8144 20.017 90.8867 20.0381 90.9651 20.0803C91.0434 20.1225 91.1158 20.1767 91.1821 20.2431C91.2484 20.3033 91.3026 20.3727 91.3448 20.451C91.387 20.5234 91.4081 20.5957 91.4081 20.668ZM89.6178 16.6805C89.6178 16.6202 89.6148 16.5569 89.6088 16.4906C89.6027 16.4243 89.5877 16.3671 89.5635 16.3188C89.4792 16.4213 89.4038 16.5449 89.3375 16.6896C89.2772 16.8282 89.226 16.9759 89.1838 17.1326C89.1416 17.2833 89.1054 17.437 89.0753 17.5938C89.0512 17.7505 89.0331 17.8951 89.021 18.0278C89.1778 17.8409 89.3164 17.6299 89.437 17.3948C89.5575 17.1537 89.6178 16.9156 89.6178 16.6805ZM92.674 22.4674C92.5836 22.4674 92.4841 22.4553 92.3756 22.4312C92.2731 22.4071 92.1737 22.3679 92.0772 22.3137C91.9868 22.2594 91.9084 22.1931 91.8421 22.1147C91.7818 22.0304 91.7517 21.9309 91.7517 21.8164C91.7517 21.6476 91.7577 21.4818 91.7698 21.319C91.7879 21.1503 91.806 20.9845 91.824 20.8217V20.8308L91.8783 20.225C91.8964 20.008 91.9115 19.7699 91.9235 19.5107C91.9356 19.2514 91.9446 18.9892 91.9506 18.724C91.9627 18.4527 91.9717 18.1875 91.9778 17.9283C91.9838 17.6691 91.9868 17.431 91.9868 17.214C91.9868 17.0874 91.9838 16.9608 91.9778 16.8342C91.9778 16.7016 91.9778 16.569 91.9778 16.4364C91.9717 16.3218 91.9687 16.1953 91.9687 16.0566C91.9687 15.9119 91.9687 15.7793 91.9687 15.6588C91.9687 15.5322 91.9838 15.4297 92.0139 15.3513C92.0501 15.2669 92.1465 15.2248 92.3033 15.2248C92.4419 15.2248 92.5866 15.2609 92.7373 15.3333C92.894 15.4056 93.0025 15.5081 93.0628 15.6407H93.0538C93.0839 15.707 93.105 15.8155 93.117 15.9662C93.1351 16.1109 93.1472 16.2405 93.1532 16.355C93.2557 16.1983 93.3702 16.0325 93.4968 15.8577C93.6294 15.6829 93.7711 15.5231 93.9218 15.3785C94.0725 15.2278 94.2322 15.1042 94.401 15.0077C94.5698 14.9113 94.7506 14.8631 94.9435 14.8631C95.1967 14.8631 95.3896 14.9264 95.5222 15.053C95.6548 15.1795 95.7513 15.3393 95.8116 15.5322C95.8718 15.719 95.905 15.921 95.911 16.138C95.9171 16.349 95.9201 16.5419 95.9201 16.7167V16.789C95.9201 16.8613 95.9171 16.9337 95.911 17.006C95.911 17.0723 95.899 17.1356 95.8749 17.1959C95.8568 17.2502 95.8206 17.2954 95.7664 17.3315C95.7181 17.3677 95.6488 17.3858 95.5584 17.3858C95.4619 17.3858 95.3595 17.3737 95.251 17.3496C95.1425 17.3195 95.04 17.2773 94.9435 17.223C94.8531 17.1688 94.7747 17.1025 94.7084 17.0241C94.6421 16.9397 94.606 16.8433 94.5999 16.7348C94.5999 16.6865 94.5999 16.6383 94.5999 16.5901C94.5999 16.5419 94.6029 16.4936 94.609 16.4454C94.609 16.4153 94.609 16.3791 94.609 16.3369C94.615 16.2887 94.618 16.2435 94.618 16.2013C94.4251 16.3942 94.2533 16.6323 94.1026 16.9156C93.958 17.1989 93.8253 17.5003 93.7048 17.8198C93.5902 18.1393 93.4908 18.4618 93.4064 18.7873C93.322 19.1068 93.2497 19.3961 93.1894 19.6553V19.6824C93.1713 19.8693 93.1592 20.0532 93.1532 20.234C93.1472 20.4148 93.1412 20.6017 93.1351 20.7946C93.1291 21.0116 93.1201 21.2316 93.108 21.4547C93.102 21.6777 93.0869 21.8947 93.0628 22.1057C93.0507 22.2202 93.0146 22.3076 92.9543 22.3679C92.9 22.4342 92.8066 22.4674 92.674 22.4674ZM99.7991 20.668C99.7991 20.8489 99.7478 21.0357 99.6454 21.2286C99.5489 21.4215 99.4223 21.5993 99.2656 21.7621C99.1089 21.9188 98.928 22.0484 98.7231 22.1509C98.5242 22.2534 98.3252 22.3046 98.1263 22.3046C97.843 22.3046 97.5989 22.2504 97.3939 22.1419C97.189 22.0273 97.0111 21.8766 96.8604 21.6898C96.7097 21.4969 96.5862 21.2799 96.4897 21.0387C96.3993 20.7976 96.3269 20.5505 96.2727 20.2973C96.2184 20.0381 96.1793 19.7819 96.1552 19.5287C96.1371 19.2695 96.128 19.0344 96.128 18.8235C96.128 18.6426 96.1371 18.4286 96.1552 18.1815C96.1793 17.9343 96.2154 17.6781 96.2637 17.4129C96.3179 17.1477 96.3902 16.8855 96.4807 16.6263C96.5711 16.3671 96.6826 16.135 96.8152 15.93C96.9539 15.7251 97.1166 15.5593 97.3035 15.4327C97.4964 15.3061 97.7164 15.2428 97.9635 15.2428C98.1564 15.2428 98.3282 15.282 98.4789 15.3604C98.6357 15.4387 98.7653 15.5442 98.8677 15.6768C98.9763 15.8034 99.0576 15.9511 99.1119 16.1199C99.1722 16.2887 99.2023 16.4635 99.2023 16.6443C99.2023 16.8794 99.148 17.1356 99.0395 17.4129C98.931 17.6902 98.7894 17.9584 98.6146 18.2176C98.4458 18.4769 98.2529 18.7119 98.0359 18.9229C97.8249 19.1279 97.6139 19.2846 97.4029 19.3931C97.415 19.5016 97.4391 19.6614 97.4753 19.8723C97.5114 20.0773 97.5597 20.2822 97.62 20.4872C97.6863 20.6921 97.7616 20.87 97.846 21.0207C97.9364 21.1714 98.0419 21.2467 98.1625 21.2467C98.2228 21.2467 98.274 21.2286 98.3162 21.1925C98.3644 21.1563 98.4066 21.1081 98.4428 21.0478C98.4789 20.9875 98.5091 20.9212 98.5332 20.8489C98.5633 20.7765 98.5905 20.7072 98.6146 20.6409L98.6688 20.5143C98.6809 20.4962 98.6869 20.4842 98.6869 20.4781C98.6929 20.4721 98.699 20.4631 98.705 20.451C98.7472 20.3727 98.7864 20.3003 98.8225 20.234C98.8647 20.1677 98.922 20.1104 98.9943 20.0622H98.9853C99.0094 20.0381 99.0335 20.026 99.0576 20.026C99.0878 20.02 99.1149 20.017 99.139 20.017C99.2053 20.017 99.2776 20.0381 99.356 20.0803C99.4344 20.1225 99.5067 20.1767 99.573 20.2431C99.6393 20.3033 99.6936 20.3727 99.7358 20.451C99.778 20.5234 99.7991 20.5957 99.7991 20.668ZM98.0088 16.6805C98.0088 16.6202 98.0057 16.5569 97.9997 16.4906C97.9937 16.4243 97.9786 16.3671 97.9545 16.3188C97.8701 16.4213 97.7948 16.5449 97.7285 16.6896C97.6682 16.8282 97.6169 16.9759 97.5747 17.1326C97.5325 17.2833 97.4964 17.437 97.4662 17.5938C97.4421 17.7505 97.424 17.8951 97.412 18.0278C97.5687 17.8409 97.7074 17.6299 97.8279 17.3948C97.9485 17.1537 98.0088 16.9156 98.0088 16.6805ZM39.2178 33.7184C39.2178 33.8209 39.1937 33.8962 39.1454 33.9444C39.1032 33.9866 39.0219 34.0077 38.9013 34.0077C38.8471 34.0077 38.7627 34.0017 38.6481 33.9897C38.5336 33.9716 38.4161 33.9475 38.2955 33.9173C38.181 33.8872 38.0785 33.845 37.9881 33.7907C37.9037 33.7365 37.8615 33.6702 37.8615 33.5918C37.8615 33.5677 37.8705 33.5014 37.8886 33.3929C37.9067 33.2784 37.9278 33.1578 37.9519 33.0312C37.982 32.9046 38.0062 32.7901 38.0242 32.6876C38.0483 32.5851 38.0664 32.5279 38.0785 32.5158V32.5249C38.1086 32.4766 38.1448 32.4465 38.187 32.4344C38.2292 32.4224 38.2714 32.4164 38.3136 32.4164C38.3678 32.4164 38.4372 32.4254 38.5215 32.4435C38.612 32.4555 38.6994 32.4766 38.7838 32.5068C38.8742 32.5309 38.9556 32.564 39.0279 32.6062C39.1002 32.6484 39.1454 32.6936 39.1635 32.7419C39.1816 32.7901 39.1907 32.8564 39.1907 32.9408C39.1967 33.0192 39.1967 33.0915 39.1907 33.1578C39.1907 33.1819 39.1876 33.212 39.1816 33.2482C39.1816 33.2784 39.1816 33.3025 39.1816 33.3206C39.1816 33.3507 39.1816 33.3808 39.1816 33.411C39.1876 33.4411 39.1937 33.4713 39.1997 33.5014C39.2057 33.5315 39.2087 33.5647 39.2087 33.6009C39.2148 33.637 39.2178 33.6762 39.2178 33.7184ZM39.5523 40.9249C39.5523 41.0635 39.5192 41.163 39.4529 41.2232C39.3926 41.2775 39.2931 41.3046 39.1545 41.3046C39.0821 41.3046 39.0008 41.2956 38.9104 41.2775C38.826 41.2594 38.7416 41.2353 38.6572 41.2052C38.5728 41.169 38.4944 41.1268 38.4221 41.0786C38.3497 41.0304 38.2955 40.9761 38.2593 40.9158C38.2352 40.8797 38.2141 40.7681 38.196 40.5813C38.1779 40.3944 38.1629 40.1623 38.1508 39.885C38.1448 39.6077 38.1358 39.2973 38.1237 38.9537C38.1177 38.6101 38.1116 38.2635 38.1056 37.9139C38.1056 37.5643 38.1056 37.2237 38.1056 36.8921C38.1056 36.5606 38.1056 36.2713 38.1056 36.0241V35.3279C38.1056 35.2676 38.1056 35.2073 38.1056 35.147C38.1116 35.0868 38.1237 35.0355 38.1418 34.9933C38.1659 34.9451 38.199 34.9059 38.2412 34.8758C38.2895 34.8456 38.3558 34.8306 38.4402 34.8306C38.7054 34.8306 38.8983 34.9059 39.0189 35.0566C39.1454 35.2013 39.2238 35.3972 39.2539 35.6443C39.2841 36.012 39.3052 36.3798 39.3172 36.7475C39.3353 37.1091 39.3504 37.4769 39.3624 37.8506C39.3745 38.1882 39.3835 38.5227 39.3896 38.8542C39.4016 39.1798 39.4227 39.5053 39.4529 39.8308C39.4589 39.8971 39.4649 39.9604 39.471 40.0207C39.477 40.0809 39.486 40.1412 39.4981 40.2015C39.5101 40.3221 39.5222 40.4426 39.5342 40.5632C39.5463 40.6777 39.5523 40.7983 39.5523 40.9249ZM41.858 41.2775C41.858 41.4161 41.8158 41.5066 41.7314 41.5488C41.6531 41.591 41.5566 41.6121 41.4421 41.6121C41.3396 41.6121 41.2372 41.603 41.1347 41.5849C41.0382 41.5729 40.9448 41.5457 40.8544 41.5035C40.77 41.4614 40.6946 41.4041 40.6283 41.3318C40.568 41.2594 40.5259 41.166 40.5017 41.0514C40.4173 40.6898 40.3691 40.3371 40.3571 39.9935C40.345 39.6439 40.339 39.2852 40.339 38.9175V37.8054C40.339 37.299 40.3601 36.7746 40.4023 36.2321C40.4445 35.6835 40.4897 35.1561 40.5379 34.6497C40.5379 34.6316 40.5409 34.6105 40.5469 34.5864C40.553 34.5623 40.556 34.5442 40.556 34.5322C40.562 34.4659 40.5711 34.3935 40.5831 34.3152C40.5952 34.2368 40.6133 34.1675 40.6374 34.1072C40.6675 34.0409 40.7067 33.9866 40.7549 33.9444C40.8092 33.9023 40.8785 33.8812 40.9629 33.8812C41.0593 33.8812 41.1497 33.9023 41.2341 33.9444C41.3246 33.9806 41.4029 34.0319 41.4692 34.0982C41.5355 34.1584 41.5868 34.2338 41.6229 34.3242C41.6651 34.4146 41.6862 34.5081 41.6862 34.6045C41.6862 34.707 41.6832 34.8215 41.6772 34.9481C41.6712 35.0687 41.6621 35.1832 41.6501 35.2917C41.6501 35.3218 41.6471 35.355 41.641 35.3912C41.641 35.4273 41.638 35.4605 41.632 35.4906C41.7164 35.3218 41.8128 35.147 41.9213 34.9662C42.0298 34.7793 42.1534 34.6105 42.2921 34.4598C42.4367 34.3031 42.5935 34.1765 42.7622 34.0801C42.937 33.9836 43.1299 33.9354 43.3409 33.9354C43.5157 33.9354 43.6604 33.9625 43.7749 34.0168C43.8895 34.071 43.9799 34.1494 44.0462 34.2519C44.1185 34.3483 44.1668 34.4629 44.1909 34.5955C44.221 34.7281 44.2361 34.8697 44.2361 35.0204C44.2361 35.2254 44.2301 35.4334 44.218 35.6443C44.2059 35.8493 44.1939 36.0542 44.1818 36.2592C44.1637 36.4702 44.1487 36.6781 44.1366 36.8831C44.1246 37.088 44.1185 37.296 44.1185 37.507C44.1185 37.7602 44.1246 38.0224 44.1366 38.2936C44.1487 38.5589 44.1668 38.8151 44.1909 39.0622C44.215 39.3033 44.2421 39.5234 44.2722 39.7223C44.3024 39.9152 44.3325 40.0659 44.3627 40.1744C44.3868 40.2648 44.4109 40.3703 44.435 40.4908C44.4651 40.6054 44.4923 40.7259 44.5164 40.8525C44.5465 40.9731 44.5706 41.0906 44.5887 41.2052C44.6068 41.3197 44.6158 41.4222 44.6158 41.5126C44.6158 41.6452 44.5616 41.7296 44.4531 41.7658C44.3506 41.8019 44.2481 41.82 44.1457 41.82C44.0432 41.82 43.9256 41.811 43.793 41.7929C43.6664 41.7808 43.5519 41.7477 43.4494 41.6934C43.3228 41.603 43.2384 41.4764 43.1963 41.3137C43.1601 41.1509 43.136 40.9912 43.1239 40.8344L43.0968 40.5903C43.0787 40.4456 43.0546 40.2558 43.0245 40.0207C42.9943 39.7856 42.9642 39.5264 42.934 39.2431C42.9099 38.9597 42.8888 38.6674 42.8707 38.366C42.8527 38.0586 42.8436 37.7602 42.8436 37.4708C42.8436 37.2116 42.8527 36.9615 42.8707 36.7203C42.8949 36.4792 42.919 36.2351 42.9431 35.9879C42.9551 35.8613 42.9642 35.7589 42.9702 35.6805C42.9762 35.6021 42.9853 35.4997 42.9973 35.3731C42.8768 35.566 42.7562 35.792 42.6356 36.0512C42.5151 36.3104 42.4006 36.5817 42.2921 36.865C42.1835 37.1423 42.0841 37.4136 41.9937 37.6788C41.9093 37.944 41.843 38.1761 41.7947 38.375L41.7405 38.5739C41.7104 38.6704 41.6832 38.7668 41.6591 38.8633C41.641 38.9597 41.632 39.0502 41.632 39.1345C41.632 39.2431 41.638 39.3696 41.6501 39.5143C41.6621 39.653 41.6772 39.7856 41.6953 39.9122C41.7134 40.0629 41.7345 40.2166 41.7586 40.3733C41.7586 40.3854 41.7646 40.4245 41.7767 40.4908C41.7887 40.5572 41.8008 40.6355 41.8128 40.7259C41.8249 40.8164 41.8339 40.9128 41.84 41.0153C41.852 41.1117 41.858 41.1991 41.858 41.2775ZM53.0068 35.8613C53.0068 36.1507 52.9978 36.5003 52.9797 36.9102C52.9616 37.3141 52.9224 37.7361 52.8621 38.1761C52.8019 38.6101 52.7144 39.0441 52.5999 39.4781C52.4914 39.9122 52.3377 40.301 52.1388 40.6446C51.9459 40.9821 51.7048 41.2564 51.4154 41.4674C51.1321 41.6844 50.7885 41.7929 50.3846 41.7929C50.0531 41.7929 49.7577 41.7356 49.4985 41.6211C49.2393 41.5066 49.0133 41.3498 48.8204 41.1509C48.6275 40.952 48.4647 40.7199 48.3321 40.4547C48.2055 40.1894 48.1121 39.9061 48.0518 39.6047C48.0337 39.4962 48.0126 39.3877 47.9885 39.2792C47.9704 39.1707 47.9614 39.0622 47.9614 38.9537C47.9614 38.809 47.9885 38.6885 48.0428 38.592C48.103 38.4956 48.2146 38.4474 48.3773 38.4474C48.4557 38.4474 48.5491 38.4594 48.6576 38.4835C48.7661 38.5076 48.8686 38.5438 48.965 38.592C49.0675 38.6342 49.1609 38.6885 49.2453 38.7548C49.3297 38.8211 49.39 38.8934 49.4262 38.9718C49.4865 39.0984 49.5287 39.2581 49.5528 39.451C49.5769 39.6379 49.613 39.8217 49.6613 40.0026C49.7155 40.1834 49.7939 40.3371 49.8964 40.4637C50.0049 40.5903 50.1676 40.6536 50.3846 40.6536C50.5594 40.6536 50.7101 40.5451 50.8367 40.3281C50.9693 40.1111 51.0809 39.8338 51.1713 39.4962C51.2677 39.1587 51.3461 38.7849 51.4064 38.375C51.4727 37.9651 51.5209 37.5703 51.551 37.1905C51.5872 36.8108 51.6113 36.4672 51.6234 36.1597C51.6415 35.8523 51.6505 35.6323 51.6505 35.4997C51.6505 35.3671 51.6445 35.1922 51.6324 34.9752C51.6264 34.7522 51.6083 34.5171 51.5782 34.27C51.548 34.0168 51.5028 33.7636 51.4425 33.5104C51.3823 33.2573 51.3039 33.0312 51.2074 32.8323C51.117 32.6273 51.0025 32.4616 50.8639 32.335C50.7252 32.2024 50.5594 32.1361 50.3665 32.1361C50.1435 32.1361 49.9265 32.2024 49.7155 32.335C49.7276 32.3832 49.7366 32.4284 49.7426 32.4706C49.7487 32.5128 49.7517 32.558 49.7517 32.6062C49.7517 32.8835 49.607 33.0222 49.3177 33.0222C49.2815 33.0222 49.2423 33.0192 49.2001 33.0131C49.1579 33.0071 49.1188 33.0041 49.0826 33.0041C49.0223 33.0342 48.947 33.0342 48.8565 33.0041C48.7721 32.9739 48.6877 32.9317 48.6034 32.8775C48.519 32.8232 48.4436 32.763 48.3773 32.6967C48.311 32.6243 48.2688 32.558 48.2507 32.4977C48.2025 32.3169 48.1814 32.13 48.1874 31.9371C48.1935 31.7442 48.1965 31.5574 48.1965 31.3765C48.1965 31.1294 48.1904 30.8852 48.1784 30.6441C48.1663 30.403 48.1543 30.1589 48.1422 29.9117C48.1241 29.8936 48.1091 29.8695 48.097 29.8394C48.091 29.8092 48.088 29.7791 48.088 29.749C48.088 29.5983 48.097 29.4657 48.1151 29.3511C48.1392 29.2366 48.1784 29.1432 48.2326 29.0708C48.2929 28.9985 48.3743 28.9442 48.4768 28.9081C48.5853 28.8719 48.7269 28.8508 48.9017 28.8448C49.167 28.8327 49.4262 28.8207 49.6794 28.8086C49.9325 28.7905 50.1917 28.7664 50.457 28.7363C50.5836 28.7182 50.7071 28.7001 50.8277 28.682C50.9482 28.6579 51.0778 28.6458 51.2165 28.6458C51.3371 28.6458 51.4184 28.682 51.4606 28.7543C51.5028 28.8267 51.5239 28.9171 51.5239 29.0256C51.5239 29.1462 51.5088 29.2547 51.4787 29.3511C51.4546 29.4476 51.3913 29.532 51.2888 29.6043C51.2406 29.6344 51.1291 29.6676 50.9543 29.7038C50.7855 29.7399 50.5986 29.7761 50.3937 29.8123C50.1947 29.8424 50.0019 29.8695 49.815 29.8936C49.6281 29.9117 49.4985 29.9238 49.4262 29.9298L49.5708 31.2499C49.7155 31.2017 49.8602 31.1686 50.0049 31.1505C50.1495 31.1324 50.2942 31.1233 50.4389 31.1233C50.8186 31.1233 51.1472 31.2017 51.4245 31.3584C51.7017 31.5152 51.9338 31.7231 52.1207 31.9823C52.3136 32.2355 52.4673 32.5279 52.5818 32.8594C52.6964 33.1849 52.7838 33.5255 52.844 33.8812C52.9104 34.2308 52.9526 34.5774 52.9706 34.921C52.9947 35.2646 53.0068 35.578 53.0068 35.8613ZM59.6617 34.6949C59.6617 34.7673 59.6346 34.8275 59.5803 34.8758C59.5321 34.924 59.4718 34.9662 59.3995 35.0024C59.3272 35.0325 59.2518 35.0536 59.1734 35.0657C59.1011 35.0777 59.0408 35.0837 58.9926 35.0837C58.9203 35.0837 58.8509 35.0777 58.7846 35.0657C58.7183 35.0476 58.652 35.0295 58.5857 35.0114C58.5194 34.9933 58.4561 34.9782 58.3958 34.9662C58.3355 34.9481 58.2723 34.9391 58.2059 34.9391C58.1155 34.9391 58.0251 34.9541 57.9347 34.9843C57.8443 35.0144 57.7629 35.0566 57.6906 35.1109C57.6182 35.1651 57.5579 35.2314 57.5097 35.3098C57.4675 35.3882 57.4464 35.4756 57.4464 35.572C57.4464 35.7167 57.4766 35.8613 57.5368 36.006C57.5971 36.1447 57.6755 36.2863 57.7719 36.431C57.8744 36.5757 57.9889 36.7234 58.1155 36.8741C58.2481 37.0187 58.3868 37.1664 58.5315 37.3171C58.7063 37.51 58.8811 37.7059 59.0559 37.9048C59.2367 38.1038 59.3965 38.3117 59.5351 38.5287C59.6798 38.7457 59.7973 38.9748 59.8878 39.2159C59.9782 39.457 60.0234 39.7102 60.0234 39.9755C60.0234 40.2045 59.9842 40.4095 59.9058 40.5903C59.8335 40.7711 59.728 40.9249 59.5894 41.0514C59.4568 41.178 59.294 41.2745 59.1011 41.3408C58.9142 41.4131 58.7093 41.4493 58.4862 41.4493C58.426 41.4493 58.3325 41.4372 58.2059 41.4131C58.0854 41.389 57.9467 41.3559 57.79 41.3137C57.6333 41.2654 57.4705 41.2142 57.3017 41.16C57.139 41.1057 56.9883 41.0484 56.8496 40.9882C56.717 40.9218 56.6055 40.8586 56.5151 40.7983C56.4307 40.732 56.3885 40.6717 56.3885 40.6174C56.3885 40.5451 56.4217 40.4728 56.488 40.4004C56.5543 40.3221 56.6326 40.2527 56.7231 40.1925C56.8135 40.1262 56.9069 40.0719 57.0034 40.0297C57.1058 39.9875 57.1902 39.9664 57.2565 39.9664C57.347 39.9664 57.4404 39.9875 57.5368 40.0297C57.6393 40.0719 57.7418 40.1201 57.8443 40.1744C57.9588 40.2347 58.0733 40.2889 58.1879 40.3371C58.3084 40.3854 58.432 40.4095 58.5586 40.4095C58.655 40.4095 58.7093 40.3763 58.7213 40.31C58.7394 40.2437 58.7485 40.1683 58.7485 40.084C58.7485 39.873 58.7123 39.6741 58.64 39.4872C58.5676 39.2943 58.4742 39.1074 58.3597 38.9266C58.2451 38.7457 58.1125 38.5709 57.9618 38.4021C57.8111 38.2273 57.6604 38.0555 57.5097 37.8868C57.353 37.718 57.1993 37.5492 57.0486 37.3804C56.9039 37.2116 56.7743 37.0398 56.6598 36.865C56.5452 36.6842 56.4518 36.5003 56.3795 36.3134C56.3132 36.1266 56.28 35.9277 56.28 35.7167C56.28 35.4575 56.3373 35.2254 56.4518 35.0204C56.5663 34.8095 56.714 34.6286 56.8949 34.4779C57.0817 34.3272 57.2897 34.2127 57.5188 34.1343C57.7538 34.0499 57.9889 34.0077 58.224 34.0077C58.3024 34.0077 58.423 34.0258 58.5857 34.062C58.7485 34.0921 58.9082 34.1373 59.0649 34.1976C59.2217 34.2579 59.3603 34.3302 59.4809 34.4146C59.6014 34.499 59.6617 34.5925 59.6617 34.6949ZM63.9747 39.668C63.9747 39.8489 63.9235 40.0357 63.821 40.2286C63.7246 40.4215 63.598 40.5993 63.4413 40.7621C63.2845 40.9188 63.1037 41.0484 62.8987 41.1509C62.6998 41.2534 62.5009 41.3046 62.302 41.3046C62.0186 41.3046 61.7745 41.2504 61.5696 41.1419C61.3646 41.0273 61.1868 40.8766 61.0361 40.6898C60.8854 40.4969 60.7618 40.2799 60.6654 40.0387C60.5749 39.7976 60.5026 39.5505 60.4484 39.2973C60.3941 39.0381 60.3549 38.7819 60.3308 38.5287C60.3127 38.2695 60.3037 38.0344 60.3037 37.8235C60.3037 37.6426 60.3127 37.4286 60.3308 37.1815C60.3549 36.9343 60.3911 36.6781 60.4393 36.4129C60.4936 36.1477 60.5659 35.8855 60.6563 35.6263C60.7467 35.3671 60.8583 35.135 60.9909 34.93C61.1295 34.7251 61.2923 34.5593 61.4791 34.4327C61.672 34.3061 61.8921 34.2428 62.1392 34.2428C62.3321 34.2428 62.5039 34.282 62.6546 34.3604C62.8113 34.4387 62.9409 34.5442 63.0434 34.6768C63.1519 34.8034 63.2333 34.9511 63.2875 35.1199C63.3478 35.2887 63.378 35.4635 63.378 35.6443C63.378 35.8794 63.3237 36.1356 63.2152 36.4129C63.1067 36.6902 62.965 36.9584 62.7902 37.2176C62.6214 37.4769 62.4286 37.7119 62.2115 37.9229C62.0006 38.1279 61.7896 38.2846 61.5786 38.3931C61.5907 38.5016 61.6148 38.6614 61.6509 38.8723C61.6871 39.0773 61.7353 39.2822 61.7956 39.4872C61.8619 39.6921 61.9373 39.87 62.0217 40.0207C62.1121 40.1714 62.2176 40.2467 62.3381 40.2467C62.3984 40.2467 62.4496 40.2286 62.4918 40.1925C62.5401 40.1563 62.5823 40.1081 62.6184 40.0478C62.6546 39.9875 62.6847 39.9212 62.7089 39.8489C62.739 39.7765 62.7661 39.7072 62.7902 39.6409L62.8445 39.5143C62.8565 39.4962 62.8626 39.4842 62.8626 39.4781C62.8686 39.4721 62.8746 39.4631 62.8807 39.451C62.9228 39.3727 62.962 39.3003 62.9982 39.234C63.0404 39.1677 63.0977 39.1104 63.17 39.0622H63.161C63.1851 39.0381 63.2092 39.026 63.2333 39.026C63.2634 39.02 63.2906 39.017 63.3147 39.017C63.381 39.017 63.4533 39.0381 63.5317 39.0803C63.61 39.1225 63.6824 39.1767 63.7487 39.2431C63.815 39.3033 63.8692 39.3727 63.9114 39.451C63.9536 39.5234 63.9747 39.5957 63.9747 39.668ZM62.1844 35.6805C62.1844 35.6202 62.1814 35.5569 62.1754 35.4906C62.1693 35.4243 62.1543 35.3671 62.1302 35.3188C62.0458 35.4213 61.9704 35.5449 61.9041 35.6896C61.8438 35.8282 61.7926 35.9759 61.7504 36.1326C61.7082 36.2833 61.672 36.437 61.6419 36.5938C61.6178 36.7505 61.5997 36.8951 61.5876 37.0278C61.7444 36.8409 61.883 36.6299 62.0036 36.3948C62.1241 36.1537 62.1844 35.9156 62.1844 35.6805ZM67.9713 39.2973C67.9713 39.4239 67.9502 39.5535 67.908 39.6861C67.8658 39.8187 67.8176 39.9453 67.7633 40.0659C67.691 40.2407 67.6036 40.4125 67.5011 40.5813C67.3986 40.744 67.2811 40.8917 67.1485 41.0243C67.0159 41.1509 66.8652 41.2534 66.6964 41.3318C66.5276 41.4101 66.3377 41.4493 66.1267 41.4493C65.753 41.4493 65.4425 41.3559 65.1954 41.169C64.9483 40.9821 64.7523 40.747 64.6077 40.4637C64.463 40.1804 64.3605 39.87 64.3002 39.5324C64.246 39.1948 64.2189 38.8753 64.2189 38.5739C64.2189 38.3509 64.2279 38.0887 64.246 37.7873C64.2641 37.4799 64.2972 37.1634 64.3455 36.8379C64.3997 36.5124 64.4751 36.1899 64.5715 35.8704C64.674 35.5509 64.8036 35.2676 64.9603 35.0204C65.117 34.7673 65.3069 34.5623 65.53 34.4056C65.759 34.2489 66.0303 34.1705 66.3437 34.1705C66.41 34.1705 66.5065 34.1826 66.6331 34.2067C66.7597 34.2308 66.8832 34.2669 67.0038 34.3152C67.1304 34.3574 67.2389 34.4176 67.3293 34.496C67.4258 34.5683 67.474 34.6527 67.474 34.7492C67.474 34.8396 67.4318 34.9089 67.3474 34.9572C67.269 35.0054 67.1726 35.0415 67.0581 35.0657C66.9495 35.0837 66.835 35.0958 66.7145 35.1018C66.5999 35.1018 66.5065 35.1018 66.4342 35.1018H66.2714C66.1026 35.2525 65.964 35.4756 65.8555 35.7709C65.747 36.0603 65.6626 36.3707 65.6023 36.7023C65.542 37.0338 65.4998 37.3623 65.4757 37.6878C65.4516 38.0073 65.4395 38.2695 65.4395 38.4745C65.4395 38.7638 65.4606 39.0502 65.5028 39.3335C65.5511 39.6108 65.6445 39.873 65.7831 40.1201C65.8133 40.1744 65.8555 40.2377 65.9097 40.31C65.97 40.3763 66.0363 40.4095 66.1086 40.4095C66.1629 40.4095 66.2171 40.3643 66.2714 40.2738C66.3317 40.1834 66.3859 40.0779 66.4342 39.9574C66.4824 39.8368 66.5216 39.7193 66.5517 39.6047C66.5818 39.4902 66.6029 39.4058 66.615 39.3516C66.621 39.3274 66.624 39.3003 66.624 39.2702C66.624 39.24 66.624 39.2099 66.624 39.1798C66.624 39.1255 66.624 39.0743 66.624 39.026C66.6301 38.9718 66.6391 38.9296 66.6512 38.8995C66.6934 38.797 66.7476 38.7277 66.8139 38.6915C66.8863 38.6553 66.9737 38.6372 67.0761 38.6372C67.1666 38.6372 67.263 38.6493 67.3655 38.6734C67.468 38.6975 67.5644 38.7367 67.6548 38.791C67.7452 38.8452 67.8206 38.9145 67.8809 38.9989C67.9412 39.0833 67.9713 39.1828 67.9713 39.2973ZM72.3114 37.6155C72.3114 38.1399 72.2662 38.6644 72.1758 39.1888C72.0914 39.7072 71.9136 40.1985 71.6423 40.6626C71.5579 40.8013 71.4615 40.9369 71.353 41.0695C71.2445 41.1961 71.1239 41.3107 70.9913 41.4131C70.8647 41.5216 70.7231 41.606 70.5663 41.6663C70.4156 41.7326 70.2559 41.7658 70.0871 41.7658C69.8219 41.7658 69.5898 41.7025 69.3909 41.5759C69.198 41.4553 69.0292 41.2956 68.8845 41.0967C68.7459 40.8917 68.6283 40.6626 68.5319 40.4095C68.4415 40.1503 68.3691 39.888 68.3149 39.6228C68.2667 39.3516 68.2305 39.0893 68.2064 38.8362C68.1883 38.583 68.1793 38.36 68.1793 38.1671C68.1793 37.95 68.1883 37.7119 68.2064 37.4527C68.2245 37.1935 68.2546 36.9283 68.2968 36.657C68.345 36.3858 68.4053 36.1175 68.4776 35.8523C68.556 35.5871 68.6555 35.3399 68.776 35.1109C68.8966 34.8758 69.0413 34.6678 69.21 34.487C69.3788 34.3001 69.5747 34.1524 69.7978 34.0439V34.053C69.9907 33.9505 70.1836 33.8992 70.3765 33.8992C70.497 33.8992 70.5904 33.9264 70.6568 33.9806C70.7231 34.0288 70.7532 34.1132 70.7472 34.2338C71.0787 34.2941 71.347 34.4538 71.5519 34.713C71.7569 34.9722 71.9136 35.2736 72.0221 35.6172C72.1366 35.9608 72.212 36.3134 72.2481 36.6751C72.2903 37.0368 72.3114 37.3503 72.3114 37.6155ZM70.268 35.355C70.1655 35.355 70.069 35.3158 69.9786 35.2375C69.8641 35.4123 69.7676 35.6142 69.6893 35.8433C69.6109 36.0663 69.5476 36.2984 69.4994 36.5395C69.4572 36.7746 69.427 37.0127 69.409 37.2538C69.3909 37.4949 69.3818 37.721 69.3818 37.932C69.3818 38.1068 69.3909 38.3328 69.409 38.6101C69.427 38.8814 69.4602 39.1556 69.5084 39.4329C69.5627 39.7102 69.635 39.9694 69.7254 40.2105C69.8219 40.4517 69.9455 40.6295 70.0962 40.744C70.283 40.6355 70.4367 40.4637 70.5573 40.2286C70.6839 39.9875 70.7833 39.7253 70.8557 39.442C70.928 39.1587 70.9762 38.8723 71.0004 38.583C71.0305 38.2936 71.0456 38.0465 71.0456 37.8415C71.0456 37.6908 71.0365 37.4949 71.0184 37.2538C71.0004 37.0127 70.9702 36.7686 70.928 36.5214C70.8858 36.2682 70.8255 36.0331 70.7472 35.8161C70.6748 35.5991 70.5814 35.4364 70.4669 35.3279C70.4126 35.346 70.3463 35.355 70.268 35.355ZM74.4634 41.2775C74.4634 41.4161 74.4212 41.5066 74.3368 41.5488C74.2585 41.591 74.162 41.6121 74.0475 41.6121C73.945 41.6121 73.8426 41.603 73.7401 41.5849C73.6436 41.5729 73.5502 41.5457 73.4598 41.5035C73.3754 41.4614 73.3 41.4041 73.2337 41.3318C73.1734 41.2594 73.1312 41.166 73.1071 41.0514C73.0227 40.6898 72.9745 40.3371 72.9625 39.9935C72.9504 39.6439 72.9444 39.2852 72.9444 38.9175V37.8054C72.9444 37.299 72.9655 36.7746 73.0077 36.2321C73.0499 35.6835 73.0951 35.1561 73.1433 34.6497C73.1433 34.6316 73.1463 34.6105 73.1523 34.5864C73.1584 34.5623 73.1614 34.5442 73.1614 34.5322C73.1674 34.4659 73.1765 34.3935 73.1885 34.3152C73.2006 34.2368 73.2187 34.1675 73.2428 34.1072C73.2729 34.0409 73.3121 33.9866 73.3603 33.9444C73.4146 33.9023 73.4839 33.8812 73.5683 33.8812C73.6647 33.8812 73.7551 33.9023 73.8395 33.9444C73.93 33.9806 74.0083 34.0319 74.0746 34.0982C74.1409 34.1584 74.1922 34.2338 74.2283 34.3242C74.2705 34.4146 74.2916 34.5081 74.2916 34.6045C74.2916 34.707 74.2886 34.8215 74.2826 34.9481C74.2766 35.0687 74.2675 35.1832 74.2555 35.2917C74.2555 35.3218 74.2525 35.355 74.2464 35.3912C74.2464 35.4273 74.2434 35.4605 74.2374 35.4906C74.3218 35.3218 74.4182 35.147 74.5267 34.9662C74.6352 34.7793 74.7588 34.6105 74.8974 34.4598C75.0421 34.3031 75.1988 34.1765 75.3676 34.0801C75.5424 33.9836 75.7353 33.9354 75.9463 33.9354C76.1211 33.9354 76.2658 33.9625 76.3803 34.0168C76.4949 34.071 76.5853 34.1494 76.6516 34.2519C76.7239 34.3483 76.7722 34.4629 76.7963 34.5955C76.8264 34.7281 76.8415 34.8697 76.8415 35.0204C76.8415 35.2254 76.8354 35.4334 76.8234 35.6443C76.8113 35.8493 76.7993 36.0542 76.7872 36.2592C76.7691 36.4702 76.7541 36.6781 76.742 36.8831C76.73 37.088 76.7239 37.296 76.7239 37.507C76.7239 37.7602 76.73 38.0224 76.742 38.2936C76.7541 38.5589 76.7722 38.8151 76.7963 39.0622C76.8204 39.3033 76.8475 39.5234 76.8776 39.7223C76.9078 39.9152 76.9379 40.0659 76.9681 40.1744C76.9922 40.2648 77.0163 40.3703 77.0404 40.4908C77.0705 40.6054 77.0977 40.7259 77.1218 40.8525C77.1519 40.9731 77.176 41.0906 77.1941 41.2052C77.2122 41.3197 77.2212 41.4222 77.2212 41.5126C77.2212 41.6452 77.167 41.7296 77.0585 41.7658C76.956 41.8019 76.8535 41.82 76.7511 41.82C76.6486 41.82 76.531 41.811 76.3984 41.7929C76.2718 41.7808 76.1573 41.7477 76.0548 41.6934C75.9282 41.603 75.8438 41.4764 75.8016 41.3137C75.7655 41.1509 75.7414 40.9912 75.7293 40.8344L75.7022 40.5903C75.6841 40.4456 75.66 40.2558 75.6299 40.0207C75.5997 39.7856 75.5696 39.5264 75.5394 39.2431C75.5153 38.9597 75.4942 38.6674 75.4761 38.366C75.4581 38.0586 75.449 37.7602 75.449 37.4708C75.449 37.2116 75.4581 36.9615 75.4761 36.7203C75.5002 36.4792 75.5244 36.2351 75.5485 35.9879C75.5605 35.8613 75.5696 35.7589 75.5756 35.6805C75.5816 35.6021 75.5907 35.4997 75.6027 35.3731C75.4822 35.566 75.3616 35.792 75.241 36.0512C75.1205 36.3104 75.006 36.5817 74.8974 36.865C74.7889 37.1423 74.6895 37.4136 74.5991 37.6788C74.5147 37.944 74.4484 38.1761 74.4001 38.375L74.3459 38.5739C74.3157 38.6704 74.2886 38.7668 74.2645 38.8633C74.2464 38.9597 74.2374 39.0502 74.2374 39.1345C74.2374 39.2431 74.2434 39.3696 74.2555 39.5143C74.2675 39.653 74.2826 39.7856 74.3007 39.9122C74.3188 40.0629 74.3399 40.2166 74.364 40.3733C74.364 40.3854 74.37 40.4245 74.3821 40.4908C74.3941 40.5572 74.4062 40.6355 74.4182 40.7259C74.4303 40.8164 74.4393 40.9128 74.4454 41.0153C74.4574 41.1117 74.4634 41.1991 74.4634 41.2775ZM81.9502 41.0424C81.9502 41.1087 81.9351 41.166 81.905 41.2142C81.8748 41.2564 81.8357 41.2926 81.7874 41.3227C81.7452 41.3468 81.697 41.3649 81.6428 41.377C81.5945 41.389 81.5463 41.395 81.4981 41.395C81.4258 41.395 81.3474 41.386 81.263 41.3679C81.1786 41.3498 81.0942 41.3257 81.0098 41.2956C80.9254 41.2594 80.8471 41.2172 80.7747 41.169C80.7084 41.1147 80.6572 41.0545 80.621 40.9882C80.5849 40.9218 80.5577 40.8405 80.5396 40.744C80.5276 40.6415 80.5155 40.5391 80.5035 40.4366C80.4432 40.5813 80.3709 40.7229 80.2865 40.8616C80.2081 41.0002 80.1117 41.1238 79.9971 41.2323C79.8826 41.3348 79.753 41.4161 79.6083 41.4764C79.4697 41.5427 79.3129 41.5759 79.1381 41.5759C78.8307 41.5759 78.5805 41.5035 78.3877 41.3589C78.2008 41.2142 78.0531 41.0334 77.9446 40.8164C77.8421 40.5933 77.7728 40.3522 77.7366 40.093C77.7065 39.8278 77.6914 39.5746 77.6914 39.3335C77.6914 39.1345 77.7005 38.9085 77.7185 38.6553C77.7366 38.4021 77.7607 38.1429 77.7909 37.8777C77.821 37.6125 77.8572 37.3563 77.8994 37.1091C77.9416 36.856 77.9868 36.6329 78.035 36.44C78.0953 36.217 78.1676 35.9729 78.252 35.7076C78.3424 35.4364 78.454 35.1862 78.5866 34.9572C78.7252 34.7221 78.894 34.5231 79.0929 34.3604C79.2919 34.1976 79.53 34.1072 79.8072 34.0891C79.7892 33.6009 79.762 33.1518 79.7259 32.7419C79.6957 32.3259 79.6626 31.901 79.6264 31.4669L79.536 30.4633L79.4998 30.1016C79.4878 30.0052 79.4787 29.9087 79.4727 29.8123C79.4667 29.7098 79.4636 29.6103 79.4636 29.5139C79.4636 29.3752 79.4998 29.2788 79.5722 29.2245C79.6505 29.1703 79.75 29.1432 79.8705 29.1432C80.1358 29.1432 80.3377 29.1823 80.4764 29.2607C80.615 29.3391 80.7114 29.4446 80.7657 29.5772C80.826 29.7098 80.8591 29.8665 80.8652 30.0474C80.8712 30.2222 80.8742 30.412 80.8742 30.617C80.8742 30.7496 80.8893 30.9003 80.9194 31.0691L80.9646 31.4037L81.037 32.3259C81.049 32.4706 81.0611 32.6153 81.0731 32.7599C81.0852 32.9046 81.0972 33.0493 81.1093 33.194L81.2992 35.138L81.6609 38.7729L81.688 39.1074C81.7121 39.3546 81.7332 39.6108 81.7513 39.876C81.7754 40.1412 81.8176 40.4034 81.8779 40.6626C81.8959 40.729 81.911 40.7922 81.9231 40.8525C81.9412 40.9128 81.9502 40.9761 81.9502 41.0424ZM79.8434 35.7528C79.8434 35.6865 79.8404 35.6142 79.8344 35.5358C79.8344 35.4514 79.8344 35.3731 79.8344 35.3007V35.0566C79.7922 35.1169 79.7379 35.2013 79.6716 35.3098C79.6053 35.4123 79.5541 35.5057 79.5179 35.5901C79.4215 35.8011 79.334 36.0723 79.2557 36.4039C79.1773 36.7294 79.108 37.073 79.0477 37.4347C78.9935 37.7903 78.9513 38.1399 78.9211 38.4835C78.891 38.8211 78.8759 39.1044 78.8759 39.3335C78.8759 39.4179 78.8759 39.5143 78.8759 39.6228C78.8819 39.7313 78.894 39.8428 78.9121 39.9574C78.9302 40.0659 78.9573 40.1714 78.9935 40.2738C79.0296 40.3763 79.0779 40.4607 79.1381 40.527C79.2286 40.4125 79.3099 40.2377 79.3823 40.0026C79.4546 39.7615 79.5149 39.4902 79.5631 39.1888C79.6174 38.8814 79.6626 38.5589 79.6987 38.2213C79.7349 37.8837 79.762 37.5582 79.7801 37.2448C79.8042 36.9253 79.8193 36.6359 79.8253 36.3767C79.8374 36.1115 79.8434 35.9035 79.8434 35.7528ZM85.6484 34.6949C85.6484 34.7673 85.6212 34.8275 85.567 34.8758C85.5188 34.924 85.4585 34.9662 85.3862 35.0024C85.3138 35.0325 85.2385 35.0536 85.1601 35.0657C85.0878 35.0777 85.0275 35.0837 84.9793 35.0837C84.9069 35.0837 84.8376 35.0777 84.7713 35.0657C84.705 35.0476 84.6387 35.0295 84.5724 35.0114C84.5061 34.9933 84.4428 34.9782 84.3825 34.9662C84.3222 34.9481 84.2589 34.9391 84.1926 34.9391C84.1022 34.9391 84.0118 34.9541 83.9213 34.9843C83.8309 35.0144 83.7496 35.0566 83.6772 35.1109C83.6049 35.1651 83.5446 35.2314 83.4964 35.3098C83.4542 35.3882 83.4331 35.4756 83.4331 35.572C83.4331 35.7167 83.4632 35.8613 83.5235 36.006C83.5838 36.1447 83.6621 36.2863 83.7586 36.431C83.8611 36.5757 83.9756 36.7234 84.1022 36.8741C84.2348 37.0187 84.3734 37.1664 84.5181 37.3171C84.6929 37.51 84.8677 37.7059 85.0426 37.9048C85.2234 38.1038 85.3831 38.3117 85.5218 38.5287C85.6665 38.7457 85.784 38.9748 85.8744 39.2159C85.9648 39.457 86.01 39.7102 86.01 39.9755C86.01 40.2045 85.9709 40.4095 85.8925 40.5903C85.8202 40.7711 85.7147 40.9249 85.576 41.0514C85.4434 41.178 85.2807 41.2745 85.0878 41.3408C84.9009 41.4131 84.6959 41.4493 84.4729 41.4493C84.4126 41.4493 84.3192 41.4372 84.1926 41.4131C84.072 41.389 83.9334 41.3559 83.7767 41.3137C83.6199 41.2654 83.4572 41.2142 83.2884 41.16C83.1257 41.1057 82.975 41.0484 82.8363 40.9882C82.7037 40.9218 82.5922 40.8586 82.5018 40.7983C82.4174 40.732 82.3752 40.6717 82.3752 40.6174C82.3752 40.5451 82.4083 40.4728 82.4746 40.4004C82.5409 40.3221 82.6193 40.2527 82.7097 40.1925C82.8001 40.1262 82.8936 40.0719 82.99 40.0297C83.0925 39.9875 83.1769 39.9664 83.2432 39.9664C83.3336 39.9664 83.4271 39.9875 83.5235 40.0297C83.626 40.0719 83.7285 40.1201 83.8309 40.1744C83.9455 40.2347 84.06 40.2889 84.1745 40.3371C84.2951 40.3854 84.4187 40.4095 84.5452 40.4095C84.6417 40.4095 84.6959 40.3763 84.708 40.31C84.7261 40.2437 84.7351 40.1683 84.7351 40.084C84.7351 39.873 84.699 39.6741 84.6266 39.4872C84.5543 39.2943 84.4609 39.1074 84.3463 38.9266C84.2318 38.7457 84.0992 38.5709 83.9485 38.4021C83.7978 38.2273 83.6471 38.0555 83.4964 37.8868C83.3396 37.718 83.1859 37.5492 83.0352 37.3804C82.8906 37.2116 82.761 37.0398 82.6464 36.865C82.5319 36.6842 82.4385 36.5003 82.3661 36.3134C82.2998 36.1266 82.2667 35.9277 82.2667 35.7167C82.2667 35.4575 82.3239 35.2254 82.4385 35.0204C82.553 34.8095 82.7007 34.6286 82.8815 34.4779C83.0684 34.3272 83.2764 34.2127 83.5054 34.1343C83.7405 34.0499 83.9756 34.0077 84.2107 34.0077C84.2891 34.0077 84.4096 34.0258 84.5724 34.062C84.7351 34.0921 84.8949 34.1373 85.0516 34.1976C85.2083 34.2579 85.347 34.3302 85.4675 34.4146C85.5881 34.499 85.6484 34.5925 85.6484 34.6949Z" fill="black"/>
</g>
</svg>
