<svg width="71" height="83" viewBox="0 0 71 83" fill="none" xmlns="http://www.w3.org/2000/svg">
<g id="count down">
<path id="Vector" d="M20.4223 36.773C20.4223 36.6689 21.8435 34.2755 25.6589 28.7759C27.9175 25.5201 31.3769 21.7067 33.2784 19.4092C35.1799 17.1117 35.5582 16.5444 36.1705 22.4947C36.7828 28.4451 37.6175 40.9302 38.0438 47.6253C38.4624 54.8471 38.4019 57.0166 38.3491 59.7076C38.349 60.7718 38.403 61.224 38.6157 62.0013M18.4029 64.2604C18.4288 64.2343 18.4547 64.2083 24.297 63.7569C30.1393 63.3054 40.4739 63.2409 46.7002 62.7766C54.277 62.2263 55.5313 62.0013 60.5441 61.7941C62.6822 61.7057 61.2829 61.6231 63.2779 62.0013" stroke="black" stroke-width="2" stroke-linecap="round"/>
</g>
</svg>
