<svg width="147" height="31" viewBox="0 0 147 31" fill="none" xmlns="http://www.w3.org/2000/svg">
<g id="download">
<g id="download_2">
<path id="Vector" d="M28.8938 8.88263C28.9158 8.8936 28.9812 9.19039 29.1487 10.9071C29.2875 12.3303 29.433 14.8837 29.5502 16.3397C29.7254 18.0793 29.8121 18.6387 29.8528 19.1973C29.8666 19.4886 29.8666 19.7957 29.8666 20.1121M25.8533 16.4929C25.8533 16.4817 26.0789 16.8119 26.601 17.6251C27.2869 18.6934 27.7365 19.5054 27.9703 19.8102C28.5092 20.5129 29.529 20.5322 29.7242 20.6364L29.7262 20.6374C29.8137 20.6842 29.8823 20.7209 30.5582 20.1826C31.2392 19.6402 32.5341 18.5143 33.4255 17.7728C34.317 17.0313 34.7657 16.7084 35.2446 16.3249" stroke="black" stroke-linecap="round"/>
</g>
<rect id="Rectangle 6" x="0.5" y="0.5" width="145.17" height="29.8191" stroke="black"/>
<path id="download_3" d="M57.11 18.3756H57.078C56.8113 18.8876 56.3873 19.1436 55.806 19.1436C55.2993 19.1436 54.902 18.9542 54.614 18.5756C54.3313 18.1969 54.19 17.6662 54.19 16.9836C54.19 16.3009 54.3313 15.7702 54.614 15.3916C54.902 15.0129 55.2993 14.8236 55.806 14.8236C56.3873 14.8236 56.8113 15.0796 57.078 15.5916H57.11V13.1276H57.75V19.0476H57.11V18.3756ZM56.054 18.5756C56.198 18.5756 56.334 18.5569 56.462 18.5196C56.59 18.4822 56.702 18.4289 56.798 18.3596C56.894 18.2849 56.9686 18.1969 57.022 18.0956C57.0806 17.9889 57.11 17.8662 57.11 17.7276V16.2396C57.11 16.1009 57.0806 15.9809 57.022 15.8796C56.9686 15.7729 56.894 15.6849 56.798 15.6156C56.702 15.5409 56.59 15.4849 56.462 15.4476C56.334 15.4102 56.198 15.3916 56.054 15.3916C55.6806 15.3916 55.39 15.5062 55.182 15.7356C54.9793 15.9596 54.878 16.2582 54.878 16.6316V17.3356C54.878 17.7089 54.9793 18.0102 55.182 18.2396C55.39 18.4636 55.6806 18.5756 56.054 18.5756ZM60.9068 19.1436C60.6188 19.1436 60.3575 19.0929 60.1228 18.9916C59.8935 18.8902 59.6962 18.7462 59.5308 18.5596C59.3708 18.3676 59.2482 18.1409 59.1628 17.8796C59.0775 17.6129 59.0348 17.3142 59.0348 16.9836C59.0348 16.6582 59.0775 16.3622 59.1628 16.0956C59.2482 15.8289 59.3708 15.6022 59.5308 15.4156C59.6962 15.2236 59.8935 15.0769 60.1228 14.9756C60.3575 14.8742 60.6188 14.8236 60.9068 14.8236C61.1948 14.8236 61.4535 14.8742 61.6828 14.9756C61.9175 15.0769 62.1148 15.2236 62.2748 15.4156C62.4402 15.6022 62.5655 15.8289 62.6508 16.0956C62.7362 16.3622 62.7788 16.6582 62.7788 16.9836C62.7788 17.3142 62.7362 17.6129 62.6508 17.8796C62.5655 18.1409 62.4402 18.3676 62.2748 18.5596C62.1148 18.7462 61.9175 18.8902 61.6828 18.9916C61.4535 19.0929 61.1948 19.1436 60.9068 19.1436ZM60.9068 18.5916C61.2642 18.5916 61.5522 18.4849 61.7708 18.2716C61.9895 18.0582 62.0988 17.7276 62.0988 17.2796V16.6876C62.0988 16.2396 61.9895 15.9089 61.7708 15.6956C61.5522 15.4822 61.2642 15.3756 60.9068 15.3756C60.5495 15.3756 60.2615 15.4822 60.0428 15.6956C59.8242 15.9089 59.7148 16.2396 59.7148 16.6876V17.2796C59.7148 17.7276 59.8242 18.0582 60.0428 18.2716C60.2615 18.4849 60.5495 18.5916 60.9068 18.5916ZM63.5437 14.9196H64.1117L64.5837 18.4876H64.6557L65.3597 14.9196H66.0637L66.7677 18.4876H66.8397L67.3117 14.9196H67.8637L67.2317 19.0476H66.3997L65.7437 15.5916H65.6797L65.0077 19.0476H64.1757L63.5437 14.9196ZM68.8846 19.0476V14.9196H69.5246V15.5916H69.5566C69.5993 15.4902 69.6526 15.3942 69.7166 15.3036C69.7806 15.2076 69.8579 15.1249 69.9486 15.0556C70.0446 14.9862 70.1566 14.9302 70.2846 14.8876C70.4126 14.8449 70.5619 14.8236 70.7326 14.8236C71.1646 14.8236 71.5113 14.9622 71.7726 15.2396C72.0339 15.5116 72.1646 15.8982 72.1646 16.3996V19.0476H71.5246V16.5116C71.5246 16.1329 71.4419 15.8529 71.2766 15.6716C71.1113 15.4849 70.8686 15.3916 70.5486 15.3916C70.4206 15.3916 70.2953 15.4076 70.1726 15.4396C70.0499 15.4716 69.9406 15.5196 69.8446 15.5836C69.7486 15.6476 69.6713 15.7302 69.6126 15.8316C69.5539 15.9329 69.5246 16.0502 69.5246 16.1836V19.0476H68.8846ZM73.5375 18.5036H74.9775V13.6716H73.5375V13.1276H75.6175V18.5036H77.0575V19.0476H73.5375V18.5036ZM80.0943 19.1436C79.8063 19.1436 79.545 19.0929 79.3103 18.9916C79.081 18.8902 78.8837 18.7462 78.7183 18.5596C78.5583 18.3676 78.4357 18.1409 78.3503 17.8796C78.265 17.6129 78.2223 17.3142 78.2223 16.9836C78.2223 16.6582 78.265 16.3622 78.3503 16.0956C78.4357 15.8289 78.5583 15.6022 78.7183 15.4156C78.8837 15.2236 79.081 15.0769 79.3103 14.9756C79.545 14.8742 79.8063 14.8236 80.0943 14.8236C80.3823 14.8236 80.641 14.8742 80.8703 14.9756C81.105 15.0769 81.3023 15.2236 81.4623 15.4156C81.6277 15.6022 81.753 15.8289 81.8383 16.0956C81.9237 16.3622 81.9663 16.6582 81.9663 16.9836C81.9663 17.3142 81.9237 17.6129 81.8383 17.8796C81.753 18.1409 81.6277 18.3676 81.4623 18.5596C81.3023 18.7462 81.105 18.8902 80.8703 18.9916C80.641 19.0929 80.3823 19.1436 80.0943 19.1436ZM80.0943 18.5916C80.4517 18.5916 80.7397 18.4849 80.9583 18.2716C81.177 18.0582 81.2863 17.7276 81.2863 17.2796V16.6876C81.2863 16.2396 81.177 15.9089 80.9583 15.6956C80.7397 15.4822 80.4517 15.3756 80.0943 15.3756C79.737 15.3756 79.449 15.4822 79.2303 15.6956C79.0117 15.9089 78.9023 16.2396 78.9023 16.6876V17.2796C78.9023 17.7276 79.0117 18.0582 79.2303 18.2716C79.449 18.4849 79.737 18.5916 80.0943 18.5916ZM86.4512 19.0476C86.2005 19.0476 86.0219 18.9836 85.9152 18.8556C85.8085 18.7276 85.7419 18.5676 85.7152 18.3756H85.6752C85.5845 18.6156 85.4379 18.8049 85.2352 18.9436C85.0379 19.0769 84.7712 19.1436 84.4352 19.1436C84.0032 19.1436 83.6592 19.0316 83.4032 18.8076C83.1472 18.5836 83.0192 18.2769 83.0192 17.8876C83.0192 17.5036 83.1579 17.2076 83.4352 16.9996C83.7179 16.7916 84.1712 16.6876 84.7952 16.6876H85.6752V16.2796C85.6752 15.9756 85.5899 15.7489 85.4192 15.5996C85.2485 15.4449 85.0059 15.3676 84.6912 15.3676C84.4139 15.3676 84.1872 15.4236 84.0112 15.5356C83.8352 15.6422 83.6939 15.7889 83.5872 15.9756L83.1552 15.6556C83.2085 15.5489 83.2805 15.4449 83.3712 15.3436C83.4619 15.2422 83.5739 15.1542 83.7072 15.0796C83.8405 14.9996 83.9925 14.9382 84.1632 14.8956C84.3339 14.8476 84.5232 14.8236 84.7312 14.8236C85.2165 14.8236 85.6005 14.9462 85.8832 15.1916C86.1712 15.4369 86.3152 15.7782 86.3152 16.2156V18.4876H86.8912V19.0476H86.4512ZM84.5472 18.6076C84.7125 18.6076 84.8619 18.5889 84.9952 18.5516C85.1339 18.5089 85.2539 18.4556 85.3552 18.3916C85.4565 18.3222 85.5339 18.2422 85.5872 18.1516C85.6459 18.0556 85.6752 17.9542 85.6752 17.8476V17.1676H84.7952C84.4112 17.1676 84.1312 17.2209 83.9552 17.3276C83.7792 17.4342 83.6912 17.5889 83.6912 17.7916V17.9596C83.6912 18.1729 83.7659 18.3356 83.9152 18.4476C84.0699 18.5542 84.2805 18.6076 84.5472 18.6076ZM90.6881 18.3756H90.6561C90.3894 18.8876 89.9654 19.1436 89.3841 19.1436C88.8774 19.1436 88.4801 18.9542 88.1921 18.5756C87.9094 18.1969 87.7681 17.6662 87.7681 16.9836C87.7681 16.3009 87.9094 15.7702 88.1921 15.3916C88.4801 15.0129 88.8774 14.8236 89.3841 14.8236C89.9654 14.8236 90.3894 15.0796 90.6561 15.5916H90.6881V13.1276H91.3281V19.0476H90.6881V18.3756ZM89.6321 18.5756C89.7761 18.5756 89.9121 18.5569 90.0401 18.5196C90.1681 18.4822 90.2801 18.4289 90.3761 18.3596C90.4721 18.2849 90.5468 18.1969 90.6001 18.0956C90.6588 17.9889 90.6881 17.8662 90.6881 17.7276V16.2396C90.6881 16.1009 90.6588 15.9809 90.6001 15.8796C90.5468 15.7729 90.4721 15.6849 90.3761 15.6156C90.2801 15.5409 90.1681 15.4849 90.0401 15.4476C89.9121 15.4102 89.7761 15.3916 89.6321 15.3916C89.2588 15.3916 88.9681 15.5062 88.7601 15.7356C88.5574 15.9596 88.4561 16.2582 88.4561 16.6316V17.3356C88.4561 17.7089 88.5574 18.0102 88.7601 18.2396C88.9681 18.4636 89.2588 18.5756 89.6321 18.5756Z" fill="black"/>
</g>
</svg>
