<svg width="137" height="42" viewBox="0 0 137 42" fill="none" xmlns="http://www.w3.org/2000/svg">
<g id="finish pint">
<g id="Frame 7">
<path id="Vector" d="M0.5 5.24818C0.674005 5.2228 1.95616 4.86467 3.47547 4.05992C4.22105 3.665 4.36378 2.95015 4.49027 2.39874C4.56003 2.09465 4.56422 1.41115 4.56422 0.823799C4.56422 -0.0723027 4.97127 2.81792 5.60284 3.90953C6.13388 4.47418 6.9105 4.86875 7.89416 5.09015C8.18052 5.12218 8.49986 5.12218 8.96113 5.10014M0.531189 5.23821C1.15077 5.23821 2.47584 5.30367 2.66237 5.48094C3.2665 6.05506 3.60291 7.09473 3.81655 7.67343C4.05715 8.32517 4.16022 11.1262 4.25853 12.111C4.58242 15.3551 4.53576 7.91474 4.87557 7.15092C5.13598 6.56553 5.52547 6.10495 6.15346 5.69139C7.115 5.22468 7.58649 5.07644 8.1044 5.00398C8.24065 4.99493 8.38393 4.99493 8.53154 4.99493M8.21881 9.46171C8.9247 9.45745 10.4248 9.39721 10.6436 9.24328C11.3505 8.74603 11.6063 6.71499 11.8088 5.97454C11.9895 5.31363 11.969 7.3582 12.3856 7.78236C12.9163 8.09564 13.4483 8.31278 13.8158 8.4181C13.9949 8.4651 14.1589 8.49899 14.6422 8.53392M8.53694 9.78316C9.58148 9.85598 11.0744 10.4873 12.4763 11.6638C13.7504 12.733 13.6168 13.9697 13.6554 14.7134C13.762 16.7673 13.7797 10.5878 13.9999 9.79947C14.1595 9.35037 14.2884 9.06272 14.4114 8.78457C14.4712 8.65382 14.5255 8.54417 14.7453 8.17253" stroke="black" stroke-linecap="round"/>
</g>
<g id="Frame 8">
<path id="Finished! Collect your prints!" d="M54.7201 3.83567C54.7201 4.01651 54.6719 4.15817 54.5754 4.26064C54.479 4.36312 54.3584 4.43847 54.2137 4.48669C54.0691 4.53491 53.9153 4.56505 53.7526 4.57711C53.5898 4.58917 53.4421 4.59519 53.3095 4.59519C53.0443 4.59519 52.7791 4.59218 52.5138 4.58615C52.2486 4.58012 51.9834 4.57711 51.7181 4.57711C51.5916 4.57711 51.465 4.57711 51.3384 4.57711C51.2118 4.57711 51.0852 4.58314 50.9586 4.59519C50.9104 4.69767 50.8803 4.80316 50.8682 4.91166C50.8561 5.01414 50.8501 5.11963 50.8501 5.22813C50.8501 5.79476 50.8712 6.35537 50.9134 6.90994C50.9556 7.46452 51.0008 8.02512 51.049 8.59175C51.4107 8.56161 51.7724 8.52544 52.1341 8.48325C52.4958 8.44105 52.8635 8.39283 53.2372 8.33858C53.2854 8.33858 53.3306 8.33556 53.3728 8.32953C53.415 8.32351 53.4602 8.32049 53.5085 8.32049C53.7496 8.32049 53.8701 8.45311 53.8701 8.71834C53.8701 8.79068 53.8611 8.86301 53.843 8.93535C53.831 9.00768 53.8099 9.08002 53.7797 9.15235C53.7375 9.27291 53.6682 9.36333 53.5718 9.42361C53.4753 9.47787 53.3668 9.51705 53.2462 9.54116C53.1257 9.55924 52.9991 9.56829 52.8665 9.56829C52.7399 9.56226 52.6284 9.56226 52.5319 9.56829L51.1214 9.62254C51.1575 10.1952 51.1967 10.7618 51.2389 11.3224C51.2811 11.883 51.3263 12.4497 51.3745 13.0223C51.4228 13.4563 51.462 13.8934 51.4921 14.3334C51.5283 14.7735 51.5795 15.2105 51.6458 15.6445V15.7892C51.6458 15.9278 51.6066 16.0212 51.5283 16.0695C51.4499 16.1117 51.3504 16.1328 51.2299 16.1328C51.0068 16.1328 50.7959 16.0966 50.5969 16.0243C50.4643 15.976 50.3649 15.9188 50.2986 15.8525C50.2322 15.7801 50.184 15.7018 50.1539 15.6174C50.1298 15.527 50.1147 15.4305 50.1087 15.328C50.1026 15.2256 50.0966 15.114 50.0906 14.9935C50.0363 14.0833 49.9761 13.1791 49.9097 12.2809C49.8434 11.3767 49.7832 10.4665 49.7289 9.5502C49.6927 8.87507 49.6536 8.20596 49.6114 7.54288C49.5692 6.8798 49.5481 6.2107 49.5481 5.53556C49.5481 5.17991 49.5692 4.87851 49.6114 4.63136C49.6596 4.37819 49.747 4.17324 49.8736 4.01651C50.0002 3.85978 50.181 3.74525 50.4161 3.67291C50.6512 3.60058 50.9586 3.56441 51.3384 3.56441C51.7302 3.56441 52.119 3.56742 52.5048 3.57345C52.8906 3.57948 53.2794 3.58249 53.6712 3.58249C53.8099 3.58249 53.9425 3.57948 54.0691 3.57345C54.1956 3.56139 54.3222 3.57044 54.4488 3.60058C54.5212 3.61263 54.5845 3.63373 54.6387 3.66387C54.693 3.68798 54.7201 3.74525 54.7201 3.83567ZM55.7057 8.52846C55.7057 8.63093 55.6815 8.70628 55.6333 8.75451C55.5911 8.7967 55.5097 8.8178 55.3892 8.8178C55.3349 8.8178 55.2505 8.81177 55.136 8.79972C55.0215 8.78163 54.9039 8.75752 54.7834 8.72738C54.6688 8.69724 54.5664 8.65505 54.4759 8.60079C54.3916 8.54654 54.3494 8.48023 54.3494 8.40187C54.3494 8.37776 54.3584 8.31145 54.3765 8.20295C54.3946 8.08841 54.4157 7.96785 54.4398 7.84127C54.4699 7.71468 54.494 7.60015 54.5121 7.49767C54.5362 7.3952 54.5543 7.33793 54.5664 7.32587V7.33492C54.5965 7.28669 54.6327 7.25655 54.6749 7.2445C54.7171 7.23244 54.7593 7.22641 54.8015 7.22641C54.8557 7.22641 54.925 7.23545 55.0094 7.25354C55.0998 7.26559 55.1873 7.28669 55.2716 7.31683C55.3621 7.34094 55.4434 7.3741 55.5158 7.41629C55.5881 7.45849 55.6333 7.5037 55.6514 7.55192C55.6695 7.60015 55.6785 7.66646 55.6785 7.75085C55.6846 7.82921 55.6846 7.90155 55.6785 7.96785C55.6785 7.99197 55.6755 8.02211 55.6695 8.05827C55.6695 8.08841 55.6695 8.11253 55.6695 8.13061C55.6695 8.16075 55.6695 8.19089 55.6695 8.22103C55.6755 8.25117 55.6815 8.28131 55.6876 8.31145C55.6936 8.34159 55.6966 8.37474 55.6966 8.41091C55.7026 8.44708 55.7057 8.48626 55.7057 8.52846ZM56.0402 15.7349C56.0402 15.8736 56.0071 15.973 55.9408 16.0333C55.8805 16.0876 55.781 16.1147 55.6424 16.1147C55.57 16.1147 55.4887 16.1056 55.3982 16.0876C55.3138 16.0695 55.2294 16.0454 55.1451 16.0152C55.0607 15.9791 54.9823 15.9369 54.91 15.8886C54.8376 15.8404 54.7834 15.7862 54.7472 15.7259C54.7231 15.6897 54.702 15.5782 54.6839 15.3913C54.6658 15.2045 54.6508 14.9724 54.6387 14.6951C54.6327 14.4178 54.6236 14.1074 54.6116 13.7638C54.6056 13.4202 54.5995 13.0736 54.5935 12.7239C54.5935 12.3743 54.5935 12.0337 54.5935 11.7022C54.5935 11.3707 54.5935 11.0813 54.5935 10.8342V10.1379C54.5935 10.0777 54.5935 10.0174 54.5935 9.95709C54.5995 9.89681 54.6116 9.84557 54.6297 9.80338C54.6538 9.75515 54.6869 9.71597 54.7291 9.68583C54.7773 9.65569 54.8437 9.64062 54.928 9.64062C55.1933 9.64062 55.3862 9.71597 55.5067 9.86667C55.6333 10.0113 55.7117 10.2073 55.7418 10.4544C55.772 10.8221 55.7931 11.1898 55.8051 11.5575C55.8232 11.9192 55.8383 12.2869 55.8503 12.6606C55.8624 12.9982 55.8714 13.3328 55.8775 13.6643C55.8895 13.9898 55.9106 14.3153 55.9408 14.6408C55.9468 14.7071 55.9528 14.7704 55.9588 14.8307C55.9649 14.891 55.9739 14.9513 55.986 15.0116C55.998 15.1321 56.0101 15.2527 56.0221 15.3732C56.0342 15.4878 56.0402 15.6083 56.0402 15.7349ZM58.3459 16.0876C58.3459 16.2262 58.3037 16.3166 58.2193 16.3588C58.141 16.401 58.0445 16.4221 57.93 16.4221C57.8275 16.4221 57.725 16.4131 57.6226 16.395C57.5261 16.3829 57.4327 16.3558 57.3423 16.3136C57.2579 16.2714 57.1825 16.2141 57.1162 16.1418C57.0559 16.0695 57.0137 15.976 56.9896 15.8615C56.9052 15.4998 56.857 15.1472 56.8449 14.8036C56.8329 14.454 56.8269 14.0953 56.8269 13.7276V12.6154C56.8269 12.1091 56.848 11.5846 56.8902 11.0421C56.9324 10.4936 56.9776 9.96613 57.0258 9.45978C57.0258 9.4417 57.0288 9.4206 57.0348 9.39649C57.0409 9.37238 57.0439 9.35429 57.0439 9.34224C57.0499 9.27593 57.0589 9.20359 57.071 9.12523C57.0831 9.04686 57.1011 8.97754 57.1253 8.91726C57.1554 8.85096 57.1946 8.7967 57.2428 8.75451C57.297 8.71231 57.3664 8.69121 57.4508 8.69121C57.5472 8.69121 57.6376 8.71231 57.722 8.75451C57.8124 8.79068 57.8908 8.84191 57.9571 8.90822C58.0234 8.9685 58.0747 9.04385 58.1108 9.13427C58.153 9.22469 58.1741 9.31812 58.1741 9.41457C58.1741 9.51705 58.1711 9.63158 58.1651 9.75817C58.1591 9.87873 58.15 9.99326 58.138 10.1018C58.138 10.1319 58.1349 10.1651 58.1289 10.2012C58.1289 10.2374 58.1259 10.2705 58.1199 10.3007C58.2043 10.1319 58.3007 9.95709 58.4092 9.77625C58.5177 9.58938 58.6413 9.4206 58.7799 9.2699C58.9246 9.11317 59.0813 8.98658 59.2501 8.89014C59.4249 8.79369 59.6178 8.74547 59.8288 8.74547C60.0036 8.74547 60.1483 8.77259 60.2628 8.82684C60.3774 8.8811 60.4678 8.95946 60.5341 9.06193C60.6064 9.15838 60.6546 9.27291 60.6788 9.40553C60.7089 9.53815 60.724 9.6798 60.724 9.8305C60.724 10.0355 60.7179 10.2434 60.7059 10.4544C60.6938 10.6594 60.6818 10.8643 60.6697 11.0693C60.6516 11.2802 60.6366 11.4882 60.6245 11.6932C60.6124 11.8981 60.6064 12.1061 60.6064 12.317C60.6064 12.5702 60.6124 12.8324 60.6245 13.1037C60.6366 13.3689 60.6546 13.6251 60.6788 13.8723C60.7029 14.1134 60.73 14.3334 60.7601 14.5323C60.7903 14.7252 60.8204 14.8759 60.8505 14.9844C60.8747 15.0749 60.8988 15.1803 60.9229 15.3009C60.953 15.4154 60.9802 15.536 61.0043 15.6626C61.0344 15.7831 61.0585 15.9007 61.0766 16.0152C61.0947 16.1298 61.1037 16.2322 61.1037 16.3226C61.1037 16.4553 61.0495 16.5397 60.941 16.5758C60.8385 16.612 60.736 16.6301 60.6335 16.6301C60.5311 16.6301 60.4135 16.621 60.2809 16.6029C60.1543 16.5909 60.0398 16.5577 59.9373 16.5035C59.8107 16.4131 59.7263 16.2865 59.6841 16.1237C59.648 15.961 59.6239 15.8012 59.6118 15.6445L59.5847 15.4004C59.5666 15.2557 59.5425 15.0658 59.5123 14.8307C59.4822 14.5956 59.4521 14.3364 59.4219 14.0531C59.3978 13.7698 59.3767 13.4774 59.3586 13.176C59.3405 12.8686 59.3315 12.5702 59.3315 12.2809C59.3315 12.0217 59.3405 11.7715 59.3586 11.5304C59.3827 11.2893 59.4068 11.0451 59.431 10.798C59.443 10.6714 59.4521 10.5689 59.4581 10.4906C59.4641 10.4122 59.4732 10.3097 59.4852 10.1831C59.3646 10.376 59.2441 10.6021 59.1235 10.8613C59.003 11.1205 58.8884 11.3918 58.7799 11.6751C58.6714 11.9524 58.572 12.2236 58.4815 12.4888C58.3972 12.7541 58.3308 12.9862 58.2826 13.1851L58.2284 13.384C58.1982 13.4805 58.1711 13.5769 58.147 13.6733C58.1289 13.7698 58.1199 13.8602 58.1199 13.9446C58.1199 14.0531 58.1259 14.1797 58.138 14.3244C58.15 14.463 58.1651 14.5956 58.1832 14.7222C58.2012 14.8729 58.2223 15.0266 58.2465 15.1834C58.2465 15.1954 58.2525 15.2346 58.2645 15.3009C58.2766 15.3672 58.2887 15.4456 58.3007 15.536C58.3128 15.6264 58.3218 15.7229 58.3278 15.8253C58.3399 15.9218 58.3459 16.0092 58.3459 16.0876ZM62.9392 8.52846C62.9392 8.63093 62.9151 8.70628 62.8669 8.75451C62.8247 8.7967 62.7433 8.8178 62.6228 8.8178C62.5685 8.8178 62.4841 8.81177 62.3696 8.79972C62.2551 8.78163 62.1375 8.75752 62.017 8.72738C61.9024 8.69724 61.8 8.65505 61.7095 8.60079C61.6251 8.54654 61.5829 8.48023 61.5829 8.40187C61.5829 8.37776 61.592 8.31145 61.6101 8.20295C61.6282 8.08841 61.6493 7.96785 61.6734 7.84127C61.7035 7.71468 61.7276 7.60015 61.7457 7.49767C61.7698 7.3952 61.7879 7.33793 61.8 7.32587V7.33492C61.8301 7.28669 61.8663 7.25655 61.9085 7.2445C61.9507 7.23244 61.9928 7.22641 62.035 7.22641C62.0893 7.22641 62.1586 7.23545 62.243 7.25354C62.3334 7.26559 62.4208 7.28669 62.5052 7.31683C62.5956 7.34094 62.677 7.3741 62.7494 7.41629C62.8217 7.45849 62.8669 7.5037 62.885 7.55192C62.9031 7.60015 62.9121 7.66646 62.9121 7.75085C62.9181 7.82921 62.9181 7.90155 62.9121 7.96785C62.9121 7.99197 62.9091 8.02211 62.9031 8.05827C62.9031 8.08841 62.9031 8.11253 62.9031 8.13061C62.9031 8.16075 62.9031 8.19089 62.9031 8.22103C62.9091 8.25117 62.9151 8.28131 62.9212 8.31145C62.9272 8.34159 62.9302 8.37474 62.9302 8.41091C62.9362 8.44708 62.9392 8.48626 62.9392 8.52846ZM63.2738 15.7349C63.2738 15.8736 63.2406 15.973 63.1743 16.0333C63.1141 16.0876 63.0146 16.1147 62.876 16.1147C62.8036 16.1147 62.7222 16.1056 62.6318 16.0876C62.5474 16.0695 62.463 16.0454 62.3786 16.0152C62.2942 15.9791 62.2159 15.9369 62.1435 15.8886C62.0712 15.8404 62.017 15.7862 61.9808 15.7259C61.9567 15.6897 61.9356 15.5782 61.9175 15.3913C61.8994 15.2045 61.8843 14.9724 61.8723 14.6951C61.8663 14.4178 61.8572 14.1074 61.8452 13.7638C61.8391 13.4202 61.8331 13.0736 61.8271 12.7239C61.8271 12.3743 61.8271 12.0337 61.8271 11.7022C61.8271 11.3707 61.8271 11.0813 61.8271 10.8342V10.1379C61.8271 10.0777 61.8271 10.0174 61.8271 9.95709C61.8331 9.89681 61.8452 9.84557 61.8632 9.80338C61.8874 9.75515 61.9205 9.71597 61.9627 9.68583C62.0109 9.65569 62.0772 9.64062 62.1616 9.64062C62.4269 9.64062 62.6198 9.71597 62.7403 9.86667C62.8669 10.0113 62.9453 10.2073 62.9754 10.4544C63.0056 10.8221 63.0266 11.1898 63.0387 11.5575C63.0568 11.9192 63.0719 12.2869 63.0839 12.6606C63.096 12.9982 63.105 13.3328 63.111 13.6643C63.1231 13.9898 63.1442 14.3153 63.1743 14.6408C63.1804 14.7071 63.1864 14.7704 63.1924 14.8307C63.1984 14.891 63.2075 14.9513 63.2195 15.0116C63.2316 15.1321 63.2437 15.2527 63.2557 15.3732C63.2678 15.4878 63.2738 15.6083 63.2738 15.7349ZM67.1438 9.50499C67.1438 9.57733 67.1166 9.63761 67.0624 9.68583C67.0142 9.73406 66.9539 9.77625 66.8816 9.81242C66.8092 9.84256 66.7339 9.86366 66.6555 9.87571C66.5832 9.88777 66.5229 9.8938 66.4747 9.8938C66.4023 9.8938 66.333 9.88777 66.2667 9.87571C66.2004 9.85763 66.1341 9.83955 66.0678 9.82146C66.0015 9.80338 65.9382 9.78831 65.8779 9.77625C65.8176 9.75817 65.7543 9.74913 65.688 9.74913C65.5976 9.74913 65.5072 9.7642 65.4167 9.79434C65.3263 9.82448 65.245 9.86667 65.1726 9.92092C65.1003 9.97518 65.04 10.0415 64.9918 10.1198C64.9496 10.1982 64.9285 10.2856 64.9285 10.3821C64.9285 10.5267 64.9586 10.6714 65.0189 10.8161C65.0792 10.9547 65.1575 11.0964 65.254 11.2411C65.3565 11.3857 65.471 11.5334 65.5976 11.6841C65.7302 11.8288 65.8688 11.9765 66.0135 12.1272C66.1883 12.3201 66.3631 12.516 66.538 12.7149C66.7188 12.9138 66.8785 13.1218 67.0172 13.3388C67.1619 13.5558 67.2794 13.7849 67.3698 14.026C67.4602 14.2671 67.5054 14.5203 67.5054 14.7855C67.5054 15.0146 67.4663 15.2195 67.3879 15.4004C67.3156 15.5812 67.2101 15.7349 67.0714 15.8615C66.9388 15.9881 66.7761 16.0845 66.5832 16.1509C66.3963 16.2232 66.1913 16.2594 65.9683 16.2594C65.908 16.2594 65.8146 16.2473 65.688 16.2232C65.5674 16.1991 65.4288 16.1659 65.2721 16.1237C65.1153 16.0755 64.9526 16.0243 64.7838 15.97C64.6211 15.9158 64.4704 15.8585 64.3317 15.7982C64.1991 15.7319 64.0876 15.6686 63.9972 15.6083C63.9128 15.542 63.8706 15.4817 63.8706 15.4275C63.8706 15.3552 63.9037 15.2828 63.97 15.2105C64.0363 15.1321 64.1147 15.0628 64.2051 15.0025C64.2955 14.9362 64.389 14.882 64.4854 14.8398C64.5879 14.7976 64.6723 14.7765 64.7386 14.7765C64.829 14.7765 64.9225 14.7976 65.0189 14.8398C65.1214 14.882 65.2239 14.9302 65.3263 14.9844C65.4409 15.0447 65.5554 15.099 65.6699 15.1472C65.7905 15.1954 65.9141 15.2195 66.0406 15.2195C66.1371 15.2195 66.1913 15.1864 66.2034 15.1201C66.2215 15.0538 66.2305 14.9784 66.2305 14.894C66.2305 14.683 66.1944 14.4841 66.122 14.2972C66.0497 14.1043 65.9563 13.9175 65.8417 13.7366C65.7272 13.5558 65.5946 13.381 65.4439 13.2122C65.2932 13.0374 65.1425 12.8656 64.9918 12.6968C64.835 12.528 64.6813 12.3592 64.5306 12.1905C64.386 12.0217 64.2564 11.8499 64.1418 11.6751C64.0273 11.4942 63.9339 11.3104 63.8615 11.1235C63.7952 10.9366 63.7621 10.7377 63.7621 10.5267C63.7621 10.2675 63.8193 10.0355 63.9339 9.8305C64.0484 9.61952 64.1961 9.43868 64.3769 9.28798C64.5638 9.13728 64.7718 9.02275 65.0008 8.94439C65.2359 8.86 65.471 8.8178 65.7061 8.8178C65.7845 8.8178 65.905 8.83589 66.0678 8.87205C66.2305 8.90219 66.3903 8.9474 66.547 9.00768C66.7037 9.06796 66.8424 9.1403 66.9629 9.22469C67.0835 9.30908 67.1438 9.40252 67.1438 9.50499ZM72.2615 15.6445C72.2615 15.7651 72.2223 15.8525 72.144 15.9067C72.0656 15.961 71.9692 15.9881 71.8546 15.9881C71.7823 15.9881 71.707 15.9821 71.6286 15.97C71.5502 15.9519 71.4749 15.9338 71.4025 15.9158C71.276 15.8796 71.1765 15.8344 71.1042 15.7801C71.0378 15.7259 70.9866 15.6656 70.9504 15.5993C70.9143 15.527 70.8902 15.4486 70.8781 15.3642C70.8721 15.2798 70.8661 15.1864 70.86 15.0839C70.86 15.0538 70.857 15.0266 70.851 15.0025C70.851 14.9784 70.851 14.9543 70.851 14.9302C70.8329 14.5866 70.8148 14.2339 70.7967 13.8723C70.7847 13.5106 70.7786 13.158 70.7786 12.8144C70.7786 12.6395 70.7786 12.4647 70.7786 12.2899C70.7847 12.1151 70.7907 11.9403 70.7967 11.7655C70.8028 11.5907 70.8058 11.4189 70.8058 11.2501C70.8118 11.0753 70.8148 10.9005 70.8148 10.7257C70.8148 10.6895 70.8118 10.6563 70.8058 10.6262C70.8058 10.59 70.8028 10.5539 70.7967 10.5177C70.64 10.7468 70.5014 11.0029 70.3808 11.2863C70.2663 11.5636 70.1638 11.8529 70.0734 12.1543C69.983 12.4497 69.9046 12.7481 69.8383 13.0494C69.778 13.3448 69.7268 13.6281 69.6846 13.8994L69.6574 14.0893C69.6273 14.3003 69.5972 14.5173 69.567 14.7403C69.5369 14.9573 69.5218 15.1743 69.5218 15.3913C69.5218 15.4817 69.5369 15.5812 69.567 15.6897C69.5791 15.7379 69.5881 15.7862 69.5941 15.8344C69.6062 15.8766 69.6122 15.9308 69.6122 15.9971C69.6122 16.1418 69.5761 16.2383 69.5037 16.2865C69.4314 16.3407 69.3349 16.3679 69.2144 16.3679C69.142 16.3679 69.0607 16.3618 68.9702 16.3498C68.8859 16.3377 68.8015 16.3166 68.7171 16.2865C68.6387 16.2624 68.5634 16.2292 68.491 16.187C68.4187 16.1448 68.3614 16.0906 68.3192 16.0243C68.2831 15.9459 68.2469 15.7379 68.2107 15.4004C68.1806 15.0628 68.1504 14.6439 68.1203 14.1435C68.0962 13.6432 68.0721 13.0826 68.048 12.4617C68.0239 11.8348 67.9997 11.1928 67.9756 10.5358C67.9575 9.87873 67.9395 9.2277 67.9214 8.58271C67.9093 7.93771 67.8973 7.34396 67.8852 6.80144C67.8792 6.25892 67.8732 5.78874 67.8671 5.39089C67.8611 4.98701 67.8581 4.7037 67.8581 4.54094C67.8581 4.42038 67.8732 4.31188 67.9033 4.21543C67.9395 4.11296 68.0359 4.06172 68.1926 4.06172C68.3554 4.06172 68.5091 4.1009 68.6538 4.17926C68.7985 4.2516 68.9039 4.36613 68.9702 4.52286C68.9823 4.54697 68.9944 4.64643 69.0064 4.82124C69.0185 4.99003 69.0305 5.21005 69.0426 5.48131C69.0546 5.74654 69.0667 6.05397 69.0788 6.40359C69.0908 6.74719 69.1029 7.10585 69.1149 7.47959C69.127 7.84729 69.139 8.21802 69.1511 8.59175C69.1631 8.96549 69.1752 9.31511 69.1873 9.64062L69.2325 10.9788C69.3048 10.792 69.3952 10.5961 69.5037 10.3911C69.6122 10.1862 69.7358 9.99929 69.8744 9.8305C70.0191 9.66172 70.1789 9.52308 70.3537 9.41457C70.5345 9.30607 70.7334 9.25182 70.9504 9.25182C71.2157 9.25182 71.4236 9.32114 71.5743 9.45978C71.725 9.59843 71.8366 9.77022 71.9089 9.97518C71.9873 10.1801 72.0355 10.4001 72.0536 10.6352C72.0716 10.8703 72.0807 11.0843 72.0807 11.2772C72.0807 11.3978 72.0777 11.5153 72.0716 11.6299C72.0716 11.7444 72.0686 11.8589 72.0626 11.9735C72.0566 12.094 72.0506 12.2146 72.0445 12.3351C72.0445 12.4497 72.0445 12.5672 72.0445 12.6878C72.0445 13.1037 72.0536 13.5317 72.0716 13.9717C72.0897 14.4057 72.1349 14.8337 72.2073 15.2557L72.2254 15.3823C72.2374 15.4184 72.2465 15.4606 72.2525 15.5089C72.2585 15.5571 72.2615 15.6023 72.2615 15.6445ZM76.5384 14.4781C76.5384 14.6589 76.4872 14.8458 76.3847 15.0387C76.2882 15.2316 76.1616 15.4094 76.0049 15.5722C75.8482 15.7289 75.6673 15.8585 75.4624 15.961C75.2635 16.0634 75.0645 16.1147 74.8656 16.1147C74.5823 16.1147 74.3382 16.0604 74.1332 15.9519C73.9283 15.8374 73.7504 15.6867 73.5997 15.4998C73.449 15.3069 73.3255 15.0899 73.229 14.8488C73.1386 14.6077 73.0663 14.3605 73.012 14.1074C72.9578 13.8482 72.9186 13.592 72.8945 13.3388C72.8764 13.0796 72.8673 12.8445 72.8673 12.6335C72.8673 12.4527 72.8764 12.2387 72.8945 11.9915C72.9186 11.7444 72.9547 11.4882 73.003 11.223C73.0572 10.9577 73.1296 10.6955 73.22 10.4363C73.3104 10.1771 73.4219 9.94504 73.5545 9.74008C73.6932 9.53513 73.8559 9.36936 74.0428 9.24277C74.2357 9.11619 74.4557 9.05289 74.7029 9.05289C74.8958 9.05289 75.0676 9.09207 75.2183 9.17044C75.375 9.2488 75.5046 9.35429 75.6071 9.48691C75.7156 9.6135 75.7969 9.76118 75.8512 9.92997C75.9115 10.0987 75.9416 10.2736 75.9416 10.4544C75.9416 10.6895 75.8874 10.9457 75.7789 11.223C75.6704 11.5003 75.5287 11.7685 75.3539 12.0277C75.1851 12.2869 74.9922 12.522 74.7752 12.733C74.5642 12.9379 74.3532 13.0947 74.1423 13.2032C74.1543 13.3117 74.1784 13.4714 74.2146 13.6824C74.2508 13.8873 74.299 14.0923 74.3593 14.2972C74.4256 14.5022 74.5009 14.68 74.5853 14.8307C74.6757 14.9814 74.7812 15.0568 74.9018 15.0568C74.9621 15.0568 75.0133 15.0387 75.0555 15.0025C75.1037 14.9664 75.1459 14.9181 75.1821 14.8578C75.2183 14.7976 75.2484 14.7313 75.2725 14.6589C75.3027 14.5866 75.3298 14.5173 75.3539 14.451L75.4081 14.3244C75.4202 14.3063 75.4262 14.2942 75.4262 14.2882C75.4323 14.2822 75.4383 14.2731 75.4443 14.2611C75.4865 14.1827 75.5257 14.1104 75.5619 14.0441C75.6041 13.9778 75.6613 13.9205 75.7337 13.8723H75.7246C75.7487 13.8482 75.7728 13.8361 75.7969 13.8361C75.8271 13.8301 75.8542 13.8271 75.8783 13.8271C75.9446 13.8271 76.017 13.8482 76.0953 13.8904C76.1737 13.9326 76.246 13.9868 76.3123 14.0531C76.3786 14.1134 76.4329 14.1827 76.4751 14.2611C76.5173 14.3334 76.5384 14.4057 76.5384 14.4781ZM74.7481 10.4906C74.7481 10.4303 74.7451 10.367 74.739 10.3007C74.733 10.2344 74.7179 10.1771 74.6938 10.1289C74.6094 10.2314 74.5341 10.3549 74.4678 10.4996C74.4075 10.6383 74.3563 10.7859 74.3141 10.9427C74.2719 11.0934 74.2357 11.2471 74.2056 11.4038C74.1814 11.5605 74.1634 11.7052 74.1513 11.8378C74.308 11.651 74.4467 11.44 74.5672 11.2049C74.6878 10.9638 74.7481 10.7257 74.7481 10.4906ZM81.0051 15.8525C81.0051 15.9188 80.9901 15.976 80.9599 16.0243C80.9298 16.0665 80.8906 16.1026 80.8424 16.1328C80.8002 16.1569 80.752 16.175 80.6977 16.187C80.6495 16.1991 80.6013 16.2051 80.553 16.2051C80.4807 16.2051 80.4023 16.1961 80.3179 16.178C80.2336 16.1599 80.1492 16.1358 80.0648 16.1056C79.9804 16.0695 79.902 16.0273 79.8297 15.9791C79.7634 15.9248 79.7121 15.8645 79.676 15.7982C79.6398 15.7319 79.6127 15.6505 79.5946 15.5541C79.5825 15.4516 79.5705 15.3491 79.5584 15.2467C79.4981 15.3913 79.4258 15.533 79.3414 15.6716C79.263 15.8103 79.1666 15.9338 79.0521 16.0423C78.9375 16.1448 78.8079 16.2262 78.6633 16.2865C78.5246 16.3528 78.3679 16.3859 78.1931 16.3859C77.8856 16.3859 77.6355 16.3136 77.4426 16.1689C77.2557 16.0243 77.108 15.8434 76.9995 15.6264C76.8971 15.4034 76.8277 15.1623 76.7916 14.9031C76.7614 14.6378 76.7464 14.3846 76.7464 14.1435C76.7464 13.9446 76.7554 13.7186 76.7735 13.4654C76.7916 13.2122 76.8157 12.953 76.8458 12.6878C76.876 12.4225 76.9121 12.1663 76.9543 11.9192C76.9965 11.666 77.0417 11.443 77.09 11.2501C77.1502 11.0271 77.2226 10.7829 77.307 10.5177C77.3974 10.2464 77.5089 9.99627 77.6415 9.76721C77.7802 9.53212 77.9489 9.33319 78.1479 9.17044C78.3468 9.00768 78.5849 8.91726 78.8622 8.89918C78.8441 8.41091 78.817 7.96183 78.7808 7.55192C78.7507 7.13599 78.7175 6.71102 78.6813 6.277L78.5909 5.27334L78.5548 4.91166C78.5427 4.81522 78.5337 4.71877 78.5276 4.62232C78.5216 4.51984 78.5186 4.42038 78.5186 4.32393C78.5186 4.18529 78.5548 4.08884 78.6271 4.03459C78.7055 3.98034 78.8049 3.95321 78.9255 3.95321C79.1907 3.95321 79.3926 3.9924 79.5313 4.07076C79.6699 4.14912 79.7664 4.25461 79.8206 4.38723C79.8809 4.51984 79.9141 4.67657 79.9201 4.85741C79.9261 5.03222 79.9291 5.22211 79.9291 5.42706C79.9291 5.55967 79.9442 5.71037 79.9743 5.87916L80.0196 6.21371L80.0919 7.13599C80.1039 7.28066 80.116 7.42534 80.1281 7.57001C80.1401 7.71468 80.1522 7.85935 80.1642 8.00402L80.3541 9.94805L80.7158 13.5829L80.7429 13.9175C80.767 14.1646 80.7881 14.4208 80.8062 14.686C80.8303 14.9513 80.8725 15.2135 80.9328 15.4727C80.9509 15.539 80.966 15.6023 80.978 15.6626C80.9961 15.7229 81.0051 15.7862 81.0051 15.8525ZM78.8984 10.5629C78.8984 10.4966 78.8953 10.4243 78.8893 10.3459C78.8893 10.2615 78.8893 10.1831 78.8893 10.1108V9.86667C78.8471 9.92695 78.7929 10.0113 78.7266 10.1198C78.6602 10.2223 78.609 10.3158 78.5728 10.4001C78.4764 10.6111 78.389 10.8824 78.3106 11.2139C78.2323 11.5394 78.1629 11.883 78.1027 12.2447C78.0484 12.6004 78.0062 12.95 77.9761 13.2936C77.9459 13.6312 77.9309 13.9145 77.9309 14.1435C77.9309 14.2279 77.9309 14.3244 77.9309 14.4329C77.9369 14.5414 77.9489 14.6529 77.967 14.7674C77.9851 14.8759 78.0122 14.9814 78.0484 15.0839C78.0846 15.1864 78.1328 15.2708 78.1931 15.3371C78.2835 15.2225 78.3649 15.0477 78.4372 14.8126C78.5095 14.5715 78.5698 14.3003 78.618 13.9989C78.6723 13.6914 78.7175 13.3689 78.7537 13.0314C78.7898 12.6938 78.817 12.3683 78.8351 12.0548C78.8592 11.7353 78.8742 11.446 78.8803 11.1868C78.8923 10.9216 78.8984 10.7136 78.8984 10.5629ZM83.6996 13.6733C83.6996 13.9386 83.5791 14.0712 83.338 14.0712C83.2656 14.0712 83.1752 14.0622 83.0667 14.0441C82.9642 14.026 82.8587 13.9989 82.7502 13.9627C82.6417 13.9265 82.5423 13.8843 82.4518 13.8361C82.3675 13.7819 82.3072 13.7216 82.271 13.6553C82.2228 13.5709 82.1987 13.4835 82.1987 13.393C82.1987 13.2966 82.1987 13.1971 82.1987 13.0947C82.1625 11.7564 82.1143 10.4273 82.054 9.10714C81.9998 7.78099 81.9455 6.44579 81.8912 5.10155C81.8792 4.81823 81.8671 4.53491 81.8551 4.2516C81.843 3.96226 81.837 3.67291 81.837 3.38357C81.837 3.24492 81.8521 3.14245 81.8822 3.07614C81.9123 3.00381 82.0058 2.96764 82.1625 2.96764C82.2409 2.96764 82.3253 2.97969 82.4157 3.00381C82.5061 3.02189 82.5905 3.05203 82.6689 3.09422C82.7532 3.13039 82.8256 3.17862 82.8859 3.2389C82.9522 3.29315 83.0004 3.35946 83.0305 3.43782C83.0486 3.48604 83.0697 3.64579 83.0938 3.91705C83.124 4.18831 83.1541 4.53793 83.1843 4.96592C83.2144 5.38788 83.2445 5.8671 83.2747 6.40359C83.3048 6.94008 83.335 7.49466 83.3651 8.06732C83.4013 8.63395 83.4344 9.20058 83.4646 9.76721C83.4947 10.3278 83.5218 10.8492 83.5459 11.3315C83.5761 11.8137 83.6002 12.2357 83.6183 12.5974C83.6424 12.959 83.6635 13.2212 83.6816 13.384C83.6816 13.4322 83.6846 13.4805 83.6906 13.5287C83.6966 13.5769 83.6996 13.6251 83.6996 13.6733ZM82.2891 15.1562C82.2891 15.096 82.3102 15.0507 82.3524 15.0206C82.3946 14.9844 82.4458 14.9603 82.5061 14.9483C82.5724 14.9302 82.6357 14.9211 82.696 14.9211C82.7623 14.9211 82.8196 14.9211 82.8678 14.9211C82.9281 14.9211 82.9974 14.9242 83.0757 14.9302C83.1601 14.9302 83.2385 14.9422 83.3108 14.9664C83.3832 14.9844 83.4435 15.0176 83.4917 15.0658C83.5459 15.108 83.5731 15.1683 83.5731 15.2467C83.5731 15.2768 83.57 15.3431 83.564 15.4456C83.564 15.542 83.561 15.6475 83.555 15.762C83.555 15.8766 83.5489 15.9821 83.5369 16.0785C83.5309 16.1689 83.5248 16.2172 83.5188 16.2232C83.4826 16.2895 83.4254 16.3257 83.347 16.3317C83.2686 16.3437 83.1933 16.3498 83.121 16.3498C82.9401 16.3498 82.8045 16.3407 82.7141 16.3226C82.6236 16.3046 82.5573 16.2684 82.5151 16.2141C82.479 16.1599 82.4518 16.0845 82.4338 15.9881C82.4217 15.8916 82.4036 15.7651 82.3795 15.6083C82.3675 15.536 82.3494 15.4637 82.3253 15.3913C82.3011 15.319 82.2891 15.2406 82.2891 15.1562ZM35.533 32.4563C35.533 32.5468 35.5179 32.6372 35.4878 32.7276C35.4637 32.812 35.4365 32.8964 35.4064 32.9808C35.2738 33.3244 35.111 33.6439 34.9181 33.9392C34.7252 34.2286 34.5022 34.4787 34.249 34.6897C33.9959 34.9007 33.7095 35.0665 33.39 35.187C33.0706 35.3076 32.7179 35.3679 32.3321 35.3679C31.8197 35.3679 31.3797 35.2594 31.012 35.0423C30.6443 34.8253 30.3308 34.545 30.0716 34.2014C29.8124 33.8518 29.5984 33.463 29.4296 33.035C29.2669 32.607 29.1373 32.1791 29.0408 31.7511C28.8962 31.1302 28.7847 30.5093 28.7063 29.8884C28.6279 29.2615 28.5887 28.6346 28.5887 28.0077C28.5887 27.64 28.6038 27.2602 28.634 26.8684C28.6701 26.4766 28.7304 26.0908 28.8148 25.711C28.8992 25.3252 29.0137 24.9545 29.1584 24.5989C29.3031 24.2372 29.4839 23.9056 29.7009 23.6042C29.9179 23.2968 30.1741 23.0255 30.4695 22.7905C30.7709 22.5554 31.1205 22.3715 31.5183 22.2389C31.663 22.1846 31.8137 22.1485 31.9704 22.1304C32.1272 22.1063 32.2839 22.0942 32.4406 22.0942C32.7541 22.0942 33.0525 22.1455 33.3358 22.2479C33.6191 22.3504 33.8663 22.4951 34.0772 22.682C34.2942 22.8688 34.463 23.0949 34.5836 23.3601C34.7102 23.6253 34.7735 23.9207 34.7735 24.2462C34.7735 24.3547 34.7494 24.4361 34.7011 24.4904C34.6529 24.5446 34.5685 24.5717 34.448 24.5717C34.2249 24.5717 34.0501 24.5356 33.9235 24.4632C33.803 24.3909 33.7035 24.3005 33.6251 24.192C33.5468 24.0835 33.4805 23.9659 33.4262 23.8393C33.378 23.7127 33.3177 23.5952 33.2454 23.4867C33.173 23.3782 33.0766 23.2878 32.956 23.2154C32.8355 23.1431 32.6697 23.1069 32.4587 23.1069C32.2477 23.1069 32.0488 23.1491 31.8619 23.2335C31.6811 23.3119 31.5123 23.4174 31.3556 23.55C31.2049 23.6826 31.0662 23.8333 30.9397 24.0021C30.8191 24.1648 30.7106 24.3306 30.6141 24.4994C30.361 24.9696 30.1831 25.4729 30.0807 26.0094C29.9782 26.5399 29.927 27.0733 29.927 27.6098C29.927 27.7907 29.933 28.0258 29.945 28.3151C29.9631 28.5984 29.9872 28.9119 30.0174 29.2555C30.0535 29.5991 30.1018 29.9638 30.1621 30.3496C30.2223 30.7293 30.2947 31.1031 30.3791 31.4708C30.4695 31.8385 30.575 32.1911 30.6955 32.5287C30.8221 32.8662 30.9638 33.1616 31.1205 33.4148C31.2833 33.668 31.4641 33.8699 31.663 34.0206C31.868 34.1713 32.097 34.2467 32.3502 34.2467C32.6094 34.2467 32.8385 34.1803 33.0374 34.0477C33.2363 33.9091 33.4051 33.7373 33.5438 33.5323C33.6884 33.3214 33.806 33.0953 33.8964 32.8542C33.9928 32.607 34.0682 32.378 34.1224 32.167C34.1405 32.1067 34.1556 32.0525 34.1676 32.0042C34.1857 31.956 34.2068 31.9138 34.2309 31.8777C34.2611 31.8415 34.2973 31.8144 34.3394 31.7963C34.3816 31.7782 34.4419 31.7691 34.5203 31.7691C34.6047 31.7691 34.7041 31.7872 34.8187 31.8234C34.9392 31.8535 35.0508 31.8988 35.1532 31.959C35.2617 32.0193 35.3521 32.0916 35.4245 32.176C35.4968 32.2604 35.533 32.3539 35.533 32.4563ZM39.846 31.4256C39.846 31.95 39.8008 32.4744 39.7104 32.9989C39.626 33.5173 39.4482 34.0085 39.1769 34.4727C39.0925 34.6113 38.9961 34.747 38.8876 34.8796C38.7791 35.0062 38.6585 35.1207 38.5259 35.2232C38.3993 35.3317 38.2576 35.4161 38.1009 35.4764C37.9502 35.5427 37.7905 35.5758 37.6217 35.5758C37.3565 35.5758 37.1244 35.5125 36.9255 35.3859C36.7326 35.2654 36.5638 35.1056 36.4191 34.9067C36.2805 34.7018 36.1629 34.4727 36.0665 34.2195C35.976 33.9603 35.9037 33.6981 35.8495 33.4329C35.8012 33.1616 35.7651 32.8994 35.741 32.6462C35.7229 32.393 35.7138 32.17 35.7138 31.9771C35.7138 31.7601 35.7229 31.522 35.741 31.2628C35.759 31.0036 35.7892 30.7384 35.8314 30.4671C35.8796 30.1958 35.9399 29.9276 36.0122 29.6624C36.0906 29.3971 36.19 29.15 36.3106 28.9209C36.4312 28.6858 36.5758 28.4779 36.7446 28.297C36.9134 28.1102 37.1093 27.9625 37.3323 27.854V27.863C37.5252 27.7605 37.7181 27.7093 37.911 27.7093C38.0316 27.7093 38.125 27.7364 38.1913 27.7907C38.2576 27.8389 38.2878 27.9233 38.2818 28.0439C38.6133 28.1041 38.8815 28.2639 39.0865 28.5231C39.2914 28.7823 39.4482 29.0837 39.5567 29.4273C39.6712 29.7709 39.7466 30.1235 39.7827 30.4852C39.8249 30.8469 39.846 31.1603 39.846 31.4256ZM37.8025 29.1651C37.7001 29.1651 37.6036 29.1259 37.5132 29.0475C37.3987 29.2223 37.3022 29.4243 37.2238 29.6533C37.1455 29.8764 37.0822 30.1084 37.034 30.3496C36.9918 30.5846 36.9616 30.8228 36.9435 31.0639C36.9255 31.305 36.9164 31.531 36.9164 31.742C36.9164 31.9168 36.9255 32.1429 36.9435 32.4202C36.9616 32.6914 36.9948 32.9657 37.043 33.243C37.0973 33.5203 37.1696 33.7795 37.26 34.0206C37.3565 34.2617 37.48 34.4395 37.6307 34.5541C37.8176 34.4456 37.9713 34.2738 38.0919 34.0387C38.2185 33.7976 38.3179 33.5353 38.3903 33.252C38.4626 32.9687 38.5108 32.6824 38.5349 32.393C38.5651 32.1037 38.5801 31.8566 38.5801 31.6516C38.5801 31.5009 38.5711 31.305 38.553 31.0639C38.5349 30.8228 38.5048 30.5786 38.4626 30.3315C38.4204 30.0783 38.3601 29.8432 38.2818 29.6262C38.2094 29.4092 38.116 29.2464 38.0015 29.1379C37.9472 29.156 37.8809 29.1651 37.8025 29.1651ZM42.8027 35.395C42.8027 35.4794 42.7816 35.5487 42.7395 35.6029C42.6973 35.6572 42.643 35.6994 42.5767 35.7295C42.5164 35.7657 42.4471 35.7898 42.3687 35.8019C42.2964 35.82 42.2301 35.829 42.1698 35.829C41.9588 35.829 41.775 35.7687 41.6182 35.6482C41.4615 35.5276 41.3259 35.3709 41.2114 35.178C41.0968 34.9911 41.0034 34.7771 40.9311 34.536C40.8587 34.2888 40.7984 34.0447 40.7502 33.8036C40.702 33.5564 40.6658 33.3214 40.6417 33.0983C40.6176 32.8693 40.5995 32.6733 40.5875 32.5106C40.5332 31.95 40.494 31.3803 40.4699 30.8017C40.4518 30.223 40.4428 29.6503 40.4428 29.0837C40.4428 27.5345 40.497 26.0004 40.6055 24.4813C40.6055 24.4572 40.6055 24.4301 40.6055 24.3999C40.6116 24.3698 40.6146 24.3397 40.6146 24.3095C40.6206 24.1829 40.6266 24.0383 40.6327 23.8755C40.6387 23.7067 40.6477 23.5409 40.6598 23.3782C40.6719 23.2154 40.6839 23.0677 40.696 22.9351C40.714 22.7965 40.7351 22.7 40.7593 22.6458V22.6548C40.7834 22.5704 40.8165 22.5071 40.8587 22.4649C40.9009 22.4228 40.9733 22.4017 41.0757 22.4017C41.2927 22.4017 41.4766 22.474 41.6273 22.6187C41.778 22.7633 41.8533 22.9442 41.8533 23.1612C41.8533 23.2094 41.8503 23.2576 41.8443 23.3059C41.8443 23.348 41.8413 23.3902 41.8353 23.4324C41.8292 23.4746 41.8232 23.5168 41.8172 23.559C41.8172 23.5952 41.8172 23.6283 41.8172 23.6585C41.7991 23.8936 41.784 24.1287 41.772 24.3638C41.7659 24.5928 41.7569 24.8249 41.7448 25.06C41.7147 25.5784 41.6906 26.0968 41.6725 26.6152C41.6604 27.1276 41.6544 27.646 41.6544 28.1704C41.6544 28.3935 41.6574 28.6858 41.6635 29.0475C41.6695 29.4092 41.6815 29.804 41.6996 30.232C41.7177 30.654 41.7418 31.091 41.772 31.5431C41.8081 31.9952 41.8533 32.4262 41.9076 32.8361C41.9618 33.246 42.0251 33.6167 42.0975 33.9483C42.1758 34.2798 42.2663 34.536 42.3687 34.7168C42.423 34.7409 42.4742 34.7801 42.5224 34.8344C42.5767 34.8826 42.6219 34.9399 42.6581 35.0062C42.7003 35.0665 42.7334 35.1298 42.7575 35.1961C42.7877 35.2684 42.8027 35.3347 42.8027 35.395ZM45.3526 35.395C45.3526 35.4794 45.3315 35.5487 45.2893 35.6029C45.2471 35.6572 45.1928 35.6994 45.1265 35.7295C45.0663 35.7657 44.9969 35.7898 44.9186 35.8019C44.8462 35.82 44.7799 35.829 44.7196 35.829C44.5087 35.829 44.3248 35.7687 44.1681 35.6482C44.0114 35.5276 43.8757 35.3709 43.7612 35.178C43.6467 34.9911 43.5532 34.7771 43.4809 34.536C43.4086 34.2888 43.3483 34.0447 43.3001 33.8036C43.2518 33.5564 43.2157 33.3214 43.1916 33.0983C43.1674 32.8693 43.1494 32.6733 43.1373 32.5106C43.083 31.95 43.0439 31.3803 43.0198 30.8017C43.0017 30.223 42.9926 29.6503 42.9926 29.0837C42.9926 27.5345 43.0469 26.0004 43.1554 24.4813C43.1554 24.4572 43.1554 24.4301 43.1554 24.3999C43.1614 24.3698 43.1644 24.3397 43.1644 24.3095C43.1705 24.1829 43.1765 24.0383 43.1825 23.8755C43.1885 23.7067 43.1976 23.5409 43.2096 23.3782C43.2217 23.2154 43.2337 23.0677 43.2458 22.9351C43.2639 22.7965 43.285 22.7 43.3091 22.6458V22.6548C43.3332 22.5704 43.3664 22.5071 43.4086 22.4649C43.4508 22.4228 43.5231 22.4017 43.6256 22.4017C43.8426 22.4017 44.0264 22.474 44.1771 22.6187C44.3278 22.7633 44.4032 22.9442 44.4032 23.1612C44.4032 23.2094 44.4002 23.2576 44.3941 23.3059C44.3941 23.348 44.3911 23.3902 44.3851 23.4324C44.3791 23.4746 44.373 23.5168 44.367 23.559C44.367 23.5952 44.367 23.6283 44.367 23.6585C44.3489 23.8936 44.3339 24.1287 44.3218 24.3638C44.3158 24.5928 44.3067 24.8249 44.2947 25.06C44.2645 25.5784 44.2404 26.0968 44.2223 26.6152C44.2103 27.1276 44.2043 27.646 44.2043 28.1704C44.2043 28.3935 44.2073 28.6858 44.2133 29.0475C44.2193 29.4092 44.2314 29.804 44.2495 30.232C44.2675 30.654 44.2917 31.091 44.3218 31.5431C44.358 31.9952 44.4032 32.4262 44.4574 32.8361C44.5117 33.246 44.575 33.6167 44.6473 33.9483C44.7257 34.2798 44.8161 34.536 44.9186 34.7168C44.9728 34.7409 45.0241 34.7801 45.0723 34.8344C45.1265 34.8826 45.1717 34.9399 45.2079 35.0062C45.2501 35.0665 45.2833 35.1298 45.3074 35.1961C45.3375 35.2684 45.3526 35.3347 45.3526 35.395ZM48.9965 33.4781C48.9965 33.6589 48.9453 33.8458 48.8428 34.0387C48.7463 34.2316 48.6198 34.4094 48.463 34.5722C48.3063 34.7289 48.1255 34.8585 47.9205 34.961C47.7216 35.0634 47.5227 35.1147 47.3237 35.1147C47.0404 35.1147 46.7963 35.0604 46.5913 34.9519C46.3864 34.8374 46.2086 34.6867 46.0579 34.4998C45.9072 34.3069 45.7836 34.0899 45.6871 33.8488C45.5967 33.6077 45.5244 33.3605 45.4701 33.1074C45.4159 32.8482 45.3767 32.592 45.3526 32.3388C45.3345 32.0796 45.3255 31.8445 45.3255 31.6335C45.3255 31.4527 45.3345 31.2387 45.3526 30.9915C45.3767 30.7444 45.4129 30.4882 45.4611 30.223C45.5153 29.9577 45.5877 29.6955 45.6781 29.4363C45.7685 29.1771 45.88 28.945 46.0126 28.7401C46.1513 28.5351 46.314 28.3694 46.5009 28.2428C46.6938 28.1162 46.9138 28.0529 47.161 28.0529C47.3539 28.0529 47.5257 28.0921 47.6764 28.1704C47.8331 28.2488 47.9627 28.3543 48.0652 28.4869C48.1737 28.6135 48.2551 28.7612 48.3093 28.93C48.3696 29.0987 48.3997 29.2736 48.3997 29.4544C48.3997 29.6895 48.3455 29.9457 48.237 30.223C48.1285 30.5003 47.9868 30.7685 47.812 31.0277C47.6432 31.2869 47.4503 31.522 47.2333 31.733C47.0223 31.9379 46.8114 32.0947 46.6004 32.2032C46.6124 32.3117 46.6365 32.4714 46.6727 32.6824C46.7089 32.8873 46.7571 33.0923 46.8174 33.2972C46.8837 33.5022 46.959 33.68 47.0434 33.8307C47.1339 33.9814 47.2393 34.0568 47.3599 34.0568C47.4202 34.0568 47.4714 34.0387 47.5136 34.0025C47.5618 33.9664 47.604 33.9181 47.6402 33.8578C47.6764 33.7976 47.7065 33.7313 47.7306 33.6589C47.7608 33.5866 47.7879 33.5173 47.812 33.451L47.8663 33.3244C47.8783 33.3063 47.8843 33.2942 47.8843 33.2882C47.8904 33.2822 47.8964 33.2731 47.9024 33.2611C47.9446 33.1827 47.9838 33.1104 48.02 33.0441C48.0622 32.9778 48.1194 32.9205 48.1918 32.8723H48.1827C48.2068 32.8482 48.2309 32.8361 48.2551 32.8361C48.2852 32.8301 48.3123 32.8271 48.3364 32.8271C48.4027 32.8271 48.4751 32.8482 48.5534 32.8904C48.6318 32.9326 48.7041 32.9868 48.7705 33.0531C48.8368 33.1134 48.891 33.1827 48.9332 33.2611C48.9754 33.3334 48.9965 33.4057 48.9965 33.4781ZM47.2062 29.4906C47.2062 29.4303 47.2032 29.367 47.1971 29.3007C47.1911 29.2344 47.1761 29.1771 47.1519 29.1289C47.0675 29.2314 46.9922 29.3549 46.9259 29.4996C46.8656 29.6383 46.8144 29.7859 46.7722 29.9427C46.73 30.0934 46.6938 30.2471 46.6637 30.4038C46.6396 30.5605 46.6215 30.7052 46.6094 30.8378C46.7661 30.651 46.9048 30.44 47.0254 30.2049C47.1459 29.9638 47.2062 29.7257 47.2062 29.4906ZM52.9931 33.1074C52.9931 33.2339 52.972 33.3636 52.9298 33.4962C52.8876 33.6288 52.8393 33.7554 52.7851 33.8759C52.7128 34.0507 52.6254 34.2225 52.5229 34.3913C52.4204 34.5541 52.3029 34.7018 52.1702 34.8344C52.0376 34.961 51.8869 35.0634 51.7181 35.1418C51.5494 35.2202 51.3595 35.2594 51.1485 35.2594C50.7748 35.2594 50.4643 35.1659 50.2172 34.9791C49.97 34.7922 49.7741 34.5571 49.6294 34.2738C49.4848 33.9905 49.3823 33.68 49.322 33.3425C49.2678 33.0049 49.2406 32.6854 49.2406 32.384C49.2406 32.161 49.2497 31.8988 49.2678 31.5974C49.2858 31.2899 49.319 30.9735 49.3672 30.6479C49.4215 30.3224 49.4968 29.9999 49.5933 29.6805C49.6958 29.361 49.8254 29.0777 49.9821 28.8305C50.1388 28.5773 50.3287 28.3724 50.5517 28.2156C50.7808 28.0589 51.052 27.9806 51.3655 27.9806C51.4318 27.9806 51.5283 27.9926 51.6548 28.0167C51.7814 28.0408 51.905 28.077 52.0256 28.1252C52.1522 28.1674 52.2607 28.2277 52.3511 28.3061C52.4475 28.3784 52.4958 28.4628 52.4958 28.5592C52.4958 28.6497 52.4536 28.719 52.3692 28.7672C52.2908 28.8154 52.1944 28.8516 52.0798 28.8757C51.9713 28.8938 51.8568 28.9059 51.7362 28.9119C51.6217 28.9119 51.5283 28.9119 51.4559 28.9119H51.2932C51.1244 29.0626 50.9857 29.2856 50.8772 29.581C50.7687 29.8703 50.6843 30.1808 50.6241 30.5123C50.5638 30.8439 50.5216 31.1724 50.4975 31.4979C50.4734 31.8174 50.4613 32.0796 50.4613 32.2845C50.4613 32.5739 50.4824 32.8602 50.5246 33.1435C50.5728 33.4208 50.6663 33.683 50.8049 33.9302C50.835 33.9844 50.8772 34.0477 50.9315 34.1201C50.9918 34.1864 51.0581 34.2195 51.1304 34.2195C51.1847 34.2195 51.2389 34.1743 51.2932 34.0839C51.3534 33.9935 51.4077 33.888 51.4559 33.7674C51.5041 33.6469 51.5433 33.5293 51.5735 33.4148C51.6036 33.3003 51.6247 33.2159 51.6368 33.1616C51.6428 33.1375 51.6458 33.1104 51.6458 33.0802C51.6458 33.0501 51.6458 33.02 51.6458 32.9898C51.6458 32.9356 51.6458 32.8843 51.6458 32.8361C51.6518 32.7819 51.6609 32.7397 51.6729 32.7095C51.7151 32.607 51.7694 32.5377 51.8357 32.5015C51.908 32.4654 51.9954 32.4473 52.0979 32.4473C52.1883 32.4473 52.2848 32.4594 52.3872 32.4835C52.4897 32.5076 52.5862 32.5468 52.6766 32.601C52.767 32.6553 52.8424 32.7246 52.9026 32.809C52.9629 32.8934 52.9931 32.9928 52.9931 33.1074ZM55.3982 34.9067C55.3982 34.973 55.3832 35.0303 55.353 35.0785C55.3229 35.1207 55.2837 35.1539 55.2355 35.178C55.1933 35.2021 55.1451 35.2172 55.0908 35.2232C55.0426 35.2352 54.9944 35.2413 54.9461 35.2413C54.8798 35.2413 54.8015 35.2322 54.711 35.2141C54.6266 35.2021 54.5423 35.181 54.4579 35.1509C54.3735 35.1207 54.2951 35.0845 54.2228 35.0423C54.1565 34.9941 54.1052 34.9369 54.0691 34.8705C54.0329 34.8103 53.9997 34.6988 53.9696 34.536C53.9455 34.3672 53.9244 34.1743 53.9063 33.9573C53.8882 33.7343 53.8731 33.4992 53.8611 33.252C53.849 32.9989 53.837 32.7577 53.8249 32.5287C53.8189 32.2996 53.8129 32.0947 53.8068 31.9138C53.8068 31.727 53.8068 31.5883 53.8068 31.4979C53.8068 31.0759 53.8129 30.669 53.8249 30.2772C53.843 29.8794 53.8611 29.4725 53.8792 29.0566C53.849 29.0566 53.8189 29.0596 53.7888 29.0656C53.7586 29.0716 53.7285 29.0746 53.6983 29.0746C53.62 29.0867 53.5386 29.0957 53.4542 29.1018C53.3758 29.1078 53.2945 29.1108 53.2101 29.1108C53.1076 29.1108 53.0172 29.0927 52.9388 29.0566C52.8604 29.0204 52.8213 28.939 52.8213 28.8124C52.8213 28.6617 52.8544 28.5412 52.9207 28.4507C52.987 28.3603 53.0714 28.291 53.1739 28.2428C53.2764 28.1885 53.3879 28.1524 53.5085 28.1343C53.629 28.1102 53.7466 28.0921 53.8611 28.08C53.8792 28.08 53.8912 28.08 53.8973 28.08C53.9033 28.074 53.9153 28.071 53.9334 28.071C53.9395 27.9986 53.9455 27.9112 53.9515 27.8088C53.9575 27.7003 53.9636 27.5827 53.9696 27.4561C53.9756 27.2572 53.9847 27.0462 53.9967 26.8232C54.0088 26.5941 54.0208 26.3771 54.0329 26.1722C54.0449 25.9612 54.06 25.7773 54.0781 25.6206C54.0962 25.4578 54.1143 25.3433 54.1324 25.277C54.1625 25.1986 54.1956 25.1353 54.2318 25.0871C54.274 25.0389 54.3494 25.0148 54.4579 25.0148C54.699 25.0148 54.8859 25.0931 55.0185 25.2499C55.1511 25.4066 55.2174 25.5995 55.2174 25.8286C55.2174 26.0938 55.2083 26.359 55.1903 26.6243C55.1782 26.8895 55.1662 27.1577 55.1541 27.429L55.127 27.8901C55.2777 27.8721 55.4284 27.8449 55.5791 27.8088C55.7237 27.7786 55.8684 27.7515 56.0131 27.7274C56.1638 27.7033 56.3085 27.6912 56.4471 27.6912C56.5677 27.6912 56.6611 27.7244 56.7274 27.7907C56.7937 27.851 56.8269 27.9414 56.8269 28.0619C56.8269 28.1946 56.8028 28.3242 56.7545 28.4507C56.7063 28.5773 56.6219 28.6738 56.5014 28.7401H56.5104C56.4863 28.7521 56.4139 28.7702 56.2934 28.7943C56.1728 28.8124 56.0342 28.8305 55.8775 28.8486C55.7268 28.8667 55.5761 28.8848 55.4254 28.9028C55.2807 28.9209 55.1722 28.933 55.0998 28.939H55.0908C55.0787 29.2766 55.0697 29.6111 55.0637 29.9427C55.0576 30.2682 55.0546 30.5997 55.0546 30.9373C55.0546 31.4014 55.0667 31.8957 55.0908 32.4202C55.1209 32.9386 55.1692 33.4329 55.2355 33.9031L55.3078 34.3099C55.3319 34.4124 55.353 34.5149 55.3711 34.6174C55.3892 34.7138 55.3982 34.8103 55.3982 34.9067ZM63.2467 35.7476C63.2467 35.9948 63.2376 36.254 63.2195 36.5252C63.2015 36.7965 63.1713 37.0678 63.1291 37.339C63.0869 37.6163 63.0297 37.8876 62.9573 38.1528C62.885 38.418 62.7946 38.6652 62.6861 38.8942C62.5052 39.2318 62.2762 39.5272 61.9989 39.7803C61.7276 40.0396 61.4292 40.2566 61.1037 40.4314C60.7782 40.6062 60.4316 40.7388 60.0639 40.8292C59.6962 40.9196 59.3255 40.9648 58.9517 40.9648C58.8975 40.9648 58.8342 40.9618 58.7618 40.9558C58.6835 40.9498 58.6081 40.9347 58.5358 40.9106C58.4635 40.8925 58.4032 40.8594 58.355 40.8111C58.3067 40.7629 58.2826 40.6966 58.2826 40.6122C58.2826 40.576 58.2917 40.5399 58.3097 40.5037C58.3097 40.4916 58.3128 40.4796 58.3188 40.4675C58.3188 40.4615 58.3188 40.4555 58.3188 40.4495C58.361 40.3289 58.4092 40.2324 58.4635 40.1601C58.5177 40.0878 58.581 40.0305 58.6533 39.9883C58.7197 39.9521 58.801 39.925 58.8975 39.9069C58.9879 39.8949 59.0934 39.8828 59.2139 39.8708C59.5997 39.8527 59.9644 39.7623 60.308 39.5995V39.6085C60.6998 39.4157 61.0073 39.1745 61.2303 38.8852C61.4594 38.6019 61.6312 38.2854 61.7457 37.9358C61.8663 37.5922 61.9416 37.2275 61.9718 36.8417C62.0019 36.4559 62.017 36.0671 62.017 35.6753C62.017 35.5849 62.017 35.5186 62.017 35.4764C62.017 35.4342 62.017 35.395 62.017 35.3588C62.017 35.3287 62.017 35.2925 62.017 35.2503C62.017 35.2081 62.0139 35.1418 62.0079 35.0514C61.7969 35.2141 61.5769 35.2955 61.3479 35.2955C61.0826 35.2955 60.8566 35.2232 60.6697 35.0785C60.4889 34.9278 60.3352 34.7349 60.2086 34.4998C60.088 34.2587 59.9916 33.9874 59.9192 33.686C59.8529 33.3786 59.8017 33.0682 59.7655 32.7547C59.7354 32.4352 59.7143 32.1248 59.7022 31.8234C59.6962 31.522 59.6932 31.2538 59.6932 31.0187V30.6389C59.6932 30.3194 59.6932 30.006 59.6932 29.6985C59.6992 29.3911 59.7113 29.0837 59.7293 28.7763V28.6406C59.7293 28.5683 59.7293 28.496 59.7293 28.4236C59.7293 28.3513 59.7354 28.282 59.7474 28.2156C59.7715 28.1192 59.8047 28.0499 59.8469 28.0077C59.8951 27.9655 59.9705 27.9444 60.0729 27.9444C60.1212 27.9444 60.1664 27.9474 60.2086 27.9534C60.2568 27.9595 60.305 27.9685 60.3532 27.9806C60.4678 28.0288 60.5582 28.08 60.6245 28.1343C60.6908 28.1825 60.739 28.2428 60.7692 28.3151C60.8053 28.3814 60.8264 28.4598 60.8325 28.5502C60.8445 28.6406 60.8505 28.7461 60.8505 28.8667V30.0783C60.8505 30.223 60.8505 30.4038 60.8505 30.6208C60.8566 30.8318 60.8656 31.0639 60.8777 31.317C60.8897 31.5702 60.9048 31.8324 60.9229 32.1037C60.941 32.375 60.9681 32.6372 61.0043 32.8904C61.0404 33.1435 61.0826 33.3756 61.1308 33.5866C61.1791 33.7976 61.2394 33.9724 61.3117 34.111C61.4202 33.8759 61.5136 33.6017 61.592 33.2882C61.6704 32.9687 61.7336 32.6281 61.7819 32.2665C61.8361 31.8988 61.8753 31.522 61.8994 31.1362C61.9296 30.7504 61.9507 30.3737 61.9627 30.006C61.9808 29.6383 61.9898 29.2916 61.9898 28.9661C61.9959 28.6346 61.9989 28.3453 61.9989 28.0981C61.9989 28.0378 61.9989 27.9745 61.9989 27.9082C62.0049 27.8359 62.02 27.7726 62.0441 27.7183C62.0682 27.6581 62.1014 27.6098 62.1436 27.5737C62.1918 27.5375 62.2611 27.5194 62.3515 27.5194C62.3937 27.5194 62.4389 27.5254 62.4871 27.5375C62.5414 27.5496 62.5866 27.5616 62.6228 27.5737C62.6348 27.5737 62.6469 27.5767 62.6589 27.5827C62.677 27.5827 62.6921 27.5827 62.7042 27.5827C62.7885 27.6128 62.8699 27.643 62.9483 27.6731C63.0267 27.7033 63.093 27.7425 63.1472 27.7907C63.2075 27.8329 63.2527 27.8901 63.2828 27.9625C63.319 28.0348 63.3371 28.1282 63.3371 28.2428C63.3371 28.3814 63.3341 28.5412 63.3281 28.722C63.3281 28.8968 63.322 29.0807 63.31 29.2736C63.3039 29.4665 63.2949 29.6563 63.2828 29.8432C63.2708 30.024 63.2587 30.1868 63.2467 30.3315L63.2105 30.6479C63.1984 30.7323 63.1894 30.8167 63.1834 30.9011C63.1774 30.9855 63.1743 31.0639 63.1743 31.1362C63.1743 31.522 63.1774 31.9078 63.1834 32.2936C63.1894 32.6733 63.1984 33.0561 63.2105 33.4419C63.2226 33.8277 63.2316 34.2135 63.2376 34.5993C63.2437 34.9791 63.2467 35.3618 63.2467 35.7476ZM68.1293 31.4256C68.1293 31.95 68.0841 32.4744 67.9937 32.9989C67.9093 33.5173 67.7315 34.0085 67.4602 34.4727C67.3758 34.6113 67.2794 34.747 67.1709 34.8796C67.0624 35.0062 66.9418 35.1207 66.8092 35.2232C66.6826 35.3317 66.541 35.4161 66.3842 35.4764C66.2335 35.5427 66.0738 35.5758 65.905 35.5758C65.6398 35.5758 65.4077 35.5125 65.2088 35.3859C65.0159 35.2654 64.8471 35.1056 64.7024 34.9067C64.5638 34.7018 64.4462 34.4727 64.3498 34.2195C64.2594 33.9603 64.187 33.6981 64.1328 33.4329C64.0846 33.1616 64.0484 32.8994 64.0243 32.6462C64.0062 32.393 63.9972 32.17 63.9972 31.9771C63.9972 31.7601 64.0062 31.522 64.0243 31.2628C64.0424 31.0036 64.0725 30.7384 64.1147 30.4671C64.1629 30.1958 64.2232 29.9276 64.2955 29.6624C64.3739 29.3971 64.4734 29.15 64.5939 28.9209C64.7145 28.6858 64.8592 28.4779 65.0279 28.297C65.1967 28.1102 65.3926 27.9625 65.6157 27.854V27.863C65.8086 27.7605 66.0015 27.7093 66.1944 27.7093C66.3149 27.7093 66.4084 27.7364 66.4747 27.7907C66.541 27.8389 66.5711 27.9233 66.5651 28.0439C66.8966 28.1041 67.1649 28.2639 67.3698 28.5231C67.5748 28.7823 67.7315 29.0837 67.84 29.4273C67.9545 29.7709 68.0299 30.1235 68.0661 30.4852C68.1082 30.8469 68.1293 31.1603 68.1293 31.4256ZM66.0859 29.1651C65.9834 29.1651 65.8869 29.1259 65.7965 29.0475C65.682 29.2223 65.5855 29.4243 65.5072 29.6533C65.4288 29.8764 65.3655 30.1084 65.3173 30.3496C65.2751 30.5846 65.245 30.8228 65.2269 31.0639C65.2088 31.305 65.1997 31.531 65.1997 31.742C65.1997 31.9168 65.2088 32.1429 65.2269 32.4202C65.245 32.6914 65.2781 32.9657 65.3263 33.243C65.3806 33.5203 65.4529 33.7795 65.5433 34.0206C65.6398 34.2617 65.7634 34.4395 65.9141 34.5541C66.1009 34.4456 66.2546 34.2738 66.3752 34.0387C66.5018 33.7976 66.6013 33.5353 66.6736 33.252C66.7459 32.9687 66.7941 32.6824 66.8183 32.393C66.8484 32.1037 66.8635 31.8566 66.8635 31.6516C66.8635 31.5009 66.8544 31.305 66.8363 31.0639C66.8183 30.8228 66.7881 30.5786 66.7459 30.3315C66.7037 30.0783 66.6434 29.8432 66.5651 29.6262C66.4927 29.4092 66.3993 29.2464 66.2848 29.1379C66.2305 29.156 66.1642 29.1651 66.0859 29.1651ZM72.5961 29.1651C72.5961 29.2253 72.5901 29.2886 72.578 29.3549C72.5659 29.4212 72.5539 29.4815 72.5418 29.5358C72.5298 29.6021 72.5177 29.6654 72.5057 29.7257C72.4936 29.7799 72.4876 29.8342 72.4876 29.8884C72.4876 30.449 72.4966 31.0126 72.5147 31.5793C72.5388 32.1399 72.5991 32.7035 72.6955 33.2701C72.7257 33.4871 72.7619 33.6981 72.8041 33.9031C72.8462 34.108 72.8945 34.316 72.9487 34.527L72.9668 34.5812V34.5631C72.9849 34.6053 73 34.6505 73.012 34.6988C73.0301 34.7409 73.0391 34.7862 73.0391 34.8344C73.0391 34.9007 73.0211 34.9549 72.9849 34.9971C72.9547 35.0393 72.9156 35.0725 72.8673 35.0966C72.8191 35.1207 72.7649 35.1358 72.7046 35.1418C72.6503 35.1478 72.5991 35.1509 72.5509 35.1509C72.352 35.1509 72.1922 35.1298 72.0716 35.0876C71.9571 35.0393 71.8637 34.976 71.7913 34.8977C71.719 34.8133 71.6648 34.7138 71.6286 34.5993C71.5985 34.4848 71.5713 34.3582 71.5472 34.2195L71.5201 34.0568C71.496 33.9724 71.4809 33.882 71.4749 33.7855C71.4689 33.7373 71.4628 33.7162 71.4568 33.7222C71.4568 33.7222 71.4538 33.6981 71.4478 33.6499C71.3634 33.8006 71.2639 33.9633 71.1494 34.1381C71.0409 34.3069 70.9143 34.4667 70.7696 34.6174C70.631 34.762 70.4803 34.8856 70.3175 34.9881C70.1547 35.0845 69.9799 35.1328 69.7931 35.1328C69.5339 35.1328 69.3319 35.0544 69.1873 34.8977C69.0486 34.7409 68.9461 34.5511 68.8798 34.328C68.8135 34.099 68.7743 33.8639 68.7623 33.6228C68.7502 33.3756 68.7442 33.1616 68.7442 32.9808C68.7442 32.2936 68.7653 31.6124 68.8075 30.9373C68.8557 30.2622 68.907 29.584 68.9612 28.9028C68.9612 28.8848 68.9612 28.8606 68.9612 28.8305C68.9672 28.8004 68.9702 28.7763 68.9702 28.7582C68.9763 28.6738 68.9823 28.5954 68.9883 28.5231C68.9944 28.4507 69.0094 28.3814 69.0335 28.3151V28.3242C69.0577 28.2277 69.0908 28.1584 69.133 28.1162C69.1812 28.074 69.2536 28.0529 69.35 28.0529C69.4404 28.0529 69.5309 28.071 69.6213 28.1071C69.7117 28.1373 69.7931 28.1825 69.8654 28.2428C69.9377 28.297 69.995 28.3633 70.0372 28.4417C70.0854 28.5201 70.1095 28.6075 70.1095 28.7039C70.1095 28.7521 70.1095 28.8094 70.1095 28.8757C70.1095 28.942 70.1065 28.9993 70.1005 29.0475C70.1005 29.0897 70.0975 29.144 70.0915 29.2103C70.0915 29.2705 70.0915 29.3218 70.0915 29.364C70.0432 29.9427 70.0071 30.5183 69.983 31.091C69.9588 31.6576 69.9468 32.2333 69.9468 32.818C69.9468 32.9808 69.9468 33.1435 69.9468 33.3063C69.9528 33.469 69.9709 33.6318 70.001 33.7946C70.2 33.5414 70.3718 33.2189 70.5164 32.8271C70.6611 32.4292 70.7817 32.0103 70.8781 31.5702C70.9806 31.1242 71.062 30.6841 71.1222 30.2501C71.1885 29.8101 71.2368 29.4212 71.2669 29.0837C71.2669 29.0656 71.2669 29.0445 71.2669 29.0204C71.2729 28.9963 71.276 28.9752 71.276 28.9571C71.282 28.8908 71.288 28.8275 71.294 28.7672C71.3001 28.7069 71.3212 28.6497 71.3573 28.5954C71.3573 28.5412 71.3603 28.4839 71.3664 28.4236C71.3724 28.3633 71.3875 28.3091 71.4116 28.2609C71.4357 28.2066 71.4689 28.1644 71.511 28.1343C71.5593 28.1041 71.6256 28.0891 71.71 28.0891C71.9511 28.0891 72.141 28.1644 72.2796 28.3151C72.4183 28.4598 72.4936 28.6466 72.5057 28.8757C72.5358 28.9239 72.5569 28.9722 72.569 29.0204C72.587 29.0626 72.5961 29.1108 72.5961 29.1651ZM74.4768 35.2774C74.3864 35.2774 74.2869 35.2654 74.1784 35.2413C74.076 35.2172 73.9765 35.178 73.88 35.1237C73.7896 35.0695 73.7113 35.0032 73.645 34.9248C73.5847 34.8404 73.5545 34.7409 73.5545 34.6264C73.5545 34.4576 73.5606 34.2919 73.5726 34.1291C73.5907 33.9603 73.6088 33.7946 73.6269 33.6318V33.6408L73.6811 33.035C73.6992 32.818 73.7143 32.5799 73.7263 32.3207C73.7384 32.0615 73.7474 31.7993 73.7535 31.5341C73.7655 31.2628 73.7746 30.9976 73.7806 30.7384C73.7866 30.4792 73.7896 30.2411 73.7896 30.024C73.7896 29.8975 73.7866 29.7709 73.7806 29.6443C73.7806 29.5117 73.7806 29.3791 73.7806 29.2464C73.7746 29.1319 73.7715 29.0053 73.7715 28.8667C73.7715 28.722 73.7715 28.5894 73.7715 28.4688C73.7715 28.3422 73.7866 28.2398 73.8168 28.1614C73.8529 28.077 73.9494 28.0348 74.1061 28.0348C74.2447 28.0348 74.3894 28.071 74.5401 28.1433C74.6968 28.2156 74.8053 28.3181 74.8656 28.4507H74.8566C74.8867 28.517 74.9078 28.6256 74.9199 28.7763C74.938 28.9209 74.95 29.0505 74.956 29.1651C75.0585 29.0083 75.1731 28.8426 75.2996 28.6677C75.4323 28.4929 75.5739 28.3332 75.7246 28.1885C75.8753 28.0378 76.0351 27.9142 76.2038 27.8178C76.3726 27.7214 76.5535 27.6731 76.7464 27.6731C76.9995 27.6731 77.1924 27.7364 77.325 27.863C77.4577 27.9896 77.5541 28.1493 77.6144 28.3422C77.6747 28.5291 77.7078 28.731 77.7138 28.948C77.7199 29.159 77.7229 29.3519 77.7229 29.5267V29.5991C77.7229 29.6714 77.7199 29.7437 77.7138 29.8161C77.7138 29.8824 77.7018 29.9457 77.6777 30.006C77.6596 30.0602 77.6234 30.1054 77.5692 30.1416C77.521 30.1778 77.4516 30.1958 77.3612 30.1958C77.2648 30.1958 77.1623 30.1838 77.0538 30.1597C76.9453 30.1295 76.8428 30.0873 76.7464 30.0331C76.6559 29.9788 76.5776 29.9125 76.5113 29.8342C76.445 29.7498 76.4088 29.6533 76.4028 29.5448C76.4028 29.4966 76.4028 29.4484 76.4028 29.4001C76.4028 29.3519 76.4058 29.3037 76.4118 29.2555C76.4118 29.2253 76.4118 29.1892 76.4118 29.147C76.4178 29.0987 76.4208 29.0535 76.4208 29.0113C76.2279 29.2042 76.0562 29.4423 75.9055 29.7257C75.7608 30.009 75.6282 30.3104 75.5076 30.6299C75.3931 30.9493 75.2936 31.2718 75.2092 31.5974C75.1248 31.9168 75.0525 32.2062 74.9922 32.4654V32.4925C74.9741 32.6794 74.9621 32.8632 74.956 33.0441C74.95 33.2249 74.944 33.4118 74.938 33.6047C74.9319 33.8217 74.9229 34.0417 74.9108 34.2647C74.9048 34.4878 74.8897 34.7048 74.8656 34.9158C74.8536 35.0303 74.8174 35.1177 74.7571 35.178C74.7029 35.2443 74.6094 35.2774 74.4768 35.2774ZM82.063 32.7819C82.063 33.0712 82.06 33.3364 82.054 33.5775C82.054 33.8187 82.06 34.0839 82.0721 34.3732L82.2348 34.2557L82.3343 34.1924C82.6297 33.9573 82.8859 33.671 83.1029 33.3334C83.3259 32.9898 83.5098 32.6251 83.6544 32.2393C83.7991 31.8535 83.9046 31.4587 83.9709 31.0548C84.0432 30.6449 84.0794 30.2561 84.0794 29.8884C84.0794 29.8161 84.0764 29.7166 84.0704 29.59C84.0704 29.4574 84.0583 29.3278 84.0342 29.2012C84.0101 29.0746 83.9739 28.9661 83.9257 28.8757C83.8775 28.7793 83.8081 28.731 83.7177 28.731C83.5731 28.731 83.4254 28.8184 83.2747 28.9933C83.124 29.1681 82.9823 29.376 82.8497 29.6172C82.7231 29.8583 82.6086 30.1024 82.5061 30.3496C82.4036 30.5907 82.3283 30.7806 82.2801 30.9192C82.2801 30.9252 82.277 30.9282 82.271 30.9282C82.271 30.9282 82.271 30.9313 82.271 30.9373V30.9463C82.2348 31.0307 82.1957 31.1211 82.1535 31.2176C82.1173 31.314 82.0932 31.4045 82.0811 31.4888C82.0691 31.5732 82.06 31.6697 82.054 31.7782C82.048 31.8807 82.045 31.9892 82.045 32.1037C82.045 32.164 82.045 32.2243 82.045 32.2845C82.051 32.3388 82.054 32.39 82.054 32.4383C82.054 32.5046 82.054 32.5679 82.054 32.6281C82.06 32.6824 82.063 32.7336 82.063 32.7819ZM82.5604 41.0462C82.5604 41.1788 82.5242 41.2693 82.4518 41.3175C82.3795 41.3657 82.2831 41.3898 82.1625 41.3898C82.0178 41.3898 81.8581 41.3657 81.6833 41.3175C81.5085 41.2753 81.3698 41.1939 81.2673 41.0734C81.2372 41.0312 81.2071 40.9076 81.1769 40.7026C81.1528 40.4977 81.1287 40.2566 81.1046 39.9793C81.0805 39.708 81.0594 39.4247 81.0413 39.1293C81.0232 38.84 81.0051 38.5838 80.987 38.3608L80.9509 37.8815C80.8785 36.5915 80.8424 35.3016 80.8424 34.0116C80.8424 33.2581 80.8544 32.5196 80.8785 31.7963C80.9087 31.0669 80.9388 30.3285 80.969 29.581L81.0051 28.6316C81.0051 28.5351 81.0051 28.4417 81.0051 28.3513C81.0112 28.2548 81.0232 28.1614 81.0413 28.071C81.0714 27.9926 81.1076 27.9323 81.1498 27.8901C81.198 27.8419 81.2734 27.8178 81.3759 27.8178C81.6351 27.8178 81.8249 27.8962 81.9455 28.0529C82.0661 28.2036 82.1354 28.3905 82.1535 28.6135C82.3464 28.3483 82.5754 28.1373 82.8407 27.9806C83.1119 27.8238 83.4224 27.7455 83.772 27.7455C84.0674 27.7455 84.3145 27.8118 84.5134 27.9444C84.7184 28.077 84.8811 28.2488 85.0017 28.4598C85.1222 28.6647 85.2066 28.8968 85.2549 29.156C85.3091 29.4092 85.3362 29.6594 85.3362 29.9065C85.3362 30.3827 85.294 30.8589 85.2097 31.3351C85.1253 31.8053 84.9926 32.2634 84.8118 32.7095C84.637 33.1496 84.414 33.5685 84.1427 33.9664C83.8714 34.3582 83.552 34.7078 83.1842 35.0152C83.136 35.0574 83.0788 35.1026 83.0125 35.1509C82.9461 35.1991 82.8768 35.2443 82.8045 35.2865C82.7322 35.3287 82.6568 35.3648 82.5784 35.395C82.5061 35.4251 82.4398 35.4402 82.3795 35.4402C82.3132 35.4402 82.2559 35.4251 82.2077 35.395C82.1595 35.3648 82.1173 35.3287 82.0811 35.2865C82.0932 35.7024 82.1083 36.1334 82.1263 36.5795C82.1504 37.0256 82.1776 37.4716 82.2077 37.9177C82.2379 38.3698 82.274 38.8159 82.3162 39.2559C82.3644 39.696 82.4217 40.1209 82.488 40.5308C82.5061 40.6092 82.5212 40.6906 82.5332 40.775C82.5513 40.8654 82.5604 40.9558 82.5604 41.0462ZM86.7197 35.2774C86.6292 35.2774 86.5298 35.2654 86.4213 35.2413C86.3188 35.2172 86.2193 35.178 86.1229 35.1237C86.0325 35.0695 85.9541 35.0032 85.8878 34.9248C85.8275 34.8404 85.7974 34.7409 85.7974 34.6264C85.7974 34.4576 85.8034 34.2919 85.8155 34.1291C85.8336 33.9603 85.8516 33.7946 85.8697 33.6318V33.6408L85.924 33.035C85.9421 32.818 85.9571 32.5799 85.9692 32.3207C85.9812 32.0615 85.9903 31.7993 85.9963 31.5341C86.0084 31.2628 86.0174 30.9976 86.0234 30.7384C86.0295 30.4792 86.0325 30.2411 86.0325 30.024C86.0325 29.8975 86.0295 29.7709 86.0234 29.6443C86.0234 29.5117 86.0234 29.3791 86.0234 29.2464C86.0174 29.1319 86.0144 29.0053 86.0144 28.8667C86.0144 28.722 86.0144 28.5894 86.0144 28.4688C86.0144 28.3422 86.0295 28.2398 86.0596 28.1614C86.0958 28.077 86.1922 28.0348 86.3489 28.0348C86.4876 28.0348 86.6323 28.071 86.783 28.1433C86.9397 28.2156 87.0482 28.3181 87.1085 28.4507H87.0994C87.1296 28.517 87.1507 28.6256 87.1627 28.7763C87.1808 28.9209 87.1929 29.0505 87.1989 29.1651C87.3014 29.0083 87.4159 28.8426 87.5425 28.6677C87.6751 28.4929 87.8168 28.3332 87.9675 28.1885C88.1182 28.0378 88.2779 27.9142 88.4467 27.8178C88.6155 27.7214 88.7963 27.6731 88.9892 27.6731C89.2424 27.6731 89.4353 27.7364 89.5679 27.863C89.7005 27.9896 89.797 28.1493 89.8572 28.3422C89.9175 28.5291 89.9507 28.731 89.9567 28.948C89.9627 29.159 89.9657 29.3519 89.9657 29.5267V29.5991C89.9657 29.6714 89.9627 29.7437 89.9567 29.8161C89.9567 29.8824 89.9446 29.9457 89.9205 30.006C89.9024 30.0602 89.8663 30.1054 89.812 30.1416C89.7638 30.1778 89.6945 30.1958 89.6041 30.1958C89.5076 30.1958 89.4051 30.1838 89.2966 30.1597C89.1881 30.1295 89.0857 30.0873 88.9892 30.0331C88.8988 29.9788 88.8204 29.9125 88.7541 29.8342C88.6878 29.7498 88.6516 29.6533 88.6456 29.5448C88.6456 29.4966 88.6456 29.4484 88.6456 29.4001C88.6456 29.3519 88.6486 29.3037 88.6546 29.2555C88.6546 29.2253 88.6546 29.1892 88.6546 29.147C88.6607 29.0987 88.6637 29.0535 88.6637 29.0113C88.4708 29.2042 88.299 29.4423 88.1483 29.7257C88.0036 30.009 87.871 30.3104 87.7505 30.6299C87.6359 30.9493 87.5365 31.2718 87.4521 31.5974C87.3677 31.9168 87.2953 32.2062 87.2351 32.4654V32.4925C87.217 32.6794 87.2049 32.8632 87.1989 33.0441C87.1929 33.2249 87.1868 33.4118 87.1808 33.6047C87.1748 33.8217 87.1657 34.0417 87.1537 34.2647C87.1477 34.4878 87.1326 34.7048 87.1085 34.9158C87.0964 35.0303 87.0602 35.1177 87 35.178C86.9457 35.2443 86.8523 35.2774 86.7197 35.2774ZM91.4938 27.5285C91.4938 27.6309 91.4697 27.7063 91.4215 27.7545C91.3793 27.7967 91.2979 27.8178 91.1774 27.8178C91.1231 27.8178 91.0387 27.8118 90.9242 27.7997C90.8097 27.7816 90.6921 27.7575 90.5715 27.7274C90.457 27.6972 90.3545 27.655 90.2641 27.6008C90.1797 27.5465 90.1375 27.4802 90.1375 27.4019C90.1375 27.3778 90.1466 27.3115 90.1647 27.2029C90.1827 27.0884 90.2038 26.9679 90.228 26.8413C90.2581 26.7147 90.2822 26.6001 90.3003 26.4977C90.3244 26.3952 90.3425 26.3379 90.3545 26.3259V26.3349C90.3847 26.2867 90.4209 26.2566 90.463 26.2445C90.5052 26.2324 90.5474 26.2264 90.5896 26.2264C90.6439 26.2264 90.7132 26.2355 90.7976 26.2535C90.888 26.2656 90.9754 26.2867 91.0598 26.3168C91.1502 26.3409 91.2316 26.3741 91.304 26.4163C91.3763 26.4585 91.4215 26.5037 91.4396 26.5519C91.4577 26.6001 91.4667 26.6665 91.4667 26.7508C91.4727 26.8292 91.4727 26.9015 91.4667 26.9679C91.4667 26.992 91.4637 27.0221 91.4577 27.0583C91.4577 27.0884 91.4577 27.1125 91.4577 27.1306C91.4577 27.1608 91.4577 27.1909 91.4577 27.221C91.4637 27.2512 91.4697 27.2813 91.4757 27.3115C91.4818 27.3416 91.4848 27.3747 91.4848 27.4109C91.4908 27.4471 91.4938 27.4863 91.4938 27.5285ZM91.8284 34.7349C91.8284 34.8736 91.7952 34.973 91.7289 35.0333C91.6686 35.0876 91.5692 35.1147 91.4305 35.1147C91.3582 35.1147 91.2768 35.1056 91.1864 35.0876C91.102 35.0695 91.0176 35.0454 90.9332 35.0152C90.8488 34.9791 90.7705 34.9369 90.6981 34.8886C90.6258 34.8404 90.5715 34.7862 90.5354 34.7259C90.5113 34.6897 90.4902 34.5782 90.4721 34.3913C90.454 34.2045 90.4389 33.9724 90.4269 33.6951C90.4209 33.4178 90.4118 33.1074 90.3998 32.7638C90.3937 32.4202 90.3877 32.0736 90.3817 31.7239C90.3817 31.3743 90.3817 31.0337 90.3817 30.7022C90.3817 30.3707 90.3817 30.0813 90.3817 29.8342V29.1379C90.3817 29.0777 90.3817 29.0174 90.3817 28.9571C90.3877 28.8968 90.3998 28.8456 90.4178 28.8034C90.4419 28.7552 90.4751 28.716 90.5173 28.6858C90.5655 28.6557 90.6318 28.6406 90.7162 28.6406C90.9815 28.6406 91.1743 28.716 91.2949 28.8667C91.4215 29.0113 91.4999 29.2073 91.53 29.4544C91.5601 29.8221 91.5812 30.1898 91.5933 30.5575C91.6114 30.9192 91.6264 31.2869 91.6385 31.6606C91.6506 31.9982 91.6596 32.3328 91.6656 32.6643C91.6777 32.9898 91.6988 33.3153 91.7289 33.6408C91.735 33.7071 91.741 33.7704 91.747 33.8307C91.753 33.891 91.7621 33.9513 91.7741 34.0116C91.7862 34.1321 91.7982 34.2527 91.8103 34.3732C91.8224 34.4878 91.8284 34.6083 91.8284 34.7349ZM94.1341 35.0876C94.1341 35.2262 94.0919 35.3166 94.0075 35.3588C93.9291 35.401 93.8327 35.4221 93.7182 35.4221C93.6157 35.4221 93.5132 35.4131 93.4107 35.395C93.3143 35.3829 93.2208 35.3558 93.1304 35.3136C93.046 35.2714 92.9707 35.2141 92.9044 35.1418C92.8441 35.0695 92.8019 34.976 92.7778 34.8615C92.6934 34.4998 92.6452 34.1472 92.6331 33.8036C92.6211 33.454 92.615 33.0953 92.615 32.7276V31.6154C92.615 31.1091 92.6361 30.5846 92.6783 30.0421C92.7205 29.4936 92.7657 28.9661 92.814 28.4598C92.814 28.4417 92.817 28.4206 92.823 28.3965C92.829 28.3724 92.832 28.3543 92.832 28.3422C92.8381 28.2759 92.8471 28.2036 92.8592 28.1252C92.8712 28.0469 92.8893 27.9775 92.9134 27.9173C92.9436 27.851 92.9827 27.7967 93.031 27.7545C93.0852 27.7123 93.1545 27.6912 93.2389 27.6912C93.3354 27.6912 93.4258 27.7123 93.5102 27.7545C93.6006 27.7907 93.679 27.8419 93.7453 27.9082C93.8116 27.9685 93.8628 28.0439 93.899 28.1343C93.9412 28.2247 93.9623 28.3181 93.9623 28.4146C93.9623 28.517 93.9593 28.6316 93.9532 28.7582C93.9472 28.8787 93.9382 28.9933 93.9261 29.1018C93.9261 29.1319 93.9231 29.1651 93.9171 29.2012C93.9171 29.2374 93.9141 29.2705 93.908 29.3007C93.9924 29.1319 94.0889 28.9571 94.1974 28.7763C94.3059 28.5894 94.4295 28.4206 94.5681 28.2699C94.7128 28.1132 94.8695 27.9866 95.0383 27.8901C95.2131 27.7937 95.406 27.7455 95.617 27.7455C95.7918 27.7455 95.9365 27.7726 96.051 27.8268C96.1655 27.8811 96.2559 27.9595 96.3222 28.0619C96.3946 28.1584 96.4428 28.2729 96.4669 28.4055C96.4971 28.5381 96.5121 28.6798 96.5121 28.8305C96.5121 29.0355 96.5061 29.2434 96.494 29.4544C96.482 29.6594 96.4699 29.8643 96.4579 30.0693C96.4398 30.2802 96.4247 30.4882 96.4127 30.6932C96.4006 30.8981 96.3946 31.1061 96.3946 31.317C96.3946 31.5702 96.4006 31.8324 96.4127 32.1037C96.4247 32.3689 96.4428 32.6251 96.4669 32.8723C96.491 33.1134 96.5182 33.3334 96.5483 33.5323C96.5784 33.7252 96.6086 33.8759 96.6387 33.9844C96.6628 34.0749 96.6869 34.1803 96.7111 34.3009C96.7412 34.4154 96.7683 34.536 96.7924 34.6626C96.8226 34.7831 96.8467 34.9007 96.8648 35.0152C96.8829 35.1298 96.8919 35.2322 96.8919 35.3226C96.8919 35.4553 96.8376 35.5397 96.7291 35.5758C96.6267 35.612 96.5242 35.6301 96.4217 35.6301C96.3192 35.6301 96.2017 35.621 96.0691 35.6029C95.9425 35.5909 95.828 35.5577 95.7255 35.5035C95.5989 35.4131 95.5145 35.2865 95.4723 35.1237C95.4361 34.961 95.412 34.8012 95.4 34.6445L95.3728 34.4004C95.3548 34.2557 95.3306 34.0658 95.3005 33.8307C95.2704 33.5956 95.2402 33.3364 95.2101 33.0531C95.186 32.7698 95.1649 32.4774 95.1468 32.176C95.1287 31.8686 95.1197 31.5702 95.1197 31.2809C95.1197 31.0217 95.1287 30.7715 95.1468 30.5304C95.1709 30.2893 95.195 30.0451 95.2191 29.798C95.2312 29.6714 95.2402 29.5689 95.2463 29.4906C95.2523 29.4122 95.2613 29.3097 95.2734 29.1831C95.1528 29.376 95.0323 29.6021 94.9117 29.8613C94.7911 30.1205 94.6766 30.3918 94.5681 30.6751C94.4596 30.9524 94.3601 31.2236 94.2697 31.4888C94.1853 31.7541 94.119 31.9862 94.0708 32.1851L94.0165 32.384C93.9864 32.4805 93.9593 32.5769 93.9352 32.6733C93.9171 32.7698 93.908 32.8602 93.908 32.9446C93.908 33.0531 93.9141 33.1797 93.9261 33.3244C93.9382 33.463 93.9532 33.5956 93.9713 33.7222C93.9894 33.8729 94.0105 34.0266 94.0346 34.1834C94.0346 34.1954 94.0407 34.2346 94.0527 34.3009C94.0648 34.3672 94.0768 34.4456 94.0889 34.536C94.1009 34.6264 94.11 34.7229 94.116 34.8253C94.1281 34.9218 94.1341 35.0092 94.1341 35.0876ZM99.5774 34.9067C99.5774 34.973 99.5623 35.0303 99.5322 35.0785C99.502 35.1207 99.4628 35.1539 99.4146 35.178C99.3724 35.2021 99.3242 35.2172 99.2699 35.2232C99.2217 35.2352 99.1735 35.2413 99.1253 35.2413C99.059 35.2413 98.9806 35.2322 98.8902 35.2141C98.8058 35.2021 98.7214 35.181 98.637 35.1509C98.5526 35.1207 98.4742 35.0845 98.4019 35.0423C98.3356 34.9941 98.2844 34.9369 98.2482 34.8705C98.212 34.8103 98.1789 34.6988 98.1487 34.536C98.1246 34.3672 98.1035 34.1743 98.0854 33.9573C98.0674 33.7343 98.0523 33.4992 98.0402 33.252C98.0282 32.9989 98.0161 32.7577 98.0041 32.5287C97.998 32.2996 97.992 32.0947 97.986 31.9138C97.986 31.727 97.986 31.5883 97.986 31.4979C97.986 31.0759 97.992 30.669 98.0041 30.2772C98.0221 29.8794 98.0402 29.4725 98.0583 29.0566C98.0282 29.0566 97.998 29.0596 97.9679 29.0656C97.9378 29.0716 97.9076 29.0746 97.8775 29.0746C97.7991 29.0867 97.7177 29.0957 97.6333 29.1018C97.555 29.1078 97.4736 29.1108 97.3892 29.1108C97.2867 29.1108 97.1963 29.0927 97.1179 29.0566C97.0396 29.0204 97.0004 28.939 97.0004 28.8124C97.0004 28.6617 97.0336 28.5412 97.0999 28.4507C97.1662 28.3603 97.2506 28.291 97.353 28.2428C97.4555 28.1885 97.567 28.1524 97.6876 28.1343C97.8082 28.1102 97.9257 28.0921 98.0402 28.08C98.0583 28.08 98.0704 28.08 98.0764 28.08C98.0824 28.074 98.0945 28.071 98.1126 28.071C98.1186 27.9986 98.1246 27.9112 98.1307 27.8088C98.1367 27.7003 98.1427 27.5827 98.1487 27.4561C98.1548 27.2572 98.1638 27.0462 98.1759 26.8232C98.1879 26.5941 98.2 26.3771 98.212 26.1722C98.2241 25.9612 98.2392 25.7773 98.2572 25.6206C98.2753 25.4578 98.2934 25.3433 98.3115 25.277C98.3416 25.1986 98.3748 25.1353 98.411 25.0871C98.4531 25.0389 98.5285 25.0148 98.637 25.0148C98.8781 25.0148 99.065 25.0931 99.1976 25.2499C99.3302 25.4066 99.3965 25.5995 99.3965 25.8286C99.3965 26.0938 99.3875 26.359 99.3694 26.6243C99.3573 26.8895 99.3453 27.1577 99.3332 27.429L99.3061 27.8901C99.4568 27.8721 99.6075 27.8449 99.7582 27.8088C99.9029 27.7786 100.048 27.7515 100.192 27.7274C100.343 27.7033 100.488 27.6912 100.626 27.6912C100.747 27.6912 100.84 27.7244 100.907 27.7907C100.973 27.851 101.006 27.9414 101.006 28.0619C101.006 28.1946 100.982 28.3242 100.934 28.4507C100.885 28.5773 100.801 28.6738 100.68 28.7401H100.69C100.665 28.7521 100.593 28.7702 100.473 28.7943C100.352 28.8124 100.213 28.8305 100.057 28.8486C99.9059 28.8667 99.7552 28.8848 99.6045 28.9028C99.4598 28.9209 99.3513 28.933 99.279 28.939H99.2699C99.2579 29.2766 99.2488 29.6111 99.2428 29.9427C99.2368 30.2682 99.2338 30.5997 99.2338 30.9373C99.2338 31.4014 99.2458 31.8957 99.2699 32.4202C99.3001 32.9386 99.3483 33.4329 99.4146 33.9031L99.4869 34.3099C99.5111 34.4124 99.5322 34.5149 99.5502 34.6174C99.5683 34.7138 99.5774 34.8103 99.5774 34.9067ZM104.252 28.505C104.252 28.5773 104.225 28.6376 104.171 28.6858C104.122 28.7341 104.062 28.7763 103.99 28.8124C103.918 28.8426 103.842 28.8637 103.764 28.8757C103.691 28.8878 103.631 28.8938 103.583 28.8938C103.511 28.8938 103.441 28.8878 103.375 28.8757C103.309 28.8576 103.242 28.8395 103.176 28.8215C103.11 28.8034 103.046 28.7883 102.986 28.7763C102.926 28.7582 102.863 28.7491 102.796 28.7491C102.706 28.7491 102.615 28.7642 102.525 28.7943C102.435 28.8245 102.353 28.8667 102.281 28.9209C102.209 28.9752 102.148 29.0415 102.1 29.1198C102.058 29.1982 102.037 29.2856 102.037 29.3821C102.037 29.5267 102.067 29.6714 102.127 29.8161C102.187 29.9547 102.266 30.0964 102.362 30.2411C102.465 30.3857 102.579 30.5334 102.706 30.6841C102.839 30.8288 102.977 30.9765 103.122 31.1272C103.297 31.3201 103.471 31.516 103.646 31.7149C103.827 31.9138 103.987 32.1218 104.125 32.3388C104.27 32.5558 104.388 32.7849 104.478 33.026C104.569 33.2671 104.614 33.5203 104.614 33.7855C104.614 34.0146 104.575 34.2195 104.496 34.4004C104.424 34.5812 104.318 34.7349 104.18 34.8615C104.047 34.9881 103.884 35.0845 103.691 35.1509C103.505 35.2232 103.3 35.2594 103.077 35.2594C103.016 35.2594 102.923 35.2473 102.796 35.2232C102.676 35.1991 102.537 35.1659 102.38 35.1237C102.224 35.0755 102.061 35.0243 101.892 34.97C101.729 34.9158 101.579 34.8585 101.44 34.7982C101.307 34.7319 101.196 34.6686 101.105 34.6083C101.021 34.542 100.979 34.4817 100.979 34.4275C100.979 34.3552 101.012 34.2828 101.078 34.2105C101.145 34.1321 101.223 34.0628 101.313 34.0025C101.404 33.9362 101.497 33.882 101.594 33.8398C101.696 33.7976 101.781 33.7765 101.847 33.7765C101.937 33.7765 102.031 33.7976 102.127 33.8398C102.23 33.882 102.332 33.9302 102.435 33.9844C102.549 34.0447 102.664 34.099 102.778 34.1472C102.899 34.1954 103.022 34.2195 103.149 34.2195C103.245 34.2195 103.3 34.1864 103.312 34.1201C103.33 34.0538 103.339 33.9784 103.339 33.894C103.339 33.683 103.303 33.4841 103.23 33.2972C103.158 33.1043 103.065 32.9175 102.95 32.7366C102.835 32.5558 102.703 32.381 102.552 32.2122C102.401 32.0374 102.251 31.8656 102.1 31.6968C101.943 31.528 101.79 31.3592 101.639 31.1905C101.494 31.0217 101.365 30.8499 101.25 30.6751C101.136 30.4942 101.042 30.3104 100.97 30.1235C100.904 29.9366 100.87 29.7377 100.87 29.5267C100.87 29.2675 100.928 29.0355 101.042 28.8305C101.157 28.6195 101.304 28.4387 101.485 28.288C101.672 28.1373 101.88 28.0228 102.109 27.9444C102.344 27.86 102.579 27.8178 102.814 27.8178C102.893 27.8178 103.013 27.8359 103.176 27.8721C103.339 27.9022 103.499 27.9474 103.655 28.0077C103.812 28.068 103.951 28.1403 104.071 28.2247C104.192 28.3091 104.252 28.4025 104.252 28.505ZM107.118 32.6733C107.118 32.9386 106.998 33.0712 106.757 33.0712C106.684 33.0712 106.594 33.0622 106.485 33.0441C106.383 33.026 106.277 32.9989 106.169 32.9627C106.06 32.9265 105.961 32.8843 105.871 32.8361C105.786 32.7819 105.726 32.7216 105.69 32.6553C105.642 32.5709 105.617 32.4835 105.617 32.393C105.617 32.2966 105.617 32.1971 105.617 32.0947C105.581 30.7564 105.533 29.4273 105.473 28.1071C105.418 26.781 105.364 25.4458 105.31 24.1015C105.298 23.8182 105.286 23.5349 105.274 23.2516C105.262 22.9623 105.256 22.6729 105.256 22.3836C105.256 22.2449 105.271 22.1424 105.301 22.0761C105.331 22.0038 105.425 21.9676 105.581 21.9676C105.66 21.9676 105.744 21.9797 105.834 22.0038C105.925 22.0219 106.009 22.052 106.088 22.0942C106.172 22.1304 106.244 22.1786 106.305 22.2389C106.371 22.2931 106.419 22.3595 106.449 22.4378C106.467 22.486 106.488 22.6458 106.513 22.917C106.543 23.1883 106.573 23.5379 106.603 23.9659C106.633 24.3879 106.663 24.8671 106.693 25.4036C106.724 25.9401 106.754 26.4947 106.784 27.0673C106.82 27.6339 106.853 28.2006 106.883 28.7672C106.913 29.3278 106.941 29.8492 106.965 30.3315C106.995 30.8137 107.019 31.2357 107.037 31.5974C107.061 31.959 107.082 32.2212 107.1 32.384C107.1 32.4322 107.103 32.4805 107.109 32.5287C107.115 32.5769 107.118 32.6251 107.118 32.6733ZM105.708 34.1562C105.708 34.096 105.729 34.0507 105.771 34.0206C105.813 33.9844 105.865 33.9603 105.925 33.9483C105.991 33.9302 106.054 33.9211 106.115 33.9211C106.181 33.9211 106.238 33.9211 106.287 33.9211C106.347 33.9211 106.416 33.9242 106.494 33.9302C106.579 33.9302 106.657 33.9422 106.73 33.9664C106.802 33.9844 106.862 34.0176 106.91 34.0658C106.965 34.108 106.992 34.1683 106.992 34.2467C106.992 34.2768 106.989 34.3431 106.983 34.4456C106.983 34.542 106.98 34.6475 106.974 34.762C106.974 34.8766 106.968 34.9821 106.956 35.0785C106.95 35.1689 106.944 35.2172 106.938 35.2232C106.901 35.2895 106.844 35.3257 106.766 35.3317C106.687 35.3437 106.612 35.3498 106.54 35.3498C106.359 35.3498 106.223 35.3407 106.133 35.3226C106.042 35.3046 105.976 35.2684 105.934 35.2141C105.898 35.1599 105.871 35.0845 105.853 34.9881C105.84 34.8916 105.822 34.7651 105.798 34.6083C105.786 34.536 105.768 34.4637 105.744 34.3913C105.72 34.319 105.708 34.2406 105.708 34.1562Z" fill="black"/>
</g>
<g id="Frame 9">
<g id="Frame 6">
<path id="Vector_2" d="M121.325 25.3292C122.297 25.0062 126.032 25.1736 128.364 26.7019C130.288 30.0916 130.875 32.7206 131.037 34.7977C131.092 35.9982 131.092 37.4961 131.092 38.9262M127.322 36.4909C127.422 36.5289 127.858 36.7493 129.28 37.7195C129.823 38.2902 130.096 38.8476 130.422 39.3118C130.521 39.4311 130.639 39.5775 130.78 39.7682M130.78 39.808C130.928 39.7039 131.39 39.372 131.807 39.0302C132.634 38.3513 133.237 37.8788 134.184 37.0549C134.472 36.8231 134.785 36.5947 135.003 36.4335C135.221 36.2722 135.336 36.1849 135.533 35.9936" stroke="black" stroke-linecap="round"/>
</g>
<path id="Vector_3" d="M126.447 5.81536C126.655 5.81536 127.234 5.74892 127.93 5.37983C128.573 5.03922 129.216 3.63021 129.61 2.66495C129.837 2.11041 129.787 1.2835 129.787 0.870324C129.784 -0.866142 130.407 4.04005 130.757 4.53242C131.306 4.90364 132.444 4.94622 133.206 5.02786C133.302 5.05741 133.393 5.09001 133.596 5.15916M125.941 5.63409C126.509 5.63409 127.951 5.7315 128.591 6.10359C129.13 6.63075 129.794 7.54368 130.467 9.51516C130.573 10.1601 130.588 10.9146 130.639 11.4706M130.528 11.3173C130.603 10.0625 130.713 7.26488 131.009 6.72494C131.513 5.80593 131.909 5.53769 132.31 5.41249C132.552 5.39834 132.859 5.33939 133.187 5.23791C133.338 5.19537 133.459 5.17101 133.705 5.08765" stroke="black" stroke-linecap="round"/>
</g>
</g>
</svg>
