<svg width="313" height="71" viewBox="0 0 313 71" fill="none" xmlns="http://www.w3.org/2000/svg">
<g id="footer">
<g id="Frame 1">
<path id="Vector" d="M105.676 25.0247C105.837 23.9603 107.043 19.9471 109.103 17.7706C109.472 17.3808 109.866 17.0607 110.266 16.7962M110.266 16.7962C111.721 15.8348 113.262 15.6089 114.002 15.4469C114.994 15.23 116.356 15.54 117.884 16.0106C119.349 16.4619 119.919 17.4423 120.045 17.8948C120.176 18.3656 120.217 18.8154 120.233 19.2711C120.255 19.8744 119.863 20.5142 119.421 21.0198C118.783 21.7487 116.601 21.9846 115.069 22.0489C113.284 22.1239 112.088 20.5338 110.92 18.7047C110.584 18.1785 110.374 17.5263 110.266 16.7962ZM110.266 16.7962C110.031 15.2093 110.275 13.2544 110.742 11.4266C111.555 8.24626 112.742 7.704 115.535 6.08442C117.014 5.22708 118.548 4.9278 120.179 4.70437C123.857 4.68765 126.151 5.38266 127.586 6.474C127.789 6.69144 127.943 6.82866 128.533 7.20494M124.781 10.146C124.833 10.1197 126.607 9.92486 129.313 9.55902C130.282 9.42812 130.393 9.19229 130.437 8.41133C130.649 4.66992 130.31 3.88297 130.145 2.49643C130.095 2.1851 130.052 2.00378 130.023 1.69307C129.994 1.38236 129.981 0.947766 129.967 0.5" stroke="black" stroke-linecap="round"/>
<path id="press start to take photo and wait for them to be printed" d="M63.1819 33.8967H63.8219V34.5687H63.8539C64.1205 34.0567 64.5445 33.8007 65.1259 33.8007C65.6325 33.8007 66.0272 33.9901 66.3099 34.3687C66.5979 34.7474 66.7419 35.2781 66.7419 35.9607C66.7419 36.6434 66.5979 37.1741 66.3099 37.5527C66.0272 37.9314 65.6325 38.1207 65.1259 38.1207C64.5445 38.1207 64.1205 37.8647 63.8539 37.3527H63.8219V39.6247H63.1819V33.8967ZM64.8779 37.5527C65.2512 37.5527 65.5392 37.4407 65.7419 37.2167C65.9499 36.9874 66.0539 36.6861 66.0539 36.3127V35.6087C66.0539 35.2354 65.9499 34.9367 65.7419 34.7127C65.5392 34.4834 65.2512 34.3687 64.8779 34.3687C64.7339 34.3687 64.5979 34.3874 64.4699 34.4247C64.3419 34.4621 64.2299 34.5181 64.1339 34.5927C64.0379 34.6621 63.9605 34.7501 63.9019 34.8567C63.8485 34.9581 63.8219 35.0781 63.8219 35.2167V36.7047C63.8219 36.8434 63.8485 36.9661 63.9019 37.0727C63.9605 37.1741 64.0379 37.2621 64.1339 37.3367C64.2299 37.4061 64.3419 37.4594 64.4699 37.4967C64.5979 37.5341 64.7339 37.5527 64.8779 37.5527ZM67.8348 37.4807H69.0428V34.4407H67.8348V33.8967H69.6828V34.9367H69.7228C69.8081 34.6114 69.9681 34.3581 70.2028 34.1767C70.4428 33.9901 70.7468 33.8967 71.1148 33.8967H71.6908V34.5367H70.9148C70.5468 34.5367 70.2481 34.6434 70.0188 34.8567C69.7948 35.0701 69.6828 35.3501 69.6828 35.6967V37.4807H71.2828V38.0247H67.8348V37.4807ZM74.4876 38.1207C74.189 38.1207 73.9196 38.0701 73.6796 37.9687C73.445 37.8674 73.2423 37.7234 73.0716 37.5367C72.9063 37.3447 72.7783 37.1181 72.6876 36.8567C72.597 36.5901 72.5516 36.2941 72.5516 35.9687C72.5516 35.6381 72.597 35.3394 72.6876 35.0727C72.7836 34.8061 72.9143 34.5794 73.0796 34.3927C73.245 34.2007 73.4423 34.0541 73.6716 33.9527C73.9063 33.8514 74.165 33.8007 74.4476 33.8007C74.725 33.8007 74.9756 33.8514 75.1996 33.9527C75.429 34.0541 75.6236 34.1954 75.7836 34.3767C75.9436 34.5527 76.0663 34.7634 76.1516 35.0087C76.237 35.2541 76.2796 35.5234 76.2796 35.8167V36.1207H73.2236V36.3127C73.2236 36.4941 73.253 36.6621 73.3116 36.8167C73.3703 36.9714 73.453 37.1047 73.5596 37.2167C73.6716 37.3287 73.805 37.4167 73.9596 37.4807C74.1196 37.5394 74.2956 37.5687 74.4876 37.5687C74.765 37.5687 75.005 37.5047 75.2076 37.3767C75.4103 37.2487 75.565 37.0727 75.6716 36.8487L76.1436 37.1687C76.021 37.4461 75.8156 37.6754 75.5276 37.8567C75.245 38.0327 74.8983 38.1207 74.4876 38.1207ZM74.4476 34.3287C74.2716 34.3287 74.109 34.3607 73.9596 34.4247C73.8103 34.4887 73.6796 34.5767 73.5676 34.6887C73.461 34.8007 73.3756 34.9341 73.3116 35.0887C73.253 35.2381 73.2236 35.4034 73.2236 35.5847V35.6407H75.5916V35.5527C75.5916 35.3714 75.5623 35.2061 75.5036 35.0567C75.4503 34.9074 75.373 34.7794 75.2716 34.6727C75.1756 34.5607 75.0556 34.4754 74.9116 34.4167C74.773 34.3581 74.6183 34.3287 74.4476 34.3287ZM79.2605 38.1207C78.8285 38.1207 78.4552 38.0487 78.1405 37.9047C77.8312 37.7554 77.5672 37.5581 77.3485 37.3127L77.7805 36.9367C77.9778 37.1447 78.1938 37.3047 78.4285 37.4167C78.6632 37.5287 78.9458 37.5847 79.2765 37.5847C79.5965 37.5847 79.8578 37.5287 80.0605 37.4167C80.2685 37.2994 80.3725 37.1181 80.3725 36.8727C80.3725 36.7661 80.3512 36.6781 80.3085 36.6087C80.2712 36.5341 80.2178 36.4754 80.1485 36.4327C80.0792 36.3901 80.0018 36.3581 79.9165 36.3367C79.8312 36.3101 79.7405 36.2887 79.6445 36.2727L78.9965 36.1767C78.8525 36.1554 78.6952 36.1261 78.5245 36.0887C78.3592 36.0514 78.2072 35.9927 78.0685 35.9127C77.9298 35.8274 77.8125 35.7154 77.7165 35.5767C77.6258 35.4381 77.5805 35.2567 77.5805 35.0327C77.5805 34.8247 77.6205 34.6461 77.7005 34.4967C77.7858 34.3421 77.9032 34.2141 78.0525 34.1127C78.2018 34.0061 78.3778 33.9287 78.5805 33.8807C78.7832 33.8274 79.0045 33.8007 79.2445 33.8007C79.6178 33.8007 79.9405 33.8594 80.2125 33.9767C80.4898 34.0941 80.7272 34.2567 80.9245 34.4647L80.5085 34.8567C80.4605 34.7981 80.3992 34.7394 80.3245 34.6807C80.2552 34.6167 80.1672 34.5607 80.0605 34.5127C79.9592 34.4594 79.8392 34.4167 79.7005 34.3847C79.5618 34.3527 79.4018 34.3367 79.2205 34.3367C78.8952 34.3367 78.6445 34.3927 78.4685 34.5047C78.2978 34.6167 78.2125 34.7794 78.2125 34.9927C78.2125 35.0994 78.2312 35.1901 78.2685 35.2647C78.3112 35.3341 78.3672 35.3901 78.4365 35.4327C78.5058 35.4754 78.5832 35.5101 78.6685 35.5367C78.7592 35.5581 78.8498 35.5767 78.9405 35.5927L79.5885 35.6887C79.7378 35.7101 79.8952 35.7394 80.0605 35.7767C80.2258 35.8141 80.3778 35.8754 80.5165 35.9607C80.6552 36.0407 80.7698 36.1501 80.8605 36.2887C80.9565 36.4274 81.0045 36.6087 81.0045 36.8327C81.0045 37.2434 80.8445 37.5607 80.5245 37.7847C80.2098 38.0087 79.7885 38.1207 79.2605 38.1207ZM84.0574 38.1207C83.6254 38.1207 83.252 38.0487 82.9374 37.9047C82.628 37.7554 82.364 37.5581 82.1454 37.3127L82.5774 36.9367C82.7747 37.1447 82.9907 37.3047 83.2254 37.4167C83.46 37.5287 83.7427 37.5847 84.0734 37.5847C84.3934 37.5847 84.6547 37.5287 84.8574 37.4167C85.0654 37.2994 85.1694 37.1181 85.1694 36.8727C85.1694 36.7661 85.148 36.6781 85.1054 36.6087C85.068 36.5341 85.0147 36.4754 84.9454 36.4327C84.876 36.3901 84.7987 36.3581 84.7134 36.3367C84.628 36.3101 84.5374 36.2887 84.4414 36.2727L83.7934 36.1767C83.6494 36.1554 83.492 36.1261 83.3214 36.0887C83.156 36.0514 83.004 35.9927 82.8654 35.9127C82.7267 35.8274 82.6094 35.7154 82.5134 35.5767C82.4227 35.4381 82.3774 35.2567 82.3774 35.0327C82.3774 34.8247 82.4174 34.6461 82.4974 34.4967C82.5827 34.3421 82.7 34.2141 82.8494 34.1127C82.9987 34.0061 83.1747 33.9287 83.3774 33.8807C83.58 33.8274 83.8014 33.8007 84.0414 33.8007C84.4147 33.8007 84.7374 33.8594 85.0094 33.9767C85.2867 34.0941 85.524 34.2567 85.7214 34.4647L85.3054 34.8567C85.2574 34.7981 85.196 34.7394 85.1214 34.6807C85.052 34.6167 84.964 34.5607 84.8574 34.5127C84.756 34.4594 84.636 34.4167 84.4974 34.3847C84.3587 34.3527 84.1987 34.3367 84.0174 34.3367C83.692 34.3367 83.4414 34.3927 83.2654 34.5047C83.0947 34.6167 83.0094 34.7794 83.0094 34.9927C83.0094 35.0994 83.028 35.1901 83.0654 35.2647C83.108 35.3341 83.164 35.3901 83.2334 35.4327C83.3027 35.4754 83.38 35.5101 83.4654 35.5367C83.556 35.5581 83.6467 35.5767 83.7374 35.5927L84.3854 35.6887C84.5347 35.7101 84.692 35.7394 84.8574 35.7767C85.0227 35.8141 85.1747 35.8754 85.3134 35.9607C85.452 36.0407 85.5667 36.1501 85.6574 36.2887C85.7534 36.4274 85.8014 36.6087 85.8014 36.8327C85.8014 37.2434 85.6414 37.5607 85.3214 37.7847C85.0067 38.0087 84.5854 38.1207 84.0574 38.1207ZM93.6511 38.1207C93.2191 38.1207 92.8458 38.0487 92.5311 37.9047C92.2218 37.7554 91.9578 37.5581 91.7391 37.3127L92.1711 36.9367C92.3685 37.1447 92.5845 37.3047 92.8191 37.4167C93.0538 37.5287 93.3365 37.5847 93.6671 37.5847C93.9871 37.5847 94.2485 37.5287 94.4511 37.4167C94.6591 37.2994 94.7631 37.1181 94.7631 36.8727C94.7631 36.7661 94.7418 36.6781 94.6991 36.6087C94.6618 36.5341 94.6085 36.4754 94.5391 36.4327C94.4698 36.3901 94.3925 36.3581 94.3071 36.3367C94.2218 36.3101 94.1311 36.2887 94.0351 36.2727L93.3871 36.1767C93.2431 36.1554 93.0858 36.1261 92.9151 36.0887C92.7498 36.0514 92.5978 35.9927 92.4591 35.9127C92.3205 35.8274 92.2031 35.7154 92.1071 35.5767C92.0165 35.4381 91.9711 35.2567 91.9711 35.0327C91.9711 34.8247 92.0111 34.6461 92.0911 34.4967C92.1765 34.3421 92.2938 34.2141 92.4431 34.1127C92.5925 34.0061 92.7685 33.9287 92.9711 33.8807C93.1738 33.8274 93.3951 33.8007 93.6351 33.8007C94.0085 33.8007 94.3311 33.8594 94.6031 33.9767C94.8805 34.0941 95.1178 34.2567 95.3151 34.4647L94.8991 34.8567C94.8511 34.7981 94.7898 34.7394 94.7151 34.6807C94.6458 34.6167 94.5578 34.5607 94.4511 34.5127C94.3498 34.4594 94.2298 34.4167 94.0911 34.3847C93.9525 34.3527 93.7925 34.3367 93.6111 34.3367C93.2858 34.3367 93.0351 34.3927 92.8591 34.5047C92.6885 34.6167 92.6031 34.7794 92.6031 34.9927C92.6031 35.0994 92.6218 35.1901 92.6591 35.2647C92.7018 35.3341 92.7578 35.3901 92.8271 35.4327C92.8965 35.4754 92.9738 35.5101 93.0591 35.5367C93.1498 35.5581 93.2405 35.5767 93.3311 35.5927L93.9791 35.6887C94.1285 35.7101 94.2858 35.7394 94.4511 35.7767C94.6165 35.8141 94.7685 35.8754 94.9071 35.9607C95.0458 36.0407 95.1605 36.1501 95.2511 36.2887C95.3471 36.4274 95.3951 36.6087 95.3951 36.8327C95.3951 37.2434 95.2351 37.5607 94.9151 37.7847C94.6005 38.0087 94.1791 38.1207 93.6511 38.1207ZM98.6 38.0247C98.2853 38.0247 98.0533 37.9367 97.904 37.7607C97.76 37.5847 97.688 37.3581 97.688 37.0807V34.4407H96.312V33.8967H97.336C97.4747 33.8967 97.5707 33.8701 97.624 33.8167C97.6827 33.7581 97.712 33.6594 97.712 33.5207V32.4407H98.328V33.8967H100.208V34.4407H98.328V37.4807H100.208V38.0247H98.6ZM104.757 38.0247C104.506 38.0247 104.328 37.9607 104.221 37.8327C104.114 37.7047 104.048 37.5447 104.021 37.3527H103.981C103.89 37.5927 103.744 37.7821 103.541 37.9207C103.344 38.0541 103.077 38.1207 102.741 38.1207C102.309 38.1207 101.965 38.0087 101.709 37.7847C101.453 37.5607 101.325 37.2541 101.325 36.8647C101.325 36.4807 101.464 36.1847 101.741 35.9767C102.024 35.7687 102.477 35.6647 103.101 35.6647H103.981V35.2567C103.981 34.9527 103.896 34.7261 103.725 34.5767C103.554 34.4221 103.312 34.3447 102.997 34.3447C102.72 34.3447 102.493 34.4007 102.317 34.5127C102.141 34.6194 102 34.7661 101.893 34.9527L101.461 34.6327C101.514 34.5261 101.586 34.4221 101.677 34.3207C101.768 34.2194 101.88 34.1314 102.013 34.0567C102.146 33.9767 102.298 33.9154 102.469 33.8727C102.64 33.8247 102.829 33.8007 103.037 33.8007C103.522 33.8007 103.906 33.9234 104.189 34.1687C104.477 34.4141 104.621 34.7554 104.621 35.1927V37.4647H105.197V38.0247H104.757ZM102.853 37.5847C103.018 37.5847 103.168 37.5661 103.301 37.5287C103.44 37.4861 103.56 37.4327 103.661 37.3687C103.762 37.2994 103.84 37.2194 103.893 37.1287C103.952 37.0327 103.981 36.9314 103.981 36.8247V36.1447H103.101C102.717 36.1447 102.437 36.1981 102.261 36.3047C102.085 36.4114 101.997 36.5661 101.997 36.7687V36.9367C101.997 37.1501 102.072 37.3127 102.221 37.4247C102.376 37.5314 102.586 37.5847 102.853 37.5847ZM106.21 37.4807H107.418V34.4407H106.21V33.8967H108.058V34.9367H108.098C108.183 34.6114 108.343 34.3581 108.578 34.1767C108.818 33.9901 109.122 33.8967 109.49 33.8967H110.066V34.5367H109.29C108.922 34.5367 108.623 34.6434 108.394 34.8567C108.17 35.0701 108.058 35.3501 108.058 35.6967V37.4807H109.658V38.0247H106.21V37.4807ZM112.991 38.0247C112.676 38.0247 112.444 37.9367 112.295 37.7607C112.151 37.5847 112.079 37.3581 112.079 37.0807V34.4407H110.703V33.8967H111.727C111.865 33.8967 111.961 33.8701 112.015 33.8167C112.073 33.7581 112.103 33.6594 112.103 33.5207V32.4407H112.719V33.8967H114.599V34.4407H112.719V37.4807H114.599V38.0247H112.991ZM122.584 38.0247C122.27 38.0247 122.038 37.9367 121.888 37.7607C121.744 37.5847 121.672 37.3581 121.672 37.0807V34.4407H120.296V33.8967H121.32C121.459 33.8967 121.555 33.8701 121.608 33.8167C121.667 33.7581 121.696 33.6594 121.696 33.5207V32.4407H122.312V33.8967H124.192V34.4407H122.312V37.4807H124.192V38.0247H122.584ZM127.181 38.1207C126.893 38.1207 126.632 38.0701 126.397 37.9687C126.168 37.8674 125.971 37.7234 125.805 37.5367C125.645 37.3447 125.523 37.1181 125.437 36.8567C125.352 36.5901 125.309 36.2914 125.309 35.9607C125.309 35.6354 125.352 35.3394 125.437 35.0727C125.523 34.8061 125.645 34.5794 125.805 34.3927C125.971 34.2007 126.168 34.0541 126.397 33.9527C126.632 33.8514 126.893 33.8007 127.181 33.8007C127.469 33.8007 127.728 33.8514 127.957 33.9527C128.192 34.0541 128.389 34.2007 128.549 34.3927C128.715 34.5794 128.84 34.8061 128.925 35.0727C129.011 35.3394 129.053 35.6354 129.053 35.9607C129.053 36.2914 129.011 36.5901 128.925 36.8567C128.84 37.1181 128.715 37.3447 128.549 37.5367C128.389 37.7234 128.192 37.8674 127.957 37.9687C127.728 38.0701 127.469 38.1207 127.181 38.1207ZM127.181 37.5687C127.539 37.5687 127.827 37.4621 128.045 37.2487C128.264 37.0354 128.373 36.7047 128.373 36.2567V35.6647C128.373 35.2167 128.264 34.8861 128.045 34.6727C127.827 34.4594 127.539 34.3527 127.181 34.3527C126.824 34.3527 126.536 34.4594 126.317 34.6727C126.099 34.8861 125.989 35.2167 125.989 35.6647V36.2567C125.989 36.7047 126.099 37.0354 126.317 37.2487C126.536 37.4621 126.824 37.5687 127.181 37.5687ZM65.0219 48.0247C64.7072 48.0247 64.4752 47.9367 64.3259 47.7607C64.1819 47.5847 64.1099 47.3581 64.1099 47.0807V44.4407H62.7339V43.8967H63.7579C63.8965 43.8967 63.9925 43.8701 64.0459 43.8167C64.1045 43.7581 64.1339 43.6594 64.1339 43.5207V42.4407H64.7499V43.8967H66.6299V44.4407H64.7499V47.4807H66.6299V48.0247H65.0219ZM71.1788 48.0247C70.9281 48.0247 70.7494 47.9607 70.6428 47.8327C70.5361 47.7047 70.4694 47.5447 70.4428 47.3527H70.4028C70.3121 47.5927 70.1654 47.7821 69.9628 47.9207C69.7654 48.0541 69.4988 48.1207 69.1628 48.1207C68.7308 48.1207 68.3868 48.0087 68.1308 47.7847C67.8748 47.5607 67.7467 47.2541 67.7467 46.8647C67.7467 46.4807 67.8854 46.1847 68.1628 45.9767C68.4454 45.7687 68.8988 45.6647 69.5228 45.6647H70.4028V45.2567C70.4028 44.9527 70.3174 44.7261 70.1468 44.5767C69.9761 44.4221 69.7334 44.3447 69.4188 44.3447C69.1414 44.3447 68.9148 44.4007 68.7388 44.5127C68.5628 44.6194 68.4214 44.7661 68.3148 44.9527L67.8828 44.6327C67.9361 44.5261 68.0081 44.4221 68.0988 44.3207C68.1894 44.2194 68.3014 44.1314 68.4348 44.0567C68.5681 43.9767 68.7201 43.9154 68.8908 43.8727C69.0614 43.8247 69.2508 43.8007 69.4588 43.8007C69.9441 43.8007 70.3281 43.9234 70.6108 44.1687C70.8988 44.4141 71.0428 44.7554 71.0428 45.1927V47.4647H71.6188V48.0247H71.1788ZM69.2747 47.5847C69.4401 47.5847 69.5894 47.5661 69.7228 47.5287C69.8614 47.4861 69.9814 47.4327 70.0828 47.3687C70.1841 47.2994 70.2614 47.2194 70.3148 47.1287C70.3734 47.0327 70.4028 46.9314 70.4028 46.8247V46.1447H69.5228C69.1388 46.1447 68.8588 46.1981 68.6828 46.3047C68.5068 46.4114 68.4188 46.5661 68.4188 46.7687V46.9367C68.4188 47.1501 68.4934 47.3127 68.6428 47.4247C68.7974 47.5314 69.0081 47.5847 69.2747 47.5847ZM72.8556 42.1047H73.4956V45.8407H73.5276L74.2476 45.1607L75.6236 43.8967H76.4076L74.6956 45.5127L76.6076 48.0247H75.8156L74.2076 45.8807L73.4956 46.5287V48.0247H72.8556V42.1047ZM79.2845 48.1207C78.9858 48.1207 78.7165 48.0701 78.4765 47.9687C78.2418 47.8674 78.0392 47.7234 77.8685 47.5367C77.7032 47.3447 77.5752 47.1181 77.4845 46.8567C77.3938 46.5901 77.3485 46.2941 77.3485 45.9687C77.3485 45.6381 77.3938 45.3394 77.4845 45.0727C77.5805 44.8061 77.7112 44.5794 77.8765 44.3927C78.0418 44.2007 78.2392 44.0541 78.4685 43.9527C78.7032 43.8514 78.9618 43.8007 79.2445 43.8007C79.5218 43.8007 79.7725 43.8514 79.9965 43.9527C80.2258 44.0541 80.4205 44.1954 80.5805 44.3767C80.7405 44.5527 80.8632 44.7634 80.9485 45.0087C81.0338 45.2541 81.0765 45.5234 81.0765 45.8167V46.1207H78.0205V46.3127C78.0205 46.4941 78.0498 46.6621 78.1085 46.8167C78.1672 46.9714 78.2498 47.1047 78.3565 47.2167C78.4685 47.3287 78.6018 47.4167 78.7565 47.4807C78.9165 47.5394 79.0925 47.5687 79.2845 47.5687C79.5618 47.5687 79.8018 47.5047 80.0045 47.3767C80.2072 47.2487 80.3618 47.0727 80.4685 46.8487L80.9405 47.1687C80.8178 47.4461 80.6125 47.6754 80.3245 47.8567C80.0418 48.0327 79.6952 48.1207 79.2845 48.1207ZM79.2445 44.3287C79.0685 44.3287 78.9058 44.3607 78.7565 44.4247C78.6072 44.4887 78.4765 44.5767 78.3645 44.6887C78.2578 44.8007 78.1725 44.9341 78.1085 45.0887C78.0498 45.2381 78.0205 45.4034 78.0205 45.5847V45.6407H80.3885V45.5527C80.3885 45.3714 80.3592 45.2061 80.3005 45.0567C80.2472 44.9074 80.1698 44.7794 80.0685 44.6727C79.9725 44.5607 79.8525 44.4754 79.7085 44.4167C79.5698 44.3581 79.4152 44.3287 79.2445 44.3287ZM87.1663 43.8967H87.8063V44.5687H87.8383C88.1049 44.0567 88.5289 43.8007 89.1103 43.8007C89.6169 43.8007 90.0116 43.9901 90.2943 44.3687C90.5823 44.7474 90.7263 45.2781 90.7263 45.9607C90.7263 46.6434 90.5823 47.1741 90.2943 47.5527C90.0116 47.9314 89.6169 48.1207 89.1103 48.1207C88.5289 48.1207 88.1049 47.8647 87.8383 47.3527H87.8063V49.6247H87.1663V43.8967ZM88.8623 47.5527C89.2356 47.5527 89.5236 47.4407 89.7263 47.2167C89.9343 46.9874 90.0383 46.6861 90.0383 46.3127V45.6087C90.0383 45.2354 89.9343 44.9367 89.7263 44.7127C89.5236 44.4834 89.2356 44.3687 88.8623 44.3687C88.7183 44.3687 88.5823 44.3874 88.4543 44.4247C88.3263 44.4621 88.2143 44.5181 88.1183 44.5927C88.0223 44.6621 87.9449 44.7501 87.8863 44.8567C87.8329 44.9581 87.8063 45.0781 87.8063 45.2167V46.7047C87.8063 46.8434 87.8329 46.9661 87.8863 47.0727C87.9449 47.1741 88.0223 47.2621 88.1183 47.3367C88.2143 47.4061 88.3263 47.4594 88.4543 47.4967C88.5823 47.5341 88.7183 47.5527 88.8623 47.5527ZM91.9871 42.1047H92.6271V44.5687H92.6591C92.7018 44.4674 92.7551 44.3714 92.8191 44.2807C92.8831 44.1847 92.9605 44.1021 93.0511 44.0327C93.1471 43.9634 93.2591 43.9074 93.3871 43.8647C93.5151 43.8221 93.6645 43.8007 93.8351 43.8007C94.2671 43.8007 94.6138 43.9394 94.8751 44.2167C95.1365 44.4887 95.2671 44.8754 95.2671 45.3767V48.0247H94.6271V45.4887C94.6271 45.1101 94.5445 44.8301 94.3791 44.6487C94.2138 44.4621 93.9711 44.3687 93.6511 44.3687C93.5231 44.3687 93.3978 44.3847 93.2751 44.4167C93.1525 44.4487 93.0431 44.4967 92.9471 44.5607C92.8511 44.6247 92.7738 44.7074 92.7151 44.8087C92.6565 44.9101 92.6271 45.0274 92.6271 45.1607V48.0247H91.9871V42.1047ZM98.4 48.1207C98.112 48.1207 97.8507 48.0701 97.616 47.9687C97.3867 47.8674 97.1893 47.7234 97.024 47.5367C96.864 47.3447 96.7413 47.1181 96.656 46.8567C96.5707 46.5901 96.528 46.2914 96.528 45.9607C96.528 45.6354 96.5707 45.3394 96.656 45.0727C96.7413 44.8061 96.864 44.5794 97.024 44.3927C97.1893 44.2007 97.3867 44.0541 97.616 43.9527C97.8507 43.8514 98.112 43.8007 98.4 43.8007C98.688 43.8007 98.9467 43.8514 99.176 43.9527C99.4107 44.0541 99.608 44.2007 99.768 44.3927C99.9333 44.5794 100.059 44.8061 100.144 45.0727C100.229 45.3394 100.272 45.6354 100.272 45.9607C100.272 46.2914 100.229 46.5901 100.144 46.8567C100.059 47.1181 99.9333 47.3447 99.768 47.5367C99.608 47.7234 99.4107 47.8674 99.176 47.9687C98.9467 48.0701 98.688 48.1207 98.4 48.1207ZM98.4 47.5687C98.7573 47.5687 99.0453 47.4621 99.264 47.2487C99.4827 47.0354 99.592 46.7047 99.592 46.2567V45.6647C99.592 45.2167 99.4827 44.8861 99.264 44.6727C99.0453 44.4594 98.7573 44.3527 98.4 44.3527C98.0427 44.3527 97.7547 44.4594 97.536 44.6727C97.3173 44.8861 97.208 45.2167 97.208 45.6647V46.2567C97.208 46.7047 97.3173 47.0354 97.536 47.2487C97.7547 47.4621 98.0427 47.5687 98.4 47.5687ZM103.397 48.0247C103.082 48.0247 102.85 47.9367 102.701 47.7607C102.557 47.5847 102.485 47.3581 102.485 47.0807V44.4407H101.109V43.8967H102.133C102.272 43.8967 102.368 43.8701 102.421 43.8167C102.48 43.7581 102.509 43.6594 102.509 43.5207V42.4407H103.125V43.8967H105.005V44.4407H103.125V47.4807H105.005V48.0247H103.397ZM107.994 48.1207C107.706 48.1207 107.444 48.0701 107.21 47.9687C106.98 47.8674 106.783 47.7234 106.618 47.5367C106.458 47.3447 106.335 47.1181 106.25 46.8567C106.164 46.5901 106.122 46.2914 106.122 45.9607C106.122 45.6354 106.164 45.3394 106.25 45.0727C106.335 44.8061 106.458 44.5794 106.618 44.3927C106.783 44.2007 106.98 44.0541 107.21 43.9527C107.444 43.8514 107.706 43.8007 107.994 43.8007C108.282 43.8007 108.54 43.8514 108.77 43.9527C109.004 44.0541 109.202 44.2007 109.362 44.3927C109.527 44.5794 109.652 44.8061 109.738 45.0727C109.823 45.3394 109.866 45.6354 109.866 45.9607C109.866 46.2914 109.823 46.5901 109.738 46.8567C109.652 47.1181 109.527 47.3447 109.362 47.5367C109.202 47.7234 109.004 47.8674 108.77 47.9687C108.54 48.0701 108.282 48.1207 107.994 48.1207ZM107.994 47.5687C108.351 47.5687 108.639 47.4621 108.858 47.2487C109.076 47.0354 109.186 46.7047 109.186 46.2567V45.6647C109.186 45.2167 109.076 44.8861 108.858 44.6727C108.639 44.4594 108.351 44.3527 107.994 44.3527C107.636 44.3527 107.348 44.4594 107.13 44.6727C106.911 44.8861 106.802 45.2167 106.802 45.6647V46.2567C106.802 46.7047 106.911 47.0354 107.13 47.2487C107.348 47.4621 107.636 47.5687 107.994 47.5687ZM119.148 48.0247C118.897 48.0247 118.718 47.9607 118.612 47.8327C118.505 47.7047 118.438 47.5447 118.412 47.3527H118.372C118.281 47.5927 118.134 47.7821 117.932 47.9207C117.734 48.0541 117.468 48.1207 117.132 48.1207C116.7 48.1207 116.356 48.0087 116.1 47.7847C115.844 47.5607 115.715 47.2541 115.715 46.8647C115.715 46.4807 115.854 46.1847 116.132 45.9767C116.414 45.7687 116.868 45.6647 117.492 45.6647H118.372V45.2567C118.372 44.9527 118.286 44.7261 118.116 44.5767C117.945 44.4221 117.702 44.3447 117.388 44.3447C117.11 44.3447 116.884 44.4007 116.708 44.5127C116.532 44.6194 116.39 44.7661 116.284 44.9527L115.852 44.6327C115.905 44.5261 115.977 44.4221 116.068 44.3207C116.158 44.2194 116.27 44.1314 116.404 44.0567C116.537 43.9767 116.689 43.9154 116.86 43.8727C117.03 43.8247 117.22 43.8007 117.428 43.8007C117.913 43.8007 118.297 43.9234 118.58 44.1687C118.868 44.4141 119.012 44.7554 119.012 45.1927V47.4647H119.588V48.0247H119.148ZM117.243 47.5847C117.409 47.5847 117.558 47.5661 117.692 47.5287C117.83 47.4861 117.95 47.4327 118.052 47.3687C118.153 47.2994 118.23 47.2194 118.284 47.1287C118.342 47.0327 118.372 46.9314 118.372 46.8247V46.1447H117.492C117.108 46.1447 116.828 46.1981 116.652 46.3047C116.476 46.4114 116.388 46.5661 116.388 46.7687V46.9367C116.388 47.1501 116.462 47.3127 116.612 47.4247C116.766 47.5314 116.977 47.5847 117.243 47.5847ZM120.768 48.0247V43.8967H121.408V44.5687H121.44C121.483 44.4674 121.536 44.3714 121.6 44.2807C121.664 44.1847 121.742 44.1021 121.832 44.0327C121.928 43.9634 122.04 43.9074 122.168 43.8647C122.296 43.8221 122.446 43.8007 122.616 43.8007C123.048 43.8007 123.395 43.9394 123.656 44.2167C123.918 44.4887 124.048 44.8754 124.048 45.3767V48.0247H123.408V45.4887C123.408 45.1101 123.326 44.8301 123.16 44.6487C122.995 44.4621 122.752 44.3687 122.432 44.3687C122.304 44.3687 122.179 44.3847 122.056 44.4167C121.934 44.4487 121.824 44.4967 121.728 44.5607C121.632 44.6247 121.555 44.7074 121.496 44.8087C121.438 44.9101 121.408 45.0274 121.408 45.1607V48.0247H120.768ZM128.181 47.3527H128.149C127.883 47.8647 127.459 48.1207 126.877 48.1207C126.371 48.1207 125.973 47.9314 125.685 47.5527C125.403 47.1741 125.261 46.6434 125.261 45.9607C125.261 45.2781 125.403 44.7474 125.685 44.3687C125.973 43.9901 126.371 43.8007 126.877 43.8007C127.459 43.8007 127.883 44.0567 128.149 44.5687H128.181V42.1047H128.821V48.0247H128.181V47.3527ZM127.125 47.5527C127.269 47.5527 127.405 47.5341 127.533 47.4967C127.661 47.4594 127.773 47.4061 127.869 47.3367C127.965 47.2621 128.04 47.1741 128.093 47.0727C128.152 46.9661 128.181 46.8434 128.181 46.7047V45.2167C128.181 45.0781 128.152 44.9581 128.093 44.8567C128.04 44.7501 127.965 44.6621 127.869 44.5927C127.773 44.5181 127.661 44.4621 127.533 44.4247C127.405 44.3874 127.269 44.3687 127.125 44.3687C126.752 44.3687 126.461 44.4834 126.253 44.7127C126.051 44.9367 125.949 45.2354 125.949 45.6087V46.3127C125.949 46.6861 126.051 46.9874 126.253 47.2167C126.461 47.4407 126.752 47.5527 127.125 47.5527ZM65.0603 53.8967H65.6283L66.1003 57.4647H66.1723L66.8763 53.8967H67.5803L68.2843 57.4647H68.3563L68.8283 53.8967H69.3803L68.7483 58.0247H67.9163L67.2603 54.5687H67.1963L66.5243 58.0247H65.6923L65.0603 53.8967ZM73.5772 58.0247C73.3265 58.0247 73.1479 57.9607 73.0412 57.8327C72.9345 57.7047 72.8679 57.5447 72.8412 57.3527H72.8012C72.7105 57.5927 72.5639 57.7821 72.3612 57.9207C72.1639 58.0541 71.8972 58.1207 71.5612 58.1207C71.1292 58.1207 70.7852 58.0087 70.5292 57.7847C70.2732 57.5607 70.1452 57.2541 70.1452 56.8647C70.1452 56.4807 70.2839 56.1847 70.5612 55.9767C70.8439 55.7687 71.2972 55.6647 71.9212 55.6647H72.8012V55.2567C72.8012 54.9527 72.7159 54.7261 72.5452 54.5767C72.3745 54.4221 72.1319 54.3447 71.8172 54.3447C71.5399 54.3447 71.3132 54.4007 71.1372 54.5127C70.9612 54.6194 70.8199 54.7661 70.7132 54.9527L70.2812 54.6327C70.3345 54.5261 70.4065 54.4221 70.4972 54.3207C70.5879 54.2194 70.6999 54.1314 70.8332 54.0567C70.9665 53.9767 71.1185 53.9154 71.2892 53.8727C71.4599 53.8247 71.6492 53.8007 71.8572 53.8007C72.3425 53.8007 72.7265 53.9234 73.0092 54.1687C73.2972 54.4141 73.4412 54.7554 73.4412 55.1927V57.4647H74.0172V58.0247H73.5772ZM71.6732 57.5847C71.8385 57.5847 71.9879 57.5661 72.1212 57.5287C72.2599 57.4861 72.3799 57.4327 72.4812 57.3687C72.5825 57.2994 72.6599 57.2194 72.7132 57.1287C72.7719 57.0327 72.8012 56.9314 72.8012 56.8247V56.1447H71.9212C71.5372 56.1447 71.2572 56.1981 71.0812 56.3047C70.9052 56.4114 70.8172 56.5661 70.8172 56.7687V56.9367C70.8172 57.1501 70.8919 57.3127 71.0412 57.4247C71.1959 57.5314 71.4065 57.5847 71.6732 57.5847ZM77.0701 52.9847C76.8834 52.9847 76.7527 52.9474 76.6781 52.8727C76.6034 52.7927 76.5661 52.6941 76.5661 52.5767V52.4487C76.5661 52.3314 76.6034 52.2354 76.6781 52.1607C76.7527 52.0807 76.8834 52.0407 77.0701 52.0407C77.2567 52.0407 77.3874 52.0807 77.4621 52.1607C77.5367 52.2354 77.5741 52.3314 77.5741 52.4487V52.5767C77.5741 52.6941 77.5367 52.7927 77.4621 52.8727C77.3874 52.9474 77.2567 52.9847 77.0701 52.9847ZM75.2621 57.4807H76.7501V54.4407H75.2621V53.8967H77.3901V57.4807H78.7821V58.0247H75.2621V57.4807ZM81.8109 58.0247C81.4963 58.0247 81.2643 57.9367 81.1149 57.7607C80.9709 57.5847 80.8989 57.3581 80.8989 57.0807V54.4407H79.5229V53.8967H80.5469C80.6856 53.8967 80.7816 53.8701 80.8349 53.8167C80.8936 53.7581 80.9229 53.6594 80.9229 53.5207V52.4407H81.5389V53.8967H83.4189V54.4407H81.5389V57.4807H83.4189V58.0247H81.8109ZM89.4687 57.4807H90.8607V54.4407H89.3887V53.8967H90.8607V53.0487C90.8607 52.7714 90.9327 52.5447 91.0767 52.3687C91.226 52.1927 91.458 52.1047 91.7727 52.1047H93.1567V52.6487H91.5007V53.8967H93.1567V54.4407H91.5007V57.4807H92.9727V58.0247H89.4687V57.4807ZM96.0016 58.1207C95.7136 58.1207 95.4522 58.0701 95.2176 57.9687C94.9882 57.8674 94.7909 57.7234 94.6256 57.5367C94.4656 57.3447 94.3429 57.1181 94.2576 56.8567C94.1722 56.5901 94.1296 56.2914 94.1296 55.9607C94.1296 55.6354 94.1722 55.3394 94.2576 55.0727C94.3429 54.8061 94.4656 54.5794 94.6256 54.3927C94.7909 54.2007 94.9882 54.0541 95.2176 53.9527C95.4522 53.8514 95.7136 53.8007 96.0016 53.8007C96.2896 53.8007 96.5482 53.8514 96.7776 53.9527C97.0122 54.0541 97.2096 54.2007 97.3696 54.3927C97.5349 54.5794 97.6602 54.8061 97.7456 55.0727C97.8309 55.3394 97.8736 55.6354 97.8736 55.9607C97.8736 56.2914 97.8309 56.5901 97.7456 56.8567C97.6602 57.1181 97.5349 57.3447 97.3696 57.5367C97.2096 57.7234 97.0122 57.8674 96.7776 57.9687C96.5482 58.0701 96.2896 58.1207 96.0016 58.1207ZM96.0016 57.5687C96.3589 57.5687 96.6469 57.4621 96.8656 57.2487C97.0842 57.0354 97.1936 56.7047 97.1936 56.2567V55.6647C97.1936 55.2167 97.0842 54.8861 96.8656 54.6727C96.6469 54.4594 96.3589 54.3527 96.0016 54.3527C95.6442 54.3527 95.3562 54.4594 95.1376 54.6727C94.9189 54.8861 94.8096 55.2167 94.8096 55.6647V56.2567C94.8096 56.7047 94.9189 57.0354 95.1376 57.2487C95.3562 57.4621 95.6442 57.5687 96.0016 57.5687ZM99.0144 57.4807H100.222V54.4407H99.0144V53.8967H100.862V54.9367H100.902C100.988 54.6114 101.148 54.3581 101.382 54.1767C101.622 53.9901 101.926 53.8967 102.294 53.8967H102.87V54.5367H102.094C101.726 54.5367 101.428 54.6434 101.198 54.8567C100.974 55.0701 100.862 55.3501 100.862 55.6967V57.4807H102.462V58.0247H99.0144V57.4807ZM110.592 58.0247C110.278 58.0247 110.046 57.9367 109.896 57.7607C109.752 57.5847 109.68 57.3581 109.68 57.0807V54.4407H108.304V53.8967H109.328C109.467 53.8967 109.563 53.8701 109.616 53.8167C109.675 53.7581 109.704 53.6594 109.704 53.5207V52.4407H110.32V53.8967H112.2V54.4407H110.32V57.4807H112.2V58.0247H110.592ZM113.573 52.1047H114.213V54.5687H114.245C114.288 54.4674 114.341 54.3714 114.405 54.2807C114.469 54.1847 114.546 54.1021 114.637 54.0327C114.733 53.9634 114.845 53.9074 114.973 53.8647C115.101 53.8221 115.25 53.8007 115.421 53.8007C115.853 53.8007 116.2 53.9394 116.461 54.2167C116.722 54.4887 116.853 54.8754 116.853 55.3767V58.0247H116.213V55.4887C116.213 55.1101 116.13 54.8301 115.965 54.6487C115.8 54.4621 115.557 54.3687 115.237 54.3687C115.109 54.3687 114.984 54.3847 114.861 54.4167C114.738 54.4487 114.629 54.4967 114.533 54.5607C114.437 54.6247 114.36 54.7074 114.301 54.8087C114.242 54.9101 114.213 55.0274 114.213 55.1607V58.0247H113.573V52.1047ZM120.058 58.1207C119.759 58.1207 119.49 58.0701 119.25 57.9687C119.015 57.8674 118.813 57.7234 118.642 57.5367C118.477 57.3447 118.349 57.1181 118.258 56.8567C118.167 56.5901 118.122 56.2941 118.122 55.9687C118.122 55.6381 118.167 55.3394 118.258 55.0727C118.354 54.8061 118.485 54.5794 118.65 54.3927C118.815 54.2007 119.013 54.0541 119.242 53.9527C119.477 53.8514 119.735 53.8007 120.018 53.8007C120.295 53.8007 120.546 53.8514 120.77 53.9527C120.999 54.0541 121.194 54.1954 121.354 54.3767C121.514 54.5527 121.637 54.7634 121.722 55.0087C121.807 55.2541 121.85 55.5234 121.85 55.8167V56.1207H118.794V56.3127C118.794 56.4941 118.823 56.6621 118.882 56.8167C118.941 56.9714 119.023 57.1047 119.13 57.2167C119.242 57.3287 119.375 57.4167 119.53 57.4807C119.69 57.5394 119.866 57.5687 120.058 57.5687C120.335 57.5687 120.575 57.5047 120.778 57.3767C120.981 57.2487 121.135 57.0727 121.242 56.8487L121.714 57.1687C121.591 57.4461 121.386 57.6754 121.098 57.8567C120.815 58.0327 120.469 58.1207 120.058 58.1207ZM120.018 54.3287C119.842 54.3287 119.679 54.3607 119.53 54.4247C119.381 54.4887 119.25 54.5767 119.138 54.6887C119.031 54.8007 118.946 54.9341 118.882 55.0887C118.823 55.2381 118.794 55.4034 118.794 55.5847V55.6407H121.162V55.5527C121.162 55.3714 121.133 55.2061 121.074 55.0567C121.021 54.9074 120.943 54.7794 120.842 54.6727C120.746 54.5607 120.626 54.4754 120.482 54.4167C120.343 54.3581 120.189 54.3287 120.018 54.3287ZM122.815 58.0247V53.8967H123.407V54.3767H123.439C123.503 54.2167 123.593 54.0807 123.711 53.9687C123.828 53.8567 124.001 53.8007 124.231 53.8007C124.471 53.8007 124.649 53.8621 124.767 53.9847C124.884 54.1021 124.956 54.2567 124.983 54.4487H125.007C125.081 54.2621 125.188 54.1074 125.327 53.9847C125.465 53.8621 125.657 53.8007 125.903 53.8007C126.239 53.8007 126.463 53.9181 126.575 54.1527C126.692 54.3874 126.751 54.7234 126.751 55.1607V58.0247H126.159V55.2647C126.159 54.9127 126.121 54.6701 126.047 54.5367C125.977 54.3981 125.847 54.3287 125.655 54.3287C125.484 54.3287 125.345 54.3847 125.239 54.4967C125.132 54.6034 125.079 54.7687 125.079 54.9927V58.0247H124.487V55.2647C124.487 54.9127 124.449 54.6701 124.375 54.5367C124.305 54.3981 124.177 54.3287 123.991 54.3287C123.82 54.3287 123.679 54.3847 123.567 54.4967C123.46 54.6034 123.407 54.7687 123.407 54.9927V58.0247H122.815ZM67.4203 68.0247C67.1056 68.0247 66.8736 67.9367 66.7243 67.7607C66.5803 67.5847 66.5083 67.3581 66.5083 67.0807V64.4407H65.1323V63.8967H66.1563C66.295 63.8967 66.391 63.8701 66.4443 63.8167C66.503 63.7581 66.5323 63.6594 66.5323 63.5207V62.4407H67.1483V63.8967H69.0283V64.4407H67.1483V67.4807H69.0283V68.0247H67.4203ZM72.0172 68.1207C71.7292 68.1207 71.4679 68.0701 71.2332 67.9687C71.0039 67.8674 70.8065 67.7234 70.6412 67.5367C70.4812 67.3447 70.3585 67.1181 70.2732 66.8567C70.1879 66.5901 70.1452 66.2914 70.1452 65.9607C70.1452 65.6354 70.1879 65.3394 70.2732 65.0727C70.3585 64.8061 70.4812 64.5794 70.6412 64.3927C70.8065 64.2007 71.0039 64.0541 71.2332 63.9527C71.4679 63.8514 71.7292 63.8007 72.0172 63.8007C72.3052 63.8007 72.5639 63.8514 72.7932 63.9527C73.0279 64.0541 73.2252 64.2007 73.3852 64.3927C73.5505 64.5794 73.6759 64.8061 73.7612 65.0727C73.8465 65.3394 73.8892 65.6354 73.8892 65.9607C73.8892 66.2914 73.8465 66.5901 73.7612 66.8567C73.6759 67.1181 73.5505 67.3447 73.3852 67.5367C73.2252 67.7234 73.0279 67.8674 72.7932 67.9687C72.5639 68.0701 72.3052 68.1207 72.0172 68.1207ZM72.0172 67.5687C72.3745 67.5687 72.6625 67.4621 72.8812 67.2487C73.0999 67.0354 73.2092 66.7047 73.2092 66.2567V65.6647C73.2092 65.2167 73.0999 64.8861 72.8812 64.6727C72.6625 64.4594 72.3745 64.3527 72.0172 64.3527C71.6599 64.3527 71.3719 64.4594 71.1532 64.6727C70.9345 64.8861 70.8252 65.2167 70.8252 65.6647V66.2567C70.8252 66.7047 70.9345 67.0354 71.1532 67.2487C71.3719 67.4621 71.6599 67.5687 72.0172 67.5687ZM79.9709 62.1047H80.6109V64.5687H80.6429C80.9096 64.0567 81.3336 63.8007 81.9149 63.8007C82.4216 63.8007 82.8163 63.9901 83.0989 64.3687C83.3869 64.7474 83.5309 65.2781 83.5309 65.9607C83.5309 66.6434 83.3869 67.1741 83.0989 67.5527C82.8163 67.9314 82.4216 68.1207 81.9149 68.1207C81.3336 68.1207 80.9096 67.8647 80.6429 67.3527H80.6109V68.0247H79.9709V62.1047ZM81.6669 67.5527C82.0403 67.5527 82.3283 67.4407 82.5309 67.2167C82.7389 66.9874 82.8429 66.6861 82.8429 66.3127V65.6087C82.8429 65.2354 82.7389 64.9367 82.5309 64.7127C82.3283 64.4834 82.0403 64.3687 81.6669 64.3687C81.5229 64.3687 81.3869 64.3874 81.2589 64.4247C81.1309 64.4621 81.0189 64.5181 80.9229 64.5927C80.8269 64.6621 80.7496 64.7501 80.6909 64.8567C80.6376 64.9581 80.6109 65.0781 80.6109 65.2167V66.7047C80.6109 66.8434 80.6376 66.9661 80.6909 67.0727C80.7496 67.1741 80.8269 67.2621 80.9229 67.3367C81.0189 67.4061 81.1309 67.4594 81.2589 67.4967C81.3869 67.5341 81.5229 67.5527 81.6669 67.5527ZM86.4798 68.1207C86.1811 68.1207 85.9118 68.0701 85.6718 67.9687C85.4371 67.8674 85.2345 67.7234 85.0638 67.5367C84.8985 67.3447 84.7705 67.1181 84.6798 66.8567C84.5891 66.5901 84.5438 66.2941 84.5438 65.9687C84.5438 65.6381 84.5891 65.3394 84.6798 65.0727C84.7758 64.8061 84.9065 64.5794 85.0718 64.3927C85.2371 64.2007 85.4345 64.0541 85.6638 63.9527C85.8985 63.8514 86.1571 63.8007 86.4398 63.8007C86.7171 63.8007 86.9678 63.8514 87.1918 63.9527C87.4211 64.0541 87.6158 64.1954 87.7758 64.3767C87.9358 64.5527 88.0585 64.7634 88.1438 65.0087C88.2291 65.2541 88.2718 65.5234 88.2718 65.8167V66.1207H85.2158V66.3127C85.2158 66.4941 85.2451 66.6621 85.3038 66.8167C85.3625 66.9714 85.4451 67.1047 85.5518 67.2167C85.6638 67.3287 85.7971 67.4167 85.9518 67.4807C86.1118 67.5394 86.2878 67.5687 86.4798 67.5687C86.7571 67.5687 86.9971 67.5047 87.1998 67.3767C87.4025 67.2487 87.5571 67.0727 87.6638 66.8487L88.1358 67.1687C88.0131 67.4461 87.8078 67.6754 87.5198 67.8567C87.2371 68.0327 86.8905 68.1207 86.4798 68.1207ZM86.4398 64.3287C86.2638 64.3287 86.1011 64.3607 85.9518 64.4247C85.8025 64.4887 85.6718 64.5767 85.5598 64.6887C85.4531 64.8007 85.3678 64.9341 85.3038 65.0887C85.2451 65.2381 85.2158 65.4034 85.2158 65.5847V65.6407H87.5838V65.5527C87.5838 65.3714 87.5545 65.2061 87.4958 65.0567C87.4425 64.9074 87.3651 64.7794 87.2638 64.6727C87.1678 64.5607 87.0478 64.4754 86.9038 64.4167C86.7651 64.3581 86.6105 64.3287 86.4398 64.3287ZM94.3616 63.8967H95.0016V64.5687H95.0336C95.3002 64.0567 95.7242 63.8007 96.3056 63.8007C96.8122 63.8007 97.2069 63.9901 97.4896 64.3687C97.7776 64.7474 97.9216 65.2781 97.9216 65.9607C97.9216 66.6434 97.7776 67.1741 97.4896 67.5527C97.2069 67.9314 96.8122 68.1207 96.3056 68.1207C95.7242 68.1207 95.3002 67.8647 95.0336 67.3527H95.0016V69.6247H94.3616V63.8967ZM96.0576 67.5527C96.4309 67.5527 96.7189 67.4407 96.9216 67.2167C97.1296 66.9874 97.2336 66.6861 97.2336 66.3127V65.6087C97.2336 65.2354 97.1296 64.9367 96.9216 64.7127C96.7189 64.4834 96.4309 64.3687 96.0576 64.3687C95.9136 64.3687 95.7776 64.3874 95.6496 64.4247C95.5216 64.4621 95.4096 64.5181 95.3136 64.5927C95.2176 64.6621 95.1402 64.7501 95.0816 64.8567C95.0282 64.9581 95.0016 65.0781 95.0016 65.2167V66.7047C95.0016 66.8434 95.0282 66.9661 95.0816 67.0727C95.1402 67.1741 95.2176 67.2621 95.3136 67.3367C95.4096 67.4061 95.5216 67.4594 95.6496 67.4967C95.7776 67.5341 95.9136 67.5527 96.0576 67.5527ZM99.0144 67.4807H100.222V64.4407H99.0144V63.8967H100.862V64.9367H100.902C100.988 64.6114 101.148 64.3581 101.382 64.1767C101.622 63.9901 101.926 63.8967 102.294 63.8967H102.87V64.5367H102.094C101.726 64.5367 101.428 64.6434 101.198 64.8567C100.974 65.0701 100.862 65.3501 100.862 65.6967V67.4807H102.462V68.0247H99.0144V67.4807ZM105.851 62.9847C105.665 62.9847 105.534 62.9474 105.459 62.8727C105.385 62.7927 105.347 62.6941 105.347 62.5767V62.4487C105.347 62.3314 105.385 62.2354 105.459 62.1607C105.534 62.0807 105.665 62.0407 105.851 62.0407C106.038 62.0407 106.169 62.0807 106.243 62.1607C106.318 62.2354 106.355 62.3314 106.355 62.4487V62.5767C106.355 62.6941 106.318 62.7927 106.243 62.8727C106.169 62.9474 106.038 62.9847 105.851 62.9847ZM104.043 67.4807H105.531V64.4407H104.043V63.8967H106.171V67.4807H107.563V68.0247H104.043V67.4807ZM108.776 68.0247V63.8967H109.416V64.5687H109.448C109.491 64.4674 109.544 64.3714 109.608 64.2807C109.672 64.1847 109.75 64.1021 109.84 64.0327C109.936 63.9634 110.048 63.9074 110.176 63.8647C110.304 63.8221 110.454 63.8007 110.624 63.8007C111.056 63.8007 111.403 63.9394 111.664 64.2167C111.926 64.4887 112.056 64.8754 112.056 65.3767V68.0247H111.416V65.4887C111.416 65.1101 111.334 64.8301 111.168 64.6487C111.003 64.4621 110.76 64.3687 110.44 64.3687C110.312 64.3687 110.187 64.3847 110.064 64.4167C109.942 64.4487 109.832 64.4967 109.736 64.5607C109.64 64.6247 109.563 64.7074 109.504 64.8087C109.446 64.9101 109.416 65.0274 109.416 65.1607V68.0247H108.776ZM115.389 68.0247C115.074 68.0247 114.842 67.9367 114.693 67.7607C114.549 67.5847 114.477 67.3581 114.477 67.0807V64.4407H113.101V63.8967H114.125C114.264 63.8967 114.36 63.8701 114.413 63.8167C114.472 63.7581 114.501 63.6594 114.501 63.5207V62.4407H115.117V63.8967H116.997V64.4407H115.117V67.4807H116.997V68.0247H115.389ZM120.058 68.1207C119.759 68.1207 119.49 68.0701 119.25 67.9687C119.015 67.8674 118.813 67.7234 118.642 67.5367C118.477 67.3447 118.349 67.1181 118.258 66.8567C118.167 66.5901 118.122 66.2941 118.122 65.9687C118.122 65.6381 118.167 65.3394 118.258 65.0727C118.354 64.8061 118.485 64.5794 118.65 64.3927C118.815 64.2007 119.013 64.0541 119.242 63.9527C119.477 63.8514 119.735 63.8007 120.018 63.8007C120.295 63.8007 120.546 63.8514 120.77 63.9527C120.999 64.0541 121.194 64.1954 121.354 64.3767C121.514 64.5527 121.637 64.7634 121.722 65.0087C121.807 65.2541 121.85 65.5234 121.85 65.8167V66.1207H118.794V66.3127C118.794 66.4941 118.823 66.6621 118.882 66.8167C118.941 66.9714 119.023 67.1047 119.13 67.2167C119.242 67.3287 119.375 67.4167 119.53 67.4807C119.69 67.5394 119.866 67.5687 120.058 67.5687C120.335 67.5687 120.575 67.5047 120.778 67.3767C120.981 67.2487 121.135 67.0727 121.242 66.8487L121.714 67.1687C121.591 67.4461 121.386 67.6754 121.098 67.8567C120.815 68.0327 120.469 68.1207 120.058 68.1207ZM120.018 64.3287C119.842 64.3287 119.679 64.3607 119.53 64.4247C119.381 64.4887 119.25 64.5767 119.138 64.6887C119.031 64.8007 118.946 64.9341 118.882 65.0887C118.823 65.2381 118.794 65.4034 118.794 65.5847V65.6407H121.162V65.5527C121.162 65.3714 121.133 65.2061 121.074 65.0567C121.021 64.9074 120.943 64.7794 120.842 64.6727C120.746 64.5607 120.626 64.4754 120.482 64.4167C120.343 64.3581 120.189 64.3287 120.018 64.3287ZM125.783 67.3527H125.751C125.484 67.8647 125.06 68.1207 124.479 68.1207C123.972 68.1207 123.575 67.9314 123.287 67.5527C123.004 67.1741 122.863 66.6434 122.863 65.9607C122.863 65.2781 123.004 64.7474 123.287 64.3687C123.575 63.9901 123.972 63.8007 124.479 63.8007C125.06 63.8007 125.484 64.0567 125.751 64.5687H125.783V62.1047H126.423V68.0247H125.783V67.3527ZM124.727 67.5527C124.871 67.5527 125.007 67.5341 125.135 67.4967C125.263 67.4594 125.375 67.4061 125.471 67.3367C125.567 67.2621 125.641 67.1741 125.695 67.0727C125.753 66.9661 125.783 66.8434 125.783 66.7047V65.2167C125.783 65.0781 125.753 64.9581 125.695 64.8567C125.641 64.7501 125.567 64.6621 125.471 64.5927C125.375 64.5181 125.263 64.4621 125.135 64.4247C125.007 64.3874 124.871 64.3687 124.727 64.3687C124.353 64.3687 124.063 64.4834 123.855 64.7127C123.652 64.9367 123.551 65.2354 123.551 65.6087V66.3127C123.551 66.6861 123.652 66.9874 123.855 67.2167C124.063 67.4407 124.353 67.5527 124.727 67.5527Z" fill="black"/>
</g>
<g id="start">
<path id="Vector_2" d="M142.65 16.249C142.612 16.249 142.575 16.249 160.408 16.2124L250.731 16.027M250.562 16.027L250.536 21.9832C250.509 27.929 250.456 39.815 250.401 51.8924M141.673 15.7624V22.0445C141.673 28.3219 141.673 40.8742 141.504 53.6383M142.391 53.5051C142.391 53.4494 142.391 53.3937 160.572 53.365C178.754 53.3363 215.118 53.3363 251.55 53.1658" stroke="black" stroke-width="2" stroke-linecap="round"/>
<path id="start_2" d="M185.67 30.3947C185.67 30.4962 185.632 30.5809 185.556 30.6486C185.488 30.7163 185.404 30.7755 185.302 30.8263C185.201 30.8686 185.095 30.8982 184.985 30.9152C184.883 30.9321 184.799 30.9406 184.731 30.9406C184.629 30.9406 184.532 30.9321 184.439 30.9152C184.346 30.8898 184.253 30.8644 184.16 30.839C184.066 30.8136 183.978 30.7924 183.893 30.7755C183.808 30.7501 183.719 30.7374 183.626 30.7374C183.499 30.7374 183.372 30.7586 183.245 30.8009C183.119 30.8432 183.004 30.9025 182.903 30.9786C182.801 31.0548 182.717 31.1479 182.649 31.2579C182.59 31.368 182.56 31.4907 182.56 31.6261C182.56 31.8292 182.602 32.0323 182.687 32.2355C182.772 32.4301 182.882 32.629 183.017 32.8322C183.161 33.0353 183.322 33.2426 183.499 33.4542C183.686 33.6573 183.88 33.8647 184.083 34.0763C184.329 34.3471 184.574 34.6222 184.82 34.9015C185.074 35.1808 185.298 35.4728 185.493 35.7775C185.696 36.0822 185.861 36.4038 185.988 36.7423C186.115 37.0809 186.178 37.4363 186.178 37.8087C186.178 38.1303 186.123 38.4181 186.013 38.672C185.911 38.9259 185.763 39.1417 185.569 39.3195C185.383 39.4972 185.154 39.6326 184.883 39.7257C184.621 39.8273 184.333 39.8781 184.02 39.8781C183.935 39.8781 183.804 39.8611 183.626 39.8273C183.457 39.7934 183.262 39.7469 183.042 39.6876C182.822 39.6199 182.594 39.548 182.357 39.4718C182.128 39.3956 181.917 39.3152 181.722 39.2306C181.536 39.1375 181.379 39.0486 181.252 38.964C181.134 38.8709 181.075 38.7863 181.075 38.7101C181.075 38.6085 181.121 38.507 181.214 38.4054C181.307 38.2954 181.417 38.198 181.544 38.1134C181.671 38.0203 181.802 37.9441 181.938 37.8849C182.082 37.8256 182.2 37.796 182.293 37.796C182.42 37.796 182.551 37.8256 182.687 37.8849C182.831 37.9441 182.975 38.0118 183.119 38.088C183.279 38.1726 183.44 38.2488 183.601 38.3165C183.77 38.3842 183.944 38.4181 184.121 38.4181C184.257 38.4181 184.333 38.3715 184.35 38.2784C184.375 38.1853 184.388 38.0795 184.388 37.9611C184.388 37.6648 184.337 37.3855 184.236 37.1232C184.134 36.8523 184.003 36.59 183.842 36.3361C183.681 36.0822 183.495 35.8367 183.284 35.5997C183.072 35.3543 182.86 35.1131 182.649 34.8761C182.429 34.6391 182.213 34.4021 182.001 34.1652C181.798 33.9282 181.616 33.687 181.455 33.4415C181.295 33.1876 181.163 32.9295 181.062 32.6671C180.969 32.4047 180.922 32.1254 180.922 31.8292C180.922 31.4653 181.003 31.1394 181.163 30.8517C181.324 30.5555 181.532 30.3016 181.786 30.09C182.048 29.8784 182.34 29.7176 182.661 29.6075C182.992 29.4891 183.322 29.4298 183.652 29.4298C183.762 29.4298 183.931 29.4552 184.16 29.506C184.388 29.5483 184.612 29.6118 184.832 29.6964C185.052 29.781 185.247 29.8826 185.416 30.0011C185.586 30.1196 185.67 30.2508 185.67 30.3947ZM189.619 39.3829C189.619 39.476 189.597 39.5564 189.555 39.6241C189.513 39.6834 189.458 39.7299 189.39 39.7638C189.331 39.7976 189.263 39.8188 189.187 39.8273C189.119 39.8442 189.051 39.8527 188.984 39.8527C188.891 39.8527 188.781 39.84 188.654 39.8146C188.535 39.7976 188.417 39.768 188.298 39.7257C188.18 39.6834 188.07 39.6326 187.968 39.5734C187.875 39.5057 187.803 39.4253 187.752 39.3322C187.702 39.2475 187.655 39.0909 187.613 38.8624C187.579 38.6254 187.549 38.3546 187.524 38.0499C187.498 37.7368 187.477 37.4067 187.46 37.0597C187.443 36.7042 187.426 36.3657 187.41 36.0441C187.401 35.7225 187.393 35.4347 187.384 35.1808C187.384 34.9184 187.384 34.7238 187.384 34.5968C187.384 34.0044 187.393 33.4331 187.41 32.8829C187.435 32.3243 187.46 31.7531 187.486 31.1691C187.443 31.1691 187.401 31.1733 187.359 31.1818C187.316 31.1902 187.274 31.1945 187.232 31.1945C187.122 31.2114 187.008 31.2241 186.889 31.2325C186.779 31.241 186.665 31.2452 186.546 31.2452C186.402 31.2452 186.275 31.2198 186.165 31.1691C186.055 31.1183 186 31.004 186 30.8263C186 30.6147 186.047 30.4454 186.14 30.3185C186.233 30.1915 186.352 30.0942 186.495 30.0265C186.639 29.9503 186.796 29.8995 186.965 29.8741C187.134 29.8403 187.3 29.8149 187.46 29.798C187.486 29.798 187.503 29.798 187.511 29.798C187.52 29.7895 187.536 29.7853 187.562 29.7853C187.57 29.6837 187.579 29.561 187.587 29.4171C187.596 29.2648 187.604 29.0997 187.613 28.922C187.621 28.6427 187.634 28.3465 187.651 28.0333C187.668 27.7117 187.685 27.407 187.702 27.1193C187.718 26.823 187.74 26.5649 187.765 26.3448C187.79 26.1163 187.816 25.9555 187.841 25.8624C187.884 25.7524 187.93 25.6635 187.981 25.5958C188.04 25.5281 188.146 25.4943 188.298 25.4943C188.637 25.4943 188.899 25.6043 189.085 25.8243C189.272 26.0444 189.365 26.3152 189.365 26.6368C189.365 27.0092 189.352 27.3816 189.327 27.754C189.31 28.1264 189.293 28.5031 189.276 28.8839L189.238 29.5314C189.449 29.506 189.661 29.4679 189.872 29.4171C190.076 29.3748 190.279 29.3367 190.482 29.3029C190.693 29.269 190.897 29.2521 191.091 29.2521C191.26 29.2521 191.392 29.2986 191.485 29.3917C191.578 29.4764 191.624 29.6033 191.624 29.7726C191.624 29.9588 191.591 30.1407 191.523 30.3185C191.455 30.4962 191.337 30.6316 191.167 30.7247H191.18C191.146 30.7417 191.045 30.767 190.875 30.8009C190.706 30.8263 190.511 30.8517 190.291 30.8771C190.08 30.9025 189.868 30.9279 189.657 30.9532C189.453 30.9786 189.301 30.9956 189.2 31.004H189.187C189.17 31.478 189.157 31.9477 189.149 32.4132C189.14 32.8702 189.136 33.3357 189.136 33.8097C189.136 34.4614 189.153 35.1554 189.187 35.8917C189.229 36.6196 189.297 37.3136 189.39 37.9738L189.492 38.545C189.525 38.6889 189.555 38.8328 189.58 38.9767C189.606 39.1121 189.619 39.2475 189.619 39.3829ZM196.829 39.5353C196.829 39.7045 196.787 39.8188 196.703 39.8781C196.618 39.9458 196.499 39.9796 196.347 39.9796C195.949 39.9796 195.661 39.8738 195.484 39.6622C195.314 39.4506 195.188 39.1713 195.103 38.8243C195.078 38.7059 195.052 38.5874 195.027 38.4689C195.001 38.3419 194.98 38.2192 194.963 38.1007C194.946 37.9907 194.929 37.9145 194.912 37.8722C194.896 37.8299 194.879 37.7495 194.862 37.631C194.76 37.8764 194.633 38.1346 194.481 38.4054C194.337 38.6678 194.168 38.9132 193.973 39.1417C193.778 39.3618 193.558 39.5437 193.313 39.6876C193.076 39.8315 192.814 39.9034 192.526 39.9034C192.221 39.9034 191.967 39.8315 191.764 39.6876C191.561 39.5353 191.4 39.3491 191.282 39.129C191.172 38.9005 191.091 38.6508 191.04 38.38C190.998 38.1092 190.977 37.851 190.977 37.6056C190.977 37.0301 191.032 36.408 191.142 35.7394C191.26 35.0623 191.421 34.3894 191.624 33.7208C191.828 33.0437 192.064 32.3963 192.335 31.7784C192.606 31.1521 192.902 30.6062 193.224 30.1407V30.1534L193.3 30.0392C193.393 29.9122 193.499 29.7768 193.618 29.6329C193.745 29.4806 193.893 29.4044 194.062 29.4044C194.223 29.4044 194.362 29.4764 194.481 29.6202C194.599 29.7557 194.684 29.8995 194.735 30.0519C194.955 30.0942 195.133 30.1492 195.268 30.2169C195.403 30.2762 195.509 30.3523 195.585 30.4454C195.661 30.5385 195.712 30.6486 195.738 30.7755C195.763 30.894 195.776 31.0252 195.776 31.1691C195.776 31.2283 195.776 31.2918 195.776 31.3595C195.776 31.4272 195.772 31.4949 195.763 31.5626C195.755 31.6303 195.75 31.7107 195.75 31.8038C195.75 31.8969 195.75 31.9816 195.75 32.0577C195.75 32.1424 195.763 32.2524 195.788 32.3878C195.822 32.5232 195.856 32.6629 195.89 32.8068L195.979 33.2765C196.021 33.5219 196.055 33.8012 196.08 34.1144C196.114 34.4275 196.152 34.7407 196.195 35.0538C196.229 35.3754 196.262 35.6886 196.296 35.9933C196.33 36.2895 196.364 36.5646 196.398 36.8185L196.703 38.6974L196.741 38.9132C196.758 39.0232 196.774 39.1248 196.791 39.2179C196.817 39.311 196.829 39.4168 196.829 39.5353ZM193.922 32.2355C193.922 32.2185 193.918 32.1932 193.91 32.1593C193.901 32.117 193.893 32.0747 193.884 32.0323C193.689 32.4471 193.516 32.8999 193.364 33.3907C193.22 33.8732 193.097 34.3683 192.995 34.8761C192.902 35.3754 192.83 35.879 192.78 36.3868C192.737 36.8862 192.716 37.3601 192.716 37.8087C192.716 37.851 192.716 37.8891 192.716 37.923C192.716 37.9568 192.72 37.9907 192.729 38.0245V38.0372C192.932 37.7241 193.106 37.3136 193.249 36.8058C193.402 36.2895 193.529 35.7521 193.63 35.1935C193.732 34.6264 193.804 34.0805 193.846 33.5558C193.897 33.0226 193.922 32.5825 193.922 32.2355ZM198.835 39.9034C198.708 39.9034 198.569 39.8865 198.416 39.8527C198.273 39.8188 198.133 39.7638 197.997 39.6876C197.87 39.6115 197.76 39.5184 197.667 39.4083C197.583 39.2898 197.54 39.1502 197.54 38.9894C197.54 38.7524 197.549 38.5197 197.566 38.2911C197.591 38.0542 197.617 37.8214 197.642 37.5929V37.6056L197.718 36.755C197.744 36.4503 197.765 36.116 197.782 35.7521C197.799 35.3881 197.811 35.02 197.82 34.6476C197.837 34.2667 197.849 33.8943 197.858 33.5304C197.866 33.1665 197.87 32.8322 197.87 32.5275C197.87 32.3497 197.866 32.172 197.858 31.9943C197.858 31.8081 197.858 31.6219 197.858 31.4357C197.849 31.2749 197.845 31.0971 197.845 30.9025C197.845 30.6993 197.845 30.5131 197.845 30.3439C197.845 30.1661 197.866 30.0223 197.909 29.9122C197.959 29.7937 198.095 29.7345 198.315 29.7345C198.509 29.7345 198.713 29.7853 198.924 29.8868C199.144 29.9884 199.297 30.1323 199.381 30.3185H199.369C199.411 30.4116 199.44 30.5639 199.457 30.7755C199.483 30.9786 199.5 31.1606 199.508 31.3214C199.652 31.1014 199.813 30.8686 199.991 30.6232C200.177 30.3777 200.376 30.1534 200.587 29.9503C200.799 29.7387 201.023 29.5652 201.26 29.4298C201.497 29.2944 201.751 29.2267 202.022 29.2267C202.377 29.2267 202.648 29.3156 202.834 29.4933C203.021 29.671 203.156 29.8953 203.241 30.1661C203.325 30.4285 203.372 30.712 203.38 31.0167C203.389 31.3129 203.393 31.5838 203.393 31.8292V31.9308C203.393 32.0323 203.389 32.1339 203.38 32.2355C203.38 32.3286 203.363 32.4174 203.329 32.5021C203.304 32.5782 203.253 32.6417 203.177 32.6925C203.109 32.7433 203.012 32.7687 202.885 32.7687C202.75 32.7687 202.606 32.7517 202.453 32.7179C202.301 32.6756 202.157 32.6163 202.022 32.5402C201.895 32.464 201.785 32.3709 201.692 32.2609C201.599 32.1424 201.548 32.007 201.539 31.8546C201.539 31.7869 201.539 31.7192 201.539 31.6515C201.539 31.5838 201.544 31.5161 201.552 31.4484C201.552 31.406 201.552 31.3553 201.552 31.296C201.561 31.2283 201.565 31.1648 201.565 31.1056C201.294 31.3764 201.053 31.7107 200.841 32.1085C200.638 32.5063 200.452 32.9295 200.283 33.3781C200.122 33.8266 199.982 34.2794 199.864 34.7365C199.745 35.185 199.644 35.5913 199.559 35.9552V35.9933C199.534 36.2557 199.517 36.5138 199.508 36.7677C199.5 37.0216 199.491 37.284 199.483 37.5548C199.474 37.8595 199.462 38.1684 199.445 38.4816C199.436 38.7947 199.415 39.0994 199.381 39.3956C199.364 39.5564 199.314 39.6792 199.229 39.7638C199.153 39.8569 199.022 39.9034 198.835 39.9034ZM206.732 39.3829C206.732 39.476 206.711 39.5564 206.668 39.6241C206.626 39.6834 206.571 39.7299 206.503 39.7638C206.444 39.7976 206.376 39.8188 206.3 39.8273C206.232 39.8442 206.165 39.8527 206.097 39.8527C206.004 39.8527 205.894 39.84 205.767 39.8146C205.648 39.7976 205.53 39.768 205.411 39.7257C205.293 39.6834 205.183 39.6326 205.081 39.5734C204.988 39.5057 204.916 39.4253 204.866 39.3322C204.815 39.2475 204.768 39.0909 204.726 38.8624C204.692 38.6254 204.662 38.3546 204.637 38.0499C204.612 37.7368 204.591 37.4067 204.574 37.0597C204.557 36.7042 204.54 36.3657 204.523 36.0441C204.514 35.7225 204.506 35.4347 204.497 35.1808C204.497 34.9184 204.497 34.7238 204.497 34.5968C204.497 34.0044 204.506 33.4331 204.523 32.8829C204.548 32.3243 204.574 31.7531 204.599 31.1691C204.557 31.1691 204.514 31.1733 204.472 31.1818C204.43 31.1902 204.387 31.1945 204.345 31.1945C204.235 31.2114 204.121 31.2241 204.002 31.2325C203.892 31.241 203.778 31.2452 203.66 31.2452C203.516 31.2452 203.389 31.2198 203.279 31.1691C203.169 31.1183 203.114 31.004 203.114 30.8263C203.114 30.6147 203.16 30.4454 203.253 30.3185C203.346 30.1915 203.465 30.0942 203.609 30.0265C203.753 29.9503 203.909 29.8995 204.078 29.8741C204.248 29.8403 204.413 29.8149 204.574 29.798C204.599 29.798 204.616 29.798 204.624 29.798C204.633 29.7895 204.65 29.7853 204.675 29.7853C204.684 29.6837 204.692 29.561 204.701 29.4171C204.709 29.2648 204.717 29.0997 204.726 28.922C204.734 28.6427 204.747 28.3465 204.764 28.0333C204.781 27.7117 204.798 27.407 204.815 27.1193C204.832 26.823 204.853 26.5649 204.878 26.3448C204.904 26.1163 204.929 25.9555 204.954 25.8624C204.997 25.7524 205.043 25.6635 205.094 25.5958C205.153 25.5281 205.259 25.4943 205.411 25.4943C205.75 25.4943 206.012 25.6043 206.199 25.8243C206.385 26.0444 206.478 26.3152 206.478 26.6368C206.478 27.0092 206.465 27.3816 206.44 27.754C206.423 28.1264 206.406 28.5031 206.389 28.8839L206.351 29.5314C206.563 29.506 206.774 29.4679 206.986 29.4171C207.189 29.3748 207.392 29.3367 207.595 29.3029C207.807 29.269 208.01 29.2521 208.204 29.2521C208.374 29.2521 208.505 29.2986 208.598 29.3917C208.691 29.4764 208.738 29.6033 208.738 29.7726C208.738 29.9588 208.704 30.1407 208.636 30.3185C208.568 30.4962 208.45 30.6316 208.281 30.7247H208.293C208.259 30.7417 208.158 30.767 207.989 30.8009C207.819 30.8263 207.625 30.8517 207.405 30.8771C207.193 30.9025 206.981 30.9279 206.77 30.9532C206.567 30.9786 206.414 30.9956 206.313 31.004H206.3C206.283 31.478 206.271 31.9477 206.262 32.4132C206.254 32.8702 206.249 33.3357 206.249 33.8097C206.249 34.4614 206.266 35.1554 206.3 35.8917C206.342 36.6196 206.41 37.3136 206.503 37.9738L206.605 38.545C206.639 38.6889 206.668 38.8328 206.694 38.9767C206.719 39.1121 206.732 39.2475 206.732 39.3829Z" fill="black"/>
<g id="Flashing light">
<circle id="Ellipse 1" cx="221.886" cy="34.7003" r="5" fill="#EE0000"/>
</g>
</g>
</g>
</svg>
