<svg width="313" height="50" viewBox="0 0 313 50" fill="none" xmlns="http://www.w3.org/2000/svg">
<g id="header">
<path id="strike a pose" d="M121.959 10.2627C121.959 10.3799 121.915 10.4775 121.827 10.5557C121.749 10.6338 121.651 10.7021 121.534 10.7607C121.417 10.8096 121.295 10.8438 121.168 10.8633C121.051 10.8828 120.953 10.8926 120.875 10.8926C120.758 10.8926 120.646 10.8828 120.538 10.8633C120.431 10.834 120.323 10.8047 120.216 10.7754C120.108 10.7461 120.006 10.7217 119.908 10.7021C119.811 10.6729 119.708 10.6582 119.601 10.6582C119.454 10.6582 119.308 10.6826 119.161 10.7314C119.015 10.7803 118.883 10.8486 118.766 10.9365C118.648 11.0244 118.551 11.1318 118.473 11.2588C118.404 11.3857 118.37 11.5273 118.37 11.6836C118.37 11.918 118.419 12.1523 118.517 12.3867C118.614 12.6113 118.741 12.8408 118.897 13.0752C119.063 13.3096 119.249 13.5488 119.454 13.793C119.669 14.0273 119.894 14.2666 120.128 14.5107C120.411 14.8232 120.694 15.1406 120.978 15.4629C121.271 15.7852 121.529 16.1221 121.754 16.4736C121.988 16.8252 122.179 17.1963 122.325 17.5869C122.472 17.9775 122.545 18.3877 122.545 18.8174C122.545 19.1885 122.481 19.5205 122.354 19.8135C122.237 20.1064 122.066 20.3555 121.842 20.5605C121.627 20.7656 121.363 20.9219 121.051 21.0293C120.748 21.1465 120.416 21.2051 120.055 21.2051C119.957 21.2051 119.806 21.1855 119.601 21.1465C119.405 21.1074 119.181 21.0537 118.927 20.9854C118.673 20.9072 118.409 20.8242 118.136 20.7363C117.872 20.6484 117.628 20.5557 117.403 20.458C117.188 20.3506 117.008 20.248 116.861 20.1504C116.725 20.043 116.656 19.9453 116.656 19.8574C116.656 19.7402 116.71 19.623 116.817 19.5059C116.925 19.3789 117.052 19.2666 117.198 19.1689C117.345 19.0615 117.496 18.9736 117.652 18.9053C117.818 18.8369 117.955 18.8027 118.062 18.8027C118.209 18.8027 118.36 18.8369 118.517 18.9053C118.683 18.9736 118.849 19.0518 119.015 19.1396C119.2 19.2373 119.386 19.3252 119.571 19.4033C119.767 19.4814 119.967 19.5205 120.172 19.5205C120.328 19.5205 120.416 19.4668 120.436 19.3594C120.465 19.252 120.479 19.1299 120.479 18.9932C120.479 18.6514 120.421 18.3291 120.304 18.0264C120.187 17.7139 120.035 17.4111 119.85 17.1182C119.664 16.8252 119.449 16.542 119.205 16.2686C118.961 15.9854 118.717 15.707 118.473 15.4336C118.219 15.1602 117.97 14.8867 117.726 14.6133C117.491 14.3398 117.281 14.0615 117.096 13.7783C116.91 13.4854 116.759 13.1875 116.642 12.8848C116.534 12.582 116.48 12.2598 116.48 11.918C116.48 11.498 116.573 11.1221 116.759 10.79C116.944 10.4482 117.184 10.1553 117.477 9.91113C117.779 9.66699 118.116 9.48145 118.487 9.35449C118.868 9.21777 119.249 9.14941 119.63 9.14941C119.757 9.14941 119.952 9.17871 120.216 9.2373C120.479 9.28613 120.738 9.35938 120.992 9.45703C121.246 9.55469 121.471 9.67188 121.666 9.80859C121.861 9.94531 121.959 10.0967 121.959 10.2627ZM126.515 20.6338C126.515 20.7412 126.49 20.834 126.441 20.9121C126.393 20.9805 126.329 21.0342 126.251 21.0732C126.183 21.1123 126.104 21.1367 126.017 21.1465C125.938 21.166 125.86 21.1758 125.782 21.1758C125.675 21.1758 125.548 21.1611 125.401 21.1318C125.265 21.1123 125.128 21.0781 124.991 21.0293C124.854 20.9805 124.728 20.9219 124.61 20.8535C124.503 20.7754 124.42 20.6826 124.361 20.5752C124.303 20.4775 124.249 20.2969 124.2 20.0332C124.161 19.7598 124.127 19.4473 124.098 19.0957C124.068 18.7344 124.044 18.3535 124.024 17.9531C124.005 17.543 123.985 17.1523 123.966 16.7812C123.956 16.4102 123.946 16.0781 123.937 15.7852C123.937 15.4824 123.937 15.2578 123.937 15.1113C123.937 14.4277 123.946 13.7686 123.966 13.1338C123.995 12.4893 124.024 11.8301 124.054 11.1562C124.005 11.1562 123.956 11.1611 123.907 11.1709C123.858 11.1807 123.81 11.1855 123.761 11.1855C123.634 11.2051 123.502 11.2197 123.365 11.2295C123.238 11.2393 123.106 11.2441 122.97 11.2441C122.804 11.2441 122.657 11.2148 122.53 11.1562C122.403 11.0977 122.34 10.9658 122.34 10.7607C122.34 10.5166 122.394 10.3213 122.501 10.1748C122.608 10.0283 122.745 9.91602 122.911 9.83789C123.077 9.75 123.258 9.69141 123.453 9.66211C123.648 9.62305 123.839 9.59375 124.024 9.57422C124.054 9.57422 124.073 9.57422 124.083 9.57422C124.093 9.56445 124.112 9.55957 124.142 9.55957C124.151 9.44238 124.161 9.30078 124.171 9.13477C124.181 8.95898 124.19 8.76855 124.2 8.56348C124.21 8.24121 124.225 7.89941 124.244 7.53809C124.264 7.16699 124.283 6.81543 124.303 6.4834C124.322 6.1416 124.347 5.84375 124.376 5.58984C124.405 5.32617 124.435 5.14062 124.464 5.0332C124.513 4.90625 124.566 4.80371 124.625 4.72559C124.693 4.64746 124.815 4.6084 124.991 4.6084C125.382 4.6084 125.685 4.73535 125.899 4.98926C126.114 5.24316 126.222 5.55566 126.222 5.92676C126.222 6.35645 126.207 6.78613 126.178 7.21582C126.158 7.64551 126.139 8.08008 126.119 8.51953L126.075 9.2666C126.319 9.2373 126.563 9.19336 126.808 9.13477C127.042 9.08594 127.276 9.04199 127.511 9.00293C127.755 8.96387 127.989 8.94434 128.214 8.94434C128.409 8.94434 128.561 8.99805 128.668 9.10547C128.775 9.20312 128.829 9.34961 128.829 9.54492C128.829 9.75977 128.79 9.96973 128.712 10.1748C128.634 10.3799 128.497 10.5361 128.302 10.6436H128.316C128.277 10.6631 128.16 10.6924 127.965 10.7314C127.77 10.7607 127.545 10.79 127.291 10.8193C127.047 10.8486 126.803 10.8779 126.559 10.9072C126.324 10.9365 126.148 10.9561 126.031 10.9658H126.017C125.997 11.5127 125.982 12.0547 125.973 12.5918C125.963 13.1191 125.958 13.6562 125.958 14.2031C125.958 14.9551 125.978 15.7559 126.017 16.6055C126.065 17.4453 126.144 18.2461 126.251 19.0078L126.368 19.667C126.407 19.833 126.441 19.999 126.471 20.165C126.5 20.3213 126.515 20.4775 126.515 20.6338ZM130.499 21.2344C130.353 21.2344 130.191 21.2148 130.016 21.1758C129.85 21.1367 129.688 21.0732 129.532 20.9854C129.386 20.8975 129.259 20.79 129.151 20.6631C129.054 20.5264 129.005 20.3652 129.005 20.1797C129.005 19.9062 129.015 19.6377 129.034 19.374C129.063 19.1006 129.093 18.832 129.122 18.5684V18.583L129.21 17.6016C129.239 17.25 129.264 16.8643 129.283 16.4443C129.303 16.0244 129.317 15.5996 129.327 15.1699C129.347 14.7305 129.361 14.3008 129.371 13.8809C129.381 13.4609 129.386 13.0752 129.386 12.7236C129.386 12.5186 129.381 12.3135 129.371 12.1084C129.371 11.8936 129.371 11.6787 129.371 11.4639C129.361 11.2783 129.356 11.0732 129.356 10.8486C129.356 10.6143 129.356 10.3994 129.356 10.2041C129.356 9.99902 129.381 9.83301 129.43 9.70605C129.488 9.56934 129.645 9.50098 129.898 9.50098C130.123 9.50098 130.357 9.55957 130.602 9.67676C130.855 9.79395 131.031 9.95996 131.129 10.1748H131.114C131.163 10.2822 131.197 10.458 131.217 10.7021C131.246 10.9365 131.266 11.1465 131.275 11.332C131.441 11.0781 131.627 10.8096 131.832 10.5264C132.047 10.2432 132.276 9.98438 132.521 9.75C132.765 9.50586 133.023 9.30566 133.297 9.14941C133.57 8.99316 133.863 8.91504 134.176 8.91504C134.586 8.91504 134.898 9.01758 135.113 9.22266C135.328 9.42773 135.484 9.68652 135.582 9.99902C135.68 10.3018 135.733 10.6289 135.743 10.9805C135.753 11.3223 135.758 11.6348 135.758 11.918V12.0352C135.758 12.1523 135.753 12.2695 135.743 12.3867C135.743 12.4941 135.724 12.5967 135.685 12.6943C135.655 12.7822 135.597 12.8555 135.509 12.9141C135.431 12.9727 135.318 13.002 135.172 13.002C135.016 13.002 134.85 12.9824 134.674 12.9434C134.498 12.8945 134.332 12.8262 134.176 12.7383C134.029 12.6504 133.902 12.543 133.795 12.416C133.688 12.2793 133.629 12.123 133.619 11.9473C133.619 11.8691 133.619 11.791 133.619 11.7129C133.619 11.6348 133.624 11.5566 133.634 11.4785C133.634 11.4297 133.634 11.3711 133.634 11.3027C133.644 11.2246 133.648 11.1514 133.648 11.083C133.336 11.3955 133.058 11.7812 132.813 12.2402C132.579 12.6992 132.364 13.1875 132.169 13.7051C131.983 14.2227 131.822 14.7451 131.686 15.2725C131.549 15.79 131.432 16.2588 131.334 16.6787V16.7227C131.305 17.0254 131.285 17.3232 131.275 17.6162C131.266 17.9092 131.256 18.2119 131.246 18.5244C131.236 18.876 131.222 19.2324 131.202 19.5938C131.192 19.9551 131.168 20.3066 131.129 20.6484C131.109 20.834 131.051 20.9756 130.953 21.0732C130.865 21.1807 130.714 21.2344 130.499 21.2344ZM138.233 8.68066C138.233 8.84668 138.194 8.96875 138.116 9.04688C138.048 9.11523 137.916 9.14941 137.721 9.14941C137.633 9.14941 137.496 9.13965 137.311 9.12012C137.125 9.09082 136.935 9.05176 136.739 9.00293C136.554 8.9541 136.388 8.88574 136.241 8.79785C136.104 8.70996 136.036 8.60254 136.036 8.47559C136.036 8.43652 136.051 8.3291 136.08 8.15332C136.109 7.96777 136.144 7.77246 136.183 7.56738C136.231 7.3623 136.271 7.17676 136.3 7.01074C136.339 6.84473 136.368 6.75195 136.388 6.73242V6.74707C136.437 6.66895 136.495 6.62012 136.563 6.60059C136.632 6.58105 136.7 6.57129 136.769 6.57129C136.856 6.57129 136.969 6.58594 137.105 6.61523C137.252 6.63477 137.394 6.66895 137.53 6.71777C137.677 6.75684 137.809 6.81055 137.926 6.87891C138.043 6.94727 138.116 7.02051 138.146 7.09863C138.175 7.17676 138.189 7.28418 138.189 7.4209C138.199 7.54785 138.199 7.66504 138.189 7.77246C138.189 7.81152 138.185 7.86035 138.175 7.91895C138.175 7.96777 138.175 8.00684 138.175 8.03613C138.175 8.08496 138.175 8.13379 138.175 8.18262C138.185 8.23145 138.194 8.28027 138.204 8.3291C138.214 8.37793 138.219 8.43164 138.219 8.49023C138.229 8.54883 138.233 8.6123 138.233 8.68066ZM138.775 20.3555C138.775 20.5801 138.722 20.7412 138.614 20.8389C138.517 20.9268 138.355 20.9707 138.131 20.9707C138.014 20.9707 137.882 20.9561 137.735 20.9268C137.599 20.8975 137.462 20.8584 137.325 20.8096C137.188 20.751 137.062 20.6826 136.944 20.6045C136.827 20.5264 136.739 20.4385 136.681 20.3408C136.642 20.2822 136.607 20.1016 136.578 19.7988C136.549 19.4961 136.524 19.1201 136.505 18.6709C136.495 18.2217 136.48 17.7188 136.461 17.1621C136.451 16.6055 136.441 16.0439 136.432 15.4775C136.432 14.9111 136.432 14.3594 136.432 13.8223C136.432 13.2852 136.432 12.8164 136.432 12.416V11.2881C136.432 11.1904 136.432 11.0928 136.432 10.9951C136.441 10.8975 136.461 10.8145 136.49 10.7461C136.529 10.668 136.583 10.6045 136.651 10.5557C136.729 10.5068 136.837 10.4824 136.974 10.4824C137.403 10.4824 137.716 10.6045 137.911 10.8486C138.116 11.083 138.243 11.4004 138.292 11.8008C138.341 12.3965 138.375 12.9922 138.395 13.5879C138.424 14.1738 138.448 14.7695 138.468 15.375C138.487 15.9219 138.502 16.4639 138.512 17.001C138.531 17.5283 138.565 18.0557 138.614 18.583C138.624 18.6904 138.634 18.793 138.644 18.8906C138.653 18.9883 138.668 19.0859 138.688 19.1836C138.707 19.3789 138.727 19.5742 138.746 19.7695C138.766 19.9551 138.775 20.1504 138.775 20.3555ZM147.286 21.2197C147.286 21.3271 147.228 21.4248 147.11 21.5127C146.993 21.6006 146.856 21.6738 146.7 21.7324C146.554 21.791 146.402 21.835 146.246 21.8643C146.09 21.9033 145.968 21.9229 145.88 21.9229C145.714 21.9229 145.562 21.8887 145.426 21.8203C145.289 21.7617 145.162 21.6836 145.045 21.5859C144.928 21.4883 144.815 21.3809 144.708 21.2637C144.61 21.1465 144.518 21.0293 144.43 20.9121C144.088 20.4922 143.736 20.0234 143.375 19.5059C143.014 18.9883 142.691 18.4951 142.408 18.0264C142.408 18.0654 142.413 18.1143 142.423 18.1729C142.433 18.2314 142.438 18.2803 142.438 18.3193C142.457 18.5244 142.472 18.7295 142.481 18.9346C142.501 19.1299 142.525 19.3301 142.555 19.5352C142.564 19.6523 142.574 19.7695 142.584 19.8867C142.604 19.9941 142.623 20.1113 142.643 20.2383C142.662 20.3945 142.682 20.5508 142.701 20.707C142.721 20.8633 142.73 21.0244 142.73 21.1904C142.73 21.3955 142.672 21.5322 142.555 21.6006C142.438 21.6787 142.281 21.7178 142.086 21.7178C141.949 21.7178 141.803 21.708 141.646 21.6885C141.49 21.6689 141.339 21.6299 141.192 21.5713C141.046 21.5127 140.914 21.4346 140.797 21.3369C140.68 21.2393 140.592 21.1123 140.533 20.9561C140.504 20.8389 140.475 20.6191 140.445 20.2969C140.416 19.9746 140.392 19.6182 140.372 19.2275C140.353 18.8271 140.333 18.4268 140.313 18.0264C140.304 17.626 140.294 17.2939 140.284 17.0303C140.284 16.9717 140.279 16.9229 140.27 16.8838C140.27 16.8447 140.27 16.8057 140.27 16.7666C140.191 16.6982 140.123 16.6152 140.064 16.5176C140.006 16.4199 139.977 16.3271 139.977 16.2393C139.977 16.1123 140.001 16 140.05 15.9023C140.099 15.8047 140.152 15.7119 140.211 15.624C140.152 14.4229 140.123 13.2266 140.123 12.0352C140.123 11.0488 140.133 10.0723 140.152 9.10547C140.182 8.12891 140.206 7.15234 140.226 6.17578L140.27 4.21289C140.279 4.11523 140.284 3.98828 140.284 3.83203C140.284 3.67578 140.284 3.50977 140.284 3.33398C140.284 3.11914 140.284 2.89453 140.284 2.66016C140.284 2.42578 140.289 2.20605 140.299 2.00098C140.309 1.7959 140.318 1.61035 140.328 1.44434C140.338 1.27832 140.357 1.15625 140.387 1.07812V1.09277C140.426 0.946289 140.479 0.838867 140.548 0.770508C140.616 0.702148 140.733 0.667969 140.899 0.667969C141.31 0.667969 141.627 0.790039 141.852 1.03418C142.076 1.27832 142.188 1.60547 142.188 2.01562C142.188 2.66992 142.184 3.32422 142.174 3.97852C142.174 4.62305 142.169 5.27246 142.159 5.92676C142.149 6.58105 142.14 7.23535 142.13 7.88965C142.13 8.53418 142.13 9.18359 142.13 9.83789C142.13 10.0723 142.13 10.3115 142.13 10.5557C142.14 10.79 142.145 11.0293 142.145 11.2734C142.154 11.4688 142.159 11.6689 142.159 11.874C142.159 12.0791 142.159 12.2939 142.159 12.5186L143.741 9.99902V10.0137L143.873 9.75C143.902 9.70117 143.917 9.66699 143.917 9.64746C143.927 9.62793 143.937 9.60352 143.946 9.57422C143.966 9.53516 144 9.47656 144.049 9.39844C144.107 9.32031 144.205 9.20312 144.342 9.04688C144.391 8.99805 144.449 8.9541 144.518 8.91504C144.586 8.87598 144.674 8.85645 144.781 8.85645C144.889 8.85645 144.996 8.89062 145.104 8.95898C145.221 9.01758 145.323 9.0957 145.411 9.19336C145.499 9.29102 145.572 9.39844 145.631 9.51562C145.689 9.63281 145.719 9.74023 145.719 9.83789C145.719 9.91602 145.675 10.0527 145.587 10.248C145.499 10.4336 145.382 10.6631 145.235 10.9365C145.099 11.21 144.942 11.5078 144.767 11.8301C144.591 12.1426 144.405 12.46 144.21 12.7822C144.024 13.1045 143.844 13.417 143.668 13.7197C143.492 14.0225 143.336 14.291 143.199 14.5254L142.818 15.1406C143.043 15.5312 143.302 15.9658 143.595 16.4443C143.897 16.9131 144.215 17.3867 144.547 17.8652C144.879 18.3438 145.216 18.8027 145.558 19.2422C145.909 19.6816 146.251 20.0674 146.583 20.3994L146.729 20.5166C146.847 20.6045 146.969 20.7119 147.096 20.8389C147.223 20.9561 147.286 21.083 147.286 21.2197ZM152.501 18.3193C152.501 18.6123 152.418 18.915 152.252 19.2275C152.096 19.54 151.891 19.8281 151.637 20.0918C151.383 20.3457 151.09 20.5557 150.758 20.7217C150.436 20.8877 150.113 20.9707 149.791 20.9707C149.332 20.9707 148.937 20.8828 148.604 20.707C148.272 20.5215 147.984 20.2773 147.74 19.9746C147.496 19.6621 147.296 19.3105 147.14 18.9199C146.993 18.5293 146.876 18.1289 146.788 17.7188C146.7 17.2988 146.637 16.8838 146.598 16.4736C146.568 16.0537 146.554 15.6729 146.554 15.3311C146.554 15.0381 146.568 14.6914 146.598 14.291C146.637 13.8906 146.695 13.4756 146.773 13.0459C146.861 12.6162 146.979 12.1914 147.125 11.7715C147.271 11.3516 147.452 10.9756 147.667 10.6436C147.892 10.3115 148.155 10.043 148.458 9.83789C148.771 9.63281 149.127 9.53027 149.527 9.53027C149.84 9.53027 150.118 9.59375 150.362 9.7207C150.616 9.84766 150.826 10.0186 150.992 10.2334C151.168 10.4385 151.3 10.6777 151.388 10.9512C151.485 11.2246 151.534 11.5078 151.534 11.8008C151.534 12.1816 151.446 12.5967 151.271 13.0459C151.095 13.4951 150.865 13.9297 150.582 14.3496C150.309 14.7695 149.996 15.1504 149.645 15.4922C149.303 15.8242 148.961 16.0781 148.619 16.2539C148.639 16.4297 148.678 16.6885 148.736 17.0303C148.795 17.3623 148.873 17.6943 148.971 18.0264C149.078 18.3584 149.2 18.6465 149.337 18.8906C149.483 19.1348 149.654 19.2568 149.85 19.2568C149.947 19.2568 150.03 19.2275 150.099 19.1689C150.177 19.1104 150.245 19.0322 150.304 18.9346C150.362 18.8369 150.411 18.7295 150.45 18.6123C150.499 18.4951 150.543 18.3828 150.582 18.2754L150.67 18.0703C150.689 18.041 150.699 18.0215 150.699 18.0117C150.709 18.002 150.719 17.9873 150.729 17.9678C150.797 17.8408 150.86 17.7236 150.919 17.6162C150.987 17.5088 151.08 17.416 151.197 17.3379H151.183C151.222 17.2988 151.261 17.2793 151.3 17.2793C151.349 17.2695 151.393 17.2646 151.432 17.2646C151.539 17.2646 151.656 17.2988 151.783 17.3672C151.91 17.4355 152.027 17.5234 152.135 17.6309C152.242 17.7285 152.33 17.8408 152.398 17.9678C152.467 18.085 152.501 18.2021 152.501 18.3193ZM149.601 11.8594C149.601 11.7617 149.596 11.6592 149.586 11.5518C149.576 11.4443 149.552 11.3516 149.513 11.2734C149.376 11.4395 149.254 11.6396 149.146 11.874C149.049 12.0986 148.966 12.3379 148.897 12.5918C148.829 12.8359 148.771 13.085 148.722 13.3389C148.683 13.5928 148.653 13.8271 148.634 14.042C148.888 13.7393 149.112 13.3975 149.308 13.0166C149.503 12.626 149.601 12.2402 149.601 11.8594ZM163.81 20.8096C163.81 21.0049 163.761 21.1367 163.663 21.2051C163.565 21.2832 163.429 21.3223 163.253 21.3223C162.794 21.3223 162.462 21.2002 162.257 20.9561C162.062 20.7119 161.915 20.3896 161.817 19.9893C161.788 19.8525 161.759 19.7158 161.729 19.5791C161.7 19.4326 161.676 19.291 161.656 19.1543C161.637 19.0273 161.617 18.9395 161.598 18.8906C161.578 18.8418 161.559 18.749 161.539 18.6123C161.422 18.8955 161.275 19.1934 161.1 19.5059C160.934 19.8086 160.738 20.0918 160.514 20.3555C160.289 20.6094 160.035 20.8193 159.752 20.9854C159.479 21.1514 159.176 21.2344 158.844 21.2344C158.492 21.2344 158.199 21.1514 157.965 20.9854C157.73 20.8096 157.545 20.5947 157.408 20.3408C157.281 20.0771 157.188 19.7891 157.13 19.4766C157.081 19.1641 157.057 18.8662 157.057 18.583C157.057 17.9189 157.12 17.2012 157.247 16.4297C157.384 15.6484 157.569 14.8721 157.804 14.1006C158.038 13.3193 158.312 12.5723 158.624 11.8594C158.937 11.1367 159.278 10.5068 159.649 9.96973V9.98438L159.737 9.85254C159.845 9.70605 159.967 9.5498 160.104 9.38379C160.25 9.20801 160.421 9.12012 160.616 9.12012C160.802 9.12012 160.963 9.20312 161.1 9.36914C161.236 9.52539 161.334 9.69141 161.393 9.86719C161.646 9.91602 161.852 9.97949 162.008 10.0576C162.164 10.126 162.286 10.2139 162.374 10.3213C162.462 10.4287 162.521 10.5557 162.55 10.7021C162.579 10.8389 162.594 10.9902 162.594 11.1562C162.594 11.2246 162.594 11.2979 162.594 11.376C162.594 11.4541 162.589 11.5322 162.579 11.6104C162.569 11.6885 162.564 11.7812 162.564 11.8887C162.564 11.9961 162.564 12.0938 162.564 12.1816C162.564 12.2793 162.579 12.4062 162.608 12.5625C162.647 12.7188 162.687 12.8799 162.726 13.0459L162.828 13.5879C162.877 13.8711 162.916 14.1934 162.945 14.5547C162.984 14.916 163.028 15.2773 163.077 15.6387C163.116 16.0098 163.155 16.3711 163.194 16.7227C163.233 17.0645 163.272 17.3818 163.312 17.6748L163.663 19.8428L163.707 20.0918C163.727 20.2188 163.746 20.3359 163.766 20.4434C163.795 20.5508 163.81 20.6729 163.81 20.8096ZM160.455 12.3867C160.455 12.3672 160.45 12.3379 160.44 12.2988C160.431 12.25 160.421 12.2012 160.411 12.1523C160.187 12.6309 159.986 13.1533 159.811 13.7197C159.645 14.2764 159.503 14.8477 159.386 15.4336C159.278 16.0098 159.195 16.5908 159.137 17.1768C159.088 17.7529 159.063 18.2998 159.063 18.8174C159.063 18.8662 159.063 18.9102 159.063 18.9492C159.063 18.9883 159.068 19.0273 159.078 19.0664V19.0811C159.312 18.7197 159.513 18.2461 159.679 17.6602C159.854 17.0645 160.001 16.4443 160.118 15.7998C160.235 15.1455 160.318 14.5156 160.367 13.9102C160.426 13.2949 160.455 12.7871 160.455 12.3867ZM171.178 17.1914C171.178 17.6602 171.173 18.0898 171.163 18.4805C171.163 18.8711 171.173 19.3008 171.192 19.7695L171.456 19.5791L171.617 19.4766C172.096 19.0957 172.511 18.6318 172.862 18.085C173.224 17.5283 173.521 16.9375 173.756 16.3125C173.99 15.6875 174.161 15.0479 174.269 14.3936C174.386 13.7295 174.444 13.0996 174.444 12.5039C174.444 12.3867 174.439 12.2256 174.43 12.0205C174.43 11.8057 174.41 11.5957 174.371 11.3906C174.332 11.1855 174.273 11.0098 174.195 10.8633C174.117 10.707 174.005 10.6289 173.858 10.6289C173.624 10.6289 173.385 10.7705 173.141 11.0537C172.896 11.3369 172.667 11.6738 172.452 12.0645C172.247 12.4551 172.062 12.8506 171.896 13.251C171.729 13.6416 171.607 13.9492 171.529 14.1738C171.529 14.1836 171.524 14.1885 171.515 14.1885C171.515 14.1885 171.515 14.1934 171.515 14.2031V14.2178C171.456 14.3545 171.393 14.501 171.324 14.6572C171.266 14.8135 171.227 14.96 171.207 15.0967C171.188 15.2334 171.173 15.3896 171.163 15.5654C171.153 15.7314 171.148 15.9072 171.148 16.0928C171.148 16.1904 171.148 16.2881 171.148 16.3857C171.158 16.4736 171.163 16.5566 171.163 16.6348C171.163 16.7422 171.163 16.8447 171.163 16.9424C171.173 17.0303 171.178 17.1133 171.178 17.1914ZM171.983 30.5801C171.983 30.7949 171.925 30.9414 171.808 31.0195C171.69 31.0977 171.534 31.1367 171.339 31.1367C171.104 31.1367 170.846 31.0977 170.562 31.0195C170.279 30.9512 170.055 30.8193 169.889 30.624C169.84 30.5557 169.791 30.3555 169.742 30.0234C169.703 29.6914 169.664 29.3008 169.625 28.8516C169.586 28.4121 169.552 27.9531 169.522 27.4746C169.493 27.0059 169.464 26.5908 169.435 26.2295L169.376 25.4531C169.259 23.3633 169.2 21.2734 169.2 19.1836C169.2 17.9629 169.22 16.7666 169.259 15.5947C169.308 14.4131 169.356 13.2168 169.405 12.0059L169.464 10.4678C169.464 10.3115 169.464 10.1602 169.464 10.0137C169.474 9.85742 169.493 9.70605 169.522 9.55957C169.571 9.43262 169.63 9.33496 169.698 9.2666C169.776 9.18848 169.898 9.14941 170.064 9.14941C170.484 9.14941 170.792 9.27637 170.987 9.53027C171.183 9.77441 171.295 10.0771 171.324 10.4385C171.637 10.0088 172.008 9.66699 172.438 9.41309C172.877 9.15918 173.38 9.03223 173.946 9.03223C174.425 9.03223 174.825 9.13965 175.147 9.35449C175.479 9.56934 175.743 9.84766 175.938 10.1895C176.134 10.5215 176.271 10.8975 176.349 11.3174C176.437 11.7275 176.48 12.1328 176.48 12.5332C176.48 13.3047 176.412 14.0762 176.275 14.8477C176.139 15.6094 175.924 16.3516 175.631 17.0742C175.348 17.7871 174.986 18.4658 174.547 19.1104C174.107 19.7451 173.59 20.3115 172.994 20.8096C172.916 20.8779 172.823 20.9512 172.716 21.0293C172.608 21.1074 172.496 21.1807 172.379 21.249C172.262 21.3174 172.14 21.376 172.013 21.4248C171.896 21.4736 171.788 21.498 171.69 21.498C171.583 21.498 171.49 21.4736 171.412 21.4248C171.334 21.376 171.266 21.3174 171.207 21.249C171.227 21.9229 171.251 22.6211 171.28 23.3438C171.319 24.0664 171.363 24.7891 171.412 25.5117C171.461 26.2441 171.52 26.9668 171.588 27.6797C171.666 28.3926 171.759 29.0811 171.866 29.7451C171.896 29.8721 171.92 30.0039 171.939 30.1406C171.969 30.2871 171.983 30.4336 171.983 30.5801ZM183.731 14.9941C183.731 15.8438 183.658 16.6934 183.512 17.543C183.375 18.3828 183.087 19.1787 182.647 19.9307C182.511 20.1553 182.354 20.375 182.179 20.5898C182.003 20.7949 181.808 20.9805 181.593 21.1465C181.388 21.3223 181.158 21.459 180.904 21.5566C180.66 21.6641 180.401 21.7178 180.128 21.7178C179.698 21.7178 179.322 21.6152 179 21.4102C178.688 21.2148 178.414 20.9561 178.18 20.6338C177.955 20.3018 177.765 19.9307 177.608 19.5205C177.462 19.1006 177.345 18.6758 177.257 18.2461C177.179 17.8066 177.12 17.3818 177.081 16.9717C177.052 16.5615 177.037 16.2002 177.037 15.8877C177.037 15.5361 177.052 15.1504 177.081 14.7305C177.11 14.3105 177.159 13.8809 177.228 13.4414C177.306 13.002 177.403 12.5674 177.521 12.1377C177.647 11.708 177.809 11.3076 178.004 10.9365C178.199 10.5557 178.434 10.2188 178.707 9.92578C178.98 9.62305 179.298 9.38379 179.659 9.20801V9.22266C179.972 9.05664 180.284 8.97363 180.597 8.97363C180.792 8.97363 180.943 9.01758 181.051 9.10547C181.158 9.18359 181.207 9.32031 181.197 9.51562C181.734 9.61328 182.169 9.87207 182.501 10.292C182.833 10.7119 183.087 11.2002 183.263 11.7568C183.448 12.3135 183.57 12.8848 183.629 13.4707C183.697 14.0566 183.731 14.5645 183.731 14.9941ZM180.421 11.332C180.255 11.332 180.099 11.2686 179.952 11.1416C179.767 11.4248 179.61 11.752 179.483 12.123C179.356 12.4844 179.254 12.8604 179.176 13.251C179.107 13.6318 179.059 14.0176 179.029 14.4082C179 14.7988 178.985 15.165 178.985 15.5068C178.985 15.79 179 16.1562 179.029 16.6055C179.059 17.0449 179.112 17.4893 179.19 17.9385C179.278 18.3877 179.396 18.8076 179.542 19.1982C179.698 19.5889 179.898 19.877 180.143 20.0625C180.445 19.8867 180.694 19.6084 180.89 19.2275C181.095 18.8369 181.256 18.4121 181.373 17.9531C181.49 17.4941 181.568 17.0303 181.607 16.5615C181.656 16.0928 181.681 15.6924 181.681 15.3604C181.681 15.1162 181.666 14.7988 181.637 14.4082C181.607 14.0176 181.559 13.6221 181.49 13.2217C181.422 12.8115 181.324 12.4307 181.197 12.0791C181.08 11.7275 180.929 11.4639 180.743 11.2881C180.655 11.3174 180.548 11.332 180.421 11.332ZM189.752 10.2627C189.752 10.3799 189.708 10.4775 189.62 10.5557C189.542 10.6338 189.444 10.7021 189.327 10.7607C189.21 10.8096 189.088 10.8438 188.961 10.8633C188.844 10.8828 188.746 10.8926 188.668 10.8926C188.551 10.8926 188.438 10.8828 188.331 10.8633C188.224 10.834 188.116 10.8047 188.009 10.7754C187.901 10.7461 187.799 10.7217 187.701 10.7021C187.604 10.6729 187.501 10.6582 187.394 10.6582C187.247 10.6582 187.101 10.6826 186.954 10.7314C186.808 10.7803 186.676 10.8486 186.559 10.9365C186.441 11.0244 186.344 11.1318 186.266 11.2588C186.197 11.3857 186.163 11.5273 186.163 11.6836C186.163 11.918 186.212 12.1523 186.31 12.3867C186.407 12.6113 186.534 12.8408 186.69 13.0752C186.856 13.3096 187.042 13.5488 187.247 13.793C187.462 14.0273 187.687 14.2666 187.921 14.5107C188.204 14.8232 188.487 15.1406 188.771 15.4629C189.063 15.7852 189.322 16.1221 189.547 16.4736C189.781 16.8252 189.972 17.1963 190.118 17.5869C190.265 17.9775 190.338 18.3877 190.338 18.8174C190.338 19.1885 190.274 19.5205 190.147 19.8135C190.03 20.1064 189.859 20.3555 189.635 20.5605C189.42 20.7656 189.156 20.9219 188.844 21.0293C188.541 21.1465 188.209 21.2051 187.848 21.2051C187.75 21.2051 187.599 21.1855 187.394 21.1465C187.198 21.1074 186.974 21.0537 186.72 20.9854C186.466 20.9072 186.202 20.8242 185.929 20.7363C185.665 20.6484 185.421 20.5557 185.196 20.458C184.981 20.3506 184.801 20.248 184.654 20.1504C184.518 20.043 184.449 19.9453 184.449 19.8574C184.449 19.7402 184.503 19.623 184.61 19.5059C184.718 19.3789 184.845 19.2666 184.991 19.1689C185.138 19.0615 185.289 18.9736 185.445 18.9053C185.611 18.8369 185.748 18.8027 185.855 18.8027C186.002 18.8027 186.153 18.8369 186.31 18.9053C186.476 18.9736 186.642 19.0518 186.808 19.1396C186.993 19.2373 187.179 19.3252 187.364 19.4033C187.56 19.4814 187.76 19.5205 187.965 19.5205C188.121 19.5205 188.209 19.4668 188.229 19.3594C188.258 19.252 188.272 19.1299 188.272 18.9932C188.272 18.6514 188.214 18.3291 188.097 18.0264C187.979 17.7139 187.828 17.4111 187.643 17.1182C187.457 16.8252 187.242 16.542 186.998 16.2686C186.754 15.9854 186.51 15.707 186.266 15.4336C186.012 15.1602 185.763 14.8867 185.519 14.6133C185.284 14.3398 185.074 14.0615 184.889 13.7783C184.703 13.4854 184.552 13.1875 184.435 12.8848C184.327 12.582 184.273 12.2598 184.273 11.918C184.273 11.498 184.366 11.1221 184.552 10.79C184.737 10.4482 184.977 10.1553 185.27 9.91113C185.572 9.66699 185.909 9.48145 186.28 9.35449C186.661 9.21777 187.042 9.14941 187.423 9.14941C187.55 9.14941 187.745 9.17871 188.009 9.2373C188.272 9.28613 188.531 9.35938 188.785 9.45703C189.039 9.55469 189.264 9.67188 189.459 9.80859C189.654 9.94531 189.752 10.0967 189.752 10.2627ZM196.739 18.3193C196.739 18.6123 196.656 18.915 196.49 19.2275C196.334 19.54 196.129 19.8281 195.875 20.0918C195.621 20.3457 195.328 20.5557 194.996 20.7217C194.674 20.8877 194.352 20.9707 194.029 20.9707C193.57 20.9707 193.175 20.8828 192.843 20.707C192.511 20.5215 192.223 20.2773 191.979 19.9746C191.734 19.6621 191.534 19.3105 191.378 18.9199C191.231 18.5293 191.114 18.1289 191.026 17.7188C190.938 17.2988 190.875 16.8838 190.836 16.4736C190.807 16.0537 190.792 15.6729 190.792 15.3311C190.792 15.0381 190.807 14.6914 190.836 14.291C190.875 13.8906 190.934 13.4756 191.012 13.0459C191.1 12.6162 191.217 12.1914 191.363 11.7715C191.51 11.3516 191.69 10.9756 191.905 10.6436C192.13 10.3115 192.394 10.043 192.696 9.83789C193.009 9.63281 193.365 9.53027 193.766 9.53027C194.078 9.53027 194.356 9.59375 194.601 9.7207C194.854 9.84766 195.064 10.0186 195.23 10.2334C195.406 10.4385 195.538 10.6777 195.626 10.9512C195.724 11.2246 195.772 11.5078 195.772 11.8008C195.772 12.1816 195.685 12.5967 195.509 13.0459C195.333 13.4951 195.104 13.9297 194.82 14.3496C194.547 14.7695 194.234 15.1504 193.883 15.4922C193.541 15.8242 193.199 16.0781 192.857 16.2539C192.877 16.4297 192.916 16.6885 192.975 17.0303C193.033 17.3623 193.111 17.6943 193.209 18.0264C193.316 18.3584 193.438 18.6465 193.575 18.8906C193.722 19.1348 193.893 19.2568 194.088 19.2568C194.186 19.2568 194.269 19.2275 194.337 19.1689C194.415 19.1104 194.483 19.0322 194.542 18.9346C194.601 18.8369 194.649 18.7295 194.688 18.6123C194.737 18.4951 194.781 18.3828 194.82 18.2754L194.908 18.0703C194.928 18.041 194.938 18.0215 194.938 18.0117C194.947 18.002 194.957 17.9873 194.967 17.9678C195.035 17.8408 195.099 17.7236 195.157 17.6162C195.226 17.5088 195.318 17.416 195.436 17.3379H195.421C195.46 17.2988 195.499 17.2793 195.538 17.2793C195.587 17.2695 195.631 17.2646 195.67 17.2646C195.777 17.2646 195.895 17.2988 196.021 17.3672C196.148 17.4355 196.266 17.5234 196.373 17.6309C196.48 17.7285 196.568 17.8408 196.637 17.9678C196.705 18.085 196.739 18.2021 196.739 18.3193ZM193.839 11.8594C193.839 11.7617 193.834 11.6592 193.824 11.5518C193.814 11.4443 193.79 11.3516 193.751 11.2734C193.614 11.4395 193.492 11.6396 193.385 11.874C193.287 12.0986 193.204 12.3379 193.136 12.5918C193.067 12.8359 193.009 13.085 192.96 13.3389C192.921 13.5928 192.892 13.8271 192.872 14.042C193.126 13.7393 193.351 13.3975 193.546 13.0166C193.741 12.626 193.839 12.2402 193.839 11.8594Z" fill="black"/>
<path id="Vector" d="M154.942 45.9261C154.191 45.1269 154.029 43.9463 152.758 43.1244C152.758 43.6444 152.667 43.9453 152.772 44.1751C153.45 45.6581 154.111 47.1513 154.897 48.589C155.419 49.5437 156.178 49.6819 156.982 48.9534C158.032 48.0022 158.976 46.9484 159.874 45.8775C160.217 45.4674 160.555 44.8996 159.926 44.2422C158.493 44.8176 158.057 46.2658 156.796 47.1241C156.753 46.8567 156.696 46.7002 156.707 46.5475C156.932 43.4191 156.676 40.3083 156.34 37.1959C156.14 35.3406 156.072 33.4741 155.915 31.6147C155.879 31.1895 155.774 30.7512 155.589 30.3615C155.502 30.1794 155.155 30.0188 154.912 30.0005C154.749 29.9882 154.455 30.2192 154.406 30.3851C154.285 30.7963 154.195 31.2369 154.226 31.6581C154.44 34.6001 154.695 37.5397 154.921 40.4811C155.059 42.2786 155.167 44.078 155.289 45.8765C155.173 45.893 155.058 45.9096 154.942 45.9261Z" fill="black"/>
</g>
</svg>
