<svg width="39" height="54" viewBox="0 0 39 54" fill="none" xmlns="http://www.w3.org/2000/svg">
<path d="M27.8613 19.2009C29.6201 19.6721 31.0793 20.2483 31.4282 22.0718C31.7151 23.5832 30.8099 24.4961 29.602 25.3408C30.1285 26.8654 29.6601 28.1465 28.5419 28.9103C28.5038 32.1655 28.4866 35.1671 28.4409 38.1679C28.3943 41.0681 28.3452 43.9599 28.2129 46.8574C28.1839 47.5715 27.9325 48.3316 27.5897 48.9716C27.0579 49.9687 26.0221 50.3329 24.9133 50.0217C23.8355 49.7199 22.9101 49.1631 22.287 48.2165C21.2478 46.6479 20.1788 45.1064 19.2044 43.5008C16.9977 39.8878 14.8447 36.2317 12.6704 32.6002C12.6173 32.5147 12.5083 32.4638 12.4229 32.3969C12.316 32.4187 12.1993 32.4067 12.111 32.4598C10.794 33.2536 9.47147 33.2793 8.24074 32.4169C6.9159 31.4902 6.46206 30.1187 6.7191 28.5963C6.88456 27.6045 7.29696 26.6511 7.58509 25.7245C6.64065 24.3852 5.6081 23.0347 4.68758 21.6151C2.13576 17.6896 2.4838 13.6482 4.67542 9.68686C7.92274 3.83428 15.3995 1.57702 21.5622 4.29165C26.0057 6.24873 28.2308 9.59982 28.7297 14.2207C28.9166 15.9078 28.6343 17.5383 27.8725 19.2069L27.8613 19.2009ZM9.50283 25.279C9.17819 25.7213 8.91013 26.0006 8.73123 26.3273C8.08824 27.4941 7.69706 28.7163 8.07283 30.0462C8.60779 31.9257 10.4275 32.3792 11.8697 31.0084C12.2387 30.6541 12.6214 30.3141 13.0676 29.9008C13.4767 30.6621 13.7251 31.2591 14.0831 31.7786C14.6113 32.5603 15.4408 32.8516 16.3801 32.7078C17.2735 32.5682 17.8459 31.9717 18.1645 31.1829C18.3238 30.7886 18.2946 30.3296 18.4229 29.9259C18.5235 29.6218 18.7481 29.3552 18.9906 28.955C19.3317 29.3511 19.558 29.5788 19.7457 29.836C20.3495 30.6509 21.129 31.0299 22.1635 30.6936C23.1868 30.3514 23.37 29.5835 23.3614 28.6421C23.3608 28.1841 23.6321 27.7206 23.8371 27.0931C24.4537 27.5285 24.8374 27.8114 25.2424 28.0698C25.8691 28.4748 26.5441 28.5909 27.2764 28.3513C28.7933 27.8569 29.1189 26.5713 28.0334 25.4286C27.911 25.2991 27.8696 25.0911 27.7526 24.8501C28.2065 24.6911 28.5744 24.5937 28.9277 24.4456C30.5112 23.7578 30.7524 22.1483 29.392 21.1311C28.9339 20.7872 28.3337 20.6037 27.7807 20.3881C27.3964 20.2337 26.992 20.14 26.4253 19.9743C27.6717 16.9831 27.6275 14.1276 26.5727 11.2348C25.4773 8.23462 23.2981 6.4098 20.3761 5.2767C16.4374 3.7599 9.66083 4.20144 6.57975 8.86951C5.02671 11.2255 4.07417 13.7008 4.30005 16.4671C4.61038 20.1437 6.65537 22.9055 9.51644 25.2934L9.50283 25.279ZM20.2648 36.513C21.4952 35.3227 22.581 34.2842 23.6344 33.2643C22.7309 31.3174 20.7227 32.3298 19.7275 31.5642C18.6656 32.5224 17.7272 33.3532 16.7252 34.2574C17.8596 34.9827 18.9805 35.6936 20.2648 36.513ZM24.7 33.8171C23.5394 34.923 22.4537 35.9615 21.3442 37.0159C22.6092 37.7034 23.7602 38.3231 24.983 38.9953C25.8403 37.6565 27.6514 36.8753 27.1045 34.8893C26.3348 34.5441 25.5986 34.2166 24.6888 33.8111L24.7 33.8171ZM20.1511 37.9114C19.5047 38.3827 18.9144 38.8194 18.2593 39.2933C18.8278 40.2466 19.2701 41.0899 19.8134 41.8582C20.1912 42.3811 20.7517 42.851 21.4495 42.264C22.2544 41.591 23.0111 40.8495 23.8761 40.0582C22.5518 39.2963 21.4419 38.6556 20.1424 37.9139L20.1511 37.9114ZM21.86 43.2906C23.2419 43.9259 24.4305 44.4798 25.4964 44.9683C27.3518 43.9819 27.2071 42.6033 26.9287 41.1535C26.2379 40.9504 25.6202 40.7719 24.9604 40.5781C23.9747 41.441 23.0189 42.2768 21.86 43.2906ZM23.7019 48.054C24.578 48.7992 25.3526 49.1614 26.2486 48.6727C27.0475 48.2397 27.0717 47.5087 26.8219 46.6463C25.3698 46.1597 24.7848 47.4288 23.7019 48.054ZM24.7438 29.149C24.3869 29.903 24.0487 30.6241 23.6667 31.4221C24.0023 31.6365 24.3404 31.8593 24.7813 32.144C25.4292 31.2873 26.0223 30.5015 26.6677 29.6364C25.8937 29.4391 25.3231 29.2928 24.7414 29.1405L24.7438 29.149ZM19.2111 37.3039C18.0669 36.5448 17.1108 35.9144 16.1524 35.2756C16.0651 35.365 15.984 35.4435 15.8967 35.5329C16.4876 36.4982 17.0697 37.4659 17.7161 38.525C18.2493 38.0865 18.6243 37.7854 19.2111 37.3039ZM21.4956 44.67C22.0671 45.5034 22.6016 46.2741 23.2028 47.1447C23.6775 46.7323 24.0688 46.3899 24.3018 46.1849C23.3738 45.6839 22.4904 45.2066 21.4931 44.6616L21.4956 44.67ZM27.2249 31.2346C27.1257 31.2175 27.0327 31.1894 26.9334 31.1724C26.5476 31.6965 26.1618 32.2206 25.7172 32.8351C26.306 33.077 26.6816 33.2339 27.2791 33.4733C27.2616 32.5986 27.2433 31.9166 27.2336 31.232L27.2249 31.2346ZM27.0895 40.0806C27.0611 39.429 27.0467 39.0208 27.0123 38.3159C26.5493 38.8991 26.3146 39.1962 26.0101 39.5776C26.3484 39.7362 26.5752 39.8355 27.0895 40.0806Z" fill="black"/>
<path d="M9.50288 25.279C6.64181 22.8911 4.59442 20.1208 4.28654 16.4527C4.05195 13.6889 5.0132 11.2111 6.56625 8.85511C9.64732 4.18704 16.4238 3.74551 20.3625 5.2623C23.2933 6.39288 25.4725 8.2177 26.5591 11.2204C27.6139 14.1132 27.6582 16.9687 26.4117 19.9599C26.9698 20.1282 27.3829 20.2193 27.7672 20.3737C28.3201 20.5893 28.9204 20.7729 29.3784 21.1167C30.7389 22.134 30.4976 23.7434 28.9141 24.4312C28.572 24.5853 28.1954 24.6852 27.7391 24.8357C27.8561 25.0767 27.8974 25.2847 28.0198 25.4142C29.1054 26.5569 28.7773 27.8341 27.2629 28.3369C26.5218 28.579 25.8468 28.4629 25.2289 28.0554C24.8239 27.797 24.4488 27.5116 23.8235 27.0787C23.6186 27.7062 23.3472 28.1697 23.3479 28.6277C23.3564 29.5691 23.1757 30.3455 22.1499 30.6792C21.1092 31.0265 20.336 30.6365 19.7321 29.8216C19.5444 29.5644 19.3181 29.3367 18.9771 28.9406C18.7432 29.3383 18.5099 29.6075 18.4093 29.9115C18.2723 30.3178 18.3015 30.7767 18.1509 31.1685C17.8348 31.9658 17.2624 32.5623 16.3666 32.6934C15.4272 32.8372 14.6065 32.5434 14.0695 31.7642C13.7115 31.2447 13.4656 30.6561 13.054 29.8864C12.6078 30.2998 12.2364 30.6456 11.8562 30.994C10.4053 32.3673 8.58552 31.9138 8.05927 30.0318C7.67724 28.7128 8.07712 27.4882 8.71766 26.3129C8.89656 25.9862 9.16223 25.6984 9.48932 25.2646L9.50288 25.279ZM18.6062 17.2721C17.7692 16.0757 16.7718 15.5307 15.4501 15.3636C15.9434 16.8062 17.0196 17.4933 18.6062 17.2721ZM14.9209 22.4267C14.2745 21.0744 13.4458 20.5904 12.1948 20.7328C12.7577 22.1552 13.3039 22.5102 14.9209 22.4267ZM11.5015 13.2265C10.3611 14.5649 10.1169 15.7079 10.6183 16.9831C11.5267 15.886 11.9062 14.7864 11.5015 13.2265ZM20.625 12.7467C20.1745 11.4843 19.2057 10.9401 17.7265 10.7179C18.3342 12.0998 19.2481 12.7148 20.625 12.7467ZM18.9412 22.4994C20.4016 22.4613 20.8027 21.8595 20.3853 20.3858C19.8681 21.1404 19.4521 21.7558 18.9412 22.4994Z" fill="white"/>
<path d="M20.2648 36.513C18.9805 35.6936 17.8597 34.9827 16.7253 34.2574C17.736 33.3507 18.6632 32.5139 19.7275 31.5641C20.7227 32.3298 22.7396 31.3149 23.6344 33.2643C22.581 34.2842 21.4952 35.3226 20.2648 36.513Z" fill="white"/>
<path d="M24.7 33.817C25.601 34.225 26.3373 34.5525 27.1156 34.8952C27.6539 36.8837 25.8428 37.6649 24.9942 39.0012C23.7627 38.3315 22.6092 37.7034 21.3554 37.0218C22.4648 35.9674 23.5506 34.9289 24.7111 33.823L24.7 33.817Z" fill="white"/>
<path d="M20.1511 37.9114C21.4531 38.6615 22.5606 39.2938 23.8848 40.0557C23.0112 40.8495 22.2631 41.5885 21.4582 42.2615C20.7581 42.84 20.1999 42.3785 19.8221 41.8556C19.2702 41.0899 18.8341 40.2356 18.268 39.2907C18.9144 38.8194 19.5072 38.3911 20.1598 37.9089L20.1511 37.9114Z" fill="white"/>
<path d="M21.86 43.2906C23.019 42.2767 23.9747 41.4409 24.9604 40.578C25.6289 40.7693 26.2379 40.9503 26.9287 41.1535C27.2071 42.6032 27.3518 43.9818 25.4964 44.9683C24.4305 44.4797 23.2419 43.9259 21.86 43.2906Z" fill="white"/>
<path d="M23.702 48.054C24.7848 47.4288 25.3699 46.1596 26.8219 46.6463C27.0717 47.5087 27.0476 48.2397 26.2486 48.6727C25.3613 49.1588 24.5868 48.7966 23.702 48.054Z" fill="white"/>
<path d="M24.7439 29.149C25.3232 29.2928 25.8937 29.4391 26.6702 29.6449C26.0223 30.5016 25.4292 31.2873 24.7838 32.1525C24.3429 31.8678 24.0048 31.6449 23.6692 31.4306C24.0487 30.6242 24.3894 29.9115 24.7463 29.1575L24.7439 29.149Z" fill="white"/>
<path d="M19.2111 37.3039C18.6243 37.7854 18.258 38.084 17.7161 38.525C17.0698 37.4659 16.4789 36.5007 15.8968 35.5329C15.9841 35.4435 16.0651 35.365 16.1524 35.2756C17.1084 35.9059 18.0669 36.5448 19.2111 37.3039Z" fill="white"/>
<path d="M21.4956 44.67C22.4905 45.2066 23.3739 45.6839 24.3043 46.1934C24.0713 46.3983 23.68 46.7408 23.2052 47.1532C22.6041 46.2826 22.0695 45.5119 21.498 44.6785L21.4956 44.67Z" fill="white"/>
<path d="M27.225 31.2346C27.2433 31.9166 27.2529 32.6011 27.2704 33.4758C26.6816 33.2339 26.2974 33.0795 25.7085 32.8376C26.1618 32.2207 26.5389 31.699 26.9247 31.1749C27.024 31.192 27.117 31.22 27.2162 31.2371L27.225 31.2346Z" fill="white"/>
<path d="M27.0896 40.0806C26.5777 39.8439 26.3484 39.7362 26.0101 39.5776C26.3146 39.1962 26.5555 38.8881 27.0123 38.3159C27.0405 39.0317 27.0612 39.429 27.0896 40.0806Z" fill="white"/>
<path d="M18.6062 17.2721C17.0196 17.4933 15.9434 16.8062 15.4501 15.3636C16.7718 15.5307 17.7716 16.0842 18.6062 17.2721Z" fill="black"/>
<path d="M14.9209 22.4267C13.3039 22.5101 12.7552 22.1467 12.1948 20.7328C13.4458 20.5904 14.2745 21.0743 14.9209 22.4267Z" fill="black"/>
<path d="M11.5015 13.2266C11.9037 14.778 11.5354 15.8835 10.6183 16.9831C10.1168 15.7079 10.3611 14.5649 11.5015 13.2266Z" fill="black"/>
<path d="M20.625 12.7467C19.2481 12.7148 18.3342 12.0998 17.7264 10.7179C19.2081 10.9486 20.1769 11.4927 20.625 12.7467Z" fill="black"/>
<path d="M18.9412 22.4994C19.4521 21.7557 19.8681 21.1404 20.3853 20.3858C20.8027 21.8594 20.4016 22.4613 18.9412 22.4994Z" fill="black"/>
</svg>
