<svg width="147" height="31" viewBox="0 0 147 31" fill="none" xmlns="http://www.w3.org/2000/svg">
<g id="restart">
<g id="restart_2">
<path id="Vector" d="M24.6108 12.3111C24.6136 12.2467 24.8312 11.7452 25.1885 11.0681C25.4457 10.5807 25.6574 10.3457 25.7709 10.2203C25.878 10.102 26.2844 9.62773 26.8695 9.00373C27.1171 8.73957 27.2618 8.5755 27.4864 8.36359C27.9423 7.93356 28.4352 7.65458 28.7993 7.47412C28.9356 7.40656 29.1799 7.33987 29.7279 7.20817C30.0885 7.1215 30.6307 7.05919 31.378 7.03299C32.1253 7.0068 33.0648 7.03512 33.6603 7.07072C34.4811 7.11979 34.7822 7.21918 34.9119 7.27224C35.1651 7.37584 35.5487 7.62661 36.0735 8.10246C36.4038 8.40198 36.5913 8.6708 36.7428 8.93577C37.0254 9.43002 37.2161 9.99902 37.303 10.3698C37.4338 10.9621 37.6175 11.7857 37.6237 11.9293C37.6299 12.0134 37.6424 12.1203 37.6552 12.2617M23.9829 9.56832C24.0012 9.59837 24.0283 9.64924 24.0676 9.74691C24.1263 9.89293 24.1532 10.5437 24.1645 11.4428C24.1729 12.1137 24.068 12.4499 24.0619 12.6043C24.0612 12.6216 24.1161 12.5765 24.67 12.3566C25.2238 12.1367 26.2933 11.7293 27.0254 11.4735C27.7575 11.2177 28.1199 11.1258 28.501 11.0232M24.8254 14.9773C24.837 15.0813 24.9508 15.595 25.1639 16.2366C25.2681 16.5505 25.4393 16.8135 25.6433 17.0863C26.0664 17.6519 26.4605 17.988 26.7296 18.1895C27.3704 18.6692 27.6378 18.7347 27.8705 18.8377C28.0724 18.927 28.2597 19.0227 28.3873 19.0683C28.4822 19.1023 28.908 19.2281 29.543 19.3919C29.8742 19.4773 30.2934 19.5769 30.8885 19.6746C31.3236 19.7459 31.5659 19.7471 31.8219 19.7651C32.021 19.7791 32.3623 19.7712 32.6882 19.7222C33.3247 19.6266 33.7324 19.4001 33.9183 19.2769C34.224 19.0743 34.7116 18.7124 35.1731 18.21C35.4596 17.898 35.7856 17.4044 36.0252 17.0415L36.033 17.0297C36.6095 16.1566 36.757 15.8486 36.9083 15.5722C36.9425 15.5103 36.9744 15.4604 37.0075 15.4041C37.0406 15.3478 37.0739 15.2867 37.1082 15.2079M34.0533 16.5599C34.0533 16.5547 34.3089 16.4821 34.9686 16.2616C35.3776 16.1249 35.9176 15.882 36.2926 15.7096C36.8648 15.4464 37.1264 15.2543 37.2567 15.1455C37.3118 15.0995 37.3412 15.0681 37.382 15.2224C37.5105 15.708 37.5371 16.3222 37.5599 16.7372C37.6263 17.4132 37.7028 18.2705 37.7132 18.3436L37.7139 18.3492C37.7189 18.3849 37.7241 18.4227 37.7365 18.4896" stroke="black" stroke-linecap="round"/>
</g>
<rect id="Rectangle 8" x="0.5" y="0.5" width="145.17" height="29.8191" stroke="black"/>
<path id="restart_3" d="M56.9124 17.2272H58.1204V14.1872H56.9124V13.6432H58.7604V14.6832H58.8004C58.8857 14.3579 59.0457 14.1046 59.2804 13.9232C59.5204 13.7366 59.8244 13.6432 60.1924 13.6432H60.7684V14.2832H59.9924C59.6244 14.2832 59.3257 14.3899 59.0964 14.6032C58.8724 14.8166 58.7604 15.0966 58.7604 15.4432V17.2272H60.3604V17.7712H56.9124V17.2272ZM63.5653 17.8672C63.2666 17.8672 62.9973 17.8166 62.7573 17.7152C62.5226 17.6139 62.3199 17.4699 62.1493 17.2832C61.9839 17.0912 61.8559 16.8646 61.7653 16.6032C61.6746 16.3366 61.6293 16.0406 61.6293 15.7152C61.6293 15.3846 61.6746 15.0859 61.7653 14.8192C61.8613 14.5526 61.9919 14.3259 62.1573 14.1392C62.3226 13.9472 62.5199 13.8006 62.7493 13.6992C62.9839 13.5979 63.2426 13.5472 63.5253 13.5472C63.8026 13.5472 64.0533 13.5979 64.2773 13.6992C64.5066 13.8006 64.7013 13.9419 64.8613 14.1232C65.0213 14.2992 65.1439 14.5099 65.2293 14.7552C65.3146 15.0006 65.3573 15.2699 65.3573 15.5632V15.8672H62.3013V16.0592C62.3013 16.2406 62.3306 16.4086 62.3893 16.5632C62.4479 16.7179 62.5306 16.8512 62.6373 16.9632C62.7493 17.0752 62.8826 17.1632 63.0373 17.2272C63.1973 17.2859 63.3733 17.3152 63.5653 17.3152C63.8426 17.3152 64.0826 17.2512 64.2853 17.1232C64.4879 16.9952 64.6426 16.8192 64.7493 16.5952L65.2213 16.9152C65.0986 17.1926 64.8933 17.4219 64.6053 17.6032C64.3226 17.7792 63.9759 17.8672 63.5653 17.8672ZM63.5253 14.0752C63.3493 14.0752 63.1866 14.1072 63.0373 14.1712C62.8879 14.2352 62.7573 14.3232 62.6453 14.4352C62.5386 14.5472 62.4533 14.6806 62.3893 14.8352C62.3306 14.9846 62.3013 15.1499 62.3013 15.3312V15.3872H64.6693V15.2992C64.6693 15.1179 64.6399 14.9526 64.5813 14.8032C64.5279 14.6539 64.4506 14.5259 64.3493 14.4192C64.2533 14.3072 64.1333 14.2219 63.9893 14.1632C63.8506 14.1046 63.6959 14.0752 63.5253 14.0752ZM68.3381 17.8672C67.9061 17.8672 67.5328 17.7952 67.2181 17.6512C66.9088 17.5019 66.6448 17.3046 66.4261 17.0592L66.8581 16.6832C67.0555 16.8912 67.2715 17.0512 67.5061 17.1632C67.7408 17.2752 68.0235 17.3312 68.3541 17.3312C68.6741 17.3312 68.9355 17.2752 69.1381 17.1632C69.3461 17.0459 69.4501 16.8646 69.4501 16.6192C69.4501 16.5126 69.4288 16.4246 69.3861 16.3552C69.3488 16.2806 69.2955 16.2219 69.2261 16.1792C69.1568 16.1366 69.0795 16.1046 68.9941 16.0832C68.9088 16.0566 68.8181 16.0352 68.7221 16.0192L68.0741 15.9232C67.9301 15.9019 67.7728 15.8726 67.6021 15.8352C67.4368 15.7979 67.2848 15.7392 67.1461 15.6592C67.0075 15.5739 66.8901 15.4619 66.7941 15.3232C66.7035 15.1846 66.6581 15.0032 66.6581 14.7792C66.6581 14.5712 66.6981 14.3926 66.7781 14.2432C66.8635 14.0886 66.9808 13.9606 67.1301 13.8592C67.2795 13.7526 67.4555 13.6752 67.6581 13.6272C67.8608 13.5739 68.0821 13.5472 68.3221 13.5472C68.6955 13.5472 69.0181 13.6059 69.2901 13.7232C69.5675 13.8406 69.8048 14.0032 70.0021 14.2112L69.5861 14.6032C69.5381 14.5446 69.4768 14.4859 69.4021 14.4272C69.3328 14.3632 69.2448 14.3072 69.1381 14.2592C69.0368 14.2059 68.9168 14.1632 68.7781 14.1312C68.6395 14.0992 68.4795 14.0832 68.2981 14.0832C67.9728 14.0832 67.7221 14.1392 67.5461 14.2512C67.3755 14.3632 67.2901 14.5259 67.2901 14.7392C67.2901 14.8459 67.3088 14.9366 67.3461 15.0112C67.3888 15.0806 67.4448 15.1366 67.5141 15.1792C67.5835 15.2219 67.6608 15.2566 67.7461 15.2832C67.8368 15.3046 67.9275 15.3232 68.0181 15.3392L68.6661 15.4352C68.8155 15.4566 68.9728 15.4859 69.1381 15.5232C69.3035 15.5606 69.4555 15.6219 69.5941 15.7072C69.7328 15.7872 69.8475 15.8966 69.9381 16.0352C70.0341 16.1739 70.0821 16.3552 70.0821 16.5792C70.0821 16.9899 69.9221 17.3072 69.6021 17.5312C69.2875 17.7552 68.8661 17.8672 68.3381 17.8672ZM73.287 17.7712C72.9723 17.7712 72.7403 17.6832 72.591 17.5072C72.447 17.3312 72.375 17.1046 72.375 16.8272V14.1872H70.999V13.6432H72.023C72.1617 13.6432 72.2577 13.6166 72.311 13.5632C72.3697 13.5046 72.399 13.4059 72.399 13.2672V12.1872H73.015V13.6432H74.895V14.1872H73.015V17.2272H74.895V17.7712H73.287ZM79.4439 17.7712C79.1932 17.7712 79.0146 17.7072 78.9079 17.5792C78.8012 17.4512 78.7346 17.2912 78.7079 17.0992H78.6679C78.5772 17.3392 78.4306 17.5286 78.2279 17.6672C78.0306 17.8006 77.7639 17.8672 77.4279 17.8672C76.9959 17.8672 76.6519 17.7552 76.3959 17.5312C76.1399 17.3072 76.0119 17.0006 76.0119 16.6112C76.0119 16.2272 76.1506 15.9312 76.4279 15.7232C76.7106 15.5152 77.1639 15.4112 77.7879 15.4112H78.6679V15.0032C78.6679 14.6992 78.5826 14.4726 78.4119 14.3232C78.2412 14.1686 77.9986 14.0912 77.6839 14.0912C77.4066 14.0912 77.1799 14.1472 77.0039 14.2592C76.8279 14.3659 76.6866 14.5126 76.5799 14.6992L76.1479 14.3792C76.2012 14.2726 76.2732 14.1686 76.3639 14.0672C76.4546 13.9659 76.5666 13.8779 76.6999 13.8032C76.8332 13.7232 76.9852 13.6619 77.1559 13.6192C77.3266 13.5712 77.5159 13.5472 77.7239 13.5472C78.2092 13.5472 78.5932 13.6699 78.8759 13.9152C79.1639 14.1606 79.3079 14.5019 79.3079 14.9392V17.2112H79.8839V17.7712H79.4439ZM77.5399 17.3312C77.7052 17.3312 77.8546 17.3126 77.9879 17.2752C78.1266 17.2326 78.2466 17.1792 78.3479 17.1152C78.4492 17.0459 78.5266 16.9659 78.5799 16.8752C78.6386 16.7792 78.6679 16.6779 78.6679 16.5712V15.8912H77.7879C77.4039 15.8912 77.1239 15.9446 76.9479 16.0512C76.7719 16.1579 76.6839 16.3126 76.6839 16.5152V16.6832C76.6839 16.8966 76.7586 17.0592 76.9079 17.1712C77.0626 17.2779 77.2732 17.3312 77.5399 17.3312ZM80.8968 17.2272H82.1048V14.1872H80.8968V13.6432H82.7448V14.6832H82.7848C82.8701 14.3579 83.0301 14.1046 83.2648 13.9232C83.5048 13.7366 83.8088 13.6432 84.1768 13.6432H84.7528V14.2832H83.9768C83.6088 14.2832 83.3101 14.3899 83.0808 14.6032C82.8568 14.8166 82.7448 15.0966 82.7448 15.4432V17.2272H84.3448V17.7712H80.8968V17.2272ZM87.6776 17.7712C87.363 17.7712 87.131 17.6832 86.9816 17.5072C86.8376 17.3312 86.7656 17.1046 86.7656 16.8272V14.1872H85.3896V13.6432H86.4136C86.5523 13.6432 86.6483 13.6166 86.7016 13.5632C86.7603 13.5046 86.7896 13.4059 86.7896 13.2672V12.1872H87.4056V13.6432H89.2856V14.1872H87.4056V17.2272H89.2856V17.7712H87.6776Z" fill="black"/>
</g>
</svg>
