<svg width="147" height="31" viewBox="0 0 147 31" fill="none" xmlns="http://www.w3.org/2000/svg">
<g id="share">
<g id="share_2">
<path id="Vector" d="M33.0043 10.2092C32.9074 10.175 32.5012 10.127 32.1585 10.1812C31.7367 10.2479 31.5708 10.4671 31.4174 10.7201C31.3354 10.8553 31.3288 11.0224 31.3309 11.1652C31.3351 11.4408 31.774 11.8139 32.038 11.9884C32.4096 12.2339 32.832 11.8249 33.1404 11.5881C33.3901 11.3963 33.5293 11.1975 33.5868 11.0622C33.6696 10.8672 33.6492 10.6183 33.5485 10.3992C33.4648 10.2553 33.3872 10.1657 33.3094 10.0975C33.2708 10.065 33.2341 10.037 33.1858 10.0185M26.5976 14.4419C26.4928 14.3792 26.0692 14.2254 25.7021 14.2187C25.2849 14.2111 25.1045 14.4972 24.7841 14.9765C24.6214 15.22 24.6533 15.6996 24.6618 16.2556C24.6664 16.5539 25.146 16.628 25.5362 16.7129C26.1401 16.8442 26.8216 16.475 27.0824 16.314C27.3804 16.1301 27.3553 15.5158 27.3611 15.0742C27.3308 14.8753 27.2767 14.7098 27.2005 14.5903C27.1577 14.5416 27.1065 14.5174 27.0432 14.4819M33.2331 18.1582C33.152 18.1083 32.7921 17.9671 32.3944 17.9046C32.0744 17.8543 31.779 18.0098 31.4898 18.2547C31.0253 18.6481 31.3507 19.8385 31.4004 19.9351C31.5287 20.1849 32.5279 20.1944 33.2104 20.128C33.5418 20.0957 33.8403 19.6741 33.9616 19.3948C33.8846 19.0511 33.6764 18.7918 33.4895 18.6096C33.4487 18.5554 33.4163 18.4845 33.3724 18.3297M27.2184 15.0809C27.2115 15.0671 27.7446 14.5766 28.6529 13.7768C29.1944 13.3 29.7982 12.9569 30.4049 12.5928C30.7687 12.3441 31.2878 12.0301 31.6315 11.796C31.6742 11.7612 31.7112 11.7325 31.7905 11.661M27.2127 16.3144C27.2127 16.3075 27.9403 16.6376 29.1115 17.1814C29.9793 17.5844 30.3675 17.7819 30.6675 17.9377C30.7588 17.9776 30.8664 18.0149 30.9523 18.0425C31.0381 18.0702 31.0991 18.0873 31.1722 18.1048" stroke="black" stroke-linecap="round"/>
</g>
<rect id="Rectangle 7" x="0.5" y="0.5" width="145.17" height="29.8191" stroke="black"/>
<path id="share_3" d="M63.3533 18.5058C62.9213 18.5058 62.5479 18.4338 62.2333 18.2898C61.9239 18.1405 61.6599 17.9431 61.4413 17.6978L61.8733 17.3218C62.0706 17.5298 62.2866 17.6898 62.5213 17.8018C62.7559 17.9138 63.0386 17.9698 63.3693 17.9698C63.6893 17.9698 63.9506 17.9138 64.1533 17.8018C64.3613 17.6845 64.4653 17.5031 64.4653 17.2578C64.4653 17.1511 64.4439 17.0631 64.4013 16.9938C64.3639 16.9191 64.3106 16.8605 64.2413 16.8178C64.1719 16.7751 64.0946 16.7431 64.0093 16.7218C63.9239 16.6951 63.8333 16.6738 63.7373 16.6578L63.0893 16.5618C62.9453 16.5405 62.7879 16.5111 62.6173 16.4738C62.4519 16.4365 62.2999 16.3778 62.1613 16.2978C62.0226 16.2125 61.9053 16.1005 61.8093 15.9618C61.7186 15.8231 61.6733 15.6418 61.6733 15.4178C61.6733 15.2098 61.7133 15.0311 61.7933 14.8818C61.8786 14.7271 61.9959 14.5991 62.1453 14.4978C62.2946 14.3911 62.4706 14.3138 62.6733 14.2658C62.8759 14.2125 63.0973 14.1858 63.3373 14.1858C63.7106 14.1858 64.0333 14.2445 64.3053 14.3618C64.5826 14.4791 64.8199 14.6418 65.0173 14.8498L64.6013 15.2418C64.5533 15.1831 64.4919 15.1245 64.4173 15.0658C64.3479 15.0018 64.2599 14.9458 64.1533 14.8978C64.0519 14.8445 63.9319 14.8018 63.7933 14.7698C63.6546 14.7378 63.4946 14.7218 63.3133 14.7218C62.9879 14.7218 62.7373 14.7778 62.5613 14.8898C62.3906 15.0018 62.3053 15.1645 62.3053 15.3778C62.3053 15.4845 62.3239 15.5751 62.3613 15.6498C62.4039 15.7191 62.4599 15.7751 62.5293 15.8178C62.5986 15.8605 62.6759 15.8951 62.7613 15.9218C62.8519 15.9431 62.9426 15.9618 63.0333 15.9778L63.6813 16.0738C63.8306 16.0951 63.9879 16.1245 64.1533 16.1618C64.3186 16.1991 64.4706 16.2605 64.6093 16.3458C64.7479 16.4258 64.8626 16.5351 64.9533 16.6738C65.0493 16.8125 65.0973 16.9938 65.0973 17.2178C65.0973 17.6285 64.9373 17.9458 64.6173 18.1698C64.3026 18.3938 63.8813 18.5058 63.3533 18.5058ZM66.4861 12.4898H67.1261V14.9538H67.1581C67.2008 14.8525 67.2541 14.7565 67.3181 14.6658C67.3821 14.5698 67.4595 14.4871 67.5501 14.4178C67.6461 14.3485 67.7581 14.2925 67.8861 14.2498C68.0141 14.2071 68.1635 14.1858 68.3341 14.1858C68.7661 14.1858 69.1128 14.3245 69.3741 14.6018C69.6355 14.8738 69.7661 15.2605 69.7661 15.7618V18.4098H69.1261V15.8738C69.1261 15.4951 69.0435 15.2151 68.8781 15.0338C68.7128 14.8471 68.4701 14.7538 68.1501 14.7538C68.0221 14.7538 67.8968 14.7698 67.7741 14.8018C67.6515 14.8338 67.5421 14.8818 67.4461 14.9458C67.3501 15.0098 67.2728 15.0925 67.2141 15.1938C67.1555 15.2951 67.1261 15.4125 67.1261 15.5458V18.4098H66.4861V12.4898ZM74.459 18.4098C74.2084 18.4098 74.0297 18.3458 73.923 18.2178C73.8164 18.0898 73.7497 17.9298 73.723 17.7378H73.683C73.5924 17.9778 73.4457 18.1671 73.243 18.3058C73.0457 18.4391 72.779 18.5058 72.443 18.5058C72.011 18.5058 71.667 18.3938 71.411 18.1698C71.155 17.9458 71.027 17.6391 71.027 17.2498C71.027 16.8658 71.1657 16.5698 71.443 16.3618C71.7257 16.1538 72.179 16.0498 72.803 16.0498H73.683V15.6418C73.683 15.3378 73.5977 15.1111 73.427 14.9618C73.2564 14.8071 73.0137 14.7298 72.699 14.7298C72.4217 14.7298 72.195 14.7858 72.019 14.8978C71.843 15.0045 71.7017 15.1511 71.595 15.3378L71.163 15.0178C71.2164 14.9111 71.2884 14.8071 71.379 14.7058C71.4697 14.6045 71.5817 14.5165 71.715 14.4418C71.8484 14.3618 72.0004 14.3005 72.171 14.2578C72.3417 14.2098 72.531 14.1858 72.739 14.1858C73.2244 14.1858 73.6084 14.3085 73.891 14.5538C74.179 14.7991 74.323 15.1405 74.323 15.5778V17.8498H74.899V18.4098H74.459ZM72.555 17.9698C72.7204 17.9698 72.8697 17.9511 73.003 17.9138C73.1417 17.8711 73.2617 17.8178 73.363 17.7538C73.4644 17.6845 73.5417 17.6045 73.595 17.5138C73.6537 17.4178 73.683 17.3165 73.683 17.2098V16.5298H72.803C72.419 16.5298 72.139 16.5831 71.963 16.6898C71.787 16.7965 71.699 16.9511 71.699 17.1538V17.3218C71.699 17.5351 71.7737 17.6978 71.923 17.8098C72.0777 17.9165 72.2884 17.9698 72.555 17.9698ZM75.9119 17.8658H77.1199V14.8258H75.9119V14.2818H77.7599V15.3218H77.7999C77.8852 14.9965 78.0452 14.7431 78.2799 14.5618C78.5199 14.3751 78.8239 14.2818 79.1919 14.2818H79.7679V14.9218H78.9919C78.6239 14.9218 78.3252 15.0285 78.0959 15.2418C77.8719 15.4551 77.7599 15.7351 77.7599 16.0818V17.8658H79.3599V18.4098H75.9119V17.8658ZM82.5648 18.5058C82.2661 18.5058 81.9968 18.4551 81.7568 18.3538C81.5221 18.2525 81.3194 18.1085 81.1488 17.9218C80.9834 17.7298 80.8554 17.5031 80.7648 17.2418C80.6741 16.9751 80.6288 16.6791 80.6288 16.3538C80.6288 16.0231 80.6741 15.7245 80.7648 15.4578C80.8608 15.1911 80.9914 14.9645 81.1568 14.7778C81.3221 14.5858 81.5194 14.4391 81.7488 14.3378C81.9834 14.2365 82.2421 14.1858 82.5248 14.1858C82.8021 14.1858 83.0528 14.2365 83.2768 14.3378C83.5061 14.4391 83.7008 14.5805 83.8608 14.7618C84.0208 14.9378 84.1434 15.1485 84.2288 15.3938C84.3141 15.6391 84.3568 15.9085 84.3568 16.2018V16.5058H81.3008V16.6978C81.3008 16.8791 81.3301 17.0471 81.3888 17.2018C81.4474 17.3565 81.5301 17.4898 81.6368 17.6018C81.7488 17.7138 81.8821 17.8018 82.0368 17.8658C82.1968 17.9245 82.3728 17.9538 82.5648 17.9538C82.8421 17.9538 83.0821 17.8898 83.2848 17.7618C83.4874 17.6338 83.6421 17.4578 83.7488 17.2338L84.2208 17.5538C84.0981 17.8311 83.8928 18.0605 83.6048 18.2418C83.3221 18.4178 82.9754 18.5058 82.5648 18.5058ZM82.5248 14.7138C82.3488 14.7138 82.1861 14.7458 82.0368 14.8098C81.8874 14.8738 81.7568 14.9618 81.6448 15.0738C81.5381 15.1858 81.4528 15.3191 81.3888 15.4738C81.3301 15.6231 81.3008 15.7885 81.3008 15.9698V16.0258H83.6688V15.9378C83.6688 15.7565 83.6394 15.5911 83.5808 15.4418C83.5274 15.2925 83.4501 15.1645 83.3488 15.0578C83.2528 14.9458 83.1328 14.8605 82.9888 14.8018C82.8501 14.7431 82.6954 14.7138 82.5248 14.7138Z" fill="black"/>
</g>
</svg>
