<svg width="37" height="48" viewBox="0 0 37 48" fill="none" xmlns="http://www.w3.org/2000/svg">
<path d="M13.4305 46.4845C13.83 44.7586 15.3609 37.466 16.8701 31.9358C18.169 27.1765 18.3053 22.7232 21.8449 5.78873C22.661 1.88461 23.3786 0.22525 23.8681 1.34133C28.0507 10.8785 27.1005 20.6766 28.7636 26.9703C30.3641 33.0273 32.521 35.6664 32.2373 37.3746C31.7561 40.2723 18.2763 32.1178 11.763 28.954C7.55598 26.9105 4.4256 25.7722 1.75394 24.3049C-2.58133 21.9238 12.8729 17.5499 20.4012 15.3024C22.9543 14.5402 28.002 13.5257 33.8766 12.4346C35.7187 12.0925 35.3162 12.6153 34.5524 13.915C30.6054 20.6313 28.4993 23.9815 24.1823 29.6947C20.4739 34.6026 19.066 37.5425 16.8584 41.491C16.3432 42.3552 16.0283 42.8881 15.6862 43.473C15.344 44.0578 14.9842 44.6784 14.0682 46.1218" stroke="black" stroke-width="2" stroke-linecap="round"/>
</svg>
